<svg xmlns="http://www.w3.org/2000/svg" width="19" height="19" viewBox="0 0 19 19">
                <defs><style>.aba {
                                      fill: #f06724;
                                    }
                
                                    .bab {
                                      fill: #fff;
                                    }</style></defs>
                <g transform="translate(-1462 -10074)">
                <rect class="aba" width="19" height="19" rx="4" transform="translate(1462 10074)"></rect>
                <g transform="translate(1466.387 10079.442)">
                <g transform="translate(0 0)">
                <path class="bab" d="M10.82,49.041a4.625,4.625,0,0,1-1.278.35,2.206,2.206,0,0,0,.976-1.226,4.433,4.433,0,0,1-1.407.537,2.218,2.218,0,0,0-3.837,1.517,2.284,2.284,0,0,0,.051.506A6.279,6.279,0,0,1,.753,48.4a2.219,2.219,0,0,0,.682,2.965,2.191,2.191,0,0,1-1-.273v.024A2.228,2.228,0,0,0,2.21,53.3a2.214,2.214,0,0,1-.582.073,1.961,1.961,0,0,1-.42-.038A2.239,2.239,0,0,0,3.281,54.88a4.457,4.457,0,0,1-2.75.946A4.154,4.154,0,0,1,0,55.8a6.245,6.245,0,0,0,3.4,1,6.27,6.27,0,0,0,6.313-6.312c0-.1,0-.193-.008-.287A4.425,4.425,0,0,0,10.82,49.041Z" transform="translate(0 -48)"></path>
                </g>
                </g>
                </g>
                </svg>