<svg xmlns="http://www.w3.org/2000/svg" width="19" height="19" viewBox="0 0 19 19">
                <defs><style>.aaa {
                                      fill: #f06724;
                                    }
                
                                    .bbb {
                                      fill: #fff;
                                    }</style></defs>
                <g transform="translate(-1559 -9713)">
                <rect class="aaa" width="19" height="19" rx="4" transform="translate(1559 9713)"></rect>
                <path class="bbb" d="M11.668,4.708l.015.1a1.513,1.513,0,0,0-1.028-1.05l-.01,0A35.363,35.363,0,0,0,5.971,3.5,34.585,34.585,0,0,0,1.3,3.753,1.513,1.513,0,0,0,.262,4.795l0,.01a16.633,16.633,0,0,0,.015,5.94l-.015-.1A1.513,1.513,0,0,0,1.288,11.7l.01,0a35.286,35.286,0,0,0,4.674.253,35.37,35.37,0,0,0,4.674-.253,1.513,1.513,0,0,0,1.036-1.042l0-.01a15.544,15.544,0,0,0,.249-2.808c0-.036,0-.073,0-.11s0-.074,0-.114a16.037,16.037,0,0,0-.264-2.907ZM4.777,9.541V5.915L7.892,7.731Z" transform="translate(1562.529 9715.048)"></path>
                </g>
                </svg>