<svg width="33" height="33" viewBox="0 0 33 33" fill="none" xmlns="http://www.w3.org/2000/svg">
<g clip-path="url(#clip0_1_162)">
<path d="M30.8566 16.188C30.3099 15.7269 29.6066 15.4938 28.8927 15.5369C28.1787 15.5801 27.5087 15.8963 27.0215 16.42L24.2915 19.3506C24.1145 18.7832 23.7609 18.2871 23.2822 17.9346C22.8036 17.5821 22.2249 17.3916 21.6304 17.3909H16.7583C16.3883 17.3909 16.2653 17.2499 15.6223 16.755C14.4332 15.7226 12.9103 15.1558 11.3355 15.1594C9.76062 15.1631 8.24042 15.737 7.05613 16.775L5.2651 18.3508C4.87306 18.1413 4.43644 18.0291 3.99197 18.0235C3.54751 18.0179 3.10821 18.1192 2.71105 18.3188L0.658007 19.3446C0.437915 19.4553 0.270713 19.6487 0.193094 19.8824C0.115476 20.1162 0.133784 20.3712 0.243999 20.5915L5.81711 31.7351C5.9274 31.9552 6.12052 32.1226 6.35411 32.2006C6.5877 32.2786 6.84268 32.2607 7.06313 32.151L9.11717 31.1241C9.59516 30.8856 9.99442 30.5146 10.2673 30.0554C10.5402 29.5963 10.6752 29.0683 10.6562 28.5345H21.6304C22.6391 28.532 23.6335 28.296 24.5357 27.845C25.4379 27.3939 26.2233 26.7401 26.8305 25.9348L31.2896 19.9906C31.7186 19.422 31.9128 18.7105 31.8322 18.0029C31.7516 17.2953 31.4024 16.6456 30.8566 16.188ZM8.28416 29.4624L7.06113 30.0743L2.31904 20.5915L3.54306 19.9796C3.65211 19.9249 3.77087 19.8923 3.89253 19.8836C4.01419 19.8749 4.13638 19.8902 4.25211 19.9288C4.36784 19.9673 4.47483 20.0283 4.56697 20.1082C4.65911 20.1881 4.73459 20.2854 4.78909 20.3945L8.70017 28.2165C8.81019 28.4369 8.82818 28.6919 8.75017 28.9256C8.67215 29.1592 8.50453 29.3523 8.28416 29.4624ZM29.8046 18.8747L25.3445 24.8189C24.9108 25.3945 24.3497 25.8617 23.7052 26.1841C23.0606 26.5064 22.3501 26.675 21.6294 26.6767H10.0062L6.52612 19.7166L8.28416 18.1698C9.13309 17.4259 10.2234 17.0158 11.3522 17.0158C12.481 17.0158 13.5713 17.4259 14.4203 18.1698C14.7174 18.4978 15.0778 18.7625 15.4797 18.9478C15.8816 19.1332 16.3169 19.2355 16.7593 19.2486H21.6314C21.8778 19.2486 22.1141 19.3465 22.2883 19.5207C22.4626 19.6949 22.5604 19.9312 22.5604 20.1775C22.5604 20.4239 22.4626 20.6601 22.2883 20.8343C22.1141 21.0085 21.8778 21.1064 21.6314 21.1064H16.8863C16.6399 21.1064 16.4036 21.2043 16.2294 21.3785C16.0552 21.5527 15.9573 21.7889 15.9573 22.0353C15.9573 22.2817 16.0552 22.5179 16.2294 22.6921C16.4036 22.8663 16.6399 22.9642 16.8863 22.9642H22.2524C22.6349 22.9638 23.0133 22.8848 23.364 22.7323C23.7147 22.5797 24.0304 22.3568 24.2915 22.0773L28.3806 17.6888C28.5431 17.5174 28.765 17.4143 29.0009 17.4006C29.2368 17.3868 29.4691 17.4636 29.6505 17.6151C29.8318 17.7666 29.9486 17.9815 29.9771 18.2161C30.0055 18.4506 29.9435 18.6872 29.8036 18.8777L29.8046 18.8747Z" fill="#F06724" stroke="#F06724" stroke-width="0.2"/>
<path d="M19.6742 6.88725C20.3343 6.19818 20.7026 5.28074 20.7022 4.32657C20.7052 3.33476 20.3167 2.38182 19.6211 1.67473C18.9255 0.967627 17.979 0.563476 16.9871 0.550049C15.9894 0.562999 15.0362 0.965039 14.3306 1.67049C13.6251 2.37593 13.223 3.329 13.21 4.32657C13.2112 5.28908 13.5929 6.2121 14.2721 6.89425C13.3922 7.3819 12.658 8.095 12.145 8.96027C11.632 9.82553 11.3586 10.8118 11.353 11.8176V12.7465C11.353 12.9929 11.4509 13.2291 11.6251 13.4033C11.7993 13.5775 12.0356 13.6754 12.282 13.6754H21.6322C21.8786 13.6754 22.1149 13.5775 22.2891 13.4033C22.4633 13.2291 22.5612 12.9929 22.5612 12.7465V11.8176C22.5605 10.8137 22.2927 9.82798 21.7854 8.96159C21.278 8.09521 20.5494 7.3793 19.6742 6.88725ZM16.9871 2.40781C17.4858 2.42266 17.9589 2.63147 18.3059 2.98983C18.6529 3.34818 18.8464 3.82778 18.8451 4.32657C18.8446 4.81912 18.6487 5.29134 18.3004 5.63963C17.952 5.98791 17.4797 6.18381 16.9871 6.18434C16.4882 6.1856 16.0086 5.99217 15.6502 5.64521C15.2918 5.29825 15.0829 4.82515 15.0681 4.32657C15.081 3.82175 15.2873 3.34117 15.6444 2.9841C16.0016 2.62702 16.4822 2.42072 16.9871 2.40781ZM13.21 11.8186C13.223 10.8211 13.6251 9.86799 14.3306 9.16254C15.0362 8.45709 15.9894 8.05505 16.9871 8.0421C17.9802 8.05161 18.929 8.45452 19.6255 9.16247C20.3219 9.87043 20.7091 10.8256 20.7022 11.8186H13.21Z" fill="#F06724" stroke="#F06724" stroke-width="0.2"/>
</g>
<defs>
<clipPath id="clip0_1_162">
<rect width="32.0986" height="31.943" fill="white" transform="translate(0 0.449951)"/>
</clipPath>
</defs>
</svg>
