<svg width="31" height="31" viewBox="0 0 31 31" fill="none" xmlns="http://www.w3.org/2000/svg">
<g clip-path="url(#clip0_1_146)">
<path d="M26.1093 4.40845H18.1093C17.8751 4.40845 17.6505 4.50147 17.485 4.66707C17.3194 4.83266 17.2263 5.05726 17.2263 5.29144C17.2263 5.52563 17.3194 5.75022 17.485 5.91582C17.6505 6.08141 17.8751 6.17445 18.1093 6.17445H26.1093C26.3435 6.17445 26.5681 6.08141 26.7337 5.91582C26.8993 5.75022 26.9923 5.52563 26.9923 5.29144C26.9923 5.05726 26.8993 4.83266 26.7337 4.66707C26.5681 4.50147 26.3435 4.40845 26.1093 4.40845Z" fill="#F06724" stroke="white" stroke-width="0.2"/>
<path d="M15.2092 4.40845H11.4402C11.206 4.40845 10.9814 4.50147 10.8158 4.66707C10.6502 4.83266 10.5572 5.05726 10.5572 5.29144C10.5572 5.52563 10.6502 5.75022 10.8158 5.91582C10.9814 6.08141 11.206 6.17445 11.4402 6.17445H15.2092C15.4434 6.17445 15.668 6.08141 15.8336 5.91582C15.9992 5.75022 16.0922 5.52563 16.0922 5.29144C16.0922 5.05726 15.9992 4.83266 15.8336 4.66707C15.668 4.50147 15.4434 4.40845 15.2092 4.40845Z" fill="#F06724" stroke="white" stroke-width="0.2"/>
<path d="M26.1104 7.52905H20.6374C20.4032 7.52905 20.1786 7.62208 20.013 7.78767C19.8474 7.95327 19.7544 8.17786 19.7544 8.41205C19.7544 8.64623 19.8474 8.87083 20.013 9.03642C20.1786 9.20202 20.4032 9.29505 20.6374 9.29505H26.1104C26.3446 9.29505 26.5692 9.20202 26.7348 9.03642C26.9004 8.87083 26.9934 8.64623 26.9934 8.41205C26.9934 8.17786 26.9004 7.95327 26.7348 7.78767C26.5692 7.62208 26.3446 7.52905 26.1104 7.52905Z" fill="#F06724" stroke="white" stroke-width="0.2"/>
<path d="M14.0142 19.5996C13.8984 19.5997 13.7838 19.6227 13.6769 19.6672C13.57 19.7116 13.4729 19.7767 13.3912 19.8587C13.3095 19.9407 13.2447 20.038 13.2006 20.1451C13.1565 20.2521 13.134 20.3669 13.1342 20.4826V20.8196C13.1342 21.053 13.2269 21.2768 13.392 21.4419C13.557 21.6069 13.7808 21.6996 14.0142 21.6996C14.2476 21.6996 14.4714 21.6069 14.6365 21.4419C14.8015 21.2768 14.8942 21.053 14.8942 20.8196V20.4826C14.8945 20.3669 14.8719 20.2521 14.8278 20.1451C14.7837 20.038 14.719 19.9407 14.6372 19.8587C14.5555 19.7767 14.4584 19.7116 14.3515 19.6672C14.2446 19.6227 14.13 19.5997 14.0142 19.5996Z" fill="#F06724" stroke="white" stroke-width="0.2"/>
<path d="M8.22009 20.8195V20.4825C8.22009 20.2492 8.12737 20.0253 7.96234 19.8603C7.79731 19.6953 7.57348 19.6025 7.34009 19.6025C7.1067 19.6025 6.88287 19.6953 6.71783 19.8603C6.5528 20.0253 6.46008 20.2492 6.46008 20.4825V20.8195C6.46008 21.0529 6.5528 21.2767 6.71783 21.4418C6.88287 21.6068 7.1067 21.6995 7.34009 21.6995C7.57348 21.6995 7.79731 21.6068 7.96234 21.4418C8.12737 21.2767 8.22009 21.0529 8.22009 20.8195Z" fill="#F06724" stroke="white" stroke-width="0.2"/>
<path d="M10.6802 23.2045C10.9139 23.204 11.1379 23.1107 11.3029 22.9451C11.4679 22.7796 11.5604 22.5553 11.5602 22.3215V20.4825C11.5602 20.2492 11.4675 20.0253 11.3024 19.8603C11.1374 19.6953 10.9136 19.6025 10.6802 19.6025C10.4468 19.6025 10.223 19.6953 10.0579 19.8603C9.89289 20.0253 9.80017 20.2492 9.80017 20.4825V22.3215C9.79991 22.5553 9.89243 22.7796 10.0574 22.9451C10.2224 23.1107 10.4464 23.204 10.6802 23.2045Z" fill="#F06724" stroke="white" stroke-width="0.2"/>
<path d="M12.6591 23.7632C12.4254 23.7637 12.2014 23.857 12.0364 24.0226C11.8714 24.1881 11.7789 24.4124 11.7792 24.6462C11.7792 24.7906 11.7507 24.9337 11.6954 25.0671C11.6401 25.2006 11.5591 25.3219 11.457 25.424C11.3548 25.5262 11.2336 25.6072 11.1001 25.6624C10.9667 25.7177 10.8236 25.7462 10.6792 25.7462C10.5347 25.7462 10.3917 25.7177 10.2582 25.6624C10.1248 25.6072 10.0035 25.5262 9.90134 25.424C9.79919 25.3219 9.71817 25.2006 9.66289 25.0671C9.60761 24.9337 9.57915 24.7906 9.57915 24.6462C9.57915 24.5306 9.55639 24.4162 9.51216 24.3094C9.46794 24.2027 9.40313 24.1056 9.32141 24.0239C9.2397 23.9422 9.14269 23.8774 9.03592 23.8332C8.92915 23.7889 8.81472 23.7662 8.69916 23.7662C8.58359 23.7662 8.46916 23.7889 8.3624 23.8332C8.25563 23.8774 8.15862 23.9422 8.0769 24.0239C7.99519 24.1056 7.93036 24.2027 7.88614 24.3094C7.84191 24.4162 7.81915 24.5306 7.81915 24.6462C7.81915 25.4051 8.12064 26.1329 8.65727 26.6696C9.19391 27.2062 9.92173 27.5077 10.6806 27.5077C11.4396 27.5077 12.1674 27.2062 12.704 26.6696C13.2407 26.1329 13.5422 25.4051 13.5422 24.6462C13.5423 24.5302 13.5195 24.4153 13.4752 24.3081C13.4309 24.2009 13.3658 24.1035 13.2838 24.0215C13.2018 23.9395 13.1044 23.8745 12.9972 23.8301C12.89 23.7858 12.7751 23.7631 12.6591 23.7632Z" fill="#F06724" stroke="white" stroke-width="0.2"/>
<path d="M27.9875 0.550049H9.55016C8.97681 0.560006 8.43029 0.794613 8.02819 1.20338C7.62609 1.61216 7.40056 2.16242 7.40012 2.73577V8.26107H6.80811C5.53287 8.26584 4.31154 8.7759 3.41177 9.67947C2.51201 10.583 2.00721 11.8064 2.00801 13.0815V15.7971C2.00809 16.1336 2.08296 16.4658 2.2272 16.7698C2.37144 17.0738 2.58145 17.342 2.84203 17.5549V18.4868H2.66503C1.98374 18.4886 1.33103 18.7607 0.850129 19.2432C0.369232 19.7257 0.0994441 20.3793 0.0999764 21.0605V21.7424C0.099709 22.4234 0.369614 23.0767 0.850483 23.559C1.33135 24.0413 1.98392 24.3132 2.66503 24.315H3.00003C3.36385 26.0819 4.32621 27.6691 5.72467 28.8088C7.12312 29.9485 8.87203 30.5709 10.6762 30.5709C12.4803 30.5709 14.2292 29.9485 15.6277 28.8088C17.0262 27.6691 17.9885 26.0819 18.3523 24.315H18.6883C19.3694 24.3132 20.0218 24.0413 20.5025 23.5589C20.9832 23.0766 21.2529 22.4233 21.2524 21.7424V21.0605C21.2527 20.38 20.9832 19.7271 20.5029 19.2449C20.0227 18.7627 19.3709 18.4904 18.6903 18.4878H18.5183C18.5183 18.1488 18.5183 17.8399 18.5183 17.5559C18.7792 17.343 18.9893 17.0747 19.1336 16.7705C19.2778 16.4663 19.3526 16.1338 19.3524 15.7971V13.4614H20.7764L22.6874 16.0901C22.7695 16.2027 22.8769 16.2943 23.0011 16.3574C23.1253 16.4206 23.2626 16.4535 23.4019 16.4535C23.5412 16.4535 23.6786 16.4206 23.8028 16.3574C23.9269 16.2943 24.0344 16.2027 24.1164 16.0901L26.0285 13.4614H27.9885C28.5681 13.4606 29.1236 13.2301 29.5334 12.8204C29.9432 12.4106 30.1738 11.8551 30.1746 11.2757V2.73577C30.1738 2.15615 29.9431 1.60052 29.5331 1.19076C29.1231 0.780997 28.5672 0.550578 27.9875 0.550049ZM2.83703 22.5473H2.66503C2.45213 22.5457 2.2485 22.4599 2.09861 22.3088C1.94872 22.1576 1.86474 21.9532 1.86501 21.7404V21.0585C1.865 20.8457 1.94907 20.6415 2.0989 20.4904C2.24873 20.3392 2.45221 20.2534 2.66503 20.2516H2.83703V22.5473ZM18.6903 20.2476C18.9032 20.2491 19.1069 20.3349 19.2568 20.4861C19.4066 20.6372 19.4906 20.8416 19.4904 21.0545V21.7364C19.4906 21.9492 19.4066 22.1536 19.2568 22.3048C19.1069 22.4559 18.9032 22.5417 18.6903 22.5433H18.5183C18.5183 21.6914 18.5183 20.9295 18.5183 20.2436L18.6903 20.2476ZM3.76305 15.7971V13.0815C3.76331 12.2733 4.08396 11.4982 4.65473 10.9261C5.2255 10.3539 5.99986 10.0312 6.80811 10.0289H10.3612C10.683 10.0299 10.9913 10.1585 11.2185 10.3864C11.4456 10.6143 11.5732 10.9229 11.5732 11.2447V15.1282C11.5724 15.4391 11.4486 15.7371 11.2288 15.957C11.009 16.177 10.7111 16.301 10.4002 16.3021H4.26706C4.13445 16.3021 4.00727 16.2494 3.9135 16.1556C3.81973 16.0619 3.76705 15.9347 3.76705 15.8021L3.76305 15.7971ZM10.6772 28.8035C9.86483 28.8007 9.06122 28.6357 8.31351 28.3181C7.5658 28.0006 6.88905 27.537 6.32297 26.9544C5.7569 26.3718 5.31291 25.6821 5.01705 24.9256C4.72118 24.1692 4.57942 23.3612 4.60007 22.5493V18.0678H10.4002C11.1693 18.068 11.9074 17.7647 12.4542 17.2239C13.0006 17.7648 13.7384 18.068 14.5073 18.0678H16.7583C16.7583 20.3395 16.7583 21.4764 16.7583 22.5493C16.7807 23.3621 16.6401 24.1712 16.3446 24.9287C16.0492 25.6863 15.6049 26.377 15.0381 26.9601C14.4712 27.5432 13.7933 28.0068 13.0443 28.3235C12.2953 28.6403 11.4904 28.8029 10.6772 28.8035ZM17.5913 15.7971C17.5913 15.9297 17.5386 16.0569 17.4449 16.1506C17.3511 16.2444 17.2239 16.2971 17.0913 16.2971H14.5073C14.1972 16.296 13.9 16.1727 13.6804 15.9538C13.4607 15.7349 13.3363 15.4382 13.3342 15.1282V11.2427C13.3348 10.9213 13.4626 10.6131 13.6897 10.3857C13.9168 10.1582 14.2248 10.0299 14.5463 10.0289C15.3549 10.031 16.1297 10.3538 16.7006 10.9265C17.2715 11.4992 17.5919 12.2749 17.5913 13.0835V15.7971ZM25.5775 11.6976C25.438 11.6976 25.3006 11.7306 25.1763 11.7938C25.052 11.8571 24.9445 11.9488 24.8625 12.0616L23.4124 14.0613L23.4014 14.0763L22.9594 13.4684L21.9394 12.0686C21.8575 11.9559 21.7502 11.8642 21.6261 11.801C21.502 11.7377 21.3647 11.7047 21.2254 11.7046H19.1484C18.8521 10.7142 18.2448 9.84551 17.4163 9.22711C16.5878 8.60871 15.5822 8.27348 14.5483 8.27107C14.16 8.26955 13.7752 8.34453 13.4159 8.49173C13.0566 8.63893 12.7298 8.85546 12.4542 9.12897C12.1796 8.85408 11.8535 8.63602 11.4945 8.48727C11.1355 8.33852 10.7508 8.262 10.3622 8.26207H9.18716V2.73577C9.18715 2.62457 9.23127 2.51791 9.30982 2.43918C9.38837 2.36045 9.49494 2.31609 9.60616 2.31583H27.9445C28.0557 2.31609 28.1623 2.36045 28.2409 2.43918C28.3194 2.51791 28.3635 2.62457 28.3635 2.73577V11.2747C28.3635 11.3859 28.3194 11.4926 28.2409 11.5713C28.1623 11.65 28.0557 11.6944 27.9445 11.6946L25.5775 11.6976Z" fill="#F06724" stroke="white" stroke-width="0.2"/>
</g>
<defs>
<clipPath id="clip0_1_146">
<rect width="30.2736" height="30.2202" fill="white" transform="translate(0 0.449951)"/>
</clipPath>
</defs>
</svg>
