<svg width="31" height="31" viewBox="0 0 31 31" fill="none" xmlns="http://www.w3.org/2000/svg">
<g clip-path="url(#clip0_1_121)">
<path d="M27.2805 20.5415L29.3326 18.4888C29.7396 18.0816 30.0343 17.5759 30.1878 17.021C30.3414 16.4661 30.3486 15.8809 30.2087 15.3224C30.0688 14.7639 29.7867 14.2511 29.3897 13.8341C28.9927 13.417 28.4945 13.1098 27.9435 12.9425C28.3067 12.4458 28.5252 11.8584 28.575 11.2452C28.6247 10.632 28.5037 10.017 28.2254 9.46834C27.9471 8.91967 27.5223 8.45873 26.9981 8.13658C26.4739 7.81444 25.8708 7.64366 25.2555 7.64316H25.1435C25.1594 7.18749 25.0814 6.73341 24.9144 6.30913C24.7474 5.88485 24.495 5.49943 24.1727 5.17679C23.8505 4.85415 23.4654 4.60118 23.0413 4.43359C22.6172 4.26601 22.1632 4.18738 21.7074 4.2026C21.7074 4.1656 21.7074 4.1276 21.7074 4.09061C21.7075 3.43143 21.5121 2.78702 21.1458 2.2389C20.7796 1.69079 20.259 1.26358 19.6499 1.01131C19.0408 0.759035 18.3706 0.693039 17.724 0.821662C17.0774 0.950286 16.4834 1.26775 16.0173 1.73391L15.3073 2.44382L14.5983 1.73391C14.1259 1.26062 13.5219 0.940512 12.8649 0.815272C12.208 0.690033 11.5286 0.765461 10.9151 1.03174C10.3017 1.29801 9.78262 1.7428 9.42555 2.30818C9.06848 2.87356 8.88993 3.53333 8.91317 4.2016H8.80016C8.35344 4.20134 7.91124 4.29101 7.49992 4.46525C7.08859 4.6395 6.71656 4.89476 6.406 5.21582C6.09543 5.53688 5.85269 5.91717 5.69225 6.33403C5.5318 6.75088 5.45693 7.19576 5.4721 7.64216H5.3591C4.7438 7.64266 4.14065 7.81344 3.61646 8.13558C3.09226 8.45773 2.66748 8.91867 2.38917 9.46734C2.11086 10.016 1.98988 10.631 2.03963 11.2442C2.08938 11.8574 2.30792 12.4448 2.67104 12.9415C2.12113 13.1085 1.62372 13.4148 1.22706 13.8306C0.830394 14.2465 0.547934 14.7577 0.407076 15.3148C0.266218 15.8719 0.271741 16.456 0.42311 17.0104C0.57448 17.5647 0.866557 18.0705 1.27102 18.4788L1.28102 18.4888L3.33606 20.5435L3.34506 20.5525C3.46724 20.6747 3.59863 20.7874 3.73806 20.8895L3.13005 21.4974C2.83614 21.7938 2.60854 22.1492 2.46235 22.5402C2.31616 22.9311 2.25469 23.3486 2.28204 23.7651C2.32979 24.6127 2.69083 25.4124 3.29506 26.0088L6.77112 29.4854C7.39202 30.1047 8.2332 30.4524 9.11017 30.4524C9.98715 30.4524 10.8283 30.1047 11.4492 29.4854L13.0652 27.8696C14.5414 28.1872 16.0682 28.1872 17.5443 27.8696L19.1594 29.4854C19.7803 30.1047 20.6214 30.4524 21.4984 30.4524C22.3754 30.4524 23.2166 30.1047 23.8375 29.4854L27.3145 26.0088C27.9297 25.472 28.3088 24.7146 28.3698 23.9005C28.4308 23.0863 28.1688 22.2809 27.6405 21.6584L26.9005 20.9185L27.2655 20.5525L27.2805 20.5415ZM11.1572 3.00575C11.4449 2.71823 11.835 2.55671 12.2417 2.55671C12.6485 2.55671 13.0386 2.71823 13.3263 3.00575L16.0793 5.7574C16.2943 5.97186 16.4408 6.24529 16.5002 6.54307C16.5597 6.84085 16.5294 7.14957 16.4132 7.43011C16.297 7.71066 16.1001 7.95041 15.8475 8.11899C15.5949 8.28756 15.298 8.37739 14.9943 8.37707C14.7923 8.37783 14.5922 8.33844 14.4056 8.2612C14.219 8.18396 14.0496 8.0704 13.9073 7.92713L11.1582 5.17547L11.1512 5.16847C10.8668 4.88005 10.7078 4.49094 10.7089 4.08587C10.71 3.68081 10.8712 3.29259 11.1572 3.00575ZM7.70714 8.61204C7.56492 8.46911 7.45224 8.29958 7.37555 8.11311C7.29885 7.92665 7.25964 7.7269 7.26015 7.52529C7.26118 7.1181 7.42395 6.72801 7.71264 6.44081C8.00134 6.15362 8.39231 5.99286 8.79955 5.99389C9.0012 5.9944 9.20077 6.03461 9.38687 6.11224C9.57297 6.18987 9.74196 6.30339 9.88419 6.44631L12.6342 9.19597L12.6392 9.20096L13.3223 9.88388C13.4695 10.025 13.587 10.194 13.6681 10.3811C13.7492 10.5682 13.7922 10.7696 13.7945 10.9735C13.7969 11.1774 13.7585 11.3797 13.6817 11.5686C13.6049 11.7575 13.4913 11.9291 13.3473 12.0736C13.2034 12.218 13.0321 12.3323 12.8435 12.4098C12.6548 12.4873 12.4526 12.5264 12.2487 12.5248C12.0448 12.5232 11.8432 12.481 11.6558 12.4006C11.4684 12.3202 11.2989 12.2033 11.1572 12.0566L11.1462 12.0456L10.4712 11.3707L7.71614 8.61604L7.70714 8.61204ZM4.27508 9.88688C4.56275 9.59936 4.95284 9.43784 5.3596 9.43784C5.76635 9.43784 6.15645 9.59936 6.44412 9.88688L9.20017 12.6425C9.47833 12.9324 9.63167 13.3197 9.62725 13.7214C9.62283 14.123 9.461 14.5069 9.17653 14.7906C8.89207 15.0742 8.50767 15.2349 8.10595 15.2383C7.70422 15.2416 7.31723 15.0872 7.02813 14.8083L7.01713 14.7973L4.28308 12.0656L4.27508 12.0566C3.98751 11.769 3.82597 11.3789 3.82597 10.9722C3.82597 10.5655 3.98751 10.1745 4.27508 9.88688ZM2.56304 17.2259L2.55304 17.215C2.26554 16.9271 2.10418 16.5368 2.10446 16.13C2.10475 15.7232 2.26664 15.3332 2.55454 15.0457C2.84244 14.7583 3.23276 14.5969 3.63962 14.5972C4.04649 14.5975 4.43658 14.7594 4.72408 15.0472L6.78912 17.111C7.00395 17.3252 7.15038 17.5984 7.20992 17.8959C7.26945 18.1934 7.2394 18.5019 7.12358 18.7823C7.00775 19.0627 6.81135 19.3025 6.55922 19.4713C6.30708 19.6401 6.01054 19.7304 5.7071 19.7306C5.63248 19.7306 5.55796 19.7253 5.4841 19.7146H5.4681C5.15069 19.6654 4.85701 19.517 4.62908 19.2907L4.62208 19.2837L2.56304 17.2259ZM13.0192 26.0098H12.9962L12.9422 25.9978L12.9022 25.9918H12.8572H12.8102H12.7722H12.7222H12.6862L12.6372 25.9988L12.5992 26.0058L12.5552 26.0168L12.5132 26.0288L12.4752 26.0428L12.4312 26.0608L12.3962 26.0768L12.3532 26.0988L12.3182 26.1188L12.2802 26.1438L12.2422 26.1718L12.2122 26.1958L12.1702 26.2338L12.1542 26.2488L10.1802 28.2146C9.89694 28.497 9.51322 28.6556 9.11317 28.6556C8.71312 28.6556 8.3294 28.497 8.04615 28.2146L4.57008 24.738C4.28083 24.4562 4.10656 24.0771 4.08107 23.6741C4.06856 23.5099 4.09086 23.3448 4.14652 23.1897C4.20218 23.0347 4.28995 22.8931 4.40408 22.7742L5.6461 21.5324H5.7071C6.24924 21.5319 6.78307 21.3992 7.26228 21.1457C7.7415 20.8922 8.15161 20.5257 8.45705 20.0778C8.76249 19.63 8.95402 19.1144 9.01503 18.5758C9.07604 18.0371 9.00469 17.4918 8.80716 16.987C9.47353 16.8448 10.0802 16.5015 10.5452 16.0035C11.0102 15.5055 11.3111 14.8768 11.4072 14.2023C11.6793 14.2704 11.9588 14.304 12.2392 14.3023C12.677 14.3025 13.1105 14.2163 13.5149 14.0489C13.9193 13.8815 14.2868 13.636 14.5964 13.3265C14.9059 13.017 15.1514 12.6496 15.3189 12.2452C15.4863 11.8408 15.5724 11.4074 15.5723 10.9697C15.5738 10.6897 15.5402 10.4106 15.4723 10.1388C16.0844 10.0505 16.6599 9.79352 17.1343 9.39677C17.6088 9.00002 17.9634 8.47911 18.1586 7.89232C18.3538 7.30553 18.3819 6.676 18.2397 6.07417C18.0975 5.47234 17.7906 4.92194 17.3533 4.48456L16.5813 3.71266L17.2913 3.00375C17.4327 2.8568 17.602 2.73953 17.7893 2.65878C17.9766 2.57803 18.178 2.53542 18.382 2.53346C18.5859 2.53149 18.7882 2.5702 18.977 2.64732C19.1658 2.72445 19.3373 2.83844 19.4815 2.98263C19.6257 3.12681 19.7397 3.2983 19.8168 3.48707C19.894 3.67583 19.9327 3.87808 19.9307 4.08198C19.9288 4.28589 19.8862 4.48735 19.8054 4.67459C19.7246 4.86183 19.6073 5.03109 19.4604 5.17247C19.3719 5.25486 19.301 5.35421 19.2518 5.46459C19.2026 5.57498 19.1762 5.69414 19.1741 5.81497C19.1719 5.93579 19.1942 6.05581 19.2394 6.16786C19.2847 6.27992 19.3521 6.3817 19.4375 6.46716C19.523 6.55261 19.6248 6.61997 19.7369 6.66523C19.8489 6.71049 19.969 6.73272 20.0898 6.73059C20.2107 6.72845 20.3298 6.70201 20.4402 6.65282C20.5506 6.60364 20.65 6.53273 20.7324 6.44431C21.0202 6.15672 21.4104 5.99521 21.8173 5.9953C22.2241 5.99539 22.6143 6.15709 22.9019 6.44481C23.1896 6.73254 23.3511 7.12272 23.351 7.52953C23.3509 7.93634 23.1892 8.32645 22.9014 8.61404C22.7425 8.78463 22.6559 9.01025 22.66 9.24339C22.6641 9.47652 22.7586 9.69895 22.9235 9.86383C23.0884 10.0287 23.3109 10.1231 23.544 10.1273C23.7772 10.1314 24.0029 10.0448 24.1735 9.88588C24.4613 9.60541 24.8478 9.44911 25.2497 9.4506C25.6517 9.45209 26.037 9.61125 26.3228 9.89384C26.6085 10.1764 26.772 10.5599 26.7779 10.9617C26.7839 11.3636 26.6318 11.7517 26.3545 12.0426L26.3425 12.0546L25.0525 13.3444C24.8975 13.4997 24.8046 13.7061 24.7911 13.9251C24.7777 14.144 24.8447 14.3603 24.9795 14.5333L25.0255 14.5923C25.1604 14.7647 25.3535 14.882 25.5687 14.9224C25.7839 14.9627 26.0063 14.9232 26.1945 14.8113C26.5155 14.6227 26.8941 14.5573 27.2597 14.6273C27.6254 14.6972 27.9531 14.8977 28.1818 15.1914C28.4105 15.485 28.5247 15.8518 28.5029 16.2234C28.4811 16.595 28.325 16.946 28.0635 17.211L25.9975 19.2807L25.9855 19.2927L21.5544 23.7231C20.4559 24.8172 19.0897 25.6042 17.5921 26.0056C16.0945 26.407 14.5178 26.4088 13.0192 26.0108V26.0098ZM26.3715 22.9302C26.7655 23.3252 26.6135 24.1691 26.0455 24.738L22.5694 28.2146C22.2862 28.497 21.9025 28.6556 21.5024 28.6556C21.1024 28.6556 20.7186 28.497 20.4354 28.2146L19.4784 27.2577C20.7286 26.7244 21.865 25.9566 22.8264 24.996L25.6315 22.1913L26.3715 22.9302Z" fill="#F06724" stroke="#F06724" stroke-width="0.2"/>
</g>
<defs>
<clipPath id="clip0_1_121">
<rect width="30.6176" height="30.1032" fill="white" transform="translate(0 0.449951)"/>
</clipPath>
</defs>
</svg>
