<svg width="37" height="33" viewBox="0 0 37 33" fill="none" xmlns="http://www.w3.org/2000/svg">
<g clip-path="url(#clip0_1_130)">
<path d="M34.5427 19.2436V9.67083L35.9897 9.1309C36.1939 9.0542 36.3698 8.91705 36.494 8.73777C36.6181 8.55849 36.6847 8.3456 36.6847 8.12753C36.6847 7.90945 36.6181 7.69657 36.494 7.51729C36.3698 7.33801 36.1939 7.20086 35.9897 7.12416L18.7724 0.621976C18.5285 0.529654 18.2592 0.529654 18.0153 0.621976L0.79301 7.12416C0.58884 7.20086 0.412928 7.33801 0.288754 7.51729C0.16458 7.69657 0.098053 7.90945 0.098053 8.12753C0.098053 8.3456 0.16458 8.55849 0.288754 8.73777C0.412928 8.91705 0.58884 9.0542 0.79301 9.1309L6.60012 11.2986V19.1116C6.5992 19.3267 6.66298 19.537 6.78318 19.7153C6.90338 19.8936 7.07444 20.0317 7.27414 20.1115C10.8097 21.5287 14.5842 22.2551 18.3934 22.2512C22.2021 22.2532 25.976 21.5252 29.5106 20.1065C29.7103 20.0267 29.8813 19.8886 30.0015 19.7103C30.1217 19.532 30.1855 19.3217 30.1846 19.1066V11.2986L32.4006 10.4717V19.2436C31.9025 19.4192 31.4553 19.715 31.0988 20.1046C30.7423 20.4943 30.4874 20.9659 30.3566 21.4776C30.2259 21.9892 30.2234 22.5253 30.3493 23.0382C30.4752 23.5511 30.7257 24.025 31.0786 24.418C30.5492 25.0064 30.2566 25.7702 30.2576 26.5617V30.9202C30.2576 31.2044 30.3705 31.4771 30.5716 31.6781C30.7726 31.8791 31.0453 31.992 31.3296 31.992H35.6167C35.901 31.992 36.1737 31.8791 36.3747 31.6781C36.5758 31.4771 36.6887 31.2044 36.6887 30.9202V26.5607C36.6897 25.7692 36.3971 25.0054 35.8677 24.417C36.2206 24.024 36.4711 23.5501 36.597 23.0372C36.7229 22.5243 36.7204 21.9882 36.5897 21.4766C36.4589 20.9649 36.204 20.4933 35.8475 20.1036C35.4909 19.714 35.0438 19.4182 34.5457 19.2426L34.5427 19.2436ZM18.3934 2.7707L32.5656 8.12103L18.3934 13.4134L4.22108 8.12103L18.3934 2.7707ZM28.0405 18.3767C21.8176 20.6925 14.9691 20.6925 8.74617 18.3767V12.0985L18.0183 15.5611C18.2602 15.6512 18.5265 15.6512 18.7684 15.5611L28.0405 12.0985V18.3767ZM33.4716 21.2024C33.6837 21.2022 33.8911 21.2649 34.0675 21.3825C34.2439 21.5002 34.3815 21.6675 34.4628 21.8634C34.5441 22.0592 34.5654 22.2748 34.5242 22.4827C34.4829 22.6907 34.3809 22.8818 34.231 23.0318C34.0811 23.1818 33.8901 23.284 33.6822 23.3254C33.4742 23.3669 33.2586 23.3457 33.0626 23.2646C32.8667 23.1835 32.6992 23.0461 32.5814 22.8698C32.4635 22.6936 32.4006 22.4863 32.4006 22.2742C32.4009 21.9902 32.5138 21.7179 32.7146 21.517C32.9153 21.316 33.1876 21.2029 33.4716 21.2024ZM34.5427 29.8503H32.4006V26.5607C32.4006 26.2764 32.5136 26.0038 32.7146 25.8028C32.9157 25.6018 33.1883 25.4888 33.4726 25.4888C33.757 25.4888 34.0296 25.6018 34.2307 25.8028C34.4317 26.0038 34.5447 26.2764 34.5447 26.5607L34.5427 29.8503Z" fill="#F06724" stroke="#F06724" stroke-width="0.2"/>
<path d="M20.9343 8.94432C20.9343 9.44688 20.7853 9.93816 20.5061 10.356C20.2268 10.7739 19.83 11.0996 19.3657 11.2919C18.9014 11.4842 18.3905 11.5345 17.8976 11.4365C17.4047 11.3384 16.9519 11.0964 16.5965 10.7411C16.2412 10.3857 15.9992 9.93295 15.9011 9.44005C15.8031 8.94714 15.8534 8.43623 16.0457 7.97192C16.238 7.50762 16.5637 7.11077 16.9816 6.83156C17.3995 6.55235 17.8907 6.40332 18.3933 6.40332C19.0672 6.40332 19.7135 6.67103 20.19 7.14756C20.6666 7.62409 20.9343 8.27041 20.9343 8.94432Z" fill="#F06724" stroke="#F06724" stroke-width="0.2"/>
</g>
<defs>
<clipPath id="clip0_1_130">
<rect width="36.7867" height="31.641" fill="white" transform="translate(0 0.449951)"/>
</clipPath>
</defs>
</svg>
