<svg xmlns="http://www.w3.org/2000/svg" width="40.341" height="40" viewBox="0 0 40.341 40" id="family-reunion-visa">
	<g id="Group_683" data-name="Group 683" transform="translate(-829.554 -3378.598)">
		<path id="_004-meeting-room" data-name="004-meeting-room"
			  d="M4.806,9.375A4.713,4.713,0,0,0,9.534,4.687a4.728,4.728,0,0,0-9.455,0A4.713,4.713,0,0,0,4.806,9.375Zm0-6.25A1.562,1.562,0,1,1,3.23,4.687,1.571,1.571,0,0,1,4.806,3.125Zm33.959,15.52a1.569,1.569,0,0,0,1.576-1.562V15.624a4.713,4.713,0,0,0-4.728-4.687h-.7a1.578,1.578,0,0,0-1.393.832l-3.973,7.449H26.474V15.546a4.713,4.713,0,0,0-4.728-4.687H18.595a4.713,4.713,0,0,0-4.728,4.687v3.672H10.8L6.825,11.769a1.578,1.578,0,0,0-1.393-.832h-.7A4.713,4.713,0,0,0,0,15.624v9.218a4.7,4.7,0,0,0,3.034,4.375,1.578,1.578,0,0,0,.826.234h.018c.13.023.261.042.394.055a1.566,1.566,0,0,1,1.164,1.507v7.422a1.576,1.576,0,0,0,3.152,0V31.014a4.632,4.632,0,0,0-.244-1.484h3.4v5.781A4.713,4.713,0,0,0,16.468,40h7.485a4.713,4.713,0,0,0,4.728-4.687V29.53H32a4.632,4.632,0,0,0-.244,1.484v7.422a1.576,1.576,0,0,0,3.152,0V31.014a1.566,1.566,0,0,1,1.164-1.506c.133-.013.265-.032.394-.055h.018a1.578,1.578,0,0,0,.826-.234,4.7,4.7,0,0,0,3.034-4.375,1.576,1.576,0,0,0-3.152,0,1.566,1.566,0,0,1-1.164,1.506c-.133.013-.265.032-.394.055H28.68V22.343h1.812a1.578,1.578,0,0,0,1.393-.832l3.964-7.432a1.569,1.569,0,0,1,1.34,1.545v1.458A1.569,1.569,0,0,0,38.766,18.645Zm-21.747-3.1a1.571,1.571,0,0,1,1.576-1.562h3.152a1.571,1.571,0,0,1,1.576,1.562v3.672h-6.3ZM4.728,26.405H4.71c-.13-.023-.261-.042-.394-.055a1.566,1.566,0,0,1-1.164-1.507V15.624a1.569,1.569,0,0,1,1.34-1.545l3.964,7.432a1.578,1.578,0,0,0,1.393.832H11.74v4.062Zm20.8,8.906a1.571,1.571,0,0,1-1.576,1.562H16.468a1.571,1.571,0,0,1-1.576-1.562V22.343H25.529ZM35.535,9.375a4.713,4.713,0,0,0,4.728-4.687,4.728,4.728,0,0,0-9.455,0A4.713,4.713,0,0,0,35.535,9.375Zm0-6.25a1.562,1.562,0,1,1-1.576,1.562A1.571,1.571,0,0,1,35.535,3.125ZM20.171,9.375A4.713,4.713,0,0,0,24.9,4.687a4.728,4.728,0,0,0-9.455,0A4.713,4.713,0,0,0,20.171,9.375Zm0-6.25a1.562,1.562,0,1,1-1.576,1.562A1.571,1.571,0,0,1,20.171,3.125Zm0,0"
			  transform="translate(829.554 3378.598)" fill="#f48220" opacity="0.8" />
		<path id="Subtraction_16" data-name="Subtraction 16"
			  d="M12.182,29.52H4.7a4.7,4.7,0,0,1-3.189-1.249A4.749,4.749,0,0,1,0,25.212V8.537a5.233,5.233,0,0,1,1.192-.131,7.172,7.172,0,0,1,.913.062V4.748A4.741,4.741,0,0,1,6.828,0H9.978A4.742,4.742,0,0,1,14.7,4.748v3.72H17v3.16a.8.8,0,0,1-.1.006v4.116H17v3.178l-.072-.009-.023,0V24.77A4.742,4.742,0,0,1,12.182,29.52ZM3.128,11.633V24.77A1.581,1.581,0,0,0,4.7,26.353h7.479a1.58,1.58,0,0,0,1.575-1.583V11.633H3.128Zm3.7-8.468A1.58,1.58,0,0,0,5.255,4.748v3.72h6.3V4.748A1.58,1.58,0,0,0,9.978,3.165Z"
			  transform="translate(841.306 3389.078)" fill="#f06724" />
	</g>
</svg>