<svg xmlns="http://www.w3.org/2000/svg" width="40.078" height="40" viewBox="0 0 40.078 40" id="schengen-visa-documentation">
	<g id="Group_3496" data-name="Group 3496" transform="translate(-7452 4637.441)">
		<path id="_005-trip" data-name="005-trip"
			  d="M22.778,36.66c-.4.065-.807.114-1.215.149v-6c.316.009.63.02.942.035a1.563,1.563,0,0,0,.148-3.122c-.36-.017-.724-.03-1.089-.04V21.562h6.059c-.033.759-.09,1.512-.172,2.251a1.562,1.562,0,1,0,3.106.342c.094-.851.158-1.719.194-2.593H36.88c-.013.148-.028.3-.046.442a1.563,1.563,0,1,0,3.1.367A20.289,20.289,0,0,0,40.078,20a20,20,0,0,0-20-20H20A20,20,0,0,0,5.858,34.142,19.869,19.869,0,0,0,20,40l.039,0,.039,0a20.184,20.184,0,0,0,3.2-.254,1.562,1.562,0,0,0-.5-3.085ZM3.2,21.562H9.25a35.053,35.053,0,0,0,.973,7.013,30.392,30.392,0,0,0-4.046,1.093A16.774,16.774,0,0,1,3.2,21.562ZM33.842,10.248a16.773,16.773,0,0,1,3.037,8.19H30.749a35,35,0,0,0-.99-7.084A30.306,30.306,0,0,0,33.842,10.248Zm-5.019-1.9a22.242,22.242,0,0,0-.908-2.085A17.925,17.925,0,0,0,26.973,4.6,16.925,16.925,0,0,1,31.6,7.686C30.742,7.937,29.81,8.159,28.823,8.349ZM18.437,12.244v6.194H12.378a31.509,31.509,0,0,1,.957-6.58C14.962,12.064,16.675,12.2,18.437,12.244Zm-4.09-3.416q.251-.6.532-1.166a9.011,9.011,0,0,1,3.559-4.137V9.117C17.036,9.075,15.664,8.977,14.347,8.828Zm7.215-5.3a9.009,9.009,0,0,1,3.559,4.137q.281.562.532,1.167c-1.316.149-2.689.247-4.091.289Zm-9.478,2.74a22.293,22.293,0,0,0-.907,2.084c-.964-.186-1.876-.4-2.72-.645A16.936,16.936,0,0,1,13,4.649,17.949,17.949,0,0,0,12.084,6.264Zm-1.843,5.089a35,35,0,0,0-.99,7.084H3.2A16.774,16.774,0,0,1,6.22,10.27,30.46,30.46,0,0,0,10.241,11.353Zm.905,20.22a22.353,22.353,0,0,0,.937,2.163A17.948,17.948,0,0,0,13,35.351a16.935,16.935,0,0,1-4.6-3.115C9.246,31.984,10.17,31.762,11.146,31.573Zm7.291,4.9a9.009,9.009,0,0,1-3.559-4.137q-.3-.6-.565-1.246c1.323-.15,2.706-.247,4.124-.288Zm0-8.8c-1.765.049-3.486.182-5.122.39a31.576,31.576,0,0,1-.938-6.506h6.059Zm3.125-15.434c1.763-.049,3.477-.179,5.1-.385a31.527,31.527,0,0,1,.956,6.579H21.562Z"
			  transform="translate(7452 -4637.441)" fill="#f48220" opacity="0.8" />
		<path id="_005-trip-2" data-name="005-trip"
			  d="M32.769,19.978a1.771,1.771,0,0,1-.167,2.4l-1.725,1.7V31.99a1.014,1.014,0,0,1-.245.859h0a1.047,1.047,0,0,1-1.729-.394L27.486,27.5l-3.006,2.933V32.45a.61.61,0,0,1-.156.468l-.053.053a.634.634,0,0,1-.9,0l-3.636-3.628a.635.635,0,0,1,.477-1.082h2.069l2.971-3L20.3,23.838a1.047,1.047,0,0,1-.394-1.729,1.065,1.065,0,0,1,.855-.324h7.934l1.678-1.639A1.77,1.77,0,0,1,32.769,19.978Zm0,0"
			  transform="translate(7458.697 -4630.76)" fill="#f06724" />
	</g>
</svg>
