<svg xmlns="http://www.w3.org/2000/svg" width="33.438" height="40" viewBox="0 0 33.438 40" id="germany-job-seeker-visa">
	<g id="Group_682" data-name="Group 682" transform="translate(-322.209 -3449.426)">
		<g id="_002-student" data-name="002-student" transform="translate(322.209 3449.426)"
		   opacity="0.8">
			<g id="Group_676" data-name="Group 676" transform="translate(0 0)">
				<path id="Path_17937" data-name="Path 17937"
					  d="M75.346,34.917a1.563,1.563,0,0,0-3.06.635,1.117,1.117,0,0,1-.23.935,1.021,1.021,0,0,1-.8.388H60.882L65.1,26.085A13.805,13.805,0,0,1,69.186,29.3a1.562,1.562,0,1,0,2.362-2.046,16.936,16.936,0,0,0-7.05-4.841,8.985,8.985,0,0,0,1.982-11.4l4.814-1.774v7.708a1.562,1.562,0,1,0,3.125,0V7.109c0-.015,0-.03,0-.046s0-.039,0-.059V6.916a1.563,1.563,0,0,0-1.008-1.461L59.315.1A1.563,1.563,0,0,0,58.21.1L44.025,5.439A1.562,1.562,0,0,0,43.013,6.9V6.99a1.563,1.563,0,0,0,1.026,1.468l6.93,2.534A8.985,8.985,0,0,0,52.94,22.423,17.005,17.005,0,0,0,42.086,34.951,4.186,4.186,0,0,0,46.173,40H71.259a4.141,4.141,0,0,0,3.221-1.54A4.23,4.23,0,0,0,75.346,34.917ZM48.949,6.925l9.809-3.692,9.757,3.706-4.4,1.62a14.475,14.475,0,0,0-5.386-.845,14.443,14.443,0,0,0-5.389.819Zm3.908,8.622A5.816,5.816,0,0,1,54.581,11.4a10.6,10.6,0,0,1,4.094-.559h.055a10.637,10.637,0,0,1,4.144.58,5.859,5.859,0,1,1-10.017,4.128ZM46.173,36.875a1.029,1.029,0,0,1-.809-.386,1.066,1.066,0,0,1-.218-.9A13.919,13.919,0,0,1,52.337,26.1l4.212,10.772Zm9.079-11.9a13.7,13.7,0,0,1,3.464-.445,13.9,13.9,0,0,1,3.466.44l-3.466,8.864Z"
					  transform="translate(-41.997 0)" fill="#f48220" />
			</g>
		</g>
		<path id="Subtraction_14" data-name="Subtraction 14"
			  d="M30.348,18.673A1.584,1.584,0,0,1,28.759,17.1V9.324L23.907,11.1a23.819,23.819,0,0,0-5.405-.43c-4.549,0-9.885.476-10.478.53.017-.031.035-.06.053-.09l.014-.023L1.043,8.529A1.582,1.582,0,0,1,0,7.049V6.96A1.584,1.584,0,0,1,1.029,5.485L15.453.1a1.6,1.6,0,0,1,1.124,0L30.912,5.5a1.585,1.585,0,0,1,1.025,1.474v.088c0,.012,0,.023,0,.035s0,.017,0,.025,0,.011,0,.017,0,.019,0,.029V17.1A1.584,1.584,0,0,1,30.348,18.673ZM15.9,7.779h.087a15.032,15.032,0,0,1,5.477.852L25.933,7,16.011,3.261,6.035,6.984,10.506,8.6A14.816,14.816,0,0,1,15.9,7.779Z"
			  transform="translate(322.96 3449.426)" fill="#f06724" />
	</g>
</svg>