<svg xmlns="http://www.w3.org/2000/svg" width="40" height="40" viewBox="0 0 40 40" id="study-abroad-counselling">
	<g id="Group_3490" data-name="Group 3490" transform="translate(-6951.015 5578.288)">
		<g id="Group_3489" data-name="Group 3489" transform="translate(6951.015 -5578.288)">
			<g id="Group_3488" data-name="Group 3488">
				<path id="_001-communication" data-name="001-communication"
					  d="M37.6,32.207A12.122,12.122,0,0,0,40,24.963a12.631,12.631,0,0,0-5.843-10.516,15.186,15.186,0,0,0-5-9.87A17.757,17.757,0,0,0,17.109,0,17.757,17.757,0,0,0,5.061,4.578,15.1,15.1,0,0,0,0,15.792,14.8,14.8,0,0,0,3.052,24.8L.113,32.071a1.562,1.562,0,0,0,2.079,2.015l8.383-3.7a17.983,17.983,0,0,0,3.246.9,13.451,13.451,0,0,0,4.727,4.6A14.789,14.789,0,0,0,25.9,37.889c.038,0,.077.006.116.006a14.871,14.871,0,0,0,5.211-.928l6.58,2.9a1.563,1.563,0,0,0,2.079-2.015Zm-3.238.329,1.18,2.92-3.659-1.613a1.562,1.562,0,0,0-1.243-.007,11.719,11.719,0,0,1-4.565.934c-.021,0-.042,0-.063,0a11.483,11.483,0,0,1-8.021-3.2,18.218,18.218,0,0,0,7.354-1.925,1.563,1.563,0,0,0-1.415-2.786,15.3,15.3,0,0,1-12.772.408,1.562,1.562,0,0,0-1.243.007L4.453,29.675l1.84-4.552a1.562,1.562,0,0,0-.259-1.6,11.8,11.8,0,0,1-2.909-7.731C3.124,8.807,9.4,3.125,17.109,3.125S31.093,8.807,31.093,15.792a11.752,11.752,0,0,1-1.918,6.4A1.563,1.563,0,0,0,31.8,23.9a14.989,14.989,0,0,0,2.2-5.58,9.294,9.294,0,0,1,2.876,6.645,9.12,9.12,0,0,1-2.249,5.974A1.563,1.563,0,0,0,34.366,32.536Z"
					  transform="translate(0.001 0)" fill="#f48220" opacity="0.8" />
				<path id="_001-communication-2" data-name="001-communication"
					  d="M13.73,17.6a1.154,1.154,0,0,1-1.154,1.154h0a1.154,1.154,0,0,1,0-2.308h0A1.154,1.154,0,0,1,13.73,17.6Zm3.23-8.645c0,.016,0,.032,0,.048a4.323,4.323,0,0,1-2.629,3.982.914.914,0,0,0-.544.848V13.9a1.154,1.154,0,1,1-2.308,0v-.074a3.218,3.218,0,0,1,1.946-2.97,2.018,2.018,0,0,0,1.227-1.826c0-.011,0-.022,0-.033a2.019,2.019,0,0,0-4.038,0A1.154,1.154,0,1,1,8.307,9a4.326,4.326,0,0,1,8.653-.049Z"
					  transform="translate(4.163 3.162)" fill="#f06724" />
			</g>
		</g>
	</g>
</svg>
