<svg xmlns="http://www.w3.org/2000/svg" width="33.438" height="40" viewBox="0 0 33.438 40" id="germany-nursing-adaptation-program">
	<g id="Group_3485" data-name="Group 3485" transform="translate(-360.114 -4450.559)">
		<path id="_006-nurse" data-name="006-nurse"
			  d="M33.349,34.917a1.563,1.563,0,0,0-3.06.635,1.117,1.117,0,0,1-.23.935,1.021,1.021,0,0,1-.8.388H18.886l4.219-10.789A13.8,13.8,0,0,1,27.19,29.3a1.563,1.563,0,1,0,2.362-2.047,16.934,16.934,0,0,0-7.05-4.84,8.983,8.983,0,0,0,2.678-9.9l.831-8.985a1.563,1.563,0,0,0-.785-1.5,18.85,18.85,0,0,0-17.012,0,1.563,1.563,0,0,0-.785,1.5l.831,8.985a8.984,8.984,0,0,0,2.684,9.908A17,17,0,0,0,.09,34.951,4.186,4.186,0,0,0,4.177,40H29.262a4.141,4.141,0,0,0,3.221-1.54A4.232,4.232,0,0,0,33.349,34.917Zm-16.63-1.082-3.464-8.858a13.706,13.706,0,0,1,3.464-.445,13.9,13.9,0,0,1,3.467.44ZM10.86,15.547a5.827,5.827,0,0,1,.435-2.22,1.563,1.563,0,0,0,.11-.737L10.64,4.315a16.762,16.762,0,0,1,6.079-1.19A16.754,16.754,0,0,1,22.8,4.315l-.765,8.276a1.562,1.562,0,0,0,.11.736,5.86,5.86,0,1,1-11.284,2.22ZM3.367,36.49a1.067,1.067,0,0,1-.218-.9A13.92,13.92,0,0,1,10.341,26.1l4.212,10.772H4.177A1.03,1.03,0,0,1,3.367,36.49Z"
			  transform="translate(360.114 4450.559)" fill="#f48220" opacity="0.8" />
		<path id="_006-nurse-2" data-name="006-nurse"
			  d="M15.173,6.923a1.154,1.154,0,0,1-1.154,1.154h-.577v.577a1.154,1.154,0,1,1-2.308,0V8.077h-.577a1.154,1.154,0,0,1,0-2.308h.577V5.192a1.154,1.154,0,1,1,2.308,0v.577h.577A1.154,1.154,0,0,1,15.173,6.923Zm0,0"
			  transform="translate(364.46 4450.559)" fill="#f06724" />
	</g>
</svg>