<svg xmlns="http://www.w3.org/2000/svg" width="40.013" height="40" viewBox="0 0 40.013 40" id="austria-job-seeker-visa">
	<g id="Group_3484" data-name="Group 3484" transform="translate(-626 -4057)">
		<path id="suitcase"
			  d="M36.877,19.134v3.241a1.563,1.563,0,1,0,3.125,0V12.733a6.3,6.3,0,0,0-6.25-6.325H27.027V4.346A4.325,4.325,0,0,0,22.733,0H17.269a4.325,4.325,0,0,0-4.294,4.346V6.407H6.25A6.3,6.3,0,0,0,0,12.732V31.154A6.3,6.3,0,0,0,6.25,37.48h13.2a1.581,1.581,0,0,0,0-3.163H6.25a3.147,3.147,0,0,1-3.125-3.163V19.134H18.517v2.375a1.563,1.563,0,1,0,3.125,0V19.134ZM16.1,4.346a1.177,1.177,0,0,1,1.169-1.183h5.463A1.177,1.177,0,0,1,23.9,4.346V6.407H16.1ZM3.125,12.733A3.147,3.147,0,0,1,6.25,9.57h27.5a3.148,3.148,0,0,1,3.125,3.163v3.239H3.125Z"
			  transform="translate(626 4057)" fill="#f48220" opacity="0.8" />
		<path id="suitcase-2" data-name="suitcase"
			  d="M33.611,31.723l-3.059-3.059a5.98,5.98,0,1,0-1.875,1.88L31.733,33.6a1.328,1.328,0,0,0,1.878-1.878ZM22.173,25.492a3.319,3.319,0,1,1,3.319,3.319A3.323,3.323,0,0,1,22.173,25.492Zm0,0"
			  transform="translate(632.013 4063.011)" fill="#f06724" />
	</g>
</svg>