<svg xmlns="http://www.w3.org/2000/svg"  width="39.993" height="39.993"
	 viewBox="0 0 39.993 39.993" id="germany-nursing-job-placement">
	<g id="Group_3497" data-name="Group 3497" transform="translate(-7196.44 4709.441)">
		<path id="_007-stethoscope" data-name="007-stethoscope"
			  d="M25.933,29.214a1.562,1.562,0,0,0-1.562,1.562,6.093,6.093,0,1,1-12.186,0v-4.49l5.554-8.059a1.583,1.583,0,0,0,.092-.153c.106-.1.21-.2.312-.3a11.286,11.286,0,0,0,3.1-8.007c0-.027,0-.054,0-.08l0-6.052A3.636,3.636,0,0,0,17.614,0H14.685a1.562,1.562,0,0,0-1.562,1.562V3.124a1.562,1.562,0,1,0,3.124,0h1.367a.508.508,0,0,1,.508.507l0,6.132q0,.038,0,.075c-.034,4.578-3.177,7.893-7.5,7.893-4.345,0-7.5-3.351-7.5-7.967,0-.049,0-.1-.007-.144s.007-.1.007-.144V3.632a.508.508,0,0,1,.508-.508H4.923a1.562,1.562,0,0,0,3.123-.078V1.562A1.562,1.562,0,0,0,6.483,0H3.632A3.636,3.636,0,0,0,0,3.632V9.475c0,.049,0,.1.007.144S0,9.716,0,9.764a11.286,11.286,0,0,0,3.1,8.007q.094.1.189.188a1.55,1.55,0,0,0,.149.269l5.62,8.156v4.393a9.217,9.217,0,1,0,18.434,0A1.562,1.562,0,0,0,25.933,29.214Zm-15.31-8.358a11.185,11.185,0,0,0,1.588-.113L10.59,23.1,8.961,20.732A11.161,11.161,0,0,0,10.623,20.856Z"
			  transform="translate(7196.44 -4709.441)" fill="#f48220" opacity="0.8" />
		<path id="_007-stethoscope-2" data-name="007-stethoscope"
			  d="M30.5,16.751V6.249a6.249,6.249,0,1,0-12.5,0V22.965a1.562,1.562,0,1,0,3.124,0V6.249a3.124,3.124,0,1,1,6.249,0v10.5a4.687,4.687,0,1,0,3.124,0Zm-1.562,5.98A1.562,1.562,0,1,1,30.5,21.168,1.564,1.564,0,0,1,28.935,22.731Zm0,0"
			  transform="translate(7202.812 -4709.441)" fill="#f06724" />
	</g>
</svg>
