<?xml version="1.0" encoding="UTF-8"?>
<svg xmlns="http://www.w3.org/2000/svg" xmlns:xlink="http://www.w3.org/1999/xlink" width="30px" height="30px" viewBox="0 0 30 30" version="1.1">
<g id="surface1">
<path style=" stroke:none;fill-rule:nonzero;fill:rgb(18.823529%,17.254902%,44.705882%);fill-opacity:1;" d="M 4.101562 30.058594 C 3.671875 30.058594 3.238281 30.058594 2.773438 30.03125 C 2.75 29.792969 2.746094 29.574219 2.773438 29.363281 C 3.097656 27.023438 4.769531 25.171875 7.09375 24.574219 C 7.828125 24.386719 8.570312 24.214844 9.304688 24.019531 C 9.503906 23.964844 9.730469 23.90625 9.726562 23.621094 C 9.714844 22.789062 9.71875 21.960938 9.695312 21.132812 C 9.691406 20.960938 9.628906 20.765625 9.527344 20.628906 C 8.90625 19.8125 8.410156 18.929688 8.179688 17.925781 C 8.078125 17.480469 7.902344 17.210938 7.484375 16.972656 C 6.5 16.417969 5.898438 14.796875 6.210938 13.714844 C 6.273438 13.496094 6.4375 13.3125 6.542969 13.105469 C 6.613281 12.96875 6.714844 12.820312 6.71875 12.679688 C 6.730469 10.960938 6.699219 9.242188 6.742188 7.523438 C 6.757812 6.839844 6.867188 6.144531 7.027344 5.476562 C 7.242188 4.585938 7.714844 3.835938 8.539062 3.371094 C 8.75 3.25 8.898438 3.105469 9.023438 2.898438 C 9.78125 1.617188 10.957031 0.894531 12.339844 0.464844 C 12.832031 0.3125 13.332031 0.195312 13.828125 0.0585938 C 15 0.0585938 16.175781 0.0585938 17.378906 0.0820312 C 17.78125 0.171875 18.148438 0.234375 18.535156 0.3125 C 18.648438 0.347656 18.742188 0.371094 18.835938 0.394531 C 21.753906 1.121094 24.25 2.539062 26.164062 4.886719 C 27.664062 6.734375 28.425781 8.832031 28.109375 11.246094 C 28 12.089844 27.757812 12.890625 27.238281 13.578125 C 26.535156 14.515625 25.554688 14.96875 24.417969 15.023438 C 23.949219 15.046875 23.792969 15.25 23.722656 15.636719 C 23.71875 15.65625 23.71875 15.675781 23.703125 15.707031 C 23.367188 16.390625 22.941406 16.953125 22.210938 17.222656 C 22.148438 17.242188 22.09375 17.347656 22.082031 17.421875 C 21.835938 18.621094 21.3125 19.6875 20.578125 20.65625 C 20.496094 20.761719 20.445312 20.917969 20.441406 21.050781 C 20.429688 21.785156 20.4375 22.515625 20.4375 23.25 C 20.4375 23.324219 20.445312 23.410156 20.421875 23.480469 C 20.308594 23.863281 20.328125 23.910156 20.714844 24.003906 C 21.46875 24.191406 22.226562 24.375 22.980469 24.558594 C 25.253906 25.113281 27.390625 27.226562 27.363281 30.058594 C 26.953125 30.058594 26.539062 30.058594 26.097656 30.03125 C 26.050781 29.675781 26.0625 29.34375 26.007812 29.019531 C 25.824219 27.941406 25.363281 27.015625 24.429688 26.355469 C 23.988281 26.136719 23.574219 25.871094 23.121094 25.746094 C 21.855469 25.390625 20.574219 25.089844 19.292969 24.78125 C 19.171875 24.75 19.011719 24.792969 18.894531 24.851562 C 18.40625 25.09375 17.925781 25.355469 17.445312 25.609375 C 17.375 25.648438 17.304688 25.683594 17.183594 25.75 C 17.734375 25.953125 18.226562 26.136719 18.71875 26.320312 C 19.351562 26.550781 19.472656 26.722656 19.476562 27.398438 C 19.480469 27.933594 19.488281 28.46875 19.488281 29.03125 C 19.472656 29.390625 19.460938 29.722656 19.453125 30.058594 C 19.121094 30.058594 18.785156 30.058594 18.429688 30.03125 C 18.40625 29.671875 18.402344 29.335938 18.402344 28.976562 C 18.410156 28.539062 18.402344 28.128906 18.414062 27.71875 C 18.421875 27.523438 18.367188 27.425781 18.171875 27.359375 C 17.464844 27.105469 16.765625 26.832031 16.058594 26.574219 C 15.667969 26.429688 15.277344 26.203125 14.875 26.167969 C 13.523438 26.046875 12.328125 25.546875 11.191406 24.847656 C 11.089844 24.785156 10.929688 24.75 10.816406 24.777344 C 9.488281 25.101562 8.160156 25.417969 6.84375 25.777344 C 5.875 26.042969 5.140625 26.636719 4.65625 27.550781 C 4.199219 28.339844 4.027344 29.171875 4.101562 30.058594 M 12.019531 5.824219 C 11.527344 5.96875 11.019531 6.085938 10.539062 6.261719 C 9.722656 6.554688 8.980469 6.976562 8.371094 7.609375 C 8.160156 7.828125 8.042969 8.0625 8.054688 8.386719 C 8.082031 8.972656 8.0625 9.558594 8.0625 10.144531 C 8.0625 10.246094 8.074219 10.34375 8.078125 10.441406 C 8.59375 10.285156 9.066406 10.101562 9.558594 10.007812 C 10.390625 9.851562 11.234375 9.753906 12.117188 9.640625 C 13.84375 9.628906 15.570312 9.578125 17.296875 9.613281 C 18.878906 9.648438 20.449219 9.816406 21.9375 10.425781 C 21.960938 10.4375 21.992188 10.417969 22.039062 10.410156 C 22.039062 9.695312 22.050781 8.984375 22.027344 8.273438 C 22.023438 8.097656 21.949219 7.886719 21.839844 7.75 C 21.316406 7.105469 20.617188 6.699219 19.863281 6.378906 C 18.414062 5.753906 16.878906 5.5625 15.320312 5.53125 C 14.226562 5.511719 13.136719 5.578125 12.019531 5.824219 M 12.019531 2.109375 C 11.492188 2.332031 11.027344 2.636719 10.640625 3.046875 C 10.734375 3.191406 10.832031 3.304688 10.890625 3.433594 C 11.128906 3.96875 10.847656 4.371094 10.261719 4.347656 C 10.222656 4.347656 10.183594 4.34375 10.144531 4.339844 C 9.285156 4.320312 8.535156 4.949219 8.375 5.847656 C 8.472656 5.792969 8.554688 5.753906 8.632812 5.707031 C 9.523438 5.160156 10.492188 4.804688 11.507812 4.582031 C 11.785156 4.519531 11.972656 4.410156 12.109375 4.132812 C 12.851562 3.28125 13.792969 2.757812 14.863281 2.441406 C 15.3125 2.308594 15.667969 2.597656 15.65625 3.0625 C 15.648438 3.449219 15.5 3.644531 15.136719 3.78125 C 14.835938 3.890625 14.539062 4.015625 14.210938 4.144531 C 15.28125 4.210938 16.292969 4.277344 17.304688 4.332031 C 17.429688 4.339844 17.574219 4.296875 17.6875 4.238281 C 18.53125 3.804688 19.4375 3.640625 20.371094 3.59375 C 20.636719 3.582031 20.84375 3.695312 20.964844 3.941406 C 21.089844 4.199219 21.035156 4.445312 20.84375 4.613281 C 20.636719 4.789062 20.375 4.898438 20.183594 5.011719 C 20.660156 5.269531 21.214844 5.570312 21.769531 5.863281 C 21.839844 5.898438 21.941406 5.871094 22.027344 5.878906 C 22.714844 5.914062 23.40625 5.933594 24.09375 5.988281 C 24.359375 6.011719 24.527344 6.207031 24.578125 6.472656 C 24.628906 6.742188 24.503906 6.949219 24.277344 7.089844 C 24.039062 7.234375 23.789062 7.324219 23.5 7.226562 C 23.417969 7.199219 23.320312 7.210938 23.300781 7.210938 C 23.339844 7.589844 23.410156 7.941406 23.410156 8.292969 C 23.425781 9.757812 23.414062 11.222656 23.421875 12.6875 C 23.421875 12.808594 23.472656 12.945312 23.535156 13.054688 C 23.640625 13.25 23.769531 13.433594 23.894531 13.617188 C 23.9375 13.683594 23.992188 13.777344 24.054688 13.789062 C 24.570312 13.886719 24.855469 13.65625 24.851562 13.144531 C 24.84375 12.195312 24.542969 11.34375 23.957031 10.59375 C 23.636719 10.1875 23.792969 9.742188 24.289062 9.601562 C 24.65625 9.496094 24.933594 9.589844 25.164062 9.890625 C 25.671875 10.542969 25.980469 11.285156 26.175781 12.078125 C 26.195312 12.164062 26.222656 12.246094 26.246094 12.332031 C 26.363281 12.179688 26.429688 12.039062 26.46875 11.890625 C 26.785156 10.753906 26.785156 9.609375 26.433594 8.484375 C 25.738281 6.242188 24.25 4.609375 22.3125 3.375 C 19.683594 1.710938 16.804688 1.140625 13.730469 1.609375 C 13.164062 1.695312 12.617188 1.9375 12.019531 2.109375 M 17.867188 21.355469 C 18.035156 21.222656 18.210938 21.097656 18.371094 20.953125 C 19.683594 19.792969 20.617188 18.398438 20.816406 16.625 C 20.917969 15.757812 20.863281 14.871094 20.863281 13.992188 C 20.867188 13.910156 20.792969 13.816406 20.734375 13.742188 C 20.136719 12.996094 19.675781 12.175781 19.402344 11.257812 C 19.347656 11.082031 19.261719 11.007812 19.078125 10.996094 C 18.230469 10.9375 17.386719 10.84375 16.539062 10.808594 C 14.683594 10.734375 12.832031 10.773438 10.988281 11.011719 C 10.886719 11.027344 10.753906 11.148438 10.71875 11.246094 C 10.414062 12.164062 9.960938 12.996094 9.363281 13.753906 C 9.285156 13.851562 9.238281 14 9.234375 14.121094 C 9.222656 14.816406 9.191406 15.511719 9.246094 16.199219 C 9.292969 16.757812 9.378906 17.332031 9.570312 17.855469 C 10.25 19.75 11.597656 21.0625 13.367188 21.960938 C 14.113281 22.335938 14.902344 22.519531 15.746094 22.339844 C 16.515625 22.171875 17.191406 21.816406 17.867188 21.355469 M 13.019531 23.34375 C 12.59375 23.125 12.167969 22.910156 11.722656 22.683594 C 11.722656 23.007812 11.707031 23.300781 11.730469 23.589844 C 11.738281 23.695312 11.8125 23.839844 11.898438 23.878906 C 12.582031 24.207031 13.273438 24.515625 13.964844 24.816406 C 14.136719 24.890625 14.335938 24.902344 14.535156 24.945312 C 14.535156 24.457031 14.535156 24.011719 14.535156 23.632812 C 14.019531 23.539062 13.539062 23.449219 13.019531 23.34375 M 16.253906 23.546875 C 16.015625 23.546875 15.777344 23.546875 15.5625 23.546875 C 15.5625 24.03125 15.5625 24.472656 15.5625 24.90625 C 15.617188 24.921875 15.636719 24.933594 15.652344 24.929688 C 16.625 24.777344 17.488281 24.363281 18.3125 23.84375 C 18.355469 23.816406 18.40625 23.757812 18.40625 23.710938 C 18.414062 23.386719 18.410156 23.0625 18.410156 22.695312 C 18.113281 22.859375 17.878906 23.011719 17.625 23.132812 C 17.210938 23.335938 16.808594 23.601562 16.253906 23.546875 M 8.921875 12.175781 C 9.050781 11.921875 9.179688 11.667969 9.308594 11.410156 C 9.289062 11.394531 9.273438 11.375 9.253906 11.355469 C 9.023438 11.457031 8.796875 11.550781 8.570312 11.660156 C 8.207031 11.835938 7.992188 12.09375 8.050781 12.535156 C 8.074219 12.707031 8.105469 12.835938 8.28125 12.835938 C 8.378906 12.835938 8.507812 12.773438 8.574219 12.699219 C 8.699219 12.550781 8.792969 12.375 8.921875 12.175781 M 21.222656 11.503906 C 21.109375 11.464844 20.996094 11.429688 20.882812 11.390625 C 20.859375 11.417969 20.832031 11.441406 20.808594 11.46875 C 21.082031 11.910156 21.347656 12.355469 21.632812 12.792969 C 21.660156 12.835938 21.789062 12.84375 21.859375 12.824219 C 21.925781 12.800781 22.015625 12.730469 22.03125 12.667969 C 22.140625 12.230469 22.035156 11.976562 21.648438 11.726562 C 21.527344 11.648438 21.390625 11.589844 21.222656 11.503906 M 7.917969 15.179688 C 7.917969 14.898438 7.902344 14.617188 7.921875 14.335938 C 7.945312 14.042969 7.792969 13.96875 7.519531 13.960938 C 7.40625 14.515625 7.589844 14.984375 7.910156 15.425781 C 7.914062 15.363281 7.914062 15.296875 7.917969 15.179688 M 22.210938 15.011719 C 22.210938 15.136719 22.210938 15.261719 22.210938 15.386719 C 22.515625 14.945312 22.703125 14.492188 22.578125 13.96875 C 22.285156 13.964844 22.1875 14.089844 22.210938 14.347656 C 22.226562 14.550781 22.210938 14.753906 22.210938 15.011719 Z M 22.210938 15.011719 "/>
<path style=" stroke:none;fill-rule:nonzero;fill:rgb(98.431373%,74.509804%,9.803922%);fill-opacity:1;" d="M 18.402344 28.976562 C 18.074219 29.003906 17.75 29.003906 17.40625 28.976562 C 17.605469 28.671875 17.515625 28.363281 17.378906 28.109375 C 17.3125 27.976562 17.074219 27.878906 16.90625 27.875 C 16.691406 27.867188 16.515625 28.046875 16.523438 28.273438 C 16.535156 28.515625 16.617188 28.753906 16.667969 28.996094 C 15.605469 28.996094 14.542969 29 13.457031 28.980469 C 13.503906 28.757812 13.601562 28.5625 13.632812 28.359375 C 13.664062 28.121094 13.523438 27.953125 13.296875 27.875 C 13.074219 27.804688 12.875 27.878906 12.769531 28.074219 C 12.609375 28.367188 12.480469 28.675781 12.730469 28.996094 C 10.085938 28.996094 7.445312 29 4.800781 29 C 4.773438 29 4.746094 28.992188 4.671875 28.980469 C 4.671875 28.519531 4.671875 28.058594 4.671875 27.566406 C 5.140625 26.636719 5.875 26.042969 6.84375 25.777344 C 8.160156 25.417969 9.488281 25.101562 10.816406 24.777344 C 10.929688 24.75 11.089844 24.785156 11.191406 24.847656 C 12.328125 25.546875 13.523438 26.046875 14.875 26.167969 C 15.277344 26.203125 15.667969 26.429688 16.058594 26.574219 C 16.765625 26.832031 17.464844 27.105469 18.171875 27.359375 C 18.367188 27.425781 18.421875 27.523438 18.414062 27.71875 C 18.402344 28.128906 18.410156 28.539062 18.402344 28.976562 Z M 18.402344 28.976562 "/>
<path style=" stroke:none;fill-rule:nonzero;fill:rgb(92.54902%,40%,14.509804%);fill-opacity:1;" d="M 12.0625 2.105469 C 12.617188 1.9375 13.164062 1.695312 13.730469 1.609375 C 16.804688 1.140625 19.683594 1.710938 22.3125 3.375 C 24.25 4.609375 25.738281 6.242188 26.433594 8.484375 C 26.785156 9.609375 26.785156 10.753906 26.46875 11.890625 C 26.429688 12.039062 26.363281 12.179688 26.246094 12.332031 C 26.222656 12.246094 26.195312 12.164062 26.175781 12.078125 C 25.980469 11.285156 25.671875 10.542969 25.164062 9.890625 C 24.933594 9.589844 24.65625 9.496094 24.289062 9.601562 C 23.792969 9.742188 23.636719 10.1875 23.957031 10.59375 C 24.542969 11.34375 24.84375 12.195312 24.851562 13.144531 C 24.855469 13.65625 24.570312 13.886719 24.054688 13.789062 C 23.992188 13.777344 23.9375 13.683594 23.894531 13.617188 C 23.769531 13.433594 23.640625 13.25 23.535156 13.054688 C 23.472656 12.945312 23.421875 12.808594 23.421875 12.6875 C 23.414062 11.222656 23.425781 9.757812 23.410156 8.292969 C 23.410156 7.941406 23.339844 7.589844 23.300781 7.210938 C 23.320312 7.210938 23.417969 7.199219 23.5 7.226562 C 23.789062 7.324219 24.039062 7.234375 24.277344 7.089844 C 24.503906 6.949219 24.628906 6.742188 24.578125 6.472656 C 24.527344 6.207031 24.359375 6.011719 24.09375 5.988281 C 23.40625 5.933594 22.714844 5.914062 22.027344 5.878906 C 21.941406 5.871094 21.839844 5.898438 21.769531 5.863281 C 21.214844 5.570312 20.660156 5.269531 20.183594 5.011719 C 20.375 4.898438 20.636719 4.789062 20.84375 4.613281 C 21.035156 4.445312 21.089844 4.199219 20.964844 3.941406 C 20.84375 3.695312 20.636719 3.582031 20.371094 3.59375 C 19.4375 3.640625 18.53125 3.804688 17.6875 4.238281 C 17.574219 4.296875 17.429688 4.339844 17.304688 4.332031 C 16.292969 4.277344 15.28125 4.210938 14.210938 4.144531 C 14.539062 4.015625 14.835938 3.890625 15.136719 3.78125 C 15.5 3.644531 15.648438 3.449219 15.65625 3.0625 C 15.667969 2.597656 15.3125 2.308594 14.863281 2.441406 C 13.792969 2.757812 12.851562 3.28125 12.089844 4.117188 C 12.066406 3.433594 12.0625 2.769531 12.0625 2.105469 Z M 12.0625 2.105469 "/>
<path style=" stroke:none;fill-rule:nonzero;fill:rgb(93.72549%,40.392157%,14.509804%);fill-opacity:1;" d="M 12.066406 5.828125 C 13.136719 5.578125 14.226562 5.511719 15.320312 5.53125 C 16.878906 5.5625 18.414062 5.753906 19.863281 6.378906 C 20.617188 6.699219 21.316406 7.105469 21.839844 7.75 C 21.949219 7.886719 22.023438 8.097656 22.027344 8.273438 C 22.050781 8.984375 22.039062 9.695312 22.039062 10.410156 C 21.992188 10.417969 21.960938 10.4375 21.9375 10.425781 C 20.449219 9.816406 18.878906 9.648438 17.296875 9.613281 C 15.570312 9.578125 13.84375 9.628906 12.09375 9.609375 C 12.066406 8.328125 12.066406 7.078125 12.066406 5.828125 Z M 12.066406 5.828125 "/>
<path style=" stroke:none;fill-rule:nonzero;fill:rgb(98.039216%,74.509804%,10.196078%);fill-opacity:1;" d="M 24.429688 26.355469 C 24.441406 27.234375 24.441406 28.101562 24.441406 29.003906 C 22.789062 29.003906 21.167969 29.003906 19.519531 29.003906 C 19.488281 28.46875 19.480469 27.933594 19.476562 27.398438 C 19.472656 26.722656 19.351562 26.550781 18.71875 26.320312 C 18.226562 26.136719 17.734375 25.953125 17.183594 25.75 C 17.304688 25.683594 17.375 25.648438 17.445312 25.609375 C 17.925781 25.355469 18.40625 25.09375 18.894531 24.851562 C 19.011719 24.792969 19.171875 24.75 19.292969 24.78125 C 20.574219 25.089844 21.855469 25.390625 23.121094 25.746094 C 23.574219 25.871094 23.988281 26.136719 24.429688 26.355469 Z M 24.429688 26.355469 "/>
<path style=" stroke:none;fill-rule:nonzero;fill:rgb(92.54902%,40.392157%,15.686275%);fill-opacity:1;" d="M 18.535156 0.3125 C 19.105469 0.277344 19.683594 0.292969 20.226562 0.574219 C 20.402344 0.664062 20.632812 0.644531 20.820312 0.714844 C 21.410156 0.945312 22.011719 1.15625 22.574219 1.4375 C 24.3125 2.316406 25.695312 3.644531 26.964844 5.089844 C 27.28125 5.449219 27.511719 5.894531 27.71875 6.332031 C 28.144531 7.21875 28.625 8.097656 28.898438 9.035156 C 29.28125 10.347656 29.457031 11.71875 28.992188 13.066406 C 28.601562 14.214844 27.785156 15 26.71875 15.542969 C 26.5625 15.625 26.402344 15.699219 26.25 15.785156 C 25.65625 16.132812 25.011719 16.203125 24.355469 16.089844 C 24.136719 16.054688 23.945312 15.855469 23.730469 15.710938 C 23.71875 15.675781 23.71875 15.65625 23.722656 15.636719 C 23.792969 15.25 23.949219 15.046875 24.417969 15.023438 C 25.554688 14.96875 26.535156 14.515625 27.238281 13.578125 C 27.757812 12.890625 28 12.089844 28.109375 11.246094 C 28.425781 8.832031 27.664062 6.734375 26.164062 4.886719 C 24.25 2.539062 21.753906 1.121094 18.835938 0.394531 C 18.742188 0.371094 18.648438 0.347656 18.535156 0.3125 Z M 18.535156 0.3125 "/>
<path style=" stroke:none;fill-rule:nonzero;fill:rgb(89.411765%,38.823529%,15.686275%);fill-opacity:1;" d="M 21.242188 11.511719 C 21.390625 11.589844 21.527344 11.648438 21.648438 11.726562 C 22.035156 11.976562 22.140625 12.230469 22.03125 12.667969 C 22.015625 12.730469 21.925781 12.800781 21.859375 12.824219 C 21.789062 12.84375 21.660156 12.835938 21.632812 12.792969 C 21.347656 12.355469 21.082031 11.910156 20.808594 11.46875 C 20.832031 11.441406 20.859375 11.417969 20.882812 11.390625 C 20.996094 11.429688 21.109375 11.464844 21.242188 11.511719 Z M 21.242188 11.511719 "/>
<path style=" stroke:none;fill-rule:nonzero;fill:rgb(21.176471%,19.215686%,43.137255%);fill-opacity:1;" d="M 12.75 29.003906 C 12.480469 28.675781 12.609375 28.367188 12.769531 28.074219 C 12.875 27.878906 13.074219 27.804688 13.296875 27.875 C 13.523438 27.953125 13.664062 28.121094 13.632812 28.359375 C 13.601562 28.5625 13.503906 28.757812 13.429688 28.976562 C 13.207031 29.128906 12.988281 29.167969 12.75 29.003906 Z M 12.75 29.003906 "/>
<path style=" stroke:none;fill-rule:nonzero;fill:rgb(20.784314%,18.823529%,43.529412%);fill-opacity:1;" d="M 16.6875 29.003906 C 16.617188 28.753906 16.535156 28.515625 16.523438 28.273438 C 16.515625 28.046875 16.691406 27.867188 16.90625 27.875 C 17.074219 27.878906 17.3125 27.976562 17.378906 28.109375 C 17.515625 28.363281 17.605469 28.671875 17.375 28.976562 C 17.148438 29.128906 16.929688 29.167969 16.6875 29.003906 Z M 16.6875 29.003906 "/>
<path style=" stroke:none;fill-rule:nonzero;fill:rgb(9.411765%,18.823529%,45.098039%);fill-opacity:1;" d="M 11.976562 18.65625 C 12.261719 18.363281 12.535156 18.085938 12.804688 17.8125 C 14.371094 19.222656 16.386719 19.007812 17.605469 17.839844 C 17.9375 18.179688 18.269531 18.519531 18.601562 18.859375 C 16.859375 20.710938 13.527344 20.710938 11.832031 18.820312 C 11.871094 18.769531 11.917969 18.71875 11.976562 18.65625 Z M 11.976562 18.65625 "/>
</g>
</svg>
