<?xml version="1.0" encoding="UTF-8"?>
<svg xmlns="http://www.w3.org/2000/svg" xmlns:xlink="http://www.w3.org/1999/xlink" width="30px" height="32px" viewBox="0 0 30 32" version="1.1">
<g id="surface1">
<path style=" stroke:none;fill-rule:nonzero;fill:rgb(18.039216%,16.862745%,43.921569%);fill-opacity:1;" d="M 2.574219 30.546875 C 2.480469 30.636719 2.386719 30.726562 2.289062 30.8125 C 1.9375 31.113281 1.453125 31.089844 1.148438 30.757812 C 0.847656 30.425781 0.835938 29.855469 1.148438 29.511719 C 1.613281 29.007812 2.089844 28.519531 2.589844 28 C 2.847656 27.738281 3.078125 27.5 3.308594 27.257812 C 3.945312 26.578125 4.585938 25.898438 5.242188 25.207031 C 5.722656 24.660156 6.183594 24.128906 6.660156 23.578125 C 6.441406 23.230469 6.15625 22.820312 5.910156 22.386719 C 5.132812 21.023438 5.054688 19.648438 5.898438 18.277344 C 6.285156 17.652344 6.765625 17.105469 7.386719 16.757812 C 8.125 16.34375 8.90625 16.015625 9.667969 15.636719 C 9.8125 15.566406 9.960938 15.46875 10.074219 15.351562 C 11.210938 14.152344 12.335938 12.933594 13.484375 11.746094 C 13.84375 11.371094 14.085938 10.953125 14.25 10.449219 C 14.589844 9.40625 15.050781 8.429688 15.800781 7.652344 C 16.558594 6.871094 17.445312 6.414062 18.53125 6.636719 C 19.257812 6.785156 19.863281 7.210938 20.433594 7.695312 C 20.667969 7.890625 20.898438 8.097656 21.1875 8.351562 C 21.554688 7.9375 21.914062 7.542969 22.265625 7.140625 C 22.351562 7.039062 22.421875 6.921875 22.5 6.8125 C 22.5 6.8125 22.5 6.8125 22.519531 6.820312 C 22.558594 6.804688 22.578125 6.78125 22.613281 6.753906 C 22.707031 6.667969 22.78125 6.585938 22.875 6.492188 C 22.875 6.429688 22.855469 6.382812 22.835938 6.335938 C 22.835938 6.335938 22.832031 6.332031 22.832031 6.332031 C 22.832031 6.332031 22.824219 6.332031 22.84375 6.359375 C 23.066406 6.21875 23.285156 6.074219 23.46875 5.886719 C 24.96875 4.328125 26.464844 2.761719 27.960938 1.199219 C 28.027344 1.179688 28.089844 1.15625 28.15625 1.140625 C 28.542969 1.042969 28.910156 1.203125 29.09375 1.539062 C 29.269531 1.859375 29.214844 2.355469 28.960938 2.636719 C 28.632812 2.992188 28.296875 3.339844 27.9375 3.714844 C 27.007812 4.679688 26.105469 5.613281 25.210938 6.550781 C 24.65625 7.132812 24.105469 7.726562 23.539062 8.320312 C 23.136719 8.753906 22.753906 9.179688 22.359375 9.613281 C 22.636719 9.992188 22.925781 10.371094 23.195312 10.765625 C 23.558594 11.300781 23.855469 11.875 23.910156 12.550781 C 24.007812 13.785156 23.476562 14.71875 22.660156 15.507812 C 21.835938 16.304688 20.867188 16.824219 19.816406 17.195312 C 19.648438 17.253906 19.480469 17.367188 19.355469 17.5 C 18.222656 18.691406 17.109375 19.902344 15.96875 21.085938 C 15.558594 21.515625 15.308594 22.015625 15.097656 22.574219 C 14.855469 23.226562 14.5625 23.871094 14.199219 24.453125 C 13.667969 25.292969 12.976562 25.976562 12.042969 26.296875 C 10.992188 26.65625 10.019531 26.363281 9.105469 25.785156 C 8.699219 25.527344 8.316406 25.222656 7.910156 24.929688 C 7.097656 25.78125 6.289062 26.625 5.484375 27.472656 C 4.515625 28.496094 3.542969 29.523438 2.574219 30.546875 M 13.664062 14.1875 C 13.496094 14.371094 13.328125 14.550781 13.125 14.742188 C 13.015625 14.839844 12.90625 14.9375 12.816406 15.015625 C 13.917969 16.195312 14.976562 17.324219 16.054688 18.480469 C 16.152344 18.367188 16.253906 18.246094 16.390625 18.113281 C 16.558594 17.933594 16.722656 17.75 16.921875 17.554688 C 17.078125 17.386719 17.230469 17.21875 17.375 17.0625 C 16.292969 15.910156 15.238281 14.785156 14.164062 13.632812 C 14.011719 13.808594 13.855469 13.988281 13.664062 14.1875 M 17.597656 8.464844 C 17.433594 8.566406 17.269531 8.667969 17.128906 8.753906 C 18.71875 10.453125 20.285156 12.128906 21.875 13.828125 C 21.953125 13.683594 22.039062 13.527344 22.148438 13.328125 C 22.367188 12.832031 22.222656 12.398438 21.957031 11.980469 C 21.34375 11.023438 20.617188 10.167969 19.78125 9.433594 C 19.398438 9.097656 18.984375 8.800781 18.5625 8.527344 C 18.28125 8.339844 17.957031 8.296875 17.597656 8.464844 M 15.480469 11.890625 C 15.289062 12.167969 15.363281 12.367188 15.589844 12.605469 C 16.5 13.546875 17.390625 14.511719 18.289062 15.46875 C 18.617188 15.820312 18.617188 15.820312 19.09375 15.566406 C 19.371094 15.453125 19.648438 15.339844 19.964844 15.21875 C 20.128906 15.140625 20.292969 15.058594 20.398438 15.007812 C 18.957031 13.464844 17.523438 11.929688 16.074219 10.382812 C 16.027344 10.519531 15.972656 10.683594 15.886719 10.878906 C 15.761719 11.207031 15.640625 11.535156 15.480469 11.890625 M 11.085938 16.808594 C 10.699219 17.039062 10.324219 17.285156 9.925781 17.496094 C 9.632812 17.648438 9.316406 17.753906 8.96875 17.882812 C 8.273438 18.242188 7.683594 18.742188 7.242188 19.429688 C 6.925781 19.925781 6.875 20.457031 7.121094 20.996094 C 7.261719 21.3125 7.433594 21.617188 7.617188 21.910156 C 8.3125 23.011719 9.226562 23.847656 10.328125 24.464844 C 10.964844 24.824219 11.542969 24.75 12.089844 24.261719 C 12.65625 23.761719 13.085938 23.152344 13.410156 22.410156 C 13.707031 21.683594 13.8125 20.855469 14.398438 20.238281 C 14.546875 20.082031 14.691406 19.925781 14.804688 19.804688 C 13.703125 18.628906 12.632812 17.488281 11.535156 16.316406 C 11.410156 16.460938 11.265625 16.625 11.085938 16.808594 Z M 11.085938 16.808594 "/>
<path style=" stroke:none;fill-rule:nonzero;fill:rgb(94.509804%,74.901961%,5.882353%);fill-opacity:1;" d="M 2.574219 30.570312 C 3.542969 29.523438 4.515625 28.496094 5.484375 27.472656 C 6.289062 26.625 7.097656 25.78125 7.910156 24.929688 C 8.316406 25.222656 8.699219 25.527344 9.105469 25.785156 C 10.019531 26.363281 10.992188 26.65625 12.042969 26.296875 C 12.976562 25.976562 13.667969 25.292969 14.199219 24.453125 C 14.5625 23.871094 14.855469 23.226562 15.097656 22.574219 C 15.308594 22.015625 15.558594 21.515625 15.96875 21.085938 C 17.109375 19.902344 18.222656 18.691406 19.355469 17.5 C 19.480469 17.367188 19.648438 17.253906 19.816406 17.195312 C 20.867188 16.824219 21.835938 16.304688 22.660156 15.507812 C 23.476562 14.71875 24.007812 13.785156 23.910156 12.550781 C 23.855469 11.875 23.558594 11.300781 23.195312 10.765625 C 22.925781 10.371094 22.636719 9.992188 22.359375 9.613281 C 22.753906 9.179688 23.136719 8.753906 23.554688 8.332031 C 23.625 8.390625 23.664062 8.445312 23.703125 8.5 C 24.15625 9.136719 24.664062 9.738281 25.046875 10.417969 C 25.839844 11.828125 25.6875 13.371094 24.722656 14.65625 C 24.136719 15.441406 23.394531 16.019531 22.566406 16.550781 C 21.875 16.863281 21.21875 17.148438 20.566406 17.449219 C 20.429688 17.511719 20.285156 17.589844 20.179688 17.703125 C 19.019531 18.933594 17.863281 20.167969 16.707031 21.40625 C 16.582031 21.535156 16.46875 21.679688 16.351562 21.816406 C 15.757812 22.324219 15.339844 22.957031 15.128906 23.746094 C 14.773438 25.085938 14.050781 26.183594 13.109375 27.125 C 11.765625 28.464844 10.15625 28.734375 8.519531 27.835938 C 7.863281 27.480469 7.257812 27.015625 6.59375 26.574219 C 5.296875 27.933594 3.960938 29.332031 2.605469 30.75 C 2.589844 30.667969 2.585938 30.628906 2.574219 30.570312 Z M 2.574219 30.570312 "/>
<path style=" stroke:none;fill-rule:nonzero;fill:rgb(94.509804%,74.901961%,5.490196%);fill-opacity:1;" d="M 22.503906 6.8125 C 22.421875 6.921875 22.351562 7.039062 22.265625 7.140625 C 21.914062 7.542969 21.554688 7.9375 21.1875 8.351562 C 20.898438 8.097656 20.667969 7.890625 20.433594 7.695312 C 19.863281 7.210938 19.257812 6.785156 18.53125 6.636719 C 17.445312 6.414062 16.558594 6.871094 15.800781 7.652344 C 15.050781 8.429688 14.589844 9.40625 14.25 10.449219 C 14.085938 10.953125 13.84375 11.371094 13.484375 11.746094 C 12.335938 12.933594 11.210938 14.152344 10.074219 15.351562 C 9.960938 15.46875 9.8125 15.566406 9.667969 15.636719 C 8.90625 16.015625 8.125 16.34375 7.386719 16.757812 C 6.765625 17.105469 6.285156 17.652344 5.898438 18.277344 C 5.054688 19.648438 5.132812 21.023438 5.910156 22.386719 C 6.15625 22.820312 6.441406 23.230469 6.660156 23.578125 C 6.183594 24.128906 5.722656 24.660156 5.238281 25.191406 C 5.199219 25.167969 5.183594 25.148438 5.167969 25.128906 C 5.132812 25.023438 5.113281 24.90625 5.058594 24.808594 C 4.660156 24.109375 4.183594 23.449219 3.867188 22.710938 C 3.191406 21.125 3.515625 19.648438 4.492188 18.308594 C 5.320312 17.164062 6.449219 16.496094 7.695312 16.003906 C 8.078125 15.851562 8.453125 15.683594 8.828125 15.503906 C 8.941406 15.449219 9.035156 15.332031 9.160156 15.214844 C 9.246094 15.136719 9.3125 15.09375 9.367188 15.035156 C 10.789062 13.523438 12.207031 12.011719 13.621094 10.492188 C 13.738281 10.367188 13.816406 10.1875 13.886719 10.019531 C 14.234375 9.199219 14.5625 8.367188 14.921875 7.554688 C 15.070312 7.222656 15.289062 6.925781 15.476562 6.613281 C 15.765625 6.324219 16.035156 6.003906 16.347656 5.742188 C 17.710938 4.609375 19.167969 4.5625 20.675781 5.617188 C 21.148438 5.945312 21.578125 6.34375 22.027344 6.710938 C 22.132812 6.796875 22.226562 6.929688 22.417969 6.777344 C 22.472656 6.777344 22.488281 6.792969 22.503906 6.8125 Z M 22.503906 6.8125 "/>
<path style=" stroke:none;fill-rule:nonzero;fill:rgb(94.117647%,40.784314%,14.509804%);fill-opacity:1;" d="M 15.449219 6.605469 C 15.289062 6.925781 15.070312 7.222656 14.921875 7.554688 C 14.5625 8.367188 14.234375 9.199219 13.886719 10.019531 C 13.816406 10.1875 13.738281 10.367188 13.621094 10.492188 C 12.207031 12.011719 10.789062 13.523438 9.367188 15.035156 C 9.3125 15.09375 9.246094 15.136719 9.167969 15.195312 C 8.472656 13.726562 8.613281 12.289062 9.355469 10.90625 C 10.46875 8.835938 12.109375 7.425781 14.238281 6.695312 C 14.605469 6.570312 15.027344 6.625 15.449219 6.605469 Z M 15.449219 6.605469 "/>
<path style=" stroke:none;fill-rule:nonzero;fill:rgb(94.117647%,41.176471%,14.509804%);fill-opacity:1;" d="M 16.378906 21.816406 C 16.46875 21.679688 16.582031 21.535156 16.707031 21.40625 C 17.863281 20.167969 19.019531 18.933594 20.179688 17.703125 C 20.285156 17.589844 20.429688 17.511719 20.566406 17.449219 C 21.21875 17.148438 21.875 16.863281 22.546875 16.570312 C 22.953125 17.78125 22.597656 18.8125 21.84375 19.722656 C 21.207031 20.492188 20.371094 20.933594 19.472656 21.25 C 18.476562 21.601562 17.445312 21.757812 16.378906 21.816406 Z M 16.378906 21.816406 "/>
<path style=" stroke:none;fill-rule:nonzero;fill:rgb(90.196078%,72.941176%,14.901961%);fill-opacity:1;" d="M 27.960938 1.175781 C 26.464844 2.761719 24.96875 4.328125 23.46875 5.886719 C 23.285156 6.074219 23.066406 6.21875 22.84375 6.359375 C 23.863281 5.242188 24.902344 4.144531 25.941406 3.050781 C 26.527344 2.429688 27.121094 1.8125 27.710938 1.191406 C 27.769531 1.128906 27.835938 1.070312 27.925781 0.984375 C 27.941406 1.0625 27.949219 1.109375 27.960938 1.175781 Z M 27.960938 1.175781 "/>
<path style=" stroke:none;fill-rule:nonzero;fill:rgb(89.019608%,72.54902%,16.862745%);fill-opacity:1;" d="M 23.703125 8.476562 C 23.664062 8.445312 23.625 8.390625 23.570312 8.324219 C 24.105469 7.726562 24.65625 7.132812 25.210938 6.550781 C 26.105469 5.613281 27.007812 4.679688 27.925781 3.734375 C 27.867188 3.878906 27.8125 4.0625 27.703125 4.183594 C 26.433594 5.519531 25.152344 6.847656 23.878906 8.179688 C 23.808594 8.257812 23.761719 8.363281 23.703125 8.476562 Z M 23.703125 8.476562 "/>
<path style=" stroke:none;fill-rule:nonzero;fill:rgb(87.843137%,72.156863%,18.431373%);fill-opacity:1;" d="M 5.152344 25.136719 C 5.183594 25.148438 5.199219 25.167969 5.21875 25.203125 C 4.585938 25.898438 3.945312 26.578125 3.308594 27.257812 C 3.078125 27.5 2.847656 27.738281 2.601562 27.980469 C 2.625 27.878906 2.644531 27.746094 2.714844 27.667969 C 3.515625 26.820312 4.324219 25.984375 5.152344 25.136719 Z M 5.152344 25.136719 "/>
<path style=" stroke:none;fill-rule:nonzero;fill:rgb(90.196078%,72.941176%,14.901961%);fill-opacity:1;" d="M 22.855469 6.503906 C 22.78125 6.585938 22.707031 6.667969 22.578125 6.753906 C 22.503906 6.757812 22.484375 6.761719 22.449219 6.773438 C 22.4375 6.78125 22.414062 6.773438 22.414062 6.773438 C 22.539062 6.632812 22.664062 6.496094 22.808594 6.34375 C 22.832031 6.332031 22.835938 6.335938 22.824219 6.359375 C 22.828125 6.421875 22.839844 6.460938 22.855469 6.503906 Z M 22.855469 6.503906 "/>
<path style=" stroke:none;fill-rule:nonzero;fill:rgb(18.039216%,16.862745%,43.921569%);fill-opacity:1;" d="M 22.414062 6.769531 C 22.414062 6.773438 22.4375 6.78125 22.453125 6.792969 C 22.476562 6.804688 22.488281 6.808594 22.5 6.8125 C 22.488281 6.792969 22.472656 6.777344 22.441406 6.761719 C 22.425781 6.765625 22.414062 6.765625 22.414062 6.769531 Z M 22.414062 6.769531 "/>
<path style=" stroke:none;fill-rule:nonzero;fill:rgb(98.431373%,74.509804%,10.196078%);fill-opacity:1;" d="M 13.398438 22.425781 C 13.058594 22.382812 12.800781 22.203125 12.5625 21.949219 C 11.507812 20.808594 10.441406 19.6875 9.390625 18.542969 C 9.230469 18.371094 9.140625 18.132812 9.015625 17.902344 C 9.316406 17.753906 9.632812 17.648438 9.925781 17.496094 C 10.324219 17.285156 10.699219 17.039062 11.113281 16.820312 C 11.6875 17.421875 12.234375 18.015625 12.785156 18.597656 C 13.304688 19.15625 13.835938 19.703125 14.363281 20.257812 C 13.8125 20.855469 13.707031 21.683594 13.398438 22.425781 Z M 13.398438 22.425781 "/>
<path style=" stroke:none;fill-rule:nonzero;fill:rgb(98.431373%,73.72549%,10.196078%);fill-opacity:1;" d="M 19.925781 15.226562 C 19.648438 15.339844 19.371094 15.453125 19.0625 15.546875 C 17.933594 14.351562 16.835938 13.175781 15.730469 12.003906 C 15.671875 11.941406 15.585938 11.910156 15.515625 11.863281 C 15.640625 11.535156 15.761719 11.207031 15.910156 10.882812 C 16.015625 10.980469 16.089844 11.074219 16.171875 11.160156 C 17.359375 12.429688 18.546875 13.691406 19.730469 14.960938 C 19.804688 15.039062 19.863281 15.136719 19.925781 15.226562 Z M 19.925781 15.226562 "/>
<path style=" stroke:none;fill-rule:nonzero;fill:rgb(97.254902%,73.72549%,10.196078%);fill-opacity:1;" d="M 17.636719 8.460938 C 17.957031 8.296875 18.28125 8.339844 18.5625 8.527344 C 18.984375 8.800781 19.398438 9.097656 19.78125 9.433594 C 20.617188 10.167969 21.34375 11.023438 21.957031 11.980469 C 22.222656 12.398438 22.367188 12.832031 22.125 13.332031 C 21.953125 13.125 21.824219 12.886719 21.648438 12.695312 C 20.316406 11.28125 18.976562 9.871094 17.636719 8.460938 Z M 17.636719 8.460938 "/>
<path style=" stroke:none;fill-rule:nonzero;fill:rgb(92.156863%,40.392157%,14.901961%);fill-opacity:1;" d="M 17.617188 8.460938 C 18.976562 9.871094 20.316406 11.28125 21.648438 12.695312 C 21.824219 12.886719 21.953125 13.125 22.117188 13.355469 C 22.039062 13.527344 21.953125 13.683594 21.875 13.828125 C 20.285156 12.128906 18.71875 10.453125 17.128906 8.753906 C 17.269531 8.667969 17.433594 8.566406 17.617188 8.460938 Z M 17.617188 8.460938 "/>
<path style=" stroke:none;fill-rule:nonzero;fill:rgb(98.431373%,74.117647%,9.803922%);fill-opacity:1;" d="M 13.160156 14.730469 C 13.328125 14.550781 13.496094 14.371094 13.699219 14.191406 C 14.132812 14.617188 14.539062 15.035156 14.9375 15.464844 C 15.589844 16.164062 16.238281 16.867188 16.886719 17.570312 C 16.722656 17.75 16.558594 17.933594 16.367188 18.101562 C 15.417969 17.101562 14.496094 16.113281 13.570312 15.128906 C 13.441406 14.988281 13.296875 14.863281 13.160156 14.730469 Z M 13.160156 14.730469 "/>
<path style=" stroke:none;fill-rule:nonzero;fill:rgb(92.156863%,40%,14.901961%);fill-opacity:1;" d="M 14.378906 20.25 C 13.835938 19.703125 13.304688 19.15625 12.785156 18.597656 C 12.234375 18.015625 11.6875 17.421875 11.132812 16.8125 C 11.265625 16.625 11.410156 16.460938 11.535156 16.316406 C 12.632812 17.488281 13.703125 18.628906 14.804688 19.804688 C 14.691406 19.925781 14.546875 20.082031 14.378906 20.25 Z M 14.378906 20.25 "/>
<path style=" stroke:none;fill-rule:nonzero;fill:rgb(91.764706%,39.607843%,14.901961%);fill-opacity:1;" d="M 19.945312 15.222656 C 19.863281 15.136719 19.804688 15.039062 19.730469 14.960938 C 18.546875 13.691406 17.359375 12.429688 16.171875 11.160156 C 16.089844 11.074219 16.015625 10.980469 15.925781 10.867188 C 15.972656 10.683594 16.027344 10.519531 16.074219 10.382812 C 17.523438 11.929688 18.957031 13.464844 20.398438 15.007812 C 20.292969 15.058594 20.128906 15.140625 19.945312 15.222656 Z M 19.945312 15.222656 "/>
<path style=" stroke:none;fill-rule:nonzero;fill:rgb(92.156863%,40%,14.901961%);fill-opacity:1;" d="M 16.90625 17.5625 C 16.238281 16.867188 15.589844 16.164062 14.9375 15.464844 C 14.539062 15.035156 14.132812 14.617188 13.714844 14.179688 C 13.855469 13.988281 14.011719 13.808594 14.164062 13.632812 C 15.238281 14.785156 16.292969 15.910156 17.375 17.0625 C 17.230469 17.21875 17.078125 17.386719 16.90625 17.5625 Z M 16.90625 17.5625 "/>
<path style=" stroke:none;fill-rule:nonzero;fill:rgb(91.764706%,39.607843%,14.901961%);fill-opacity:1;" d="M 15.5 11.875 C 15.585938 11.910156 15.671875 11.941406 15.730469 12.003906 C 16.835938 13.175781 17.933594 14.351562 19.039062 15.546875 C 18.617188 15.820312 18.617188 15.820312 18.289062 15.46875 C 17.390625 14.511719 16.5 13.546875 15.589844 12.605469 C 15.363281 12.367188 15.289062 12.167969 15.5 11.875 Z M 15.5 11.875 "/>
<path style=" stroke:none;fill-rule:nonzero;fill:rgb(91.764706%,39.607843%,14.901961%);fill-opacity:1;" d="M 13.144531 14.738281 C 13.296875 14.863281 13.441406 14.988281 13.570312 15.128906 C 14.496094 16.113281 15.417969 17.101562 16.347656 18.109375 C 16.253906 18.246094 16.152344 18.367188 16.054688 18.480469 C 14.976562 17.324219 13.917969 16.195312 12.816406 15.015625 C 12.90625 14.9375 13.015625 14.839844 13.144531 14.738281 Z M 13.144531 14.738281 "/>
<path style=" stroke:none;fill-rule:nonzero;fill:rgb(94.509804%,74.901961%,5.490196%);fill-opacity:1;" d="M 22.875 6.492188 C 22.839844 6.460938 22.828125 6.421875 22.824219 6.359375 C 22.855469 6.382812 22.875 6.429688 22.875 6.492188 Z M 22.875 6.492188 "/>
<path style=" stroke:none;fill-rule:nonzero;fill:rgb(94.509804%,74.901961%,5.490196%);fill-opacity:1;" d="M 22.519531 6.820312 C 22.488281 6.808594 22.476562 6.804688 22.464844 6.785156 C 22.484375 6.761719 22.503906 6.757812 22.5625 6.757812 C 22.578125 6.78125 22.558594 6.804688 22.519531 6.820312 Z M 22.519531 6.820312 "/>
</g>
</svg>
