<svg xmlns="http://www.w3.org/2000/svg" width="36.002" height="32.936" viewBox="0 0 36.002 32.936">
                                <g id="Group_3867" data-name="Group 3867" transform="translate(-463 -169)">
                                    <circle id="Ellipse_4214" data-name="Ellipse 4214" cx="7.5" cy="7.5" r="7.5" transform="translate(471 169)" fill="#f06724"></circle>
                                    <path id="Union_146" data-name="Union 146" d="M11.089,20a6,6,0,0,1-6-6v-.941q0-.093,0-.185A6,6,0,0,1,0,6.942V6A6,6,0,0,1,6,0H22a6,6,0,0,1,6,6v.941a6,6,0,0,1-6,6h-2.91c0,.039,0,.078,0,.117V14a6,6,0,0,1-6,6Z" transform="translate(499 196.001) rotate(180)" fill="#fcbf19"></path>
                                    <g id="_003-plane" data-name="003-plane" transform="translate(463 169.219)">
                                        <g id="Group_3861" data-name="Group 3861">
                                            <path id="Path_21307" data-name="Path 21307" d="M32.134,1.144C31.356.365,30.01.289,28.241.922a9.424,9.424,0,0,0-3.1,1.777l-4.9,4.9L4.105,5.067,0,9.172l13.413,5.254L9.107,18.732l-6.113.358L.063,22.021l6.634,3.2L4.838,27.08,6.2,28.44l1.856-1.856,3.2,6.63,2.93-2.93.358-6.113,4.379-4.379L24.178,33.2l4.1-4.105L25.75,12.968l4.829-4.829a9.422,9.422,0,0,0,1.777-3.1C32.99,3.269,32.913,1.923,32.134,1.144ZM3.439,8.453,4.773,7.118,18.556,9.283,14.9,12.941ZM26.231,28.43,24.9,29.765,20.409,18.309l3.658-3.658ZM30.546,4.388a7.813,7.813,0,0,1-1.326,2.391l-16.55,16.55-.358,6.113-.5.5-2.318-4.8,1.672-1.672-1.36-1.36L8.137,23.782l-4.8-2.316.5-.5,6.113-.358L26.5,4.059A7.815,7.815,0,0,1,28.89,2.733c1.164-.417,1.781-.332,1.884-.229S30.963,3.224,30.546,4.388Z" transform="translate(0 -0.498)" fill="#152e71"></path>
                                        </g>
                                    </g>
                                </g>
                            </svg>