<?xml version="1.0" encoding="UTF-8"?>
<svg xmlns="http://www.w3.org/2000/svg" xmlns:xlink="http://www.w3.org/1999/xlink" width="32px" height="32px" viewBox="0 0 32 32" version="1.1">
<g id="surface1">
<path style=" stroke:none;fill-rule:nonzero;fill:none;fill-opacity:1;" d="M 32.0625 25.8125 C 32.0625 27.894531 32.0625 29.976562 32.0625 32.0625 C 21.398438 32.0625 10.734375 32.0625 0.0664062 32.0625 C 0.0664062 21.402344 0.0664062 10.742188 0.0664062 0.0703125 C 10.730469 0.0703125 21.394531 0.0703125 32.0625 0.0703125 C 32.0625 1.566406 32.0625 3.066406 32.039062 4.589844 C 31.867188 4.128906 31.507812 3.828125 31.074219 3.644531 C 30.484375 3.394531 29.875 3.203125 29.265625 2.96875 C 28.894531 2.4375 28.363281 2.140625 27.785156 2.015625 C 26.484375 1.738281 25.175781 1.460938 23.859375 1.335938 C 22.675781 1.21875 21.46875 1.273438 20.273438 1.316406 C 19.320312 1.351562 18.363281 1.433594 17.421875 1.574219 C 16.488281 1.714844 15.570312 1.949219 14.757812 2.484375 C 14.316406 2.773438 14.113281 3.136719 14.117188 3.675781 C 14.132812 6.625 14.125 9.570312 14.121094 12.519531 C 14.121094 12.984375 14.066406 13.019531 13.636719 13 C 12.570312 12.953125 11.5 12.898438 10.429688 12.894531 C 9.617188 12.890625 8.804688 12.933594 8 13.011719 C 7.359375 13.074219 6.730469 13.234375 6.089844 13.324219 C 4.703125 13.515625 3.398438 13.917969 2.25 14.753906 C 1.785156 15.089844 1.554688 15.519531 1.558594 16.105469 C 1.570312 19.34375 1.566406 22.582031 1.558594 25.820312 C 1.558594 26.316406 1.734375 26.726562 2.089844 27.039062 C 2.335938 27.257812 2.636719 27.410156 2.917969 27.621094 C 2.921875 27.816406 2.933594 27.980469 2.921875 28.148438 C 2.878906 28.765625 3.148438 29.238281 3.605469 29.613281 C 3.828125 29.796875 4.066406 29.988281 4.332031 30.097656 C 5.050781 30.394531 5.769531 30.707031 6.515625 30.910156 C 8.179688 31.355469 9.890625 31.53125 11.609375 31.59375 C 14.210938 31.691406 16.789062 31.507812 19.320312 30.847656 C 20.199219 30.617188 21.042969 30.296875 21.785156 29.753906 C 22.347656 29.34375 22.703125 28.820312 22.640625 28.085938 C 22.636719 28.007812 22.652344 27.925781 22.664062 27.839844 C 22.742188 27.835938 22.804688 27.828125 22.863281 27.832031 C 24.617188 27.921875 26.359375 27.820312 28.09375 27.554688 C 29.058594 27.40625 30.023438 27.222656 30.914062 26.796875 C 31.371094 26.578125 31.789062 26.304688 32.015625 25.816406 C 32.03125 25.816406 32.0625 25.8125 32.0625 25.8125 Z M 32.0625 25.8125 "/>
<path style=" stroke:none;fill-rule:nonzero;fill:rgb(18.039216%,16.862745%,43.921569%);fill-opacity:1;" d="M 29.273438 2.988281 C 29.875 3.203125 30.484375 3.394531 31.074219 3.644531 C 31.507812 3.828125 31.867188 4.128906 32.039062 4.617188 C 32.0625 4.625 32.0625 4.65625 32.039062 4.6875 C 32.011719 4.820312 32 4.925781 32 5.027344 C 32 11.738281 32 18.449219 32 25.160156 C 32 25.378906 32 25.59375 32 25.8125 C 31.789062 26.304688 31.371094 26.578125 30.914062 26.796875 C 30.023438 27.222656 29.058594 27.40625 28.09375 27.554688 C 26.359375 27.820312 24.617188 27.921875 22.863281 27.832031 C 22.804688 27.828125 22.742188 27.835938 22.664062 27.839844 C 22.652344 27.925781 22.636719 28.007812 22.640625 28.085938 C 22.703125 28.820312 22.347656 29.34375 21.785156 29.753906 C 21.042969 30.296875 20.199219 30.617188 19.320312 30.847656 C 16.789062 31.507812 14.210938 31.691406 11.609375 31.59375 C 9.890625 31.53125 8.179688 31.355469 6.515625 30.910156 C 5.769531 30.707031 5.050781 30.394531 4.332031 30.097656 C 4.066406 29.988281 3.828125 29.796875 3.605469 29.613281 C 3.148438 29.238281 2.878906 28.765625 2.921875 28.148438 C 2.933594 27.980469 2.921875 27.816406 2.921875 27.589844 C 2.925781 24.40625 2.933594 21.28125 2.921875 18.160156 C 2.921875 17.660156 3.09375 17.253906 3.40625 16.878906 C 4.015625 16.160156 4.8125 15.75 5.675781 15.449219 C 7.757812 14.726562 9.921875 14.515625 12.101562 14.460938 C 13.40625 14.429688 14.71875 14.515625 16.066406 14.550781 C 16.066406 14.476562 16.066406 14.355469 16.066406 14.234375 C 16.0625 11.171875 16.070312 8.109375 16.050781 5.046875 C 16.046875 4.441406 16.296875 4.023438 16.789062 3.738281 C 17.136719 3.539062 17.507812 3.367188 17.890625 3.242188 C 19.519531 2.710938 21.207031 2.550781 22.90625 2.492188 C 25.042969 2.421875 27.171875 2.542969 29.273438 2.988281 M 30.453125 10.15625 C 30.453125 10.15625 30.457031 10.152344 30.410156 10.136719 C 30.367188 10.164062 30.324219 10.195312 30.273438 10.222656 C 30.273438 10.222656 30.269531 10.222656 30.222656 10.203125 C 29.625 10.324219 29.035156 10.492188 28.433594 10.566406 C 27.171875 10.714844 25.910156 10.867188 24.640625 10.921875 C 23.640625 10.960938 22.632812 10.886719 21.632812 10.804688 C 20.738281 10.730469 19.84375 10.613281 18.964844 10.441406 C 18.3125 10.3125 17.679688 10.066406 17.023438 9.871094 C 17.019531 9.882812 17.003906 9.917969 17.003906 9.957031 C 17 11.484375 17 13.015625 17.003906 14.542969 C 17.007812 14.613281 17.085938 14.679688 17.179688 14.757812 C 17.929688 14.902344 18.675781 15.050781 19.449219 15.199219 C 19.484375 15.03125 19.523438 14.859375 19.597656 14.664062 C 20.519531 12.375 22.875 11.195312 25.183594 11.867188 C 27.558594 12.554688 29.105469 15.046875 28.679688 17.433594 C 28.257812 19.785156 25.765625 21.976562 22.660156 21.101562 C 22.660156 21.316406 22.660156 21.527344 22.660156 21.761719 C 22.84375 21.777344 23.011719 21.800781 23.175781 21.796875 C 24.308594 21.761719 25.445312 21.773438 26.570312 21.660156 C 27.515625 21.566406 28.449219 21.324219 29.433594 21.140625 C 29.835938 20.984375 30.292969 20.9375 30.640625 20.558594 C 30.890625 20.503906 30.808594 20.300781 30.808594 20.152344 C 30.8125 16.855469 30.8125 13.558594 30.8125 10.265625 C 30.8125 10.171875 30.8125 10.082031 30.8125 9.949219 C 30.703125 10 30.632812 10.03125 30.523438 10.066406 C 30.5 10.097656 30.480469 10.128906 30.453125 10.15625 M 23.359375 12.945312 C 23.347656 12.949219 23.335938 12.953125 23.28125 12.988281 C 21.949219 13.242188 21.035156 14.003906 20.542969 15.265625 C 20.507812 15.359375 20.46875 15.480469 20.496094 15.566406 C 20.550781 15.738281 21.136719 15.863281 21.316406 15.769531 C 22.488281 15.179688 23.65625 15.160156 24.78125 15.863281 C 25.253906 16.160156 25.746094 16.375 26.277344 16.230469 C 26.675781 16.125 27.03125 15.867188 27.4375 15.648438 C 27.402344 15.402344 27.414062 15.140625 27.324219 14.917969 C 26.863281 13.773438 25.949219 13.164062 24.796875 12.894531 C 24.335938 12.785156 23.84375 12.699219 23.375 12.941406 C 23.375 12.941406 23.375 12.941406 23.359375 12.945312 M 7.8125 16.128906 C 7.8125 16.128906 7.816406 16.128906 7.761719 16.128906 C 6.945312 16.34375 6.121094 16.542969 5.316406 16.792969 C 4.988281 16.894531 4.679688 17.09375 4.390625 17.289062 C 4.265625 17.375 4.144531 17.566406 4.140625 17.710938 C 4.136719 18.035156 4.535156 18.382812 4.925781 18.449219 C 5.535156 18.941406 6.277344 19.121094 7.007812 19.308594 C 9.34375 19.921875 11.730469 20.011719 14.128906 19.929688 C 15.996094 19.867188 17.839844 19.640625 19.621094 19.050781 C 19.902344 18.960938 20.164062 18.808594 20.480469 18.695312 C 20.78125 18.496094 21.109375 18.328125 21.382812 18.09375 C 21.664062 17.855469 21.652344 17.648438 21.351562 17.425781 C 21.054688 17.207031 20.714844 17.046875 20.359375 16.832031 C 19.757812 16.636719 19.164062 16.371094 18.546875 16.261719 C 17.230469 16.03125 15.902344 15.808594 14.570312 15.71875 C 13.277344 15.636719 11.972656 15.710938 10.675781 15.753906 C 10.054688 15.773438 9.4375 15.875 8.769531 15.941406 C 8.679688 15.960938 8.589844 15.980469 8.476562 16.011719 C 8.476562 16.011719 8.449219 16.007812 8.394531 16.003906 C 8.199219 16.046875 8.007812 16.089844 7.8125 16.128906 M 21.625 25.375 C 21.617188 24.335938 21.613281 23.292969 21.613281 22.195312 C 21.613281 21.332031 21.613281 20.464844 21.613281 19.578125 C 21.171875 19.796875 20.773438 19.992188 20.328125 20.1875 C 19.332031 20.4375 18.34375 20.75 17.332031 20.925781 C 14.960938 21.339844 12.566406 21.359375 10.171875 21.171875 C 8.613281 21.050781 7.074219 20.796875 5.582031 20.304688 C 5.238281 20.191406 4.902344 20.058594 4.542969 19.898438 C 4.421875 19.828125 4.304688 19.757812 4.152344 19.667969 C 4.140625 19.785156 4.125 19.84375 4.125 19.902344 C 4.125 22.503906 4.117188 25.101562 4.136719 27.699219 C 4.136719 27.902344 4.265625 28.152344 4.414062 28.292969 C 4.636719 28.507812 4.929688 28.648438 5.25 28.855469 C 5.25 28.679688 5.25 28.589844 5.257812 28.441406 C 5.257812 26.753906 5.257812 25.066406 5.261719 23.378906 C 5.261719 22.972656 5.222656 22.578125 5.492188 22.191406 C 5.734375 21.847656 5.832031 21.734375 6.234375 21.855469 C 7.796875 22.324219 9.398438 22.582031 11.023438 22.664062 C 13.917969 22.816406 16.785156 22.6875 19.585938 21.828125 C 19.910156 21.726562 20.164062 21.878906 20.257812 22.207031 C 20.296875 22.34375 20.308594 22.492188 20.308594 22.636719 C 20.316406 23.800781 20.320312 24.96875 20.320312 26.191406 C 20.320312 27.058594 20.320312 27.929688 20.320312 28.835938 C 20.554688 28.710938 20.757812 28.609375 20.953125 28.5 C 21.421875 28.25 21.644531 27.878906 21.621094 27.335938 C 21.589844 26.699219 21.609375 26.066406 21.625 25.375 M 6.785156 23.464844 C 6.683594 23.4375 6.582031 23.40625 6.472656 23.375 C 6.453125 23.449219 6.441406 23.476562 6.441406 23.507812 C 6.4375 25.371094 6.441406 27.234375 6.433594 29.09375 C 6.433594 29.289062 6.546875 29.300781 6.679688 29.34375 C 8.253906 29.828125 9.878906 29.976562 11.511719 30.050781 C 12.566406 30.097656 13.628906 30.054688 14.683594 29.992188 C 15.664062 29.933594 16.636719 29.816406 17.609375 29.675781 C 18.082031 29.609375 18.539062 29.429688 19.015625 29.296875 C 19.015625 29.296875 19.023438 29.304688 19.074219 29.308594 C 19.132812 29.289062 19.191406 29.265625 19.285156 29.207031 C 19.289062 28.621094 19.292969 28.035156 19.308594 27.386719 C 19.308594 26.050781 19.308594 24.710938 19.308594 23.355469 C 19.207031 23.367188 19.132812 23.375 19.0625 23.386719 C 18.277344 23.539062 17.5 23.726562 16.707031 23.839844 C 14.246094 24.1875 11.773438 24.1875 9.304688 23.898438 C 8.488281 23.804688 7.683594 23.636719 6.84375 23.492188 C 6.835938 23.496094 6.824219 23.496094 6.785156 23.464844 M 30.683594 8.617188 C 30.726562 8.523438 30.800781 8.429688 30.808594 8.332031 C 30.820312 7.988281 30.8125 7.644531 30.8125 7.300781 C 30.8125 6.941406 30.8125 6.582031 30.8125 6.210938 C 28.539062 7.011719 26.21875 7.195312 23.886719 7.175781 C 21.558594 7.152344 19.234375 6.988281 17.003906 6.070312 C 17.003906 6.882812 17 7.660156 17.007812 8.4375 C 17.007812 8.480469 17.078125 8.519531 17.132812 8.601562 C 17.324219 8.722656 17.503906 8.875 17.707031 8.953125 C 18.960938 9.4375 20.277344 9.644531 21.605469 9.746094 C 23.363281 9.882812 25.125 9.894531 26.875 9.675781 C 27.714844 9.566406 28.542969 9.351562 29.425781 9.191406 C 29.828125 9 30.230469 8.8125 30.683594 8.617188 M 30.359375 5.125 C 30.433594 5.09375 30.511719 5.066406 30.578125 5.023438 C 30.886719 4.828125 30.890625 4.734375 30.585938 4.546875 C 30.394531 4.425781 30.191406 4.316406 29.976562 4.238281 C 28.347656 3.664062 26.648438 3.511719 24.941406 3.445312 C 23.117188 3.371094 21.292969 3.476562 19.5 3.832031 C 18.753906 3.976562 18.039062 4.285156 17.320312 4.542969 C 17.214844 4.582031 17.152344 4.746094 17.070312 4.851562 C 17.171875 4.921875 17.277344 4.996094 17.394531 5.109375 C 17.636719 5.214844 17.875 5.347656 18.128906 5.429688 C 19.507812 5.867188 20.925781 6.042969 22.363281 6.125 C 23.894531 6.210938 25.421875 6.191406 26.941406 5.988281 C 27.757812 5.878906 28.566406 5.671875 29.425781 5.511719 C 29.722656 5.382812 30.015625 5.253906 30.359375 5.125 M 29.65625 25.609375 C 29.710938 25.59375 29.761719 25.578125 29.835938 25.59375 C 30.132812 25.457031 30.429688 25.324219 30.71875 25.175781 C 30.765625 25.152344 30.808594 25.054688 30.808594 24.992188 C 30.8125 24.109375 30.8125 23.226562 30.808594 22.34375 C 30.808594 22.210938 30.757812 22.136719 30.574219 22.25 C 30.171875 22.375 29.773438 22.503906 29.320312 22.628906 C 27.128906 23.117188 24.902344 23.210938 22.652344 23.128906 C 22.652344 23.925781 22.652344 24.683594 22.640625 25.496094 C 22.65625 25.769531 22.671875 26.042969 22.726562 26.355469 C 23.65625 26.359375 24.585938 26.367188 25.511719 26.371094 C 25.550781 26.371094 25.585938 26.339844 25.679688 26.3125 C 25.761719 26.308594 25.847656 26.316406 25.925781 26.300781 C 27.117188 26.097656 28.304688 25.890625 29.53125 25.683594 C 29.5625 25.667969 29.59375 25.648438 29.65625 25.609375 M 25.59375 17.457031 C 25.15625 17.265625 24.699219 17.117188 24.289062 16.882812 C 23.609375 16.496094 22.925781 16.507812 22.171875 16.71875 C 22.5625 17.265625 22.671875 17.835938 22.640625 18.445312 C 22.621094 18.800781 22.644531 19.152344 22.632812 19.507812 C 22.628906 19.6875 22.699219 19.761719 22.863281 19.8125 C 24.507812 20.3125 26.363281 19.535156 27.136719 18.007812 C 27.25 17.785156 27.308594 17.539062 27.417969 17.234375 C 26.785156 17.503906 26.226562 17.578125 25.59375 17.457031 Z M 25.59375 17.457031 "/>
<path style=" stroke:none;fill-rule:nonzero;fill:rgb(96.078431%,58.039216%,12.54902%);fill-opacity:1;" d="M 29.265625 2.96875 C 27.171875 2.542969 25.042969 2.421875 22.90625 2.492188 C 21.207031 2.550781 19.519531 2.710938 17.890625 3.242188 C 17.507812 3.367188 17.136719 3.539062 16.789062 3.738281 C 16.296875 4.023438 16.046875 4.441406 16.050781 5.046875 C 16.070312 8.109375 16.0625 11.171875 16.066406 14.234375 C 16.066406 14.355469 16.066406 14.476562 16.066406 14.550781 C 14.71875 14.515625 13.40625 14.429688 12.101562 14.460938 C 9.921875 14.515625 7.757812 14.726562 5.675781 15.449219 C 4.8125 15.75 4.015625 16.160156 3.40625 16.878906 C 3.09375 17.253906 2.921875 17.660156 2.921875 18.160156 C 2.933594 21.28125 2.925781 24.40625 2.917969 27.5625 C 2.636719 27.410156 2.335938 27.257812 2.089844 27.039062 C 1.734375 26.726562 1.558594 26.316406 1.558594 25.820312 C 1.566406 22.582031 1.570312 19.34375 1.558594 16.105469 C 1.554688 15.519531 1.785156 15.089844 2.25 14.753906 C 3.398438 13.917969 4.703125 13.515625 6.089844 13.324219 C 6.730469 13.234375 7.359375 13.074219 8 13.011719 C 8.804688 12.933594 9.617188 12.890625 10.429688 12.894531 C 11.5 12.898438 12.570312 12.953125 13.636719 13 C 14.066406 13.019531 14.121094 12.984375 14.121094 12.519531 C 14.125 9.570312 14.132812 6.625 14.117188 3.675781 C 14.113281 3.136719 14.316406 2.773438 14.757812 2.484375 C 15.570312 1.949219 16.488281 1.714844 17.421875 1.574219 C 18.363281 1.433594 19.320312 1.351562 20.273438 1.316406 C 21.46875 1.273438 22.675781 1.21875 23.859375 1.335938 C 25.175781 1.460938 26.484375 1.738281 27.785156 2.015625 C 28.363281 2.140625 28.894531 2.4375 29.265625 2.96875 Z M 29.265625 2.96875 "/>
<path style=" stroke:none;fill-rule:nonzero;fill:rgb(97.254902%,73.72549%,10.980392%);fill-opacity:1;" d="M 20.433594 18.683594 C 20.164062 18.808594 19.902344 18.960938 19.621094 19.050781 C 17.839844 19.640625 15.996094 19.867188 14.128906 19.929688 C 11.730469 20.011719 9.34375 19.921875 7.007812 19.308594 C 6.277344 19.121094 5.535156 18.941406 4.898438 18.421875 C 4.359375 17.898438 4.613281 17.5625 5.015625 17.238281 C 5.238281 17.0625 5.5 16.917969 5.769531 16.820312 C 6.445312 16.570312 7.132812 16.355469 7.816406 16.128906 C 7.816406 16.128906 7.8125 16.128906 7.839844 16.132812 C 8.0625 16.089844 8.253906 16.046875 8.449219 16.007812 C 8.449219 16.007812 8.476562 16.011719 8.511719 16.007812 C 8.636719 15.984375 8.730469 15.960938 8.820312 15.941406 C 9.4375 15.875 10.054688 15.773438 10.675781 15.753906 C 11.972656 15.710938 13.277344 15.636719 14.570312 15.71875 C 15.902344 15.808594 17.230469 16.03125 18.546875 16.261719 C 19.164062 16.371094 19.757812 16.636719 20.371094 16.878906 C 20.378906 17.183594 20.367188 17.441406 20.378906 17.699219 C 20.390625 18.027344 20.414062 18.355469 20.433594 18.683594 M 10.863281 17.03125 C 10.851562 17.015625 10.835938 17.007812 10.789062 16.972656 C 9.902344 16.242188 8.878906 16.160156 7.8125 16.398438 C 7.472656 16.476562 7.105469 16.636719 6.851562 16.871094 C 5.78125 17.851562 6.101562 18.734375 7.261719 19.171875 C 8.289062 19.558594 9.320312 19.472656 10.359375 18.992188 C 10.480469 18.933594 10.601562 18.878906 10.71875 18.8125 C 11.394531 18.4375 11.492188 17.679688 10.9375 17.125 C 10.9375 17.125 10.941406 17.121094 10.929688 17.09375 C 10.914062 17.082031 10.894531 17.074219 10.875 17.0625 C 10.875 17.0625 10.875 17.058594 10.863281 17.03125 Z M 10.863281 17.03125 "/>
<path style=" stroke:none;fill-rule:nonzero;fill:rgb(92.941176%,40.392157%,14.509804%);fill-opacity:1;" d="M 29.386719 21.148438 C 28.449219 21.324219 27.515625 21.566406 26.570312 21.660156 C 25.445312 21.773438 24.308594 21.761719 23.175781 21.796875 C 23.011719 21.800781 22.84375 21.777344 22.660156 21.761719 C 22.660156 21.527344 22.660156 21.316406 22.660156 21.101562 C 25.765625 21.976562 28.257812 19.785156 28.679688 17.433594 C 29.105469 15.046875 27.558594 12.554688 25.183594 11.867188 C 22.875 11.195312 20.519531 12.375 19.558594 14.675781 C 19.390625 14.601562 19.257812 14.523438 19.128906 14.4375 C 18.539062 14.046875 17.859375 13.871094 17.1875 13.652344 C 17.1875 12.589844 17.183594 11.558594 17.191406 10.523438 C 17.191406 10.410156 17.238281 10.296875 17.289062 10.183594 C 19.210938 10.789062 21.160156 11.113281 23.148438 11.175781 C 24.539062 11.21875 25.929688 11.1875 27.304688 10.933594 C 27.972656 10.8125 28.644531 10.691406 29.320312 10.597656 C 29.34375 10.742188 29.363281 10.863281 29.363281 10.984375 C 29.371094 14.375 29.378906 17.761719 29.386719 21.148438 Z M 29.386719 21.148438 "/>
<path style=" stroke:none;fill-rule:nonzero;fill:rgb(97.647059%,74.117647%,10.196078%);fill-opacity:1;" d="M 6.875 23.503906 C 7.683594 23.636719 8.488281 23.804688 9.304688 23.898438 C 11.773438 24.1875 14.246094 24.1875 16.707031 23.839844 C 17.5 23.726562 18.277344 23.539062 19.0625 23.386719 C 19.132812 23.375 19.207031 23.367188 19.308594 23.355469 C 19.308594 24.710938 19.308594 26.050781 19.285156 27.425781 C 18.136719 28.09375 16.941406 28.511719 15.675781 28.636719 C 16.011719 28.375 16.328125 28.121094 16.660156 27.890625 C 16.914062 27.714844 17.050781 27.503906 17.011719 27.171875 C 17.222656 26.890625 17.175781 26.632812 16.9375 26.441406 C 16.597656 26.171875 16.230469 25.9375 15.875 25.6875 C 15.875 25.6875 15.875 25.683594 15.867188 25.667969 C 15.804688 25.617188 15.75 25.585938 15.691406 25.558594 C 15.6875 25.558594 15.695312 25.554688 15.683594 25.539062 C 15.621094 25.492188 15.5625 25.460938 15.503906 25.433594 C 15.5 25.4375 15.503906 25.433594 15.496094 25.417969 C 15.449219 25.390625 15.414062 25.378906 15.375 25.371094 C 15.375 25.375 15.378906 25.367188 15.367188 25.351562 C 15.257812 25.304688 15.164062 25.273438 15.046875 25.226562 C 13.742188 24.867188 12.554688 25.019531 11.515625 25.917969 C 11.476562 25.953125 11.425781 25.96875 11.371094 25.972656 C 11 25.527344 10.582031 25.1875 9.976562 25.113281 C 9.726562 25.074219 9.496094 25.003906 9.277344 25.03125 C 9.105469 25.050781 8.851562 25.152344 8.800781 25.28125 C 8.644531 25.671875 8.4375 26.078125 8.703125 26.519531 C 8.792969 26.664062 8.847656 26.847656 8.867188 27.019531 C 8.894531 27.234375 8.90625 27.464844 8.867188 27.679688 C 8.785156 28.105469 8.664062 28.523438 8.535156 28.945312 C 7.960938 28.878906 7.417969 28.808594 6.875 28.714844 C 6.875 26.957031 6.875 25.230469 6.875 23.503906 Z M 6.875 23.503906 "/>
<path style=" stroke:none;fill-rule:nonzero;fill:rgb(93.333333%,40.392157%,14.509804%);fill-opacity:1;" d="M 29.378906 9.1875 C 28.542969 9.351562 27.714844 9.566406 26.875 9.675781 C 25.125 9.894531 23.363281 9.882812 21.605469 9.746094 C 20.277344 9.644531 18.960938 9.4375 17.707031 8.953125 C 17.503906 8.875 17.324219 8.722656 17.128906 8.554688 C 17.125 7.84375 17.125 7.179688 17.125 6.488281 C 17.210938 6.519531 17.257812 6.53125 17.304688 6.550781 C 18.515625 7.078125 19.796875 7.355469 21.105469 7.421875 C 22.722656 7.503906 24.34375 7.507812 25.964844 7.488281 C 26.695312 7.476562 27.425781 7.34375 28.148438 7.242188 C 28.539062 7.1875 28.925781 7.078125 29.332031 7.011719 C 29.359375 7.746094 29.367188 8.46875 29.378906 9.1875 Z M 29.378906 9.1875 "/>
<path style=" stroke:none;fill-rule:nonzero;fill:rgb(97.254902%,73.72549%,10.980392%);fill-opacity:1;" d="M 20.324219 26.132812 C 20.320312 24.96875 20.316406 23.800781 20.308594 22.636719 C 20.308594 22.492188 20.296875 22.34375 20.257812 22.207031 C 20.164062 21.878906 19.910156 21.726562 19.585938 21.828125 C 16.785156 22.6875 13.917969 22.816406 11.023438 22.664062 C 9.398438 22.582031 7.796875 22.324219 6.234375 21.855469 C 5.832031 21.734375 5.734375 21.847656 5.492188 22.191406 C 5.222656 22.578125 5.261719 22.972656 5.261719 23.378906 C 5.257812 25.066406 5.257812 26.753906 5.230469 28.464844 C 4.828125 28.285156 4.628906 27.972656 4.625 27.539062 C 4.605469 25.003906 4.582031 22.46875 4.5625 19.933594 C 4.902344 20.058594 5.238281 20.191406 5.582031 20.304688 C 7.074219 20.796875 8.613281 21.050781 10.171875 21.171875 C 12.566406 21.359375 14.960938 21.339844 17.332031 20.925781 C 18.34375 20.75 19.332031 20.4375 20.351562 20.214844 C 20.394531 21.996094 20.417969 23.746094 20.433594 25.523438 C 20.394531 25.742188 20.359375 25.9375 20.324219 26.132812 Z M 20.324219 26.132812 "/>
<path style=" stroke:none;fill-rule:nonzero;fill:rgb(92.54902%,40.392157%,15.294118%);fill-opacity:1;" d="M 29.378906 5.507812 C 28.566406 5.671875 27.757812 5.878906 26.941406 5.988281 C 25.421875 6.191406 23.894531 6.210938 22.363281 6.125 C 20.925781 6.042969 19.507812 5.867188 18.128906 5.429688 C 17.875 5.347656 17.636719 5.214844 17.410156 5.082031 C 17.753906 4.910156 18.078125 4.738281 18.421875 4.632812 C 19.878906 4.175781 21.390625 4.066406 22.902344 4.011719 C 23.90625 3.976562 24.914062 4.011719 25.917969 4.078125 C 26.722656 4.132812 27.523438 4.265625 28.320312 4.394531 C 28.667969 4.453125 29.007812 4.589844 29.355469 4.722656 C 29.367188 5.003906 29.371094 5.253906 29.378906 5.507812 Z M 29.378906 5.507812 "/>
<path style=" stroke:none;fill-rule:nonzero;fill:rgb(92.54902%,40.392157%,15.294118%);fill-opacity:1;" d="M 27.40625 15.675781 C 27.03125 15.867188 26.675781 16.125 26.277344 16.230469 C 25.746094 16.375 25.253906 16.160156 24.78125 15.863281 C 23.65625 15.160156 22.488281 15.179688 21.316406 15.769531 C 21.136719 15.863281 20.550781 15.738281 20.496094 15.566406 C 20.46875 15.480469 20.507812 15.359375 20.542969 15.265625 C 21.035156 14.003906 21.949219 13.242188 23.316406 12.976562 C 23.359375 12.960938 23.371094 12.953125 23.375 12.941406 C 23.375 12.941406 23.375 12.941406 23.40625 12.945312 C 24.417969 12.863281 25.304688 13.121094 26.09375 13.710938 C 26.757812 14.210938 27.121094 14.917969 27.40625 15.675781 Z M 27.40625 15.675781 "/>
<path style=" stroke:none;fill-rule:nonzero;fill:none;fill-opacity:1;" d="M 29.410156 21.144531 C 29.378906 17.761719 29.371094 14.375 29.363281 10.984375 C 29.363281 10.863281 29.34375 10.742188 29.34375 10.589844 C 29.660156 10.445312 29.964844 10.335938 30.269531 10.222656 C 30.269531 10.222656 30.273438 10.222656 30.296875 10.222656 C 30.363281 10.195312 30.410156 10.175781 30.457031 10.152344 C 30.457031 10.152344 30.453125 10.15625 30.476562 10.152344 C 30.519531 10.140625 30.539062 10.132812 30.585938 10.136719 C 30.613281 10.246094 30.625 10.339844 30.625 10.433594 C 30.625 13.683594 30.625 16.9375 30.625 20.191406 C 30.625 20.3125 30.597656 20.4375 30.585938 20.558594 C 30.292969 20.9375 29.835938 20.984375 29.410156 21.144531 Z M 29.410156 21.144531 "/>
<path style=" stroke:none;fill-rule:nonzero;fill:rgb(92.941176%,40.392157%,14.901961%);fill-opacity:1;" d="M 22.652344 25.4375 C 22.652344 24.683594 22.652344 23.925781 22.652344 23.128906 C 24.902344 23.210938 27.128906 23.117188 29.347656 22.65625 C 29.375 22.792969 29.367188 22.898438 29.375 23 C 29.441406 23.625 29.167969 24.046875 28.601562 24.277344 C 28.023438 24.511719 27.449219 24.757812 26.855469 24.933594 C 25.488281 25.335938 24.066406 25.355469 22.652344 25.4375 Z M 22.652344 25.4375 "/>
<path style=" stroke:none;fill-rule:nonzero;fill:none;fill-opacity:1;" d="M 22.648438 25.464844 C 24.066406 25.355469 25.488281 25.335938 26.855469 24.933594 C 27.449219 24.757812 28.023438 24.511719 28.601562 24.277344 C 29.167969 24.046875 29.441406 23.625 29.375 23 C 29.367188 22.898438 29.375 22.792969 29.371094 22.660156 C 29.773438 22.503906 30.171875 22.375 30.597656 22.28125 C 30.625 22.925781 30.625 23.539062 30.625 24.148438 C 30.625 25.101562 30.625 25.101562 29.8125 25.558594 C 29.761719 25.578125 29.710938 25.59375 29.621094 25.621094 C 29.554688 25.648438 29.523438 25.667969 29.492188 25.6875 C 28.304688 25.890625 27.117188 26.097656 25.925781 26.300781 C 25.847656 26.316406 25.761719 26.308594 25.621094 26.3125 C 24.605469 26.316406 23.648438 26.316406 22.6875 26.320312 C 22.671875 26.042969 22.65625 25.769531 22.648438 25.464844 Z M 22.648438 25.464844 "/>
<path style=" stroke:none;fill-rule:nonzero;fill:none;fill-opacity:1;" d="M 6.875 28.742188 C 7.417969 28.808594 7.960938 28.878906 8.546875 28.960938 C 8.710938 29.207031 8.914062 29.300781 9.15625 29.253906 C 9.496094 29.183594 9.828125 29.085938 10.195312 29.003906 C 10.988281 29.019531 11.75 29.035156 12.542969 29.054688 C 13.664062 29.433594 14.691406 29.273438 15.65625 28.65625 C 16.941406 28.511719 18.136719 28.09375 19.28125 27.457031 C 19.292969 28.035156 19.289062 28.621094 19.242188 29.226562 C 19.144531 29.265625 19.082031 29.285156 19.023438 29.304688 C 19.023438 29.304688 19.015625 29.296875 18.984375 29.300781 C 17.128906 29.714844 15.285156 29.949219 13.417969 29.964844 C 11.863281 29.980469 10.320312 29.867188 8.789062 29.59375 C 8.128906 29.476562 7.472656 29.332031 6.820312 29.203125 C 6.820312 29.019531 6.820312 28.882812 6.835938 28.75 C 6.851562 28.75 6.875 28.742188 6.875 28.742188 Z M 6.875 28.742188 "/>
<path style=" stroke:none;fill-rule:nonzero;fill:rgb(92.54902%,40%,15.294118%);fill-opacity:1;" d="M 25.617188 17.460938 C 26.226562 17.578125 26.785156 17.503906 27.417969 17.234375 C 27.308594 17.539062 27.25 17.785156 27.136719 18.007812 C 26.363281 19.535156 24.507812 20.3125 22.863281 19.8125 C 22.699219 19.761719 22.628906 19.6875 22.632812 19.507812 C 22.644531 19.152344 22.621094 18.800781 22.640625 18.445312 C 22.671875 17.835938 22.5625 17.265625 22.171875 16.71875 C 22.925781 16.507812 23.609375 16.496094 24.289062 16.882812 C 24.699219 17.117188 25.15625 17.265625 25.617188 17.460938 Z M 25.617188 17.460938 "/>
<path style=" stroke:none;fill-rule:nonzero;fill:rgb(9.803922%,18.823529%,43.921569%);fill-opacity:1;" d="M 29.347656 4.691406 C 29.007812 4.589844 28.667969 4.453125 28.320312 4.394531 C 27.523438 4.265625 26.722656 4.132812 25.917969 4.078125 C 24.914062 4.011719 23.90625 3.976562 22.902344 4.011719 C 21.390625 4.066406 19.878906 4.175781 18.421875 4.632812 C 18.078125 4.738281 17.753906 4.910156 17.402344 5.058594 C 17.277344 4.996094 17.171875 4.921875 17.070312 4.851562 C 17.152344 4.746094 17.214844 4.582031 17.320312 4.542969 C 18.039062 4.285156 18.753906 3.976562 19.5 3.832031 C 21.292969 3.476562 23.117188 3.371094 24.941406 3.445312 C 26.648438 3.511719 28.347656 3.664062 29.976562 4.238281 C 30.191406 4.316406 30.394531 4.425781 30.585938 4.546875 C 30.890625 4.734375 30.886719 4.828125 30.578125 5.023438 C 30.511719 5.066406 30.433594 5.09375 30.3125 5.121094 C 29.960938 4.976562 29.65625 4.835938 29.347656 4.691406 Z M 29.347656 4.691406 "/>
<path style=" stroke:none;fill-rule:nonzero;fill:rgb(93.333333%,40.392157%,14.509804%);fill-opacity:1;" d="M 20.4375 25.496094 C 20.417969 23.746094 20.394531 21.996094 20.375 20.214844 C 20.773438 19.992188 21.171875 19.796875 21.613281 19.578125 C 21.613281 20.464844 21.613281 21.332031 21.59375 22.246094 C 21.570312 23.332031 21.5625 24.371094 21.527344 25.414062 C 21.144531 25.449219 20.792969 25.472656 20.4375 25.496094 Z M 20.4375 25.496094 "/>
<path style=" stroke:none;fill-rule:nonzero;fill:rgb(10.980392%,19.215686%,44.313725%);fill-opacity:1;" d="M 29.308594 6.992188 C 28.925781 7.078125 28.539062 7.1875 28.148438 7.242188 C 27.425781 7.34375 26.695312 7.476562 25.964844 7.488281 C 24.34375 7.507812 22.722656 7.503906 21.105469 7.421875 C 19.796875 7.355469 18.515625 7.078125 17.304688 6.550781 C 17.257812 6.53125 17.210938 6.519531 17.125 6.488281 C 17.125 7.179688 17.125 7.84375 17.121094 8.53125 C 17.078125 8.519531 17.007812 8.480469 17.007812 8.4375 C 17 7.660156 17.003906 6.882812 17.003906 6.070312 C 19.234375 6.988281 21.558594 7.152344 23.886719 7.175781 C 26.21875 7.195312 28.539062 7.011719 30.8125 6.210938 C 30.8125 6.582031 30.8125 6.941406 30.8125 7.300781 C 30.8125 7.644531 30.820312 7.988281 30.808594 8.332031 C 30.800781 8.429688 30.726562 8.523438 30.652344 8.59375 C 30.625 7.910156 30.625 7.25 30.625 6.546875 C 30.160156 6.707031 29.734375 6.847656 29.308594 6.992188 Z M 29.308594 6.992188 "/>
<path style=" stroke:none;fill-rule:nonzero;fill:rgb(10.196078%,19.215686%,43.921569%);fill-opacity:1;" d="M 4.550781 19.917969 C 4.582031 22.46875 4.605469 25.003906 4.625 27.539062 C 4.628906 27.972656 4.828125 28.285156 5.226562 28.496094 C 5.25 28.589844 5.25 28.679688 5.25 28.855469 C 4.929688 28.648438 4.636719 28.507812 4.414062 28.292969 C 4.265625 28.152344 4.136719 27.902344 4.136719 27.699219 C 4.117188 25.101562 4.125 22.503906 4.125 19.902344 C 4.125 19.84375 4.140625 19.785156 4.152344 19.667969 C 4.304688 19.757812 4.421875 19.828125 4.550781 19.917969 Z M 4.550781 19.917969 "/>
<path style=" stroke:none;fill-rule:nonzero;fill:rgb(10.980392%,19.607843%,44.705882%);fill-opacity:1;" d="M 6.820312 28.75 C 6.820312 28.882812 6.820312 29.019531 6.820312 29.203125 C 7.472656 29.332031 8.128906 29.476562 8.789062 29.59375 C 10.320312 29.867188 11.863281 29.980469 13.417969 29.964844 C 15.285156 29.949219 17.128906 29.714844 18.976562 29.300781 C 18.539062 29.429688 18.082031 29.609375 17.609375 29.675781 C 16.636719 29.816406 15.664062 29.933594 14.683594 29.992188 C 13.628906 30.054688 12.566406 30.097656 11.511719 30.050781 C 9.878906 29.976562 8.253906 29.828125 6.679688 29.34375 C 6.546875 29.300781 6.433594 29.289062 6.433594 29.09375 C 6.441406 27.234375 6.4375 25.371094 6.441406 23.507812 C 6.441406 23.476562 6.453125 23.449219 6.472656 23.375 C 6.582031 23.40625 6.683594 23.4375 6.800781 23.511719 C 6.816406 25.289062 6.820312 27.019531 6.820312 28.75 Z M 6.820312 28.75 "/>
<path style=" stroke:none;fill-rule:nonzero;fill:none;fill-opacity:1;" d="M 20.433594 25.523438 C 20.792969 25.472656 21.144531 25.449219 21.539062 25.425781 C 21.578125 25.425781 21.609375 25.429688 21.609375 25.429688 C 21.609375 26.066406 21.589844 26.699219 21.621094 27.335938 C 21.644531 27.878906 21.421875 28.25 20.953125 28.5 C 20.757812 28.609375 20.554688 28.710938 20.320312 28.835938 C 20.320312 27.929688 20.320312 27.058594 20.320312 26.164062 C 20.359375 25.9375 20.394531 25.742188 20.433594 25.523438 Z M 20.433594 25.523438 "/>
<path style=" stroke:none;fill-rule:nonzero;fill:rgb(11.372549%,19.607843%,44.313725%);fill-opacity:1;" d="M 30.246094 10.210938 C 29.964844 10.335938 29.660156 10.445312 29.335938 10.566406 C 28.644531 10.691406 27.972656 10.8125 27.304688 10.933594 C 25.929688 11.1875 24.539062 11.21875 23.148438 11.175781 C 21.160156 11.113281 19.210938 10.789062 17.273438 10.164062 C 17.195312 10.203125 17.128906 10.253906 17.128906 10.308594 C 17.128906 11.4375 17.132812 12.5625 17.132812 13.71875 C 17.128906 14.078125 17.128906 14.414062 17.132812 14.746094 C 17.085938 14.679688 17.007812 14.613281 17.003906 14.542969 C 17 13.015625 17 11.484375 17.003906 9.957031 C 17.003906 9.917969 17.019531 9.882812 17.023438 9.871094 C 17.679688 10.066406 18.3125 10.3125 18.964844 10.441406 C 19.84375 10.613281 20.738281 10.730469 21.632812 10.804688 C 22.632812 10.886719 23.640625 10.960938 24.640625 10.921875 C 25.910156 10.867188 27.171875 10.714844 28.433594 10.566406 C 29.035156 10.492188 29.625 10.324219 30.246094 10.210938 Z M 30.246094 10.210938 "/>
<path style=" stroke:none;fill-rule:nonzero;fill:none;fill-opacity:1;" d="M 29.332031 7.011719 C 29.734375 6.847656 30.160156 6.707031 30.625 6.546875 C 30.625 7.25 30.625 7.910156 30.628906 8.597656 C 30.230469 8.8125 29.828125 9 29.402344 9.1875 C 29.367188 8.46875 29.359375 7.746094 29.332031 7.011719 Z M 29.332031 7.011719 "/>
<path style=" stroke:none;fill-rule:nonzero;fill:rgb(96.470588%,73.333333%,10.980392%);fill-opacity:1;" d="M 17.15625 14.753906 C 17.128906 14.414062 17.128906 14.078125 17.144531 13.714844 C 17.160156 13.6875 17.1875 13.679688 17.1875 13.679688 C 17.859375 13.871094 18.539062 14.046875 19.128906 14.4375 C 19.257812 14.523438 19.390625 14.601562 19.539062 14.6875 C 19.523438 14.859375 19.484375 15.03125 19.449219 15.199219 C 18.675781 15.050781 17.929688 14.902344 17.15625 14.753906 Z M 17.15625 14.753906 "/>
<path style=" stroke:none;fill-rule:nonzero;fill:rgb(9.411765%,18.431373%,43.921569%);fill-opacity:1;" d="M 30.613281 20.558594 C 30.597656 20.4375 30.625 20.3125 30.625 20.191406 C 30.625 16.9375 30.625 13.683594 30.625 10.433594 C 30.625 10.339844 30.613281 10.246094 30.585938 10.121094 C 30.5625 10.09375 30.5625 10.0625 30.5625 10.0625 C 30.632812 10.03125 30.703125 10 30.8125 9.949219 C 30.8125 10.082031 30.8125 10.171875 30.8125 10.265625 C 30.8125 13.558594 30.8125 16.855469 30.808594 20.152344 C 30.808594 20.300781 30.890625 20.503906 30.613281 20.558594 Z M 30.613281 20.558594 "/>
<path style=" stroke:none;fill-rule:nonzero;fill:rgb(91.764706%,39.607843%,15.294118%);fill-opacity:1;" d="M 20.457031 18.6875 C 20.414062 18.355469 20.390625 18.027344 20.378906 17.699219 C 20.367188 17.441406 20.378906 17.183594 20.382812 16.894531 C 20.714844 17.046875 21.054688 17.207031 21.351562 17.425781 C 21.652344 17.648438 21.664062 17.855469 21.382812 18.09375 C 21.109375 18.328125 20.78125 18.496094 20.457031 18.6875 Z M 20.457031 18.6875 "/>
<path style=" stroke:none;fill-rule:nonzero;fill:rgb(11.372549%,20%,43.921569%);fill-opacity:1;" d="M 7.789062 16.128906 C 7.132812 16.355469 6.445312 16.570312 5.769531 16.820312 C 5.5 16.917969 5.238281 17.0625 5.015625 17.238281 C 4.613281 17.5625 4.359375 17.898438 4.878906 18.414062 C 4.535156 18.382812 4.136719 18.035156 4.140625 17.710938 C 4.144531 17.566406 4.265625 17.375 4.390625 17.289062 C 4.679688 17.09375 4.988281 16.894531 5.316406 16.792969 C 6.121094 16.542969 6.945312 16.34375 7.789062 16.128906 Z M 7.789062 16.128906 "/>
<path style=" stroke:none;fill-rule:nonzero;fill:rgb(11.372549%,19.215686%,43.921569%);fill-opacity:1;" d="M 27.421875 15.660156 C 27.121094 14.917969 26.757812 14.210938 26.09375 13.710938 C 25.304688 13.121094 24.417969 12.863281 23.40625 12.941406 C 23.84375 12.699219 24.335938 12.785156 24.796875 12.894531 C 25.949219 13.164062 26.863281 13.773438 27.324219 14.917969 C 27.414062 15.140625 27.402344 15.402344 27.421875 15.660156 Z M 27.421875 15.660156 "/>
<path style=" stroke:none;fill-rule:nonzero;fill:rgb(10.196078%,19.215686%,44.313725%);fill-opacity:1;" d="M 29.824219 25.578125 C 30.625 25.101562 30.625 25.101562 30.625 24.148438 C 30.625 23.539062 30.625 22.925781 30.625 22.28125 C 30.757812 22.136719 30.808594 22.210938 30.808594 22.34375 C 30.8125 23.226562 30.8125 24.109375 30.808594 24.992188 C 30.808594 25.054688 30.765625 25.152344 30.71875 25.175781 C 30.429688 25.324219 30.132812 25.457031 29.824219 25.578125 Z M 29.824219 25.578125 "/>
<path style=" stroke:none;fill-rule:nonzero;fill:none;fill-opacity:1;" d="M 29.355469 4.722656 C 29.65625 4.835938 29.960938 4.976562 30.289062 5.121094 C 30.015625 5.253906 29.722656 5.382812 29.402344 5.511719 C 29.371094 5.253906 29.367188 5.003906 29.355469 4.722656 Z M 29.355469 4.722656 "/>
<path style=" stroke:none;fill-rule:nonzero;fill:rgb(95.294118%,77.647059%,30.196078%);fill-opacity:1;" d="M 6.835938 28.75 C 6.820312 27.019531 6.816406 25.289062 6.8125 23.53125 C 6.824219 23.496094 6.835938 23.496094 6.859375 23.5 C 6.875 25.230469 6.875 26.957031 6.875 28.714844 C 6.875 28.742188 6.851562 28.75 6.835938 28.75 Z M 6.835938 28.75 "/>
<path style=" stroke:none;fill-rule:nonzero;fill:rgb(73.72549%,47.843137%,42.745098%);fill-opacity:1;" d="M 21.617188 25.402344 C 21.609375 25.429688 21.578125 25.425781 21.566406 25.417969 C 21.5625 24.371094 21.570312 23.332031 21.59375 22.273438 C 21.613281 23.292969 21.617188 24.335938 21.617188 25.402344 Z M 21.617188 25.402344 "/>
<path style=" stroke:none;fill-rule:nonzero;fill:rgb(10.588235%,18.039216%,43.921569%);fill-opacity:1;" d="M 22.707031 26.335938 C 23.648438 26.316406 24.605469 26.316406 25.59375 26.320312 C 25.585938 26.339844 25.550781 26.371094 25.511719 26.371094 C 24.585938 26.367188 23.65625 26.359375 22.707031 26.335938 Z M 22.707031 26.335938 "/>
<path style=" stroke:none;fill-rule:nonzero;fill:rgb(11.372549%,20%,43.921569%);fill-opacity:1;" d="M 8.421875 16.003906 C 8.253906 16.046875 8.0625 16.089844 7.839844 16.132812 C 8.007812 16.089844 8.199219 16.046875 8.421875 16.003906 Z M 8.421875 16.003906 "/>
<path style=" stroke:none;fill-rule:nonzero;fill:rgb(11.372549%,20%,43.921569%);fill-opacity:1;" d="M 8.792969 15.941406 C 8.730469 15.960938 8.636719 15.984375 8.523438 16 C 8.589844 15.980469 8.679688 15.960938 8.792969 15.941406 Z M 8.792969 15.941406 "/>
<path style=" stroke:none;fill-rule:nonzero;fill:rgb(10.980392%,19.607843%,44.705882%);fill-opacity:1;" d="M 19.050781 29.308594 C 19.082031 29.285156 19.144531 29.265625 19.226562 29.246094 C 19.191406 29.265625 19.132812 29.289062 19.050781 29.308594 Z M 19.050781 29.308594 "/>
<path style=" stroke:none;fill-rule:nonzero;fill:rgb(11.372549%,19.607843%,44.313725%);fill-opacity:1;" d="M 30.433594 10.144531 C 30.410156 10.175781 30.363281 10.195312 30.300781 10.222656 C 30.324219 10.195312 30.367188 10.164062 30.433594 10.144531 Z M 30.433594 10.144531 "/>
<path style=" stroke:none;fill-rule:nonzero;fill:rgb(10.196078%,19.215686%,44.313725%);fill-opacity:1;" d="M 29.511719 25.683594 C 29.523438 25.667969 29.554688 25.648438 29.605469 25.632812 C 29.59375 25.648438 29.5625 25.667969 29.511719 25.683594 Z M 29.511719 25.683594 "/>
<path style=" stroke:none;fill-rule:nonzero;fill:rgb(11.372549%,19.607843%,44.313725%);fill-opacity:1;" d="M 30.542969 10.066406 C 30.5625 10.0625 30.5625 10.09375 30.5625 10.105469 C 30.539062 10.132812 30.519531 10.140625 30.476562 10.15625 C 30.480469 10.128906 30.5 10.097656 30.542969 10.066406 Z M 30.542969 10.066406 "/>
<path style=" stroke:none;fill-rule:nonzero;fill:rgb(11.372549%,19.215686%,43.921569%);fill-opacity:1;" d="M 23.367188 12.941406 C 23.371094 12.953125 23.359375 12.960938 23.339844 12.964844 C 23.335938 12.953125 23.347656 12.949219 23.367188 12.941406 Z M 23.367188 12.941406 "/>
<path style=" stroke:none;fill-rule:nonzero;fill:rgb(18.431373%,17.254902%,43.529412%);fill-opacity:1;" d="M 10.3125 18.992188 C 9.320312 19.472656 8.289062 19.558594 7.261719 19.171875 C 6.101562 18.734375 5.78125 17.851562 6.851562 16.871094 C 7.105469 16.636719 7.472656 16.476562 7.8125 16.398438 C 8.878906 16.160156 9.902344 16.242188 10.808594 17 C 10.839844 17.046875 10.855469 17.054688 10.875 17.058594 C 10.875 17.058594 10.875 17.0625 10.882812 17.074219 C 10.902344 17.105469 10.917969 17.117188 10.941406 17.121094 C 10.941406 17.121094 10.9375 17.125 10.9375 17.152344 C 11.046875 17.625 11.039062 18.0625 10.769531 18.453125 C 10.636719 18.644531 10.464844 18.8125 10.3125 18.992188 M 8.949219 18.117188 C 9.242188 18.054688 9.53125 17.992188 9.898438 17.910156 C 9.113281 17.367188 8.097656 17.402344 7.730469 18 C 8.144531 18.042969 8.519531 18.082031 8.949219 18.117188 Z M 8.949219 18.117188 "/>
<path style=" stroke:none;fill-rule:nonzero;fill:rgb(14.117647%,21.960784%,44.705882%);fill-opacity:1;" d="M 10.335938 18.992188 C 10.464844 18.8125 10.636719 18.644531 10.769531 18.453125 C 11.039062 18.0625 11.046875 17.625 10.9375 17.148438 C 11.492188 17.679688 11.394531 18.4375 10.71875 18.8125 C 10.601562 18.878906 10.480469 18.933594 10.335938 18.992188 Z M 10.335938 18.992188 "/>
<path style=" stroke:none;fill-rule:nonzero;fill:rgb(14.117647%,21.960784%,44.705882%);fill-opacity:1;" d="M 10.933594 17.109375 C 10.917969 17.117188 10.902344 17.105469 10.882812 17.078125 C 10.894531 17.074219 10.914062 17.082031 10.933594 17.109375 Z M 10.933594 17.109375 "/>
<path style=" stroke:none;fill-rule:nonzero;fill:rgb(14.117647%,21.960784%,44.705882%);fill-opacity:1;" d="M 10.871094 17.046875 C 10.855469 17.054688 10.839844 17.046875 10.820312 17.019531 C 10.835938 17.007812 10.851562 17.015625 10.871094 17.046875 Z M 10.871094 17.046875 "/>
<path style=" stroke:none;fill-rule:nonzero;fill:rgb(94.901961%,55.294118%,35.686275%);fill-opacity:1;" d="M 17.1875 13.652344 C 17.1875 13.679688 17.160156 13.6875 17.148438 13.6875 C 17.132812 12.5625 17.128906 11.4375 17.128906 10.308594 C 17.128906 10.253906 17.195312 10.203125 17.25 10.164062 C 17.238281 10.296875 17.191406 10.410156 17.191406 10.523438 C 17.183594 11.558594 17.1875 12.589844 17.1875 13.652344 Z M 17.1875 13.652344 "/>
<path style=" stroke:none;fill-rule:nonzero;fill:rgb(18.039216%,17.254902%,43.921569%);fill-opacity:1;" d="M 15.675781 28.636719 C 14.691406 29.273438 13.664062 29.433594 12.53125 29.042969 C 12.023438 28.738281 11.554688 28.453125 11.109375 28.183594 C 10.804688 28.449219 10.484375 28.722656 10.167969 29 C 9.828125 29.085938 9.496094 29.183594 9.15625 29.253906 C 8.914062 29.300781 8.710938 29.207031 8.578125 28.960938 C 8.664062 28.523438 8.785156 28.105469 8.867188 27.679688 C 8.90625 27.464844 8.894531 27.234375 8.867188 27.019531 C 8.847656 26.847656 8.792969 26.664062 8.703125 26.519531 C 8.4375 26.078125 8.644531 25.671875 8.800781 25.28125 C 8.851562 25.152344 9.105469 25.050781 9.277344 25.03125 C 9.496094 25.003906 9.726562 25.074219 9.988281 25.128906 C 10.382812 25.441406 10.746094 25.71875 11.097656 26.007812 C 11.210938 26.101562 11.292969 26.167969 11.378906 25.992188 C 11.425781 25.96875 11.476562 25.953125 11.515625 25.917969 C 12.554688 25.019531 13.742188 24.867188 15.058594 25.246094 C 15.1875 25.3125 15.28125 25.339844 15.378906 25.367188 C 15.378906 25.367188 15.375 25.375 15.386719 25.386719 C 15.433594 25.410156 15.46875 25.421875 15.503906 25.433594 C 15.503906 25.433594 15.5 25.4375 15.503906 25.457031 C 15.570312 25.503906 15.632812 25.53125 15.695312 25.554688 C 15.695312 25.554688 15.6875 25.558594 15.691406 25.578125 C 15.757812 25.628906 15.816406 25.65625 15.875 25.683594 C 15.875 25.683594 15.875 25.6875 15.878906 25.707031 C 15.988281 25.832031 16.089844 25.949219 16.210938 26.035156 C 16.609375 26.328125 17.109375 26.542969 16.992188 27.1875 C 17.050781 27.503906 16.914062 27.714844 16.660156 27.890625 C 16.328125 28.121094 16.011719 28.375 15.675781 28.636719 M 13.8125 27.734375 C 14.417969 27.746094 14.945312 27.5625 15.40625 27.105469 C 15.179688 26.960938 14.996094 26.820312 14.796875 26.71875 C 13.960938 26.285156 12.871094 26.40625 12.226562 27.019531 C 12.253906 27.09375 12.253906 27.199219 12.304688 27.238281 C 12.726562 27.585938 13.207031 27.777344 13.8125 27.734375 Z M 13.8125 27.734375 "/>
<path style=" stroke:none;fill-rule:nonzero;fill:rgb(14.117647%,21.568627%,45.098039%);fill-opacity:1;" d="M 11.371094 25.972656 C 11.292969 26.167969 11.210938 26.101562 11.097656 26.007812 C 10.746094 25.71875 10.382812 25.441406 10.011719 25.140625 C 10.582031 25.1875 11 25.527344 11.371094 25.972656 Z M 11.371094 25.972656 "/>
<path style=" stroke:none;fill-rule:nonzero;fill:rgb(17.647059%,23.921569%,45.882353%);fill-opacity:1;" d="M 17.011719 27.171875 C 17.109375 26.542969 16.609375 26.328125 16.210938 26.035156 C 16.089844 25.949219 15.988281 25.832031 15.878906 25.707031 C 16.230469 25.9375 16.597656 26.171875 16.9375 26.441406 C 17.175781 26.632812 17.222656 26.890625 17.011719 27.171875 Z M 17.011719 27.171875 "/>
<path style=" stroke:none;fill-rule:nonzero;fill:rgb(17.647059%,23.921569%,45.882353%);fill-opacity:1;" d="M 15.367188 25.351562 C 15.28125 25.339844 15.1875 25.3125 15.078125 25.261719 C 15.164062 25.273438 15.257812 25.304688 15.367188 25.351562 Z M 15.367188 25.351562 "/>
<path style=" stroke:none;fill-rule:nonzero;fill:rgb(17.647059%,23.921569%,45.882353%);fill-opacity:1;" d="M 15.683594 25.539062 C 15.632812 25.53125 15.570312 25.503906 15.507812 25.453125 C 15.5625 25.460938 15.621094 25.492188 15.683594 25.539062 Z M 15.683594 25.539062 "/>
<path style=" stroke:none;fill-rule:nonzero;fill:rgb(17.647059%,23.921569%,45.882353%);fill-opacity:1;" d="M 15.867188 25.667969 C 15.816406 25.65625 15.757812 25.628906 15.695312 25.578125 C 15.75 25.585938 15.804688 25.617188 15.867188 25.667969 Z M 15.867188 25.667969 "/>
<path style=" stroke:none;fill-rule:nonzero;fill:rgb(17.647059%,23.921569%,45.882353%);fill-opacity:1;" d="M 15.496094 25.417969 C 15.46875 25.421875 15.433594 25.410156 15.386719 25.382812 C 15.414062 25.378906 15.449219 25.390625 15.496094 25.417969 Z M 15.496094 25.417969 "/>
<path style=" stroke:none;fill-rule:nonzero;fill:rgb(95.686275%,73.333333%,14.509804%);fill-opacity:1;" d="M 10.195312 29.003906 C 10.484375 28.722656 10.804688 28.449219 11.109375 28.183594 C 11.554688 28.453125 12.023438 28.738281 12.503906 29.035156 C 11.75 29.035156 10.988281 29.019531 10.195312 29.003906 Z M 10.195312 29.003906 "/>
<path style=" stroke:none;fill-rule:nonzero;fill:rgb(92.941176%,70.980392%,12.54902%);fill-opacity:1;" d="M 8.921875 18.121094 C 8.519531 18.082031 8.144531 18.042969 7.730469 18 C 8.097656 17.402344 9.113281 17.367188 9.898438 17.910156 C 9.53125 17.992188 9.242188 18.054688 8.921875 18.121094 Z M 8.921875 18.121094 "/>
<path style=" stroke:none;fill-rule:nonzero;fill:rgb(95.686275%,72.941176%,11.764706%);fill-opacity:1;" d="M 12.261719 26.992188 C 12.871094 26.40625 13.960938 26.285156 14.796875 26.71875 C 14.996094 26.820312 15.179688 26.960938 15.40625 27.105469 C 14.945312 27.5625 14.417969 27.746094 13.769531 27.726562 C 13.164062 27.621094 12.6875 27.359375 12.261719 26.992188 Z M 12.261719 26.992188 "/>
<path style=" stroke:none;fill-rule:nonzero;fill:rgb(14.117647%,20.784314%,43.921569%);fill-opacity:1;" d="M 12.246094 27.003906 C 12.6875 27.359375 13.164062 27.621094 13.742188 27.730469 C 13.207031 27.777344 12.726562 27.585938 12.304688 27.238281 C 12.253906 27.199219 12.253906 27.09375 12.246094 27.003906 Z M 12.246094 27.003906 "/>
</g>
</svg>
