<?xml version="1.0" encoding="UTF-8"?>
<svg xmlns="http://www.w3.org/2000/svg" xmlns:xlink="http://www.w3.org/1999/xlink" width="32px" height="32px" viewBox="0 0 32 32" version="1.1">
<g id="surface1">
<path style=" stroke:none;fill-rule:nonzero;fill:rgb(9.019608%,18.431373%,43.921569%);fill-opacity:1;" d="M 3.777344 16.308594 C 3.777344 16.308594 3.769531 16.285156 3.773438 16.246094 C 3.78125 14.808594 3.777344 13.410156 3.785156 12.015625 C 3.789062 11.46875 3.785156 10.925781 3.828125 10.382812 C 4.257812 5.046875 9.113281 1.066406 14.429688 1.691406 C 18.953125 2.226562 22.464844 5.800781 22.867188 10.335938 C 22.949219 11.296875 22.902344 12.273438 22.886719 13.246094 C 22.304688 13.371094 21.746094 13.496094 21.1875 13.59375 C 21.179688 12.527344 21.171875 11.492188 21.167969 10.457031 C 15.921875 10.457031 10.753906 10.457031 5.523438 10.457031 C 5.523438 13.082031 5.523438 15.691406 5.515625 18.328125 C 5.507812 19.042969 5.507812 19.730469 5.507812 20.441406 C 5.507812 20.601562 5.507812 20.734375 5.507812 20.894531 C 5.503906 23.703125 5.503906 26.480469 5.507812 29.261719 C 5.507812 29.363281 5.554688 29.464844 5.59375 29.566406 C 5.601562 29.5625 5.621094 29.570312 5.644531 29.585938 C 5.714844 29.613281 5.769531 29.628906 5.820312 29.628906 C 7.382812 29.632812 8.949219 29.632812 10.511719 29.628906 C 10.589844 29.628906 10.667969 29.589844 10.75 29.539062 C 10.75 28.953125 10.75 28.398438 10.730469 27.824219 C 10.152344 27.800781 9.597656 27.792969 9.035156 27.753906 C 9.03125 27.414062 9.019531 27.105469 9.03125 26.796875 C 9.039062 26.570312 9.070312 26.34375 9.113281 26.132812 C 9.261719 26.15625 9.386719 26.175781 9.515625 26.175781 C 11.085938 26.179688 12.65625 26.179688 14.238281 26.210938 C 14.394531 26.867188 14.46875 27.523438 14.710938 28.117188 C 15.285156 29.539062 16.3125 30.554688 17.707031 31.1875 C 17.546875 31.210938 17.410156 31.230469 17.273438 31.230469 C 12.796875 31.230469 8.320312 31.234375 3.84375 31.203125 C 3.839844 26.363281 3.839844 21.550781 3.835938 16.742188 C 3.835938 16.597656 3.796875 16.453125 3.777344 16.308594 M 14.246094 29.527344 C 14.234375 28.96875 14.222656 28.40625 14.167969 27.8125 C 13.605469 27.820312 13.042969 27.828125 12.449219 27.882812 C 12.4375 28.230469 12.417969 28.574219 12.421875 28.921875 C 12.421875 29.136719 12.464844 29.351562 12.523438 29.605469 C 12.851562 29.613281 13.175781 29.632812 13.5 29.628906 C 13.738281 29.625 13.972656 29.585938 14.246094 29.527344 M 19.570312 6.445312 C 17.449219 3.8125 14.28125 2.765625 11.105469 3.71875 C 8.558594 4.480469 6.875 6.183594 5.933594 8.683594 C 7.570312 8.683594 9.148438 8.683594 10.746094 8.683594 C 10.746094 8.398438 10.746094 8.144531 10.746094 7.890625 C 10.761719 6.394531 11.882812 5.246094 13.335938 5.238281 C 14.808594 5.234375 15.9375 6.375 15.953125 7.886719 C 15.953125 8.152344 15.953125 8.414062 15.953125 8.691406 C 17.566406 8.691406 19.140625 8.691406 20.753906 8.691406 C 20.5 7.867188 20.085938 7.15625 19.570312 6.445312 M 12.824219 7.148438 C 12.296875 7.578125 12.527344 8.152344 12.488281 8.683594 C 13.085938 8.683594 13.640625 8.683594 14.222656 8.683594 C 14.222656 8.417969 14.222656 8.171875 14.222656 7.929688 C 14.210938 7.132812 13.574219 6.753906 12.824219 7.148438 Z M 12.824219 7.148438 "/>
<path style=" stroke:none;fill-rule:nonzero;fill:rgb(93.333333%,40.392157%,14.509804%);fill-opacity:1;" d="M 21.191406 13.625 C 21.746094 13.496094 22.304688 13.371094 22.914062 13.246094 C 23.09375 13.222656 23.222656 13.203125 23.351562 13.183594 C 23.417969 13.226562 23.484375 13.300781 23.554688 13.308594 C 25.25 13.4375 26.734375 14.546875 27.339844 16.117188 C 27.703125 17.0625 27.742188 18.007812 27.511719 18.984375 C 27.492188 19.066406 27.546875 19.21875 27.617188 19.265625 C 28.59375 19.917969 29.320312 20.78125 29.835938 21.839844 C 30.375 22.949219 30.570312 24.121094 30.453125 25.328125 C 30.3125 26.800781 29.550781 27.949219 28.382812 28.832031 C 28.359375 27.488281 28.359375 26.175781 28.355469 24.863281 C 28.351562 23.921875 27.980469 23.148438 27.265625 22.539062 C 26.789062 22.128906 26.199219 21.96875 25.613281 21.800781 C 25.023438 21.628906 24.878906 21.699219 24.671875 22.261719 C 24.417969 22.953125 24.171875 23.644531 23.917969 24.335938 C 23.800781 24.660156 23.675781 24.984375 23.550781 25.308594 C 23.402344 24.6875 23.246094 24.078125 23.265625 23.472656 C 23.273438 23.136719 23.582031 22.8125 23.753906 22.484375 C 23.964844 22.078125 23.765625 21.722656 23.308594 21.707031 C 22.976562 21.695312 22.644531 21.734375 22.316406 21.695312 C 21.765625 21.632812 21.363281 22.058594 21.769531 22.636719 C 21.945312 22.886719 22.183594 23.179688 22.183594 23.453125 C 22.179688 24.066406 22.046875 24.683594 21.96875 25.300781 C 21.855469 25.207031 21.816406 25.113281 21.78125 25.015625 C 21.425781 24.054688 21.078125 23.089844 20.722656 22.132812 C 20.574219 21.738281 20.378906 21.644531 19.972656 21.757812 C 19.738281 21.824219 19.503906 21.894531 19.269531 21.972656 C 17.84375 22.453125 17.089844 23.496094 17.085938 25.003906 C 17.082031 26.570312 17.085938 28.136719 17.085938 29.707031 C 17.085938 30.277344 17.207031 30.394531 17.785156 30.394531 C 20.355469 30.394531 22.925781 30.394531 25.496094 30.398438 C 25.617188 30.398438 25.734375 30.4375 25.855469 30.457031 C 25.015625 30.871094 24.136719 31.152344 23.214844 31.292969 C 22.710938 31.375 22.199219 31.433594 21.691406 31.480469 C 21.515625 31.496094 21.335938 31.425781 21.160156 31.429688 C 20.757812 31.4375 20.359375 31.5 19.957031 31.480469 C 19.402344 31.457031 18.851562 31.378906 18.296875 31.324219 C 18.195312 31.3125 18.089844 31.300781 17.953125 31.269531 C 17.855469 31.21875 17.792969 31.195312 17.726562 31.171875 C 16.3125 30.554688 15.285156 29.539062 14.710938 28.117188 C 14.46875 27.523438 14.394531 26.867188 14.242188 26.195312 C 14.234375 26.125 14.226562 26.097656 14.214844 26.039062 C 14.222656 25.886719 14.238281 25.761719 14.25 25.640625 C 14.300781 25.226562 14.347656 24.816406 14.414062 24.394531 C 14.441406 24.367188 14.457031 24.351562 14.484375 24.3125 C 14.730469 23.746094 14.964844 23.199219 15.214844 22.636719 C 15.867188 21.585938 16.601562 20.632812 17.542969 19.847656 C 17.628906 19.773438 17.691406 19.609375 17.679688 19.492188 C 17.632812 18.789062 17.628906 18.09375 17.859375 17.394531 C 18.164062 16.804688 18.460938 16.242188 18.769531 15.660156 C 19.449219 14.808594 20.214844 14.089844 21.191406 13.625 M 25.429688 18.929688 C 26.507812 16.660156 24.921875 14.246094 22.460938 14.4375 C 21.207031 14.535156 20.324219 15.210938 19.871094 16.375 C 19.414062 17.542969 19.632812 18.636719 20.476562 19.554688 C 21.902344 21.109375 24.375 20.789062 25.429688 18.929688 Z M 25.429688 18.929688 "/>
<path style=" stroke:none;fill-rule:nonzero;fill:rgb(18.431373%,16.470588%,43.921569%);fill-opacity:1;" d="M 25.871094 30.457031 C 25.734375 30.4375 25.617188 30.398438 25.496094 30.398438 C 22.925781 30.394531 20.355469 30.394531 17.785156 30.394531 C 17.207031 30.394531 17.085938 30.277344 17.085938 29.707031 C 17.085938 28.136719 17.082031 26.570312 17.085938 25.003906 C 17.089844 23.496094 17.84375 22.453125 19.269531 21.972656 C 19.503906 21.894531 19.738281 21.824219 19.972656 21.757812 C 20.378906 21.644531 20.574219 21.738281 20.722656 22.132812 C 21.078125 23.089844 21.425781 24.054688 21.78125 25.015625 C 21.816406 25.113281 21.855469 25.207031 21.96875 25.300781 C 22.046875 24.683594 22.179688 24.066406 22.183594 23.453125 C 22.183594 23.179688 21.945312 22.886719 21.769531 22.636719 C 21.363281 22.058594 21.765625 21.632812 22.316406 21.695312 C 22.644531 21.734375 22.976562 21.695312 23.308594 21.707031 C 23.765625 21.722656 23.964844 22.078125 23.753906 22.484375 C 23.582031 22.8125 23.273438 23.136719 23.265625 23.472656 C 23.246094 24.078125 23.402344 24.6875 23.550781 25.308594 C 23.675781 24.984375 23.800781 24.660156 23.917969 24.335938 C 24.171875 23.644531 24.417969 22.953125 24.671875 22.261719 C 24.878906 21.699219 25.023438 21.628906 25.613281 21.800781 C 26.199219 21.96875 26.789062 22.128906 27.265625 22.539062 C 27.980469 23.148438 28.351562 23.921875 28.355469 24.863281 C 28.359375 26.175781 28.359375 27.488281 28.359375 28.828125 C 28.359375 29.1875 28.375 29.519531 28.34375 29.84375 C 28.328125 30.003906 28.21875 30.15625 28.105469 30.324219 C 27.496094 30.332031 26.9375 30.332031 26.375 30.339844 C 26.246094 30.34375 26.113281 30.382812 25.980469 30.402344 C 25.980469 30.402344 25.984375 30.398438 25.972656 30.40625 C 25.949219 30.421875 25.9375 30.433594 25.921875 30.449219 C 25.914062 30.453125 25.902344 30.453125 25.871094 30.457031 M 18.066406 26.847656 C 18.066406 27.605469 18.074219 28.359375 18.0625 29.117188 C 18.058594 29.34375 18.113281 29.433594 18.363281 29.433594 C 19.617188 29.421875 20.875 29.429688 22.132812 29.425781 C 22.191406 29.425781 22.25 29.414062 22.324219 29.40625 C 22.039062 28.621094 21.765625 27.863281 21.488281 27.105469 C 20.996094 25.757812 20.496094 24.410156 20.011719 23.054688 C 19.941406 22.867188 19.867188 22.816406 19.664062 22.878906 C 18.617188 23.195312 18.074219 23.902344 18.066406 24.996094 C 18.0625 25.589844 18.066406 26.1875 18.066406 26.847656 M 23.871094 27.359375 C 23.621094 28.035156 23.375 28.710938 23.117188 29.402344 C 23.183594 29.414062 23.222656 29.425781 23.261719 29.425781 C 24.550781 29.425781 25.839844 29.421875 27.128906 29.429688 C 27.367188 29.433594 27.382812 29.3125 27.382812 29.132812 C 27.378906 27.757812 27.382812 26.382812 27.378906 25.007812 C 27.375 23.921875 26.859375 23.234375 25.824219 22.890625 C 25.605469 22.816406 25.507812 22.847656 25.425781 23.074219 C 24.921875 24.488281 24.402344 25.898438 23.871094 27.359375 Z M 23.871094 27.359375 "/>
<path style=" stroke:none;fill-rule:nonzero;fill:rgb(98.039216%,74.509804%,10.588235%);fill-opacity:1;" d="M 23.355469 13.15625 C 23.222656 13.203125 23.09375 13.222656 22.941406 13.242188 C 22.902344 12.273438 22.949219 11.296875 22.867188 10.335938 C 22.464844 5.800781 18.953125 2.226562 14.429688 1.691406 C 9.113281 1.066406 4.257812 5.046875 3.828125 10.382812 C 3.785156 10.925781 3.789062 11.46875 3.785156 12.015625 C 3.777344 13.410156 3.78125 14.808594 3.765625 16.234375 C 3.128906 15.332031 2.726562 14.300781 2.511719 13.207031 C 2.332031 12.28125 2.320312 11.347656 2.421875 10.40625 C 2.542969 9.273438 2.8125 8.1875 3.339844 7.191406 C 3.742188 6.4375 4.230469 5.71875 4.746094 5.027344 C 5.488281 4.03125 6.496094 3.316406 7.570312 2.722656 C 8.21875 2.367188 8.925781 2.117188 9.617188 1.855469 C 10.207031 1.636719 10.804688 1.425781 11.417969 1.289062 C 12.4375 1.058594 13.472656 0.867188 14.507812 0.707031 C 15.628906 0.535156 16.753906 0.589844 17.84375 0.921875 C 19.09375 1.304688 20.039062 2.125 20.820312 3.132812 C 21.652344 4.203125 22.265625 5.402344 22.675781 6.699219 C 22.992188 7.703125 23.226562 8.722656 23.296875 9.777344 C 23.324219 10.210938 23.339844 10.644531 23.363281 11.136719 C 23.363281 11.710938 23.363281 12.226562 23.363281 12.742188 C 23.363281 12.871094 23.359375 13 23.355469 13.15625 Z M 23.355469 13.15625 "/>
<path style=" stroke:none;fill-rule:nonzero;fill:rgb(34.901961%,39.607843%,52.941176%);fill-opacity:1;" d="M 3.777344 16.339844 C 3.796875 16.453125 3.835938 16.597656 3.835938 16.742188 C 3.839844 21.550781 3.839844 26.363281 3.839844 31.214844 C 3.835938 31.261719 3.832031 31.289062 3.832031 31.289062 C 3.8125 31.1875 3.777344 31.089844 3.777344 30.988281 C 3.773438 26.117188 3.773438 21.246094 3.777344 16.339844 Z M 3.777344 16.339844 "/>
<path style=" stroke:none;fill-rule:nonzero;fill:rgb(3.921569%,14.117647%,41.960784%);fill-opacity:1;" d="M 3.859375 31.289062 C 3.832031 31.289062 3.835938 31.261719 3.839844 31.246094 C 8.320312 31.234375 12.796875 31.230469 17.273438 31.230469 C 17.410156 31.230469 17.546875 31.210938 17.707031 31.1875 C 17.792969 31.195312 17.855469 31.21875 17.925781 31.265625 C 16.972656 31.289062 16.015625 31.292969 15.054688 31.292969 C 11.332031 31.292969 7.613281 31.292969 3.859375 31.289062 Z M 3.859375 31.289062 "/>
<path style=" stroke:none;fill-rule:nonzero;fill:rgb(37.254902%,35.686275%,56.862745%);fill-opacity:1;" d="M 26.011719 30.402344 C 26.113281 30.382812 26.246094 30.34375 26.375 30.339844 C 26.9375 30.332031 27.496094 30.332031 28.085938 30.332031 C 28.019531 30.359375 27.921875 30.394531 27.824219 30.398438 C 27.230469 30.402344 26.636719 30.398438 26.011719 30.402344 Z M 26.011719 30.402344 "/>
<path style=" stroke:none;fill-rule:nonzero;fill:rgb(99.607843%,90.196078%,63.921569%);fill-opacity:1;" d="M 23.386719 12.730469 C 23.363281 12.226562 23.363281 11.710938 23.367188 11.164062 C 23.382812 11.660156 23.398438 12.1875 23.386719 12.730469 Z M 23.386719 12.730469 "/>
<path style=" stroke:none;fill-rule:nonzero;fill:rgb(37.254902%,35.686275%,56.862745%);fill-opacity:1;" d="M 25.9375 30.445312 C 25.9375 30.433594 25.949219 30.421875 25.976562 30.40625 C 25.980469 30.417969 25.96875 30.433594 25.9375 30.445312 Z M 25.9375 30.445312 "/>
<path style=" stroke:none;fill-rule:nonzero;fill:rgb(98.039216%,74.509804%,10.196078%);fill-opacity:1;" d="M 21.1875 13.59375 C 20.214844 14.089844 19.449219 14.808594 18.738281 15.65625 C 18.371094 15.671875 18.046875 15.671875 17.691406 15.671875 C 17.691406 16.230469 17.6875 16.746094 17.695312 17.265625 C 17.699219 17.316406 17.796875 17.363281 17.851562 17.414062 C 17.628906 18.09375 17.632812 18.789062 17.679688 19.492188 C 17.691406 19.609375 17.628906 19.773438 17.542969 19.847656 C 16.601562 20.632812 15.867188 21.585938 15.183594 22.625 C 14.902344 22.632812 14.660156 22.617188 14.421875 22.636719 C 14.347656 22.640625 14.28125 22.734375 14.195312 22.789062 C 14.160156 22.796875 14.148438 22.8125 14.121094 22.839844 C 13.558594 22.804688 13.027344 22.761719 12.488281 22.699219 C 12.460938 22.671875 12.4375 22.660156 12.402344 22.640625 C 12.375 22.640625 12.363281 22.644531 12.339844 22.640625 C 12.328125 22.632812 12.300781 22.625 12.28125 22.613281 C 12.160156 22.578125 12.054688 22.554688 11.929688 22.53125 C 11.503906 22.375 11.085938 22.25 10.707031 22.050781 C 10.027344 21.691406 9.371094 21.285156 8.730469 20.890625 C 8.839844 20.832031 8.996094 20.785156 8.996094 20.734375 C 9.015625 20.214844 9.007812 19.699219 9.007812 19.167969 C 8.410156 19.167969 7.84375 19.167969 7.269531 19.167969 C 7.253906 19.390625 7.242188 19.589844 7.210938 19.777344 C 6.65625 19.324219 6.117188 18.878906 5.578125 18.414062 C 5.558594 18.363281 5.539062 18.332031 5.523438 18.300781 C 5.523438 15.691406 5.523438 13.082031 5.523438 10.457031 C 10.753906 10.457031 15.921875 10.457031 21.167969 10.457031 C 21.171875 11.492188 21.179688 12.527344 21.1875 13.59375 M 8.472656 12.183594 C 8.074219 12.183594 7.671875 12.183594 7.269531 12.183594 C 7.269531 12.789062 7.269531 13.347656 7.269531 13.917969 C 7.855469 13.917969 8.421875 13.917969 8.992188 13.917969 C 8.992188 13.332031 8.992188 12.777344 8.992188 12.183594 C 8.828125 12.183594 8.679688 12.183594 8.472656 12.183594 M 18.71875 13.941406 C 18.957031 13.941406 19.195312 13.941406 19.425781 13.941406 C 19.425781 13.328125 19.425781 12.769531 19.425781 12.210938 C 18.839844 12.210938 18.273438 12.210938 17.714844 12.210938 C 17.714844 12.800781 17.714844 13.359375 17.714844 13.941406 C 18.042969 13.941406 18.347656 13.941406 18.71875 13.941406 M 15.953125 12.304688 C 15.914062 12.265625 15.875 12.191406 15.835938 12.191406 C 15.308594 12.183594 14.78125 12.1875 14.246094 12.1875 C 14.246094 12.789062 14.246094 13.355469 14.246094 13.929688 C 14.820312 13.929688 15.371094 13.929688 15.953125 13.929688 C 15.953125 13.398438 15.953125 12.878906 15.953125 12.304688 M 7.78125 15.671875 C 7.613281 15.671875 7.449219 15.671875 7.277344 15.671875 C 7.277344 16.273438 7.277344 16.828125 7.277344 17.386719 C 7.863281 17.386719 8.421875 17.386719 8.984375 17.386719 C 8.984375 16.804688 8.984375 16.246094 8.984375 15.671875 C 8.585938 15.671875 8.214844 15.671875 7.78125 15.671875 M 11.550781 12.183594 C 11.289062 12.183594 11.027344 12.183594 10.765625 12.183594 C 10.765625 12.789062 10.765625 13.351562 10.765625 13.917969 C 11.34375 13.917969 11.902344 13.917969 12.460938 13.917969 C 12.460938 13.335938 12.460938 12.773438 12.460938 12.183594 C 12.167969 12.183594 11.890625 12.183594 11.550781 12.183594 M 10.746094 16.164062 C 10.746094 16.574219 10.746094 16.984375 10.746094 17.386719 C 11.351562 17.386719 11.898438 17.386719 12.457031 17.386719 C 12.457031 16.808594 12.457031 16.253906 12.457031 15.695312 C 11.878906 15.695312 11.320312 15.695312 10.746094 15.695312 C 10.746094 15.847656 10.746094 15.972656 10.746094 16.164062 M 15.640625 17.410156 C 15.734375 17.402344 15.824219 17.398438 15.933594 17.390625 C 15.933594 16.816406 15.933594 16.257812 15.933594 15.695312 C 15.359375 15.695312 14.804688 15.695312 14.246094 15.695312 C 14.246094 16.273438 14.246094 16.832031 14.246094 17.410156 C 14.707031 17.410156 15.140625 17.410156 15.640625 17.410156 M 12.472656 20.816406 C 12.472656 20.269531 12.472656 19.71875 12.472656 19.160156 C 11.882812 19.160156 11.332031 19.160156 10.765625 19.160156 C 10.765625 19.734375 10.765625 20.289062 10.765625 20.863281 C 11.328125 20.863281 11.878906 20.863281 12.472656 20.816406 M 15.953125 19.558594 C 15.949219 19.425781 15.941406 19.292969 15.9375 19.164062 C 15.347656 19.164062 14.800781 19.164062 14.242188 19.164062 C 14.242188 19.742188 14.242188 20.300781 14.242188 20.855469 C 14.824219 20.855469 15.382812 20.855469 15.953125 20.855469 C 15.953125 20.425781 15.953125 20.023438 15.953125 19.558594 Z M 15.953125 19.558594 "/>
<path style=" stroke:none;fill-rule:nonzero;fill:rgb(98.039216%,74.509804%,10.196078%);fill-opacity:1;" d="M 19.585938 6.464844 C 20.085938 7.15625 20.5 7.867188 20.753906 8.691406 C 19.140625 8.691406 17.566406 8.691406 15.953125 8.691406 C 15.953125 8.414062 15.953125 8.152344 15.953125 7.886719 C 15.9375 6.375 14.808594 5.234375 13.335938 5.238281 C 11.882812 5.246094 10.761719 6.394531 10.746094 7.890625 C 10.746094 8.144531 10.746094 8.398438 10.746094 8.683594 C 9.148438 8.683594 7.570312 8.683594 5.933594 8.683594 C 6.875 6.183594 8.558594 4.480469 11.105469 3.71875 C 14.28125 2.765625 17.449219 3.8125 19.585938 6.464844 Z M 19.585938 6.464844 "/>
<path style=" stroke:none;fill-rule:nonzero;fill:rgb(96.470588%,73.333333%,10.588235%);fill-opacity:1;" d="M 12.84375 7.132812 C 13.574219 6.753906 14.210938 7.132812 14.222656 7.929688 C 14.222656 8.171875 14.222656 8.417969 14.222656 8.683594 C 13.640625 8.683594 13.085938 8.683594 12.488281 8.683594 C 12.527344 8.152344 12.296875 7.578125 12.84375 7.132812 Z M 12.84375 7.132812 "/>
<path style=" stroke:none;fill-rule:nonzero;fill:rgb(70.980392%,74.117647%,82.352941%);fill-opacity:1;" d="M 5.507812 20.894531 C 5.527344 20.972656 5.566406 21.078125 5.566406 21.1875 C 5.570312 23.960938 5.570312 26.734375 5.574219 29.539062 C 5.554688 29.464844 5.507812 29.363281 5.507812 29.261719 C 5.503906 26.480469 5.503906 23.703125 5.507812 20.894531 Z M 5.507812 20.894531 "/>
<path style=" stroke:none;fill-rule:nonzero;fill:rgb(21.176471%,27.843137%,49.019608%);fill-opacity:1;" d="M 9.113281 26.132812 C 10.648438 26.117188 12.203125 26.113281 13.757812 26.109375 C 13.894531 26.109375 14.035156 26.101562 14.195312 26.082031 C 14.226562 26.097656 14.234375 26.125 14.234375 26.167969 C 12.65625 26.179688 11.085938 26.179688 9.515625 26.175781 C 9.386719 26.175781 9.261719 26.15625 9.113281 26.132812 Z M 9.113281 26.132812 "/>
<path style=" stroke:none;fill-rule:nonzero;fill:rgb(34.901961%,41.960784%,60.392157%);fill-opacity:1;" d="M 5.644531 29.585938 C 7.3125 29.570312 9 29.570312 10.71875 29.570312 C 10.667969 29.589844 10.589844 29.628906 10.511719 29.628906 C 8.949219 29.632812 7.382812 29.632812 5.820312 29.628906 C 5.769531 29.628906 5.714844 29.613281 5.644531 29.585938 Z M 5.644531 29.585938 "/>
<path style=" stroke:none;fill-rule:nonzero;fill:rgb(70.980392%,74.117647%,81.960784%);fill-opacity:1;" d="M 5.578125 18.414062 C 5.574219 19.082031 5.566406 19.734375 5.535156 20.402344 C 5.507812 19.730469 5.507812 19.042969 5.515625 18.328125 C 5.539062 18.332031 5.558594 18.363281 5.578125 18.414062 Z M 5.578125 18.414062 "/>
<path style=" stroke:none;fill-rule:nonzero;fill:rgb(23.137255%,31.372549%,53.333333%);fill-opacity:1;" d="M 12.480469 27.839844 C 13.042969 27.828125 13.605469 27.820312 14.1875 27.828125 C 14.207031 27.84375 14.210938 27.839844 14.179688 27.839844 C 13.59375 27.839844 13.035156 27.839844 12.480469 27.839844 Z M 12.480469 27.839844 "/>
<path style=" stroke:none;fill-rule:nonzero;fill:rgb(22.745098%,30.980392%,53.333333%);fill-opacity:1;" d="M 10.730469 27.824219 C 10.191406 27.835938 9.632812 27.828125 9.054688 27.804688 C 9.597656 27.792969 10.152344 27.800781 10.730469 27.824219 Z M 10.730469 27.824219 "/>
<path style=" stroke:none;fill-rule:nonzero;fill:rgb(22.745098%,30.588235%,52.941176%);fill-opacity:1;" d="M 12.488281 29.570312 C 12.464844 29.351562 12.421875 29.136719 12.421875 28.921875 C 12.417969 28.574219 12.4375 28.230469 12.464844 27.859375 C 12.480469 27.839844 12.480469 27.839844 12.480469 27.871094 C 12.480469 28.457031 12.480469 29.011719 12.480469 29.570312 C 12.484375 29.566406 12.488281 29.570312 12.488281 29.570312 Z M 12.488281 29.570312 "/>
<path style=" stroke:none;fill-rule:nonzero;fill:rgb(38.431373%,44.705882%,62.745098%);fill-opacity:1;" d="M 14.207031 27.84375 C 14.222656 28.40625 14.234375 28.96875 14.226562 29.546875 C 14.207031 29.566406 14.207031 29.566406 14.207031 29.539062 C 14.210938 28.953125 14.210938 28.398438 14.210938 27.839844 C 14.210938 27.839844 14.207031 27.84375 14.207031 27.84375 Z M 14.207031 27.84375 "/>
<path style=" stroke:none;fill-rule:nonzero;fill:rgb(34.509804%,41.568627%,60.392157%);fill-opacity:1;" d="M 14.207031 29.566406 C 13.972656 29.585938 13.738281 29.625 13.5 29.628906 C 13.175781 29.632812 12.851562 29.613281 12.503906 29.585938 C 12.488281 29.570312 12.484375 29.566406 12.511719 29.566406 C 13.097656 29.570312 13.652344 29.566406 14.207031 29.566406 Z M 14.207031 29.566406 "/>
<path style=" stroke:none;fill-rule:nonzero;fill:rgb(19.215686%,16.470588%,43.529412%);fill-opacity:1;" d="M 25.417969 18.949219 C 24.375 20.789062 21.902344 21.109375 20.476562 19.554688 C 19.632812 18.636719 19.414062 17.542969 19.871094 16.375 C 20.324219 15.210938 21.207031 14.535156 22.460938 14.4375 C 24.921875 14.246094 26.507812 16.660156 25.417969 18.949219 M 23.042969 15.421875 C 22.914062 15.414062 22.789062 15.402344 22.660156 15.402344 C 21.757812 15.421875 20.980469 16.03125 20.714844 16.933594 C 20.46875 17.765625 20.832031 18.714844 21.59375 19.222656 C 22.316406 19.703125 23.300781 19.667969 23.984375 19.121094 C 24.648438 18.589844 24.9375 17.890625 24.753906 17.054688 C 24.558594 16.171875 23.980469 15.636719 23.042969 15.421875 Z M 23.042969 15.421875 "/>
<path style=" stroke:none;fill-rule:nonzero;fill:rgb(14.509804%,21.568627%,41.960784%);fill-opacity:1;" d="M 17.859375 17.394531 C 17.796875 17.363281 17.699219 17.316406 17.695312 17.265625 C 17.6875 16.746094 17.691406 16.230469 17.691406 15.671875 C 18.046875 15.671875 18.371094 15.671875 18.726562 15.671875 C 18.460938 16.242188 18.164062 16.804688 17.859375 17.394531 Z M 17.859375 17.394531 "/>
<path style=" stroke:none;fill-rule:nonzero;fill:rgb(9.411765%,18.039216%,43.529412%);fill-opacity:1;" d="M 14.210938 22.789062 C 14.28125 22.734375 14.347656 22.640625 14.421875 22.636719 C 14.660156 22.617188 14.902344 22.632812 15.171875 22.644531 C 14.964844 23.199219 14.730469 23.746094 14.457031 24.308594 C 14.367188 24.226562 14.285156 24.132812 14.277344 24.027344 C 14.238281 23.636719 14.226562 23.242188 14.203125 22.847656 C 14.203125 22.847656 14.207031 22.847656 14.210938 22.832031 C 14.214844 22.808594 14.210938 22.796875 14.210938 22.789062 Z M 14.210938 22.789062 "/>
<path style=" stroke:none;fill-rule:nonzero;fill:rgb(38.039216%,43.529412%,59.607843%);fill-opacity:1;" d="M 14.207031 22.875 C 14.226562 23.242188 14.238281 23.636719 14.277344 24.027344 C 14.285156 24.132812 14.367188 24.226562 14.441406 24.328125 C 14.457031 24.351562 14.441406 24.367188 14.414062 24.394531 C 14.238281 24.402344 14.199219 24.320312 14.203125 24.167969 C 14.214844 23.746094 14.207031 23.328125 14.207031 22.875 Z M 14.207031 22.875 "/>
<path style=" stroke:none;fill-rule:nonzero;fill:rgb(92.941176%,40%,14.509804%);fill-opacity:1;" d="M 18.066406 26.816406 C 18.066406 26.1875 18.0625 25.589844 18.066406 24.996094 C 18.074219 23.902344 18.617188 23.195312 19.664062 22.878906 C 19.867188 22.816406 19.941406 22.867188 20.011719 23.054688 C 20.496094 24.410156 20.996094 25.757812 21.488281 27.105469 C 21.765625 27.863281 22.039062 28.621094 22.324219 29.40625 C 22.25 29.414062 22.191406 29.425781 22.132812 29.425781 C 20.875 29.429688 19.617188 29.421875 18.363281 29.433594 C 18.113281 29.433594 18.058594 29.34375 18.0625 29.117188 C 18.074219 28.359375 18.066406 27.605469 18.066406 26.816406 Z M 18.066406 26.816406 "/>
<path style=" stroke:none;fill-rule:nonzero;fill:rgb(92.941176%,40%,14.509804%);fill-opacity:1;" d="M 23.878906 27.332031 C 24.402344 25.898438 24.921875 24.488281 25.425781 23.074219 C 25.507812 22.847656 25.605469 22.816406 25.824219 22.890625 C 26.859375 23.234375 27.375 23.921875 27.378906 25.007812 C 27.382812 26.382812 27.378906 27.757812 27.382812 29.132812 C 27.382812 29.3125 27.367188 29.433594 27.128906 29.429688 C 25.839844 29.421875 24.550781 29.425781 23.261719 29.425781 C 23.222656 29.425781 23.183594 29.414062 23.117188 29.402344 C 23.375 28.710938 23.621094 28.035156 23.878906 27.332031 Z M 23.878906 27.332031 "/>
<path style=" stroke:none;fill-rule:nonzero;fill:rgb(12.156863%,20.392157%,42.745098%);fill-opacity:1;" d="M 8.503906 12.183594 C 8.679688 12.183594 8.828125 12.183594 8.992188 12.183594 C 8.992188 12.777344 8.992188 13.332031 8.992188 13.917969 C 8.421875 13.917969 7.855469 13.917969 7.269531 13.917969 C 7.269531 13.347656 7.269531 12.789062 7.269531 12.183594 C 7.671875 12.183594 8.074219 12.183594 8.503906 12.183594 Z M 8.503906 12.183594 "/>
<path style=" stroke:none;fill-rule:nonzero;fill:rgb(12.156863%,20.784314%,42.745098%);fill-opacity:1;" d="M 18.6875 13.941406 C 18.347656 13.941406 18.042969 13.941406 17.714844 13.941406 C 17.714844 13.359375 17.714844 12.800781 17.714844 12.210938 C 18.273438 12.210938 18.839844 12.210938 19.425781 12.210938 C 19.425781 12.769531 19.425781 13.328125 19.425781 13.941406 C 19.195312 13.941406 18.957031 13.941406 18.6875 13.941406 Z M 18.6875 13.941406 "/>
<path style=" stroke:none;fill-rule:nonzero;fill:rgb(11.372549%,20%,43.137255%);fill-opacity:1;" d="M 15.953125 12.332031 C 15.953125 12.878906 15.953125 13.398438 15.953125 13.929688 C 15.371094 13.929688 14.820312 13.929688 14.246094 13.929688 C 14.246094 13.355469 14.246094 12.789062 14.246094 12.1875 C 14.78125 12.1875 15.308594 12.183594 15.835938 12.191406 C 15.875 12.191406 15.914062 12.265625 15.953125 12.332031 Z M 15.953125 12.332031 "/>
<path style=" stroke:none;fill-rule:nonzero;fill:rgb(10.980392%,20%,43.137255%);fill-opacity:1;" d="M 7.8125 15.671875 C 8.214844 15.671875 8.585938 15.671875 8.984375 15.671875 C 8.984375 16.246094 8.984375 16.804688 8.984375 17.386719 C 8.421875 17.386719 7.863281 17.386719 7.277344 17.386719 C 7.277344 16.828125 7.277344 16.273438 7.277344 15.671875 C 7.449219 15.671875 7.613281 15.671875 7.8125 15.671875 Z M 7.8125 15.671875 "/>
<path style=" stroke:none;fill-rule:nonzero;fill:rgb(10.588235%,19.607843%,43.529412%);fill-opacity:1;" d="M 11.585938 12.183594 C 11.890625 12.183594 12.167969 12.183594 12.460938 12.183594 C 12.460938 12.773438 12.460938 13.335938 12.460938 13.917969 C 11.902344 13.917969 11.34375 13.917969 10.765625 13.917969 C 10.765625 13.351562 10.765625 12.789062 10.765625 12.183594 C 11.027344 12.183594 11.289062 12.183594 11.585938 12.183594 Z M 11.585938 12.183594 "/>
<path style=" stroke:none;fill-rule:nonzero;fill:rgb(9.803922%,18.823529%,43.529412%);fill-opacity:1;" d="M 8.730469 20.890625 C 8.25 20.882812 7.800781 20.871094 7.320312 20.828125 C 7.273438 20.457031 7.25 20.117188 7.230469 19.777344 C 7.230469 19.777344 7.234375 19.785156 7.234375 19.785156 C 7.242188 19.589844 7.253906 19.390625 7.269531 19.167969 C 7.84375 19.167969 8.410156 19.167969 9.007812 19.167969 C 9.007812 19.699219 9.015625 20.214844 8.996094 20.734375 C 8.996094 20.785156 8.839844 20.832031 8.730469 20.890625 Z M 8.730469 20.890625 "/>
<path style=" stroke:none;fill-rule:nonzero;fill:rgb(9.411765%,18.823529%,43.921569%);fill-opacity:1;" d="M 10.746094 16.132812 C 10.746094 15.972656 10.746094 15.847656 10.746094 15.695312 C 11.320312 15.695312 11.878906 15.695312 12.457031 15.695312 C 12.457031 16.253906 12.457031 16.808594 12.457031 17.386719 C 11.898438 17.386719 11.351562 17.386719 10.746094 17.386719 C 10.746094 16.984375 10.746094 16.574219 10.746094 16.132812 Z M 10.746094 16.132812 "/>
<path style=" stroke:none;fill-rule:nonzero;fill:rgb(9.803922%,19.215686%,43.529412%);fill-opacity:1;" d="M 15.609375 17.410156 C 15.140625 17.410156 14.707031 17.410156 14.246094 17.410156 C 14.246094 16.832031 14.246094 16.273438 14.246094 15.695312 C 14.804688 15.695312 15.359375 15.695312 15.933594 15.695312 C 15.933594 16.257812 15.933594 16.816406 15.933594 17.390625 C 15.824219 17.398438 15.734375 17.402344 15.609375 17.410156 Z M 15.609375 17.410156 "/>
<path style=" stroke:none;fill-rule:nonzero;fill:rgb(9.411765%,18.823529%,43.921569%);fill-opacity:1;" d="M 12.453125 20.839844 C 11.878906 20.863281 11.328125 20.863281 10.765625 20.863281 C 10.765625 20.289062 10.765625 19.734375 10.765625 19.160156 C 11.332031 19.160156 11.882812 19.160156 12.472656 19.160156 C 12.472656 19.71875 12.472656 20.269531 12.453125 20.839844 Z M 12.453125 20.839844 "/>
<path style=" stroke:none;fill-rule:nonzero;fill:rgb(9.803922%,18.823529%,43.921569%);fill-opacity:1;" d="M 15.953125 19.589844 C 15.953125 20.023438 15.953125 20.425781 15.953125 20.855469 C 15.382812 20.855469 14.824219 20.855469 14.242188 20.855469 C 14.242188 20.300781 14.242188 19.742188 14.242188 19.164062 C 14.800781 19.164062 15.347656 19.164062 15.9375 19.164062 C 15.941406 19.292969 15.949219 19.425781 15.953125 19.589844 Z M 15.953125 19.589844 "/>
<path style=" stroke:none;fill-rule:nonzero;fill:rgb(8.235294%,18.039216%,44.313725%);fill-opacity:1;" d="M 10.761719 24.324219 C 10.757812 23.808594 10.757812 23.292969 10.769531 22.742188 C 10.796875 22.691406 10.804688 22.679688 10.84375 22.660156 C 11.347656 22.644531 11.824219 22.636719 12.300781 22.625 C 12.300781 22.625 12.328125 22.632812 12.347656 22.652344 C 12.382812 22.691406 12.394531 22.707031 12.414062 22.75 C 12.417969 23.183594 12.40625 23.585938 12.421875 23.988281 C 12.429688 24.234375 12.359375 24.332031 12.097656 24.324219 C 11.652344 24.304688 11.207031 24.320312 10.761719 24.324219 Z M 10.761719 24.324219 "/>
<path style=" stroke:none;fill-rule:nonzero;fill:rgb(25.098039%,32.941176%,54.509804%);fill-opacity:1;" d="M 10.773438 24.34375 C 11.207031 24.320312 11.652344 24.304688 12.097656 24.324219 C 12.359375 24.332031 12.429688 24.234375 12.421875 23.988281 C 12.40625 23.585938 12.417969 23.183594 12.417969 22.730469 C 12.417969 22.671875 12.417969 22.660156 12.417969 22.648438 C 12.4375 22.660156 12.460938 22.671875 12.488281 22.699219 C 12.496094 23.257812 12.496094 23.796875 12.496094 24.367188 C 11.902344 24.367188 11.347656 24.367188 10.773438 24.34375 Z M 10.773438 24.34375 "/>
<path style=" stroke:none;fill-rule:nonzero;fill:rgb(62.745098%,64.705882%,68.627451%);fill-opacity:1;" d="M 12.28125 22.613281 C 11.824219 22.636719 11.347656 22.644531 10.828125 22.65625 C 10.785156 22.65625 10.757812 22.648438 10.757812 22.648438 C 11.148438 22.625 11.539062 22.605469 11.941406 22.558594 C 12.054688 22.554688 12.160156 22.578125 12.28125 22.613281 Z M 12.28125 22.613281 "/>
<path style=" stroke:none;fill-rule:nonzero;fill:rgb(38.039216%,43.529412%,59.607843%);fill-opacity:1;" d="M 14.195312 22.789062 C 14.210938 22.796875 14.214844 22.808594 14.210938 22.835938 C 14.207031 22.851562 14.175781 22.84375 14.164062 22.839844 C 14.148438 22.8125 14.160156 22.796875 14.195312 22.789062 Z M 14.195312 22.789062 "/>
<path style=" stroke:none;fill-rule:nonzero;fill:rgb(1.960784%,12.54902%,41.176471%);fill-opacity:1;" d="M 12.402344 22.640625 C 12.417969 22.660156 12.417969 22.671875 12.414062 22.699219 C 12.394531 22.707031 12.382812 22.691406 12.359375 22.660156 C 12.363281 22.644531 12.375 22.640625 12.402344 22.640625 Z M 12.402344 22.640625 "/>
<path style=" stroke:none;fill-rule:nonzero;fill:rgb(44.705882%,50.588235%,66.27451%);fill-opacity:1;" d="M 7.296875 24.375 C 7.273438 24.285156 7.234375 24.191406 7.234375 24.101562 C 7.234375 23.628906 7.242188 23.15625 7.269531 22.667969 C 7.292969 22.65625 7.296875 22.652344 7.296875 22.667969 C 7.300781 22.695312 7.300781 22.707031 7.300781 22.746094 C 7.300781 23.289062 7.304688 23.800781 7.304688 24.328125 C 7.300781 24.355469 7.296875 24.367188 7.296875 24.375 Z M 7.296875 24.375 "/>
<path style=" stroke:none;fill-rule:nonzero;fill:rgb(38.039216%,44.705882%,62.352941%);fill-opacity:1;" d="M 8.957031 22.65625 C 8.980469 22.792969 9.019531 22.929688 9.019531 23.066406 C 9.023438 23.496094 9.015625 23.925781 8.984375 24.351562 C 8.953125 24.332031 8.953125 24.320312 8.953125 24.296875 C 8.953125 24.285156 8.953125 24.261719 8.957031 24.230469 C 8.957031 23.707031 8.957031 23.210938 8.957031 22.703125 C 8.960938 22.675781 8.960938 22.664062 8.960938 22.652344 C 8.960938 22.65625 8.957031 22.65625 8.957031 22.65625 Z M 8.957031 22.65625 "/>
<path style=" stroke:none;fill-rule:nonzero;fill:rgb(58.431373%,63.137255%,74.901961%);fill-opacity:1;" d="M 7.296875 22.65625 C 7.433594 22.636719 7.570312 22.597656 7.707031 22.59375 C 8.113281 22.589844 8.523438 22.601562 8.945312 22.628906 C 8.957031 22.65625 8.960938 22.65625 8.945312 22.65625 C 8.929688 22.65625 8.898438 22.664062 8.867188 22.660156 C 8.34375 22.65625 7.851562 22.660156 7.34375 22.660156 C 7.328125 22.65625 7.296875 22.652344 7.296875 22.652344 C 7.296875 22.652344 7.292969 22.65625 7.296875 22.65625 Z M 7.296875 22.65625 "/>
<path style=" stroke:none;fill-rule:nonzero;fill:rgb(27.45098%,35.294118%,56.078431%);fill-opacity:1;" d="M 8.953125 24.308594 C 8.953125 24.320312 8.953125 24.332031 8.957031 24.359375 C 8.425781 24.378906 7.890625 24.378906 7.328125 24.378906 C 7.296875 24.367188 7.300781 24.355469 7.332031 24.332031 C 7.875 24.316406 8.386719 24.3125 8.914062 24.3125 C 8.925781 24.3125 8.953125 24.308594 8.953125 24.308594 Z M 8.953125 24.308594 "/>
<path style=" stroke:none;fill-rule:nonzero;fill:rgb(44.705882%,46.666667%,52.54902%);fill-opacity:1;" d="M 7.230469 19.808594 C 7.25 20.117188 7.273438 20.457031 7.289062 20.828125 C 7.265625 20.519531 7.25 20.179688 7.230469 19.808594 Z M 7.230469 19.808594 "/>
<path style=" stroke:none;fill-rule:nonzero;fill:rgb(1.960784%,12.54902%,41.176471%);fill-opacity:1;" d="M 10.757812 22.667969 C 10.757812 22.648438 10.785156 22.65625 10.800781 22.660156 C 10.804688 22.679688 10.796875 22.691406 10.773438 22.710938 C 10.761719 22.707031 10.757812 22.695312 10.757812 22.667969 Z M 10.757812 22.667969 "/>
<path style=" stroke:none;fill-rule:nonzero;fill:rgb(93.333333%,40%,14.509804%);fill-opacity:1;" d="M 23.070312 15.425781 C 23.980469 15.636719 24.558594 16.171875 24.753906 17.054688 C 24.9375 17.890625 24.648438 18.589844 23.984375 19.121094 C 23.300781 19.667969 22.316406 19.703125 21.59375 19.222656 C 20.832031 18.714844 20.46875 17.765625 20.714844 16.933594 C 20.980469 16.03125 21.757812 15.421875 22.660156 15.402344 C 22.789062 15.402344 22.914062 15.414062 23.070312 15.425781 Z M 23.070312 15.425781 "/>
<path style=" stroke:none;fill-rule:nonzero;fill:rgb(8.235294%,18.039216%,44.313725%);fill-opacity:1;" d="M 8.902344 24.3125 C 8.386719 24.3125 7.875 24.316406 7.335938 24.3125 C 7.304688 23.800781 7.300781 23.289062 7.3125 22.738281 C 7.339844 22.691406 7.351562 22.679688 7.359375 22.664062 C 7.851562 22.660156 8.34375 22.65625 8.875 22.671875 C 8.925781 22.699219 8.941406 22.710938 8.957031 22.71875 C 8.957031 23.210938 8.957031 23.707031 8.945312 24.238281 C 8.917969 24.285156 8.910156 24.296875 8.902344 24.3125 Z M 8.902344 24.3125 "/>
<path style=" stroke:none;fill-rule:nonzero;fill:rgb(3.137255%,13.333333%,41.176471%);fill-opacity:1;" d="M 7.34375 22.660156 C 7.351562 22.679688 7.339844 22.691406 7.316406 22.710938 C 7.300781 22.707031 7.300781 22.695312 7.296875 22.667969 C 7.296875 22.652344 7.328125 22.65625 7.34375 22.660156 Z M 7.34375 22.660156 "/>
<path style=" stroke:none;fill-rule:nonzero;fill:rgb(3.137255%,13.333333%,41.176471%);fill-opacity:1;" d="M 8.914062 24.3125 C 8.910156 24.296875 8.917969 24.285156 8.941406 24.265625 C 8.953125 24.261719 8.953125 24.285156 8.953125 24.296875 C 8.953125 24.308594 8.925781 24.3125 8.914062 24.3125 Z M 8.914062 24.3125 "/>
<path style=" stroke:none;fill-rule:nonzero;fill:rgb(3.137255%,13.333333%,41.176471%);fill-opacity:1;" d="M 8.957031 22.703125 C 8.941406 22.710938 8.925781 22.699219 8.90625 22.675781 C 8.898438 22.664062 8.929688 22.65625 8.945312 22.652344 C 8.960938 22.664062 8.960938 22.675781 8.957031 22.703125 Z M 8.957031 22.703125 "/>
</g>
</svg>
