<?xml version="1.0" encoding="UTF-8"?>
<svg xmlns="http://www.w3.org/2000/svg" xmlns:xlink="http://www.w3.org/1999/xlink" width="32px" height="32px" viewBox="0 0 32 32" version="1.1">
<g id="surface1">
<path style=" stroke:none;fill-rule:nonzero;fill:rgb(9.411765%,18.823529%,44.313725%);fill-opacity:1;" d="M 13.191406 3.492188 C 13.828125 3.445312 14.402344 3.636719 14.949219 3.957031 C 15.007812 3.988281 15.128906 3.90625 15.261719 3.859375 C 15.472656 3.773438 15.644531 3.695312 15.816406 3.632812 C 16.664062 3.328125 17.421875 3.550781 18.140625 4.042969 C 19.175781 3.308594 20.21875 3.316406 21.242188 4.03125 C 22.109375 3.46875 22.976562 3.296875 23.921875 3.789062 C 24.871094 4.285156 25.164062 5.128906 25.207031 6.113281 C 26.113281 6.113281 26.996094 6.113281 27.890625 6.117188 C 27.90625 6.121094 27.929688 6.113281 27.960938 6.117188 C 28.886719 6.019531 29.269531 6.503906 29.242188 7.371094 C 29.207031 8.40625 29.242188 9.441406 29.246094 10.480469 C 29.242188 10.714844 29.214844 10.957031 29.234375 11.191406 C 29.292969 11.859375 28.828125 12.324219 28.179688 12.25 C 28.097656 12.242188 28.015625 12.25 27.875 12.25 C 26.945312 12.25 26.078125 12.25 25.183594 12.25 C 25.183594 12.855469 25.152344 13.425781 25.191406 13.992188 C 25.28125 15.371094 24.746094 16.578125 24.214844 17.796875 C 23.929688 18.449219 23.570312 19.109375 23.480469 19.796875 C 23.347656 20.820312 23.425781 21.871094 23.414062 22.910156 C 23.414062 22.925781 23.4375 22.945312 23.46875 22.980469 C 23.574219 22.980469 23.699219 22.988281 23.824219 22.980469 C 24.726562 22.917969 25.671875 23.679688 25.617188 24.769531 C 25.601562 25.113281 25.625 25.457031 25.628906 25.800781 C 25.625 26.308594 25.625 26.820312 25.613281 27.328125 C 25.597656 28.269531 25.210938 28.789062 24.335938 29.046875 C 24.179688 29.09375 24.007812 29.105469 23.84375 29.105469 C 19.75 29.109375 15.65625 29.105469 11.5625 29.109375 C 10.84375 29.109375 10.308594 28.789062 9.941406 28.1875 C 9.855469 28.042969 9.8125 27.855469 9.808594 27.683594 C 9.800781 26.589844 9.800781 25.496094 9.804688 24.402344 C 9.808594 23.785156 10.558594 23.0625 11.257812 22.988281 C 11.351562 22.980469 11.441406 22.976562 11.582031 22.964844 C 11.503906 21.921875 11.746094 20.871094 11.378906 19.867188 C 11.21875 19.425781 10.972656 19 10.703125 18.609375 C 10.324219 18.0625 9.875 17.558594 9.472656 17.023438 C 8.824219 16.148438 8.515625 15.148438 8.453125 14.070312 C 8.441406 13.839844 8.453125 13.613281 8.453125 13.382812 C 8 13.539062 7.570312 13.703125 7.132812 13.832031 C 6.152344 14.125 5.167969 14.097656 4.214844 13.753906 C 3.691406 13.566406 3.167969 13.339844 2.710938 13.035156 C 1.875 12.480469 1.265625 11.714844 0.898438 10.769531 C 0.703125 10.269531 1.144531 9.691406 1.722656 9.683594 C 2.660156 9.675781 3.597656 9.675781 4.535156 9.6875 C 4.746094 9.6875 4.847656 9.609375 4.96875 9.429688 C 5.3125 8.917969 5.207031 8.449219 4.902344 7.992188 C 4.847656 7.90625 4.691406 7.84375 4.578125 7.839844 C 3.664062 7.828125 2.746094 7.835938 1.828125 7.832031 C 1.011719 7.832031 0.671875 7.246094 1.007812 6.5 C 1.550781 5.292969 2.46875 4.460938 3.648438 3.945312 C 4.710938 3.480469 5.847656 3.339844 7.046875 3.65625 C 7.351562 3.746094 7.621094 3.789062 7.863281 3.898438 C 8.773438 4.3125 9.542969 4.90625 10.117188 5.734375 C 10.425781 6.171875 10.53125 6.210938 11.078125 6.074219 C 11.078125 5.996094 11.074219 5.914062 11.082031 5.832031 C 11.125 5.148438 11.398438 4.582031 11.894531 4.105469 C 12.261719 3.75 12.734375 3.644531 13.191406 3.492188 M 5.851562 6.300781 C 5.878906 6.304688 5.90625 6.3125 5.933594 6.3125 C 5.933594 6.3125 5.929688 6.316406 5.90625 6.359375 C 6.050781 6.59375 6.207031 6.824219 6.335938 7.070312 C 6.519531 7.425781 6.679688 7.789062 6.859375 8.199219 C 7 8.546875 7.035156 8.898438 6.878906 9.25 C 6.730469 9.578125 6.5625 9.898438 6.382812 10.261719 C 6.3125 10.433594 6.25 10.609375 6.167969 10.777344 C 5.972656 11.175781 5.683594 11.410156 5.203125 11.328125 C 5.023438 11.300781 4.828125 11.324219 4.640625 11.324219 C 4.222656 11.324219 3.800781 11.324219 3.339844 11.324219 C 3.660156 11.816406 4.136719 11.964844 4.585938 12.136719 C 5.832031 12.609375 6.96875 12.359375 8.054688 11.558594 C 8.207031 11.40625 8.402344 11.28125 8.503906 11.101562 C 8.707031 10.738281 8.996094 10.597656 9.394531 10.601562 C 9.945312 10.609375 10.492188 10.605469 11.050781 10.605469 C 11.050781 9.664062 11.050781 8.761719 11.050781 7.863281 C 10.519531 7.832031 10.015625 7.800781 9.476562 7.738281 C 9.390625 7.640625 9.289062 7.554688 9.214844 7.445312 C 8.980469 7.109375 8.761719 6.765625 8.515625 6.382812 C 8.007812 5.8125 7.386719 5.425781 6.640625 5.253906 C 6.390625 5.199219 6.132812 5.1875 5.820312 5.140625 C 4.914062 5.179688 4.089844 5.429688 3.394531 6.058594 C 4.25 6.125 5.0625 6.191406 5.875 6.25 C 5.875 6.25 5.871094 6.25 5.851562 6.300781 M 13.839844 24.691406 C 13.050781 24.691406 12.265625 24.691406 11.464844 24.691406 C 11.464844 25.621094 11.464844 26.519531 11.464844 27.429688 C 15.628906 27.429688 19.777344 27.429688 23.933594 27.429688 C 23.933594 26.875 23.933594 26.339844 23.945312 25.746094 C 23.945312 25.402344 23.945312 25.0625 23.945312 24.6875 C 23.808594 24.6875 23.699219 24.6875 23.585938 24.6875 C 21.609375 24.6875 19.628906 24.6875 17.648438 24.6875 C 16.398438 24.691406 15.152344 24.695312 13.839844 24.691406 M 12.746094 9.367188 C 12.746094 10.070312 12.75 10.773438 12.742188 11.476562 C 12.742188 11.617188 12.699219 11.757812 12.632812 11.917969 C 12.332031 12.191406 11.976562 12.277344 11.570312 12.257812 C 11.089844 12.230469 10.601562 12.25 10.117188 12.25 C 10.117188 12.898438 10.050781 13.511719 10.136719 14.101562 C 10.222656 14.675781 10.398438 15.257812 10.660156 15.773438 C 10.910156 16.269531 11.304688 16.699219 11.65625 17.140625 C 12.097656 17.6875 12.523438 18.230469 12.792969 18.898438 C 13.089844 19.648438 13.246094 20.40625 13.238281 21.203125 C 13.230469 21.785156 13.238281 22.363281 13.238281 22.957031 C 13.460938 22.957031 13.652344 22.957031 13.90625 22.972656 C 16.515625 22.972656 19.125 22.972656 21.75 22.972656 C 21.75 22.078125 21.710938 21.222656 21.761719 20.375 C 21.800781 19.746094 21.882812 19.105469 22.070312 18.511719 C 22.28125 17.84375 22.640625 17.226562 22.925781 16.582031 C 23.21875 15.925781 23.515625 15.269531 23.515625 14.53125 C 23.519531 11.667969 23.519531 8.800781 23.519531 5.9375 C 23.519531 5.589844 23.289062 5.261719 22.992188 5.171875 C 22.699219 5.078125 22.355469 5.203125 22.164062 5.519531 C 22.085938 5.652344 22.0625 5.835938 22.0625 5.996094 C 22.054688 7.503906 22.0625 9.015625 22.058594 10.527344 C 22.058594 10.917969 21.859375 11.234375 21.570312 11.3125 C 21.097656 11.449219 20.71875 11.316406 20.507812 10.910156 C 20.433594 10.769531 20.398438 10.59375 20.398438 10.4375 C 20.390625 8.945312 20.394531 7.457031 20.394531 5.96875 C 20.394531 5.683594 20.335938 5.425781 20.082031 5.261719 C 19.839844 5.109375 19.589844 5.097656 19.339844 5.242188 C 19.074219 5.394531 18.996094 5.640625 18.996094 5.929688 C 18.996094 7.4375 18.996094 8.949219 18.996094 10.460938 C 18.992188 11.003906 18.648438 11.328125 18.089844 11.324219 C 17.585938 11.320312 17.332031 11.035156 17.332031 10.476562 C 17.332031 8.96875 17.332031 7.457031 17.328125 5.945312 C 17.328125 5.578125 17.121094 5.285156 16.773438 5.171875 C 16.449219 5.066406 16.191406 5.199219 16.027344 5.46875 C 15.9375 5.617188 15.878906 5.808594 15.878906 5.984375 C 15.867188 7.484375 15.871094 8.984375 15.871094 10.484375 C 15.871094 10.835938 15.726562 11.136719 15.429688 11.28125 C 14.855469 11.570312 14.214844 11.144531 14.207031 10.503906 C 14.199219 9.984375 14.195312 9.464844 14.199219 8.882812 C 14.199219 7.886719 14.207031 6.890625 14.199219 5.890625 C 14.199219 5.484375 13.863281 5.140625 13.484375 5.136719 C 13.125 5.136719 12.75 5.5 12.75 5.878906 C 12.746094 7.019531 12.753906 8.164062 12.746094 9.367188 M 25.183594 10.390625 C 25.234375 10.460938 25.28125 10.589844 25.332031 10.589844 C 26.066406 10.605469 26.804688 10.601562 27.550781 10.601562 C 27.550781 9.667969 27.550781 8.765625 27.550781 7.851562 C 26.761719 7.851562 25.984375 7.851562 25.183594 7.851562 C 25.183594 8.6875 25.183594 9.507812 25.183594 10.390625 Z M 25.183594 10.390625 "/>
<path style=" stroke:none;fill-rule:nonzero;fill:rgb(98.431373%,74.901961%,10.588235%);fill-opacity:1;" d="M 25.65625 25.800781 C 25.625 25.457031 25.601562 25.113281 25.617188 24.769531 C 25.671875 23.679688 24.726562 22.917969 23.824219 22.980469 C 23.699219 22.988281 23.574219 22.980469 23.46875 22.980469 C 23.4375 22.945312 23.414062 22.925781 23.414062 22.910156 C 23.425781 21.871094 23.347656 20.820312 23.480469 19.796875 C 23.570312 19.109375 23.929688 18.449219 24.214844 17.796875 C 24.746094 16.578125 25.28125 15.371094 25.191406 13.992188 C 25.152344 13.425781 25.183594 12.855469 25.183594 12.25 C 26.078125 12.25 26.945312 12.25 27.847656 12.257812 C 27.902344 12.894531 27.859375 13.527344 27.621094 14.117188 C 27.261719 15.011719 26.847656 15.882812 26.484375 16.773438 C 26.371094 17.054688 26.3125 17.371094 26.300781 17.675781 C 26.273438 18.414062 26.292969 19.152344 26.292969 19.894531 C 26.292969 20.003906 26.292969 20.117188 26.292969 20.269531 C 26.496094 20.269531 26.671875 20.269531 26.84375 20.269531 C 27.671875 20.269531 28.308594 20.902344 28.308594 21.730469 C 28.308594 22.605469 28.308594 23.476562 28.308594 24.351562 C 28.3125 25.019531 27.667969 25.8125 26.875 25.800781 C 26.476562 25.796875 26.082031 25.800781 25.65625 25.800781 Z M 25.65625 25.800781 "/>
<path style=" stroke:none;fill-rule:nonzero;fill:rgb(98.039216%,74.509804%,10.196078%);fill-opacity:1;" d="M 27.878906 6.113281 C 26.996094 6.113281 26.113281 6.113281 25.207031 6.113281 C 25.164062 5.128906 24.871094 4.285156 23.921875 3.789062 C 22.976562 3.296875 22.109375 3.46875 21.242188 4.03125 C 20.21875 3.316406 19.175781 3.308594 18.140625 4.042969 C 17.421875 3.550781 16.664062 3.328125 15.816406 3.632812 C 15.644531 3.695312 15.472656 3.773438 15.277344 3.847656 C 15.300781 3.4375 15.613281 3.183594 15.886719 2.949219 C 16.335938 2.570312 16.898438 2.425781 17.480469 2.515625 C 17.8125 2.566406 18.136719 2.714844 18.441406 2.863281 C 18.617188 2.949219 18.730469 2.957031 18.886719 2.835938 C 19.472656 2.378906 20.652344 2.382812 21.273438 2.84375 C 21.359375 2.910156 21.578125 2.90625 21.671875 2.84375 C 22.207031 2.484375 22.785156 2.417969 23.382812 2.5625 C 23.644531 2.628906 23.878906 2.796875 24.132812 2.890625 C 24.230469 2.925781 24.386719 2.921875 24.472656 2.867188 C 25.15625 2.402344 25.886719 2.382812 26.617188 2.683594 C 27.164062 2.914062 27.578125 3.332031 27.746094 3.925781 C 27.828125 4.21875 27.835938 4.53125 27.878906 4.882812 C 27.882812 4.949219 27.882812 4.972656 27.878906 5.027344 C 27.878906 5.410156 27.878906 5.761719 27.878906 6.113281 Z M 27.878906 6.113281 "/>
<path style=" stroke:none;fill-rule:nonzero;fill:rgb(94.117647%,40.784314%,14.901961%);fill-opacity:1;" d="M 27.882812 4.996094 C 27.882812 4.972656 27.882812 4.949219 27.878906 4.910156 C 28.878906 4.894531 29.875 4.890625 30.875 4.890625 C 31.210938 4.890625 31.554688 5.207031 31.554688 5.550781 C 31.5625 6.988281 31.5625 8.421875 31.554688 9.859375 C 31.554688 10.171875 31.222656 10.476562 30.898438 10.480469 C 30.367188 10.484375 29.835938 10.480469 29.277344 10.480469 C 29.242188 9.441406 29.207031 8.40625 29.242188 7.371094 C 29.269531 6.503906 28.886719 6.019531 27.960938 6.089844 C 27.917969 5.703125 27.898438 5.351562 27.882812 4.996094 Z M 27.882812 4.996094 "/>
<path style=" stroke:none;fill-rule:nonzero;fill:rgb(93.333333%,40.392157%,14.901961%);fill-opacity:1;" d="M 13.179688 3.476562 C 12.734375 3.644531 12.261719 3.75 11.894531 4.105469 C 11.398438 4.582031 11.125 5.148438 11.082031 5.832031 C 11.074219 5.914062 11.078125 5.996094 11.078125 6.074219 C 10.53125 6.210938 10.425781 6.171875 10.117188 5.734375 C 9.542969 4.90625 8.773438 4.3125 7.863281 3.898438 C 7.621094 3.789062 7.351562 3.746094 7.074219 3.65625 C 7.570312 3.351562 8.0625 2.996094 8.609375 2.777344 C 9.457031 2.4375 10.351562 2.429688 11.253906 2.585938 C 11.96875 2.710938 12.582031 3.050781 13.179688 3.476562 Z M 13.179688 3.476562 "/>
<path style=" stroke:none;fill-rule:nonzero;fill:rgb(98.431373%,74.901961%,10.196078%);fill-opacity:1;" d="M 14.1875 8.941406 C 14.195312 9.464844 14.199219 9.984375 14.207031 10.503906 C 14.214844 11.144531 14.855469 11.570312 15.429688 11.28125 C 15.726562 11.136719 15.871094 10.835938 15.871094 10.484375 C 15.871094 8.984375 15.867188 7.484375 15.878906 5.984375 C 15.878906 5.808594 15.9375 5.617188 16.027344 5.46875 C 16.191406 5.199219 16.449219 5.066406 16.773438 5.171875 C 17.121094 5.285156 17.328125 5.578125 17.328125 5.945312 C 17.332031 7.457031 17.332031 8.96875 17.332031 10.476562 C 17.332031 11.035156 17.585938 11.320312 18.089844 11.324219 C 18.648438 11.328125 18.992188 11.003906 18.996094 10.460938 C 18.996094 8.949219 18.996094 7.4375 18.996094 5.929688 C 18.996094 5.640625 19.074219 5.394531 19.339844 5.242188 C 19.589844 5.097656 19.839844 5.109375 20.082031 5.261719 C 20.335938 5.425781 20.394531 5.683594 20.394531 5.96875 C 20.394531 7.457031 20.390625 8.945312 20.398438 10.4375 C 20.398438 10.59375 20.433594 10.769531 20.507812 10.910156 C 20.71875 11.316406 21.097656 11.449219 21.570312 11.3125 C 21.859375 11.234375 22.058594 10.917969 22.058594 10.527344 C 22.0625 9.015625 22.054688 7.503906 22.0625 5.996094 C 22.0625 5.835938 22.085938 5.652344 22.164062 5.519531 C 22.355469 5.203125 22.699219 5.078125 22.992188 5.171875 C 23.289062 5.261719 23.519531 5.589844 23.519531 5.9375 C 23.519531 8.800781 23.519531 11.667969 23.515625 14.53125 C 23.515625 15.269531 23.21875 15.925781 22.925781 16.582031 C 22.640625 17.226562 22.28125 17.84375 22.070312 18.511719 C 21.882812 19.105469 21.800781 19.746094 21.761719 20.375 C 21.710938 21.222656 21.75 22.078125 21.75 22.972656 C 19.125 22.972656 16.515625 22.972656 13.878906 22.9375 C 13.851562 22.496094 13.839844 22.089844 13.855469 21.683594 C 13.871094 21.152344 14.09375 20.71875 14.574219 20.472656 C 14.847656 20.335938 15.167969 20.289062 15.433594 20.210938 C 15.433594 19.46875 15.46875 18.6875 15.421875 17.914062 C 15.398438 17.578125 15.273438 17.214844 15.09375 16.925781 C 14.753906 16.371094 14.332031 15.867188 13.960938 15.332031 C 13.628906 14.851562 13.269531 14.378906 13.015625 13.859375 C 12.722656 13.253906 12.621094 12.582031 12.671875 11.898438 C 12.699219 11.757812 12.742188 11.617188 12.742188 11.476562 C 12.75 10.773438 12.746094 10.070312 12.769531 9.324219 C 12.996094 8.988281 13.277344 8.898438 13.625 8.9375 C 13.8125 8.960938 14 8.941406 14.1875 8.941406 Z M 14.1875 8.941406 "/>
<path style=" stroke:none;fill-rule:nonzero;fill:rgb(93.333333%,40.392157%,14.901961%);fill-opacity:1;" d="M 9.511719 7.769531 C 10.015625 7.800781 10.519531 7.832031 11.050781 7.863281 C 11.050781 8.761719 11.050781 9.664062 11.050781 10.605469 C 10.492188 10.605469 9.945312 10.609375 9.394531 10.601562 C 8.996094 10.597656 8.707031 10.738281 8.503906 11.101562 C 8.402344 11.28125 8.207031 11.40625 8.015625 11.558594 C 7.382812 11.195312 6.804688 10.8125 6.402344 10.222656 C 6.5625 9.898438 6.730469 9.578125 6.878906 9.25 C 7.035156 8.898438 7 8.546875 6.886719 8.167969 C 7.601562 8.140625 8.285156 8.125 8.972656 8.144531 C 9.269531 8.152344 9.449219 8.0625 9.511719 7.769531 Z M 9.511719 7.769531 "/>
<path style=" stroke:none;fill-rule:nonzero;fill:rgb(98.823529%,75.294118%,11.764706%);fill-opacity:1;" d="M 23.941406 25.773438 C 21.148438 25.800781 18.363281 25.785156 15.582031 25.8125 C 14.753906 25.820312 14.195312 25.511719 13.898438 24.71875 C 15.152344 24.695312 16.398438 24.691406 17.648438 24.6875 C 19.628906 24.6875 21.609375 24.6875 23.585938 24.6875 C 23.699219 24.6875 23.808594 24.6875 23.945312 24.6875 C 23.945312 25.0625 23.945312 25.402344 23.941406 25.773438 Z M 23.941406 25.773438 "/>
<path style=" stroke:none;fill-rule:nonzero;fill:rgb(97.254902%,73.72549%,10.588235%);fill-opacity:1;" d="M 25.183594 10.359375 C 25.183594 9.507812 25.183594 8.6875 25.183594 7.851562 C 25.984375 7.851562 26.761719 7.851562 27.550781 7.851562 C 27.550781 8.765625 27.550781 9.667969 27.550781 10.601562 C 26.804688 10.601562 26.066406 10.605469 25.332031 10.589844 C 25.28125 10.589844 25.234375 10.460938 25.183594 10.359375 Z M 25.183594 10.359375 "/>
<path style=" stroke:none;fill-rule:nonzero;fill:rgb(93.72549%,40.392157%,14.117647%);fill-opacity:1;" d="M 14.195312 8.914062 C 14 8.941406 13.8125 8.960938 13.625 8.9375 C 13.277344 8.898438 12.996094 8.988281 12.773438 9.292969 C 12.753906 8.164062 12.746094 7.019531 12.75 5.878906 C 12.75 5.5 13.125 5.136719 13.484375 5.136719 C 13.863281 5.140625 14.199219 5.484375 14.199219 5.890625 C 14.207031 6.890625 14.199219 7.886719 14.195312 8.914062 Z M 14.195312 8.914062 "/>
<path style=" stroke:none;fill-rule:nonzero;fill:rgb(92.941176%,40.784314%,15.686275%);fill-opacity:1;" d="M 8.523438 6.402344 C 7.808594 6.425781 7.078125 6.433594 6.351562 6.425781 C 6.226562 6.425781 6.105469 6.351562 5.953125 6.3125 C 5.929688 6.316406 5.933594 6.3125 5.933594 6.296875 C 5.914062 6.269531 5.890625 6.261719 5.871094 6.25 C 5.871094 6.25 5.875 6.25 5.875 6.226562 C 5.703125 5.855469 5.703125 5.503906 5.875 5.152344 C 6.132812 5.1875 6.390625 5.199219 6.640625 5.253906 C 7.386719 5.425781 8.007812 5.8125 8.523438 6.402344 Z M 8.523438 6.402344 "/>
<path style=" stroke:none;fill-rule:nonzero;fill:rgb(96.078431%,60.392157%,40.784314%);fill-opacity:1;" d="M 27.878906 5.027344 C 27.898438 5.351562 27.917969 5.703125 27.933594 6.085938 C 27.929688 6.113281 27.90625 6.121094 27.890625 6.117188 C 27.878906 5.761719 27.878906 5.410156 27.878906 5.027344 Z M 27.878906 5.027344 "/>
</g>
</svg>
