<?xml version="1.0" encoding="UTF-8"?>
<svg xmlns="http://www.w3.org/2000/svg" xmlns:xlink="http://www.w3.org/1999/xlink" width="30px" height="30px" viewBox="0 0 30 30" version="1.1">
<g id="surface1">
<path style=" stroke:none;fill-rule:nonzero;fill:rgb(98.431373%,74.509804%,10.196078%);fill-opacity:1;" d="M 23.21875 9.933594 C 23.679688 10.570312 23.921875 11.289062 23.957031 12.082031 C 23.824219 12.027344 23.710938 11.914062 23.59375 11.90625 C 23.113281 11.871094 22.625 11.859375 22.140625 11.863281 C 21.804688 11.863281 21.492188 11.972656 21.238281 12.242188 C 20.917969 12.261719 20.625 12.261719 20.339844 12.304688 C 17.652344 12.691406 15.582031 14.578125 14.9375 17.210938 C 14.867188 17.492188 14.820312 17.777344 14.734375 18.070312 C 13.488281 18.078125 12.269531 18.082031 11.050781 18.082031 C 10.289062 18.082031 9.527344 18.070312 8.75 18.058594 C 8.644531 18.054688 8.558594 18.058594 8.449219 18.066406 C 8.414062 18.0625 8.398438 18.058594 8.359375 18.054688 C 8.222656 18.027344 8.109375 17.996094 7.996094 17.96875 C 6.773438 17.660156 5.667969 17.128906 4.796875 16.191406 C 3.046875 14.304688 2.671875 12.078125 3.199219 9.636719 C 3.445312 8.496094 3.941406 7.464844 4.617188 6.5 C 9.3125 6.492188 13.980469 6.492188 18.648438 6.492188 C 18.707031 6.492188 18.765625 6.5 18.835938 6.519531 C 19.890625 7.21875 20.929688 7.902344 21.980469 8.613281 C 21.984375 9.566406 21.984375 10.496094 21.984375 11.4375 C 22.410156 11.4375 22.792969 11.4375 23.21875 11.4375 C 23.21875 10.921875 23.21875 10.429688 23.21875 9.933594 M 6.734375 13.332031 C 7.484375 13.75 8.226562 14.183594 8.988281 14.578125 C 9.199219 14.683594 9.472656 14.714844 9.714844 14.703125 C 9.839844 14.695312 10.027344 14.535156 10.058594 14.410156 C 10.089844 14.273438 10.003906 14.082031 9.917969 13.949219 C 9.855469 13.851562 9.710938 13.808594 9.601562 13.746094 C 8.816406 13.308594 8.035156 12.871094 7.25 12.433594 C 7.171875 12.390625 7.097656 12.335938 6.996094 12.273438 C 7.101562 12.210938 7.175781 12.164062 7.253906 12.121094 C 8.085938 11.65625 8.921875 11.1875 9.757812 10.726562 C 9.980469 10.601562 10.140625 10.445312 10.078125 10.167969 C 9.992188 9.757812 9.425781 9.496094 9.058594 9.699219 C 7.855469 10.363281 6.652344 11.035156 5.453125 11.707031 C 5.015625 11.957031 5.015625 12.359375 5.445312 12.609375 C 5.859375 12.847656 6.28125 13.074219 6.734375 13.332031 M 15 11.21875 C 15.585938 11.546875 16.171875 11.875 16.800781 12.230469 C 16.527344 12.386719 16.285156 12.523438 16.042969 12.660156 C 15.351562 13.046875 14.664062 13.429688 13.976562 13.816406 C 13.671875 13.984375 13.582031 14.246094 13.722656 14.492188 C 13.859375 14.738281 14.152344 14.808594 14.4375 14.675781 C 14.480469 14.652344 14.523438 14.628906 14.566406 14.601562 C 15.664062 13.992188 16.761719 13.378906 17.859375 12.765625 C 17.953125 12.714844 18.046875 12.660156 18.128906 12.589844 C 18.441406 12.332031 18.433594 11.945312 18.078125 11.742188 C 16.839844 11.039062 15.59375 10.351562 14.351562 9.664062 C 14.160156 9.558594 13.9375 9.554688 13.820312 9.730469 C 13.726562 9.871094 13.675781 10.101562 13.71875 10.257812 C 13.765625 10.425781 13.921875 10.585938 14.074219 10.691406 C 14.355469 10.882812 14.664062 11.03125 15 11.21875 M 12.191406 13.105469 C 12.488281 11.800781 12.78125 10.5 13.089844 9.199219 C 13.15625 8.914062 13.082031 8.664062 12.898438 8.46875 C 12.792969 8.359375 12.582031 8.269531 12.441406 8.296875 C 12.304688 8.324219 12.1875 8.496094 12.082031 8.625 C 12.03125 8.6875 12.035156 8.792969 12.015625 8.878906 C 11.75 10.035156 11.480469 11.195312 11.214844 12.355469 C 10.980469 13.371094 10.746094 14.386719 10.519531 15.40625 C 10.417969 15.863281 10.699219 16.121094 11.152344 16.023438 C 11.441406 15.964844 11.585938 15.796875 11.648438 15.519531 C 11.820312 14.730469 12.003906 13.941406 12.191406 13.105469 Z M 12.191406 13.105469 "/>
<path style=" stroke:none;fill-rule:nonzero;fill:rgb(18.431373%,17.254902%,44.705882%);fill-opacity:1;" d="M 23.214844 9.910156 C 23.21875 10.429688 23.21875 10.921875 23.21875 11.4375 C 22.792969 11.4375 22.410156 11.4375 21.984375 11.4375 C 21.984375 10.496094 21.984375 9.566406 21.984375 8.582031 C 21.984375 8.140625 21.996094 7.75 21.980469 7.363281 C 21.960938 6.882812 21.601562 6.507812 21.125 6.5 C 20.355469 6.484375 19.589844 6.5 18.824219 6.503906 C 18.765625 6.5 18.707031 6.492188 18.648438 6.492188 C 13.980469 6.492188 9.3125 6.492188 4.585938 6.492188 C 4.015625 6.492188 3.5 6.488281 2.980469 6.488281 C 2.214844 6.492188 1.875 6.832031 1.875 7.59375 C 1.875 10.984375 1.875 14.371094 1.875 17.757812 C 1.875 17.855469 1.875 17.953125 1.875 18.0625 C 1.96875 18.070312 2.042969 18.078125 2.121094 18.078125 C 4.140625 18.082031 6.164062 18.082031 8.183594 18.078125 C 8.25 18.078125 8.316406 18.0625 8.382812 18.054688 C 8.398438 18.058594 8.414062 18.0625 8.460938 18.074219 C 8.589844 18.078125 8.679688 18.074219 8.769531 18.066406 C 9.527344 18.070312 10.289062 18.082031 11.050781 18.082031 C 12.269531 18.082031 13.488281 18.078125 14.761719 18.078125 C 14.964844 18.082031 15.117188 18.082031 15.277344 18.082031 C 15.277344 18.460938 15.277344 18.796875 15.277344 19.167969 C 15.097656 19.167969 14.933594 19.167969 14.742188 19.164062 C 10.441406 19.160156 6.167969 19.160156 1.875 19.160156 C 1.875 19.644531 1.871094 20.101562 1.875 20.558594 C 1.878906 21.179688 2.257812 21.558594 2.882812 21.5625 C 4.0625 21.566406 5.242188 21.5625 6.425781 21.5625 C 9.414062 21.5625 12.398438 21.558594 15.414062 21.558594 C 15.90625 21.5625 16.378906 21.5625 16.875 21.5625 C 16.765625 21.914062 16.652344 22.214844 16.578125 22.523438 C 16.527344 22.738281 16.421875 22.832031 16.207031 22.824219 C 15.648438 22.824219 15.085938 22.824219 14.472656 22.824219 C 14.671875 23.378906 14.855469 23.898438 15.050781 24.410156 C 15.070312 24.460938 15.191406 24.496094 15.265625 24.5 C 15.605469 24.507812 15.949219 24.503906 16.289062 24.503906 C 16.839844 24.503906 16.996094 24.664062 16.996094 25.21875 C 16.996094 25.277344 16.996094 25.335938 16.996094 25.410156 C 13.492188 25.410156 9.992188 25.410156 6.492188 25.410156 C 6.546875 25.007812 7.109375 24.503906 7.507812 24.503906 C 7.8125 24.503906 8.117188 24.511719 8.417969 24.496094 C 8.496094 24.496094 8.621094 24.445312 8.644531 24.386719 C 8.84375 23.878906 9.019531 23.367188 9.214844 22.824219 C 9.082031 22.816406 8.980469 22.808594 8.878906 22.808594 C 6.691406 22.808594 4.503906 22.800781 2.316406 22.808594 C 1.511719 22.8125 0.882812 22.507812 0.511719 21.792969 C 0.375 21.535156 0.300781 21.214844 0.296875 20.925781 C 0.285156 16.296875 0.285156 11.667969 0.292969 7.042969 C 0.292969 5.988281 1.117188 5.175781 2.175781 5.167969 C 3.347656 5.15625 4.519531 5.160156 5.746094 5.160156 C 9.289062 5.160156 12.78125 5.164062 16.269531 5.164062 C 16.320312 5.164062 16.367188 5.15625 16.414062 5.148438 C 18.035156 5.15625 19.65625 5.15625 21.277344 5.164062 C 22.21875 5.171875 22.976562 5.789062 23.164062 6.695312 C 23.195312 6.867188 23.199219 7.042969 23.199219 7.21875 C 23.207031 8.109375 23.207031 8.996094 23.214844 9.910156 M 13.796875 24.253906 C 13.648438 23.839844 13.511719 23.425781 13.347656 23.019531 C 13.3125 22.929688 13.183594 22.816406 13.09375 22.816406 C 12.238281 22.800781 11.378906 22.804688 10.523438 22.8125 C 10.449219 22.8125 10.324219 22.851562 10.304688 22.902344 C 10.109375 23.421875 9.925781 23.953125 9.738281 24.484375 C 11.132812 24.484375 12.492188 24.484375 13.871094 24.484375 C 13.847656 24.40625 13.828125 24.351562 13.796875 24.253906 Z M 13.796875 24.253906 "/>
<path style=" stroke:none;fill-rule:nonzero;fill:rgb(18.431373%,16.862745%,44.313725%);fill-opacity:1;" d="M 21.265625 12.242188 C 21.492188 11.972656 21.804688 11.863281 22.140625 11.863281 C 22.625 11.859375 23.113281 11.871094 23.59375 11.90625 C 23.710938 11.914062 23.824219 12.027344 23.957031 12.109375 C 24.058594 12.390625 24.136719 12.65625 24.230469 12.957031 C 24.296875 13.082031 24.332031 13.203125 24.402344 13.238281 C 24.582031 13.316406 24.777344 13.359375 24.96875 13.414062 C 24.96875 13.414062 24.964844 13.417969 24.96875 13.429688 C 25.007812 13.449219 25.035156 13.457031 25.066406 13.464844 C 25.339844 13.671875 25.597656 13.644531 25.894531 13.472656 C 26.117188 13.347656 26.386719 13.273438 26.640625 13.257812 C 26.820312 13.246094 27.046875 13.328125 27.183594 13.445312 C 27.546875 13.757812 27.867188 14.117188 28.210938 14.449219 C 28.410156 14.648438 28.472656 14.878906 28.308594 15.109375 C 27.898438 15.667969 27.90625 16.195312 28.230469 16.816406 C 28.410156 17.160156 28.574219 17.378906 28.957031 17.488281 C 29.742188 17.707031 29.734375 17.730469 29.734375 18.539062 C 29.734375 18.910156 29.730469 19.28125 29.734375 19.652344 C 29.738281 19.925781 29.617188 20.117188 29.351562 20.164062 C 28.691406 20.273438 28.308594 20.617188 28.09375 21.285156 C 27.960938 21.695312 27.898438 22.003906 28.144531 22.351562 C 28.207031 22.441406 28.242188 22.542969 28.296875 22.636719 C 28.460938 22.914062 28.410156 23.148438 28.175781 23.371094 C 27.839844 23.691406 27.511719 24.027344 27.183594 24.363281 C 26.984375 24.5625 26.753906 24.625 26.523438 24.460938 C 25.972656 24.066406 25.425781 23.984375 24.851562 24.394531 C 24.828125 24.410156 24.800781 24.421875 24.769531 24.425781 C 24.386719 24.472656 24.199219 24.714844 24.148438 25.078125 C 24.109375 25.382812 23.941406 25.449219 23.648438 25.4375 C 22.996094 25.414062 22.339844 25.425781 21.6875 25.433594 C 21.519531 25.4375 21.402344 25.402344 21.34375 25.191406 C 21.183594 24.785156 21.03125 24.433594 20.566406 24.363281 C 20.40625 24.339844 20.246094 24.257812 20.113281 24.164062 C 19.910156 24.019531 19.738281 24.054688 19.527344 24.164062 C 19.191406 24.339844 18.875 24.597656 18.457031 24.546875 C 18.457031 24.546875 18.457031 24.550781 18.453125 24.527344 C 18.414062 24.503906 18.375 24.496094 18.339844 24.488281 C 18.339844 24.488281 18.339844 24.492188 18.34375 24.46875 C 18.3125 24.453125 18.277344 24.460938 18.246094 24.46875 C 18.246094 24.46875 18.238281 24.457031 18.246094 24.429688 C 18.222656 24.394531 18.191406 24.386719 18.160156 24.375 C 18.160156 24.375 18.164062 24.375 18.183594 24.359375 C 18.144531 24.261719 18.09375 24.164062 18.023438 24.089844 C 17.789062 23.84375 17.542969 23.605469 17.300781 23.367188 C 17.074219 23.136719 17.003906 22.878906 17.113281 22.566406 C 17.210938 22.285156 17.3125 22 17.386719 21.707031 C 17.417969 21.589844 17.390625 21.449219 17.367188 21.324219 C 17.234375 20.640625 16.824219 20.253906 16.125 20.15625 C 15.890625 20.125 15.753906 19.953125 15.742188 19.703125 C 15.726562 19.285156 15.707031 18.867188 15.703125 18.449219 C 15.699219 17.648438 15.734375 17.578125 16.507812 17.371094 C 16.859375 17.277344 17.011719 17.082031 17.179688 16.757812 C 17.484375 16.152344 17.519531 15.632812 17.105469 15.078125 C 16.96875 14.890625 17.007812 14.660156 17.179688 14.488281 C 17.535156 14.128906 17.894531 13.769531 18.257812 13.414062 C 18.472656 13.210938 18.714844 13.179688 18.980469 13.328125 C 19.1875 13.441406 19.398438 13.542969 19.609375 13.640625 C 19.683594 13.675781 19.785156 13.710938 19.855469 13.683594 C 20.5 13.4375 21.199219 13.238281 21.238281 12.355469 C 21.238281 12.316406 21.253906 12.28125 21.265625 12.242188 M 26.734375 15.148438 C 26.753906 15.046875 26.824219 14.898438 26.785156 14.855469 C 26.640625 14.707031 26.457031 14.59375 26.289062 14.472656 C 26.28125 14.46875 26.246094 14.507812 26.183594 14.53125 C 25.667969 14.835938 25.160156 14.835938 24.640625 14.511719 C 24.445312 14.390625 24.222656 14.269531 24 14.234375 C 23.378906 14.140625 23.066406 13.777344 22.976562 13.183594 C 22.941406 12.960938 22.824219 12.894531 22.597656 12.886719 C 22.324219 12.878906 22.175781 12.949219 22.128906 13.226562 C 22.101562 13.378906 22.0625 13.546875 21.976562 13.667969 C 21.867188 13.820312 21.722656 13.980469 21.554688 14.0625 C 21.089844 14.28125 20.601562 14.453125 20.132812 14.664062 C 19.902344 14.769531 19.6875 14.796875 19.457031 14.691406 C 19.300781 14.613281 19.128906 14.554688 18.988281 14.457031 C 18.78125 14.3125 18.648438 14.363281 18.488281 14.535156 C 18.039062 15.023438 18.078125 14.808594 18.359375 15.40625 C 18.40625 15.503906 18.492188 15.59375 18.5 15.691406 C 18.519531 15.894531 18.542969 16.117188 18.480469 16.300781 C 18.316406 16.777344 18.09375 17.234375 17.917969 17.707031 C 17.835938 17.925781 17.71875 18.078125 17.492188 18.148438 C 17.277344 18.210938 17.0625 18.277344 16.855469 18.359375 C 16.789062 18.386719 16.707031 18.464844 16.695312 18.53125 C 16.59375 19.042969 16.671875 19.164062 17.164062 19.328125 C 17.246094 19.355469 17.347656 19.359375 17.410156 19.410156 C 17.570312 19.542969 17.765625 19.667969 17.847656 19.84375 C 18.09375 20.351562 18.285156 20.882812 18.503906 21.402344 C 18.605469 21.640625 18.617188 21.871094 18.488281 22.101562 C 18.410156 22.238281 18.335938 22.378906 18.28125 22.523438 C 18.253906 22.589844 18.246094 22.699219 18.28125 22.757812 C 18.503906 23.109375 18.640625 23.136719 19.011719 22.9375 C 19.105469 22.886719 19.207031 22.847656 19.296875 22.789062 C 19.558594 22.625 19.796875 22.65625 20.0625 22.808594 C 20.375 22.980469 20.707031 23.164062 21.050781 23.238281 C 21.597656 23.355469 21.871094 23.707031 22.007812 24.1875 C 22.082031 24.445312 22.199219 24.496094 22.453125 24.515625 C 22.8125 24.546875 22.964844 24.40625 23.027344 24.082031 C 23.050781 23.949219 23.078125 23.800781 23.15625 23.695312 C 23.265625 23.550781 23.402344 23.402344 23.558594 23.328125 C 23.988281 23.121094 24.445312 22.972656 24.875 22.765625 C 25.089844 22.664062 25.273438 22.644531 25.484375 22.75 C 25.679688 22.855469 25.882812 22.949219 26.109375 23.070312 C 26.179688 23.058594 26.273438 23.066406 26.324219 23.023438 C 26.457031 22.914062 26.566406 22.777344 26.699219 22.664062 C 26.859375 22.527344 26.875 22.402344 26.710938 22.21875 C 26.636719 22.0625 26.566406 21.898438 26.476562 21.75 C 26.355469 21.542969 26.390625 21.359375 26.488281 21.148438 C 26.6875 20.71875 26.867188 20.28125 27.027344 19.839844 C 27.105469 19.628906 27.210938 19.480469 27.425781 19.417969 C 27.527344 19.386719 27.625 19.34375 27.769531 19.300781 C 28.242188 19.167969 28.242188 19.167969 28.242188 18.726562 C 28.242188 18.234375 28.242188 18.234375 27.6875 18.085938 C 27.265625 18.007812 27.035156 17.761719 26.96875 17.332031 C 26.929688 17.113281 26.863281 16.878906 26.734375 16.707031 C 26.339844 16.1875 26.347656 15.6875 26.734375 15.148438 Z M 26.734375 15.148438 "/>
<path style=" stroke:none;fill-rule:nonzero;fill:rgb(98.823529%,74.901961%,10.588235%);fill-opacity:1;" d="M 16.402344 5.136719 C 16.367188 5.15625 16.320312 5.164062 16.269531 5.164062 C 12.78125 5.164062 9.289062 5.160156 5.773438 5.15625 C 6.671875 4.136719 7.699219 3.273438 9.066406 2.910156 C 10.21875 2.601562 11.332031 2.808594 12.421875 3.191406 C 13.820312 3.679688 15.105469 4.394531 16.402344 5.136719 Z M 16.402344 5.136719 "/>
<path style=" stroke:none;fill-rule:nonzero;fill:rgb(92.156863%,40.392157%,14.901961%);fill-opacity:1;" d="M 21.238281 12.242188 C 21.253906 12.28125 21.238281 12.316406 21.238281 12.355469 C 21.199219 13.238281 20.5 13.4375 19.855469 13.683594 C 19.785156 13.710938 19.683594 13.675781 19.609375 13.640625 C 19.398438 13.542969 19.1875 13.441406 18.980469 13.328125 C 18.714844 13.179688 18.472656 13.210938 18.257812 13.414062 C 17.894531 13.769531 17.535156 14.128906 17.179688 14.488281 C 17.007812 14.660156 16.96875 14.890625 17.105469 15.078125 C 17.519531 15.632812 17.484375 16.152344 17.179688 16.757812 C 17.011719 17.082031 16.859375 17.277344 16.507812 17.371094 C 15.734375 17.578125 15.699219 17.648438 15.703125 18.449219 C 15.707031 18.867188 15.726562 19.285156 15.742188 19.703125 C 15.753906 19.953125 15.890625 20.125 16.125 20.15625 C 16.824219 20.253906 17.234375 20.640625 17.367188 21.324219 C 17.390625 21.449219 17.417969 21.589844 17.386719 21.707031 C 17.3125 22 17.210938 22.285156 17.113281 22.566406 C 17.003906 22.878906 17.074219 23.136719 17.300781 23.367188 C 17.542969 23.605469 17.789062 23.84375 18.023438 24.089844 C 18.09375 24.164062 18.144531 24.261719 18.183594 24.363281 C 17.777344 24.132812 17.371094 23.910156 17.011719 23.632812 C 16.722656 23.410156 16.488281 23.117188 16.21875 22.839844 C 16.421875 22.832031 16.527344 22.738281 16.578125 22.523438 C 16.652344 22.214844 16.765625 21.914062 16.875 21.5625 C 16.378906 21.5625 15.90625 21.5625 15.40625 21.535156 C 15.039062 20.765625 14.824219 19.988281 14.769531 19.167969 C 14.933594 19.167969 15.097656 19.167969 15.277344 19.167969 C 15.277344 18.796875 15.277344 18.460938 15.277344 18.082031 C 15.117188 18.082031 14.964844 18.082031 14.789062 18.070312 C 14.820312 17.777344 14.867188 17.492188 14.9375 17.210938 C 15.582031 14.578125 17.652344 12.691406 20.339844 12.304688 C 20.625 12.261719 20.917969 12.261719 21.238281 12.242188 Z M 21.238281 12.242188 "/>
<path style=" stroke:none;fill-rule:nonzero;fill:rgb(91.764706%,40.392157%,16.078431%);fill-opacity:1;" d="M 18.464844 24.566406 C 18.875 24.597656 19.191406 24.339844 19.527344 24.164062 C 19.738281 24.054688 19.910156 24.019531 20.113281 24.164062 C 20.246094 24.257812 20.40625 24.339844 20.566406 24.363281 C 21.03125 24.433594 21.183594 24.785156 21.328125 25.175781 C 20.328125 25.222656 19.375 25.027344 18.464844 24.566406 Z M 18.464844 24.566406 "/>
<path style=" stroke:none;fill-rule:nonzero;fill:rgb(83.529412%,40.784314%,23.921569%);fill-opacity:1;" d="M 24.960938 13.394531 C 24.777344 13.359375 24.582031 13.316406 24.402344 13.238281 C 24.332031 13.203125 24.296875 13.082031 24.242188 12.976562 C 24.480469 13.09375 24.714844 13.234375 24.960938 13.394531 Z M 24.960938 13.394531 "/>
<path style=" stroke:none;fill-rule:nonzero;fill:rgb(83.529412%,40.784314%,23.921569%);fill-opacity:1;" d="M 25.058594 13.453125 C 25.035156 13.457031 25.007812 13.449219 24.96875 13.425781 C 24.992188 13.421875 25.019531 13.429688 25.058594 13.453125 Z M 25.058594 13.453125 "/>
<path style=" stroke:none;fill-rule:nonzero;fill:rgb(91.764706%,40.392157%,16.078431%);fill-opacity:1;" d="M 18.347656 24.507812 C 18.375 24.496094 18.414062 24.503906 18.457031 24.53125 C 18.425781 24.542969 18.386719 24.535156 18.347656 24.507812 Z M 18.347656 24.507812 "/>
<path style=" stroke:none;fill-rule:nonzero;fill:rgb(91.764706%,40.392157%,16.078431%);fill-opacity:1;" d="M 18.160156 24.398438 C 18.191406 24.386719 18.222656 24.394531 18.246094 24.429688 C 18.210938 24.445312 18.183594 24.433594 18.160156 24.398438 Z M 18.160156 24.398438 "/>
<path style=" stroke:none;fill-rule:nonzero;fill:rgb(91.764706%,40.392157%,16.078431%);fill-opacity:1;" d="M 18.265625 24.480469 C 18.277344 24.460938 18.3125 24.453125 18.34375 24.46875 C 18.324219 24.492188 18.308594 24.492188 18.265625 24.480469 Z M 18.265625 24.480469 "/>
<path style=" stroke:none;fill-rule:nonzero;fill:rgb(18.823529%,17.254902%,43.529412%);fill-opacity:1;" d="M 6.714844 13.320312 C 6.28125 13.074219 5.859375 12.847656 5.445312 12.609375 C 5.015625 12.359375 5.015625 11.957031 5.453125 11.707031 C 6.652344 11.035156 7.855469 10.363281 9.058594 9.699219 C 9.425781 9.496094 9.992188 9.757812 10.078125 10.167969 C 10.140625 10.445312 9.980469 10.601562 9.757812 10.726562 C 8.921875 11.1875 8.085938 11.65625 7.253906 12.121094 C 7.175781 12.164062 7.101562 12.210938 6.996094 12.273438 C 7.097656 12.335938 7.171875 12.390625 7.25 12.433594 C 8.035156 12.871094 8.816406 13.308594 9.601562 13.746094 C 9.710938 13.808594 9.855469 13.851562 9.917969 13.949219 C 10.003906 14.082031 10.089844 14.273438 10.058594 14.410156 C 10.027344 14.535156 9.839844 14.695312 9.714844 14.703125 C 9.472656 14.714844 9.199219 14.683594 8.988281 14.578125 C 8.226562 14.183594 7.484375 13.75 6.714844 13.320312 Z M 6.714844 13.320312 "/>
<path style=" stroke:none;fill-rule:nonzero;fill:rgb(18.823529%,17.254902%,43.529412%);fill-opacity:1;" d="M 14.980469 11.207031 C 14.664062 11.03125 14.355469 10.882812 14.074219 10.691406 C 13.921875 10.585938 13.765625 10.425781 13.71875 10.257812 C 13.675781 10.101562 13.726562 9.871094 13.820312 9.730469 C 13.9375 9.554688 14.160156 9.558594 14.351562 9.664062 C 15.59375 10.351562 16.839844 11.039062 18.078125 11.742188 C 18.433594 11.945312 18.441406 12.332031 18.128906 12.589844 C 18.046875 12.660156 17.953125 12.714844 17.859375 12.765625 C 16.761719 13.378906 15.664062 13.992188 14.566406 14.601562 C 14.523438 14.628906 14.480469 14.652344 14.4375 14.675781 C 14.152344 14.808594 13.859375 14.738281 13.722656 14.492188 C 13.582031 14.246094 13.671875 13.984375 13.976562 13.816406 C 14.664062 13.429688 15.351562 13.046875 16.042969 12.660156 C 16.285156 12.523438 16.527344 12.386719 16.800781 12.230469 C 16.171875 11.875 15.585938 11.546875 14.980469 11.207031 Z M 14.980469 11.207031 "/>
<path style=" stroke:none;fill-rule:nonzero;fill:rgb(19.215686%,17.647059%,43.529412%);fill-opacity:1;" d="M 12.1875 13.128906 C 12.003906 13.941406 11.820312 14.730469 11.648438 15.519531 C 11.585938 15.796875 11.441406 15.964844 11.152344 16.023438 C 10.699219 16.121094 10.417969 15.863281 10.519531 15.40625 C 10.746094 14.386719 10.980469 13.371094 11.214844 12.355469 C 11.480469 11.195312 11.75 10.035156 12.015625 8.878906 C 12.035156 8.792969 12.03125 8.6875 12.082031 8.625 C 12.1875 8.496094 12.304688 8.324219 12.441406 8.296875 C 12.582031 8.269531 12.792969 8.359375 12.898438 8.46875 C 13.082031 8.664062 13.15625 8.914062 13.089844 9.199219 C 12.78125 10.5 12.488281 11.800781 12.1875 13.128906 Z M 12.1875 13.128906 "/>
<path style=" stroke:none;fill-rule:nonzero;fill:rgb(92.156863%,40.392157%,14.901961%);fill-opacity:1;" d="M 8.75 18.058594 C 8.679688 18.074219 8.589844 18.078125 8.484375 18.074219 C 8.558594 18.058594 8.644531 18.054688 8.75 18.058594 Z M 8.75 18.058594 "/>
<path style=" stroke:none;fill-rule:nonzero;fill:rgb(93.333333%,40%,14.509804%);fill-opacity:1;" d="M 27.722656 19.308594 C 27.625 19.34375 27.527344 19.386719 27.425781 19.417969 C 27.210938 19.480469 27.105469 19.628906 27.027344 19.839844 C 26.867188 20.28125 26.6875 20.71875 26.488281 21.148438 C 26.390625 21.359375 26.355469 21.542969 26.476562 21.75 C 26.566406 21.898438 26.636719 22.0625 26.703125 22.253906 C 26.488281 22.539062 26.289062 22.792969 26.085938 23.046875 C 25.882812 22.949219 25.679688 22.855469 25.484375 22.75 C 25.273438 22.644531 25.089844 22.664062 24.875 22.765625 C 24.445312 22.972656 23.988281 23.121094 23.558594 23.328125 C 23.402344 23.402344 23.265625 23.550781 23.15625 23.695312 C 23.078125 23.800781 23.050781 23.949219 23.027344 24.082031 C 22.964844 24.40625 22.8125 24.546875 22.453125 24.515625 C 22.199219 24.496094 22.082031 24.445312 22.007812 24.1875 C 21.871094 23.707031 21.597656 23.355469 21.050781 23.238281 C 20.707031 23.164062 20.375 22.980469 20.0625 22.808594 C 19.796875 22.65625 19.558594 22.625 19.296875 22.789062 C 19.207031 22.847656 19.105469 22.886719 19.011719 22.9375 C 18.640625 23.136719 18.503906 23.109375 18.28125 22.757812 C 18.246094 22.699219 18.253906 22.589844 18.28125 22.523438 C 18.335938 22.378906 18.410156 22.238281 18.488281 22.101562 C 18.617188 21.871094 18.605469 21.640625 18.503906 21.402344 C 18.285156 20.882812 18.09375 20.351562 17.847656 19.84375 C 17.765625 19.667969 17.570312 19.542969 17.410156 19.410156 C 17.347656 19.359375 17.246094 19.355469 17.164062 19.328125 C 16.671875 19.164062 16.59375 19.042969 16.695312 18.53125 C 16.707031 18.464844 16.789062 18.386719 16.855469 18.359375 C 17.0625 18.277344 17.277344 18.210938 17.492188 18.148438 C 17.71875 18.078125 17.835938 17.925781 17.917969 17.707031 C 18.09375 17.234375 18.316406 16.777344 18.480469 16.300781 C 18.542969 16.117188 18.519531 15.894531 18.5 15.691406 C 18.492188 15.59375 18.40625 15.503906 18.359375 15.40625 C 18.078125 14.808594 18.039062 15.023438 18.488281 14.535156 C 18.648438 14.363281 18.78125 14.3125 18.988281 14.457031 C 19.128906 14.554688 19.300781 14.613281 19.457031 14.691406 C 19.6875 14.796875 19.902344 14.769531 20.132812 14.664062 C 20.601562 14.453125 21.089844 14.28125 21.554688 14.0625 C 21.722656 13.980469 21.867188 13.820312 21.976562 13.667969 C 22.0625 13.546875 22.101562 13.378906 22.128906 13.226562 C 22.175781 12.949219 22.324219 12.878906 22.597656 12.886719 C 22.824219 12.894531 22.941406 12.960938 22.976562 13.183594 C 23.066406 13.777344 23.378906 14.140625 24 14.234375 C 24.222656 14.269531 24.445312 14.390625 24.640625 14.511719 C 25.160156 14.835938 25.667969 14.835938 26.21875 14.542969 C 26.402344 14.761719 26.554688 14.964844 26.707031 15.171875 C 26.347656 15.6875 26.339844 16.1875 26.734375 16.707031 C 26.863281 16.878906 26.929688 17.113281 26.96875 17.332031 C 27.035156 17.761719 27.265625 18.007812 27.707031 18.125 C 27.726562 18.546875 27.726562 18.925781 27.722656 19.308594 M 23.605469 21.597656 C 24.828125 21.167969 25.621094 20.074219 25.59375 18.851562 C 25.5625 17.585938 24.710938 16.496094 23.453125 16.121094 C 21.949219 15.675781 20.414062 16.351562 19.914062 17.703125 C 19.5 18.816406 19.75 19.816406 20.527344 20.6875 C 21.347656 21.605469 22.359375 21.933594 23.605469 21.597656 Z M 23.605469 21.597656 "/>
<path style=" stroke:none;fill-rule:nonzero;fill:rgb(18.823529%,16.862745%,44.313725%);fill-opacity:1;" d="M 23.585938 21.605469 C 22.359375 21.933594 21.347656 21.605469 20.527344 20.6875 C 19.75 19.816406 19.5 18.816406 19.914062 17.703125 C 20.414062 16.351562 21.949219 15.675781 23.453125 16.121094 C 24.710938 16.496094 25.5625 17.585938 25.59375 18.851562 C 25.621094 20.074219 24.828125 21.167969 23.585938 21.605469 M 21.136719 17.832031 C 20.8125 18.335938 20.71875 18.878906 20.90625 19.453125 C 21.300781 20.664062 22.867188 20.925781 23.785156 19.941406 C 24.464844 19.210938 24.417969 18.039062 23.679688 17.359375 C 23.035156 16.765625 21.976562 16.875 21.308594 17.613281 C 21.253906 17.671875 21.210938 17.734375 21.136719 17.832031 Z M 21.136719 17.832031 "/>
</g>
</svg>
