<?xml version="1.0" encoding="UTF-8"?>
<svg xmlns="http://www.w3.org/2000/svg" xmlns:xlink="http://www.w3.org/1999/xlink" width="32px" height="32px" viewBox="0 0 32 32" version="1.1">
<g id="surface1">
<path style=" stroke:none;fill-rule:nonzero;fill:none;fill-opacity:1;" d="M 19.4375 0.0625 C 23.644531 0.0625 27.851562 0.0625 32.0625 0.0625 C 32.0625 10.726562 32.0625 21.390625 32.0625 32.058594 C 21.402344 32.058594 10.738281 32.058594 0.0703125 32.058594 C 0.0703125 21.394531 0.0703125 10.730469 0.0703125 0.0625 C 5.445312 0.0625 10.816406 0.0625 16.214844 0.0820312 C 15.988281 0.441406 15.742188 0.78125 15.472656 1.132812 C 15.15625 1.429688 14.855469 1.710938 14.53125 2 C 14.324219 2.003906 14.125 1.960938 13.960938 2.019531 C 13.699219 2.109375 13.386719 2.0625 13.167969 2.324219 C 13.058594 2.460938 12.832031 2.476562 12.671875 2.605469 C 12.453125 2.777344 12.140625 2.832031 11.894531 2.976562 C 11.648438 3.117188 11.445312 3.324219 11.199219 3.464844 C 10.9375 3.617188 10.640625 3.703125 10.375 3.847656 C 10.023438 4.042969 9.691406 4.273438 9.335938 4.46875 C 8.867188 4.730469 8.363281 4.925781 7.941406 5.273438 C 7.851562 5.347656 7.765625 5.425781 7.664062 5.480469 C 7.339844 5.644531 7.003906 5.792969 6.683594 5.960938 C 6.46875 6.074219 6.273438 6.230469 6.058594 6.34375 C 5.695312 6.539062 5.28125 6.667969 4.964844 6.921875 C 4.722656 7.109375 4.394531 7.117188 4.195312 7.40625 C 4.078125 7.574219 3.773438 7.597656 3.558594 7.734375 C 3.003906 8.089844 2.398438 8.378906 1.828125 8.710938 C 1.652344 8.8125 1.496094 8.964844 1.359375 9.113281 C 1.171875 9.308594 1.042969 9.578125 0.828125 9.726562 C 0.554688 9.921875 0.515625 10.21875 0.449219 10.46875 C 0.324219 10.910156 0.261719 11.386719 0.28125 11.847656 C 0.300781 12.253906 0.410156 12.679688 0.578125 13.054688 C 0.734375 13.402344 1.019531 13.691406 1.234375 14.027344 C 1.117188 14.035156 1.007812 14.019531 0.875 14.003906 C 0.875 14.320312 0.847656 14.625 0.886719 14.921875 C 0.917969 15.183594 0.964844 15.476562 1.109375 15.6875 C 1.617188 16.457031 2.167969 17.199219 2.710938 17.945312 C 3.144531 18.542969 3.585938 19.136719 4.019531 19.734375 C 4.347656 20.183594 4.664062 20.640625 4.996094 21.085938 C 5.578125 21.867188 6.164062 22.648438 6.753906 23.425781 C 7.0625 23.832031 7.375 24.230469 7.679688 24.65625 C 7.21875 25.296875 6.746094 25.90625 6.324219 26.550781 C 6.113281 26.871094 5.898438 27.046875 5.492188 27.007812 C 5.058594 26.96875 4.617188 26.984375 4.179688 27.003906 C 3.699219 27.027344 3.246094 27.160156 2.851562 27.507812 C 2.574219 27.5 2.320312 27.46875 2.078125 27.507812 C 1.367188 27.617188 1.085938 27.6875 0.953125 28.425781 C 0.839844 29.054688 0.878906 29.710938 0.847656 30.378906 C 1.335938 30.378906 1.761719 30.378906 2.183594 30.410156 C 2.1875 30.59375 2.1875 30.75 2.1875 30.90625 C 2.1875 31.417969 2.335938 31.5625 2.847656 31.5625 C 8.503906 31.5625 14.160156 31.5625 19.816406 31.5625 C 20.269531 31.5625 20.433594 31.394531 20.4375 30.925781 C 20.4375 30.40625 20.449219 29.886719 20.433594 29.363281 C 20.421875 29.050781 20.40625 28.726562 20.328125 28.425781 C 20.113281 27.632812 19.320312 26.996094 18.378906 27 C 17.867188 27 17.355469 27.011719 16.847656 26.992188 C 16.730469 26.988281 16.574219 26.902344 16.507812 26.808594 C 15.792969 25.832031 15.109375 24.839844 14.386719 23.871094 C 14.246094 23.679688 14.234375 23.539062 14.316406 23.34375 C 14.5625 22.789062 14.554688 22.191406 14.480469 21.617188 C 14.363281 20.707031 13.820312 20.003906 13.238281 19.328125 C 12.710938 18.714844 12.203125 18.085938 11.691406 17.460938 C 11.085938 16.71875 10.484375 15.972656 9.882812 15.226562 C 9.519531 14.773438 9.15625 14.324219 8.769531 13.839844 C 8.839844 13.789062 8.890625 13.753906 8.941406 13.714844 C 9.597656 13.203125 10.261719 12.695312 10.914062 12.175781 C 11.863281 11.421875 12.808594 10.660156 13.757812 9.902344 C 14.65625 9.183594 15.558594 8.464844 16.46875 7.761719 C 16.566406 7.6875 16.75 7.660156 16.871094 7.695312 C 17.1875 7.792969 17.488281 7.933594 17.796875 8.058594 C 18.832031 8.480469 19.867188 8.894531 20.902344 9.320312 C 21.953125 9.757812 23.003906 10.199219 24.0625 10.644531 C 24.0625 11.546875 24.0625 12.441406 24.058594 13.335938 C 24.058594 13.394531 24.046875 13.464844 24.015625 13.507812 C 23.359375 14.394531 23.324219 15.316406 23.851562 16.265625 C 23.253906 17.132812 22.648438 17.996094 22.074219 18.875 C 21.988281 19.007812 21.988281 19.285156 22.070312 19.417969 C 22.453125 20.027344 22.871094 20.613281 23.296875 21.195312 C 23.453125 21.410156 23.796875 21.441406 23.976562 21.304688 C 24.28125 21.082031 24.238281 20.78125 24.097656 20.570312 C 23.8125 20.140625 23.5 19.726562 23.210938 19.296875 C 23.167969 19.230469 23.167969 19.082031 23.210938 19.019531 C 23.621094 18.402344 24.050781 17.800781 24.460938 17.1875 C 24.539062 17.070312 24.570312 17.054688 24.71875 17.109375 C 25.082031 17.25 25.457031 17.367188 25.839844 17.429688 C 26.378906 17.515625 26.875 17.3125 27.34375 17.046875 C 27.785156 17.6875 28.203125 18.3125 28.644531 18.917969 C 28.789062 19.117188 28.75 19.242188 28.617188 19.421875 C 28.3125 19.835938 28.027344 20.265625 27.753906 20.703125 C 27.625 20.902344 27.738281 21.21875 27.9375 21.339844 C 28.097656 21.4375 28.515625 21.371094 28.621094 21.21875 C 29.019531 20.636719 29.414062 20.046875 29.816406 19.464844 C 29.988281 19.214844 29.929688 18.972656 29.785156 18.765625 C 29.285156 18.027344 28.765625 17.300781 28.269531 16.5625 C 28.894531 16.097656 28.972656 15.457031 28.878906 14.777344 C 28.789062 14.128906 28.429688 13.648438 27.878906 13.277344 C 27.875 12.378906 27.871094 11.503906 27.878906 10.632812 C 27.882812 10.5 27.917969 10.34375 27.992188 10.238281 C 28.558594 9.460938 28.535156 8.117188 27.867188 7.347656 C 27.9375 6.710938 27.832031 6.164062 27.304688 5.777344 C 26.992188 5.546875 26.679688 5.316406 26.367188 5.089844 C 24.332031 3.636719 22.300781 2.183594 20.269531 0.726562 C 19.980469 0.519531 19.714844 0.285156 19.4375 0.0625 Z M 19.4375 0.0625 "/>
<path style=" stroke:none;fill-rule:nonzero;fill:rgb(98.039216%,74.509804%,10.196078%);fill-opacity:1;" d="M 19.410156 0.0625 C 19.714844 0.285156 19.980469 0.519531 20.269531 0.726562 C 22.300781 2.183594 24.332031 3.636719 26.367188 5.089844 C 26.679688 5.316406 26.992188 5.546875 27.304688 5.777344 C 27.832031 6.164062 27.9375 6.710938 27.847656 7.34375 C 27.675781 7.238281 27.535156 7.097656 27.375 6.984375 C 24.71875 5.066406 22.066406 3.148438 19.40625 1.234375 C 18.742188 0.757812 17.988281 0.570312 17.171875 0.605469 C 16.5625 0.632812 16.03125 0.878906 15.492188 1.121094 C 15.742188 0.78125 15.988281 0.441406 16.242188 0.0820312 C 17.292969 0.0625 18.335938 0.0625 19.410156 0.0625 Z M 19.410156 0.0625 "/>
<path style=" stroke:none;fill-rule:nonzero;fill:rgb(8.627451%,18.431373%,44.313725%);fill-opacity:1;" d="M 15.472656 1.132812 C 16.03125 0.878906 16.5625 0.632812 17.171875 0.605469 C 17.988281 0.570312 18.742188 0.757812 19.40625 1.234375 C 22.066406 3.148438 24.71875 5.066406 27.375 6.984375 C 27.535156 7.097656 27.675781 7.238281 27.84375 7.371094 C 28.535156 8.117188 28.558594 9.460938 27.992188 10.238281 C 27.917969 10.34375 27.882812 10.5 27.878906 10.632812 C 27.871094 11.503906 27.875 12.378906 27.863281 13.292969 C 27.886719 13.449219 27.90625 13.570312 27.96875 13.667969 C 28.445312 14.425781 28.523438 15.21875 28.128906 16.027344 C 28.007812 16.273438 28.042969 16.429688 28.25 16.574219 C 28.765625 17.300781 29.285156 18.027344 29.785156 18.765625 C 29.929688 18.972656 29.988281 19.214844 29.816406 19.464844 C 29.414062 20.046875 29.019531 20.636719 28.621094 21.21875 C 28.515625 21.371094 28.097656 21.4375 27.9375 21.339844 C 27.738281 21.21875 27.625 20.902344 27.753906 20.703125 C 28.027344 20.265625 28.3125 19.835938 28.617188 19.421875 C 28.75 19.242188 28.789062 19.117188 28.644531 18.917969 C 28.203125 18.3125 27.785156 17.6875 27.34375 17.046875 C 26.875 17.3125 26.378906 17.515625 25.839844 17.429688 C 25.457031 17.367188 25.082031 17.25 24.71875 17.109375 C 24.570312 17.054688 24.539062 17.070312 24.460938 17.1875 C 24.050781 17.800781 23.621094 18.402344 23.210938 19.019531 C 23.167969 19.082031 23.167969 19.230469 23.210938 19.296875 C 23.5 19.726562 23.8125 20.140625 24.097656 20.570312 C 24.238281 20.78125 24.28125 21.082031 23.976562 21.304688 C 23.796875 21.441406 23.453125 21.410156 23.296875 21.195312 C 22.871094 20.613281 22.453125 20.027344 22.070312 19.417969 C 21.988281 19.285156 21.988281 19.007812 22.074219 18.875 C 22.648438 17.996094 23.253906 17.132812 23.851562 16.265625 C 23.324219 15.316406 23.359375 14.394531 24.015625 13.507812 C 24.046875 13.464844 24.058594 13.394531 24.058594 13.335938 C 24.0625 12.441406 24.0625 11.546875 24.0625 10.644531 C 23.003906 10.199219 21.953125 9.757812 20.902344 9.320312 C 19.867188 8.894531 18.832031 8.480469 17.796875 8.058594 C 17.488281 7.933594 17.1875 7.792969 16.871094 7.695312 C 16.75 7.660156 16.566406 7.6875 16.46875 7.761719 C 15.558594 8.464844 14.65625 9.183594 13.757812 9.902344 C 12.808594 10.660156 11.863281 11.421875 10.914062 12.175781 C 10.261719 12.695312 9.597656 13.203125 8.941406 13.714844 C 8.890625 13.753906 8.839844 13.789062 8.769531 13.839844 C 9.15625 14.324219 9.519531 14.773438 9.882812 15.226562 C 10.484375 15.972656 11.085938 16.71875 11.691406 17.460938 C 12.203125 18.085938 12.710938 18.714844 13.238281 19.328125 C 13.820312 20.003906 14.363281 20.707031 14.480469 21.617188 C 14.554688 22.191406 14.5625 22.789062 14.316406 23.34375 C 14.234375 23.539062 14.246094 23.679688 14.386719 23.871094 C 15.109375 24.839844 15.792969 25.832031 16.507812 26.808594 C 16.574219 26.902344 16.730469 26.988281 16.847656 26.992188 C 17.355469 27.011719 17.867188 27 18.378906 27 C 19.320312 26.996094 20.113281 27.632812 20.328125 28.425781 C 20.40625 28.726562 20.421875 29.050781 20.433594 29.363281 C 20.449219 29.886719 20.4375 30.40625 20.4375 30.925781 C 20.433594 31.394531 20.269531 31.5625 19.816406 31.5625 C 14.160156 31.5625 8.503906 31.5625 2.847656 31.5625 C 2.335938 31.5625 2.1875 31.417969 2.1875 30.90625 C 2.1875 30.75 2.1875 30.59375 2.203125 30.390625 C 2.226562 29.9375 2.246094 29.535156 2.238281 29.132812 C 2.230469 28.683594 2.324219 28.269531 2.582031 27.902344 C 2.675781 27.765625 2.78125 27.640625 2.882812 27.511719 C 3.246094 27.160156 3.699219 27.027344 4.179688 27.003906 C 4.617188 26.984375 5.058594 26.96875 5.492188 27.007812 C 5.898438 27.046875 6.113281 26.871094 6.324219 26.550781 C 6.746094 25.90625 7.21875 25.296875 7.699219 24.648438 C 8.117188 24.175781 8.117188 24.175781 7.863281 23.675781 C 7.828125 23.601562 7.789062 23.527344 7.753906 23.453125 C 6.675781 21.214844 5.597656 18.980469 4.515625 16.746094 C 4.464844 16.640625 4.394531 16.503906 4.296875 16.464844 C 3.484375 16.144531 2.917969 15.5625 2.507812 14.78125 C 2.480469 14.699219 2.460938 14.644531 2.4375 14.585938 C 1.757812 12.691406 2.925781 10.679688 4.902344 10.324219 C 5.109375 10.285156 5.34375 10.242188 5.5 10.121094 C 8.277344 7.933594 11.042969 5.730469 13.8125 3.535156 C 13.875 3.484375 13.957031 3.433594 13.984375 3.363281 C 14.183594 2.910156 14.367188 2.453125 14.554688 1.996094 C 14.855469 1.710938 15.15625 1.429688 15.472656 1.132812 M 5.746094 15.6875 C 5.886719 15.644531 6.035156 15.609375 6.175781 15.558594 C 7.328125 15.160156 7.953125 13.792969 7.507812 12.644531 C 7.160156 11.691406 6.210938 11.117188 5.128906 11.253906 C 4.238281 11.367188 3.617188 11.875 3.316406 12.71875 C 3.03125 13.527344 3.152344 14.289062 3.757812 14.984375 C 4.289062 15.53125 4.914062 15.824219 5.746094 15.6875 M 26.175781 16.4375 C 26.769531 16.398438 27.289062 15.910156 27.417969 15.265625 C 27.59375 14.394531 26.867188 13.492188 26.007812 13.5625 C 25.175781 13.453125 24.519531 14.273438 24.496094 14.945312 C 24.46875 15.773438 25.210938 16.550781 26.175781 16.4375 M 10.296875 25.585938 C 9.769531 25.371094 9.238281 25.152344 8.675781 24.921875 C 8.621094 25.011719 8.535156 25.164062 8.429688 25.351562 C 8.042969 25.890625 7.65625 26.429688 7.257812 26.980469 C 9.972656 26.980469 12.65625 26.980469 15.371094 26.980469 C 14.773438 26.15625 14.195312 25.355469 13.617188 24.554688 C 12.675781 25.46875 11.609375 25.859375 10.296875 25.585938 M 14.539062 6.074219 C 14.324219 5.621094 14.113281 5.164062 13.886719 4.683594 C 11.480469 6.589844 9.042969 8.523438 6.609375 10.453125 C 6.941406 10.675781 7.265625 10.847656 7.535156 11.089844 C 7.800781 11.328125 8.007812 11.636719 8.273438 11.9375 C 8.378906 12.179688 8.484375 12.425781 8.605469 12.695312 C 10.941406 10.84375 13.269531 8.996094 15.550781 7.183594 C 15.1875 6.796875 14.867188 6.460938 14.539062 6.074219 M 12.734375 23.984375 C 13.5625 23.164062 13.769531 21.902344 13.179688 20.9375 C 12.9375 20.542969 12.605469 20.199219 12.3125 19.832031 C 11.726562 19.105469 11.140625 18.375 10.550781 17.648438 C 10.035156 17.003906 9.515625 16.363281 8.996094 15.726562 C 8.78125 15.460938 8.5625 15.203125 8.339844 14.941406 C 8.214844 15.125 8.117188 15.292969 7.996094 15.4375 C 7.625 15.890625 7.210938 16.292969 6.570312 16.460938 C 6.238281 16.542969 5.90625 16.625 5.554688 16.710938 C 5.597656 16.804688 5.636719 16.898438 5.683594 16.988281 C 6.082031 17.820312 6.484375 18.65625 6.882812 19.488281 C 7.484375 20.734375 8.078125 21.980469 8.6875 23.222656 C 9.300781 24.46875 10.628906 25.03125 11.878906 24.550781 C 12.175781 24.433594 12.425781 24.1875 12.734375 23.984375 M 15.320312 2.628906 C 15.207031 2.859375 15.054688 3.082031 14.984375 3.324219 C 14.769531 4.070312 14.800781 4.792969 15.320312 5.476562 C 15.601562 5.894531 15.980469 6.207031 16.4375 6.398438 C 17.957031 7.039062 19.488281 7.660156 21.015625 8.289062 C 22.429688 8.875 23.84375 9.460938 25.265625 10.039062 C 25.6875 10.210938 26.101562 10.332031 26.578125 10.136719 C 27.386719 9.800781 27.59375 8.734375 27.191406 8.148438 C 27.035156 7.984375 26.898438 7.796875 26.71875 7.667969 C 25.5625 6.820312 24.394531 5.984375 23.226562 5.144531 C 21.792969 4.109375 20.363281 3.070312 18.917969 2.042969 C 17.734375 1.199219 16.140625 1.457031 15.320312 2.628906 M 3.1875 30.429688 C 3.203125 30.671875 3.390625 30.554688 3.492188 30.558594 C 8.703125 30.5625 13.914062 30.5625 19.125 30.5625 C 19.226562 30.5625 19.324219 30.5625 19.4375 30.5625 C 19.4375 30.074219 19.429688 29.628906 19.4375 29.183594 C 19.453125 28.5 18.902344 27.933594 18.128906 28 C 18.066406 28 18.003906 27.996094 17.941406 27.996094 C 13.382812 27.996094 8.820312 27.996094 4.261719 27.996094 C 4.21875 27.996094 4.175781 27.996094 4.136719 27.996094 C 3.625 28.023438 3.203125 28.429688 3.1875 28.941406 C 3.171875 29.417969 3.191406 29.898438 3.1875 30.429688 M 26.875 12.332031 C 26.875 11.933594 26.875 11.53125 26.875 11.085938 C 26.222656 11.363281 25.621094 11.242188 25.027344 11.054688 C 25.027344 11.621094 25.027344 12.152344 25.027344 12.625 C 25.652344 12.625 26.253906 12.625 26.875 12.625 C 26.875 12.574219 26.875 12.484375 26.875 12.332031 Z M 26.875 12.332031 "/>
<path style=" stroke:none;fill-rule:nonzero;fill:rgb(93.72549%,40.392157%,14.117647%);fill-opacity:1;" d="M 14.53125 2 C 14.367188 2.453125 14.183594 2.910156 13.984375 3.363281 C 13.957031 3.433594 13.875 3.484375 13.8125 3.535156 C 11.042969 5.730469 8.277344 7.933594 5.5 10.121094 C 5.34375 10.242188 5.109375 10.285156 4.902344 10.324219 C 2.925781 10.679688 1.757812 12.691406 2.4375 14.585938 C 2.460938 14.644531 2.480469 14.699219 2.484375 14.785156 C 2.058594 14.539062 1.652344 14.273438 1.246094 14.007812 C 1.019531 13.691406 0.734375 13.402344 0.578125 13.054688 C 0.410156 12.679688 0.300781 12.253906 0.28125 11.847656 C 0.261719 11.386719 0.324219 10.910156 0.449219 10.46875 C 0.515625 10.21875 0.554688 9.921875 0.828125 9.726562 C 1.042969 9.578125 1.171875 9.308594 1.359375 9.113281 C 1.496094 8.964844 1.652344 8.8125 1.828125 8.710938 C 2.398438 8.378906 3.003906 8.089844 3.558594 7.734375 C 3.773438 7.597656 4.078125 7.574219 4.195312 7.40625 C 4.394531 7.117188 4.722656 7.109375 4.964844 6.921875 C 5.28125 6.667969 5.695312 6.539062 6.058594 6.34375 C 6.273438 6.230469 6.46875 6.074219 6.683594 5.960938 C 7.003906 5.792969 7.339844 5.644531 7.664062 5.480469 C 7.765625 5.425781 7.851562 5.347656 7.941406 5.273438 C 8.363281 4.925781 8.867188 4.730469 9.335938 4.46875 C 9.691406 4.273438 10.023438 4.042969 10.375 3.847656 C 10.640625 3.703125 10.9375 3.617188 11.199219 3.464844 C 11.445312 3.324219 11.648438 3.117188 11.894531 2.976562 C 12.140625 2.832031 12.453125 2.777344 12.671875 2.605469 C 12.832031 2.476562 13.058594 2.460938 13.167969 2.324219 C 13.386719 2.0625 13.699219 2.109375 13.960938 2.019531 C 14.125 1.960938 14.324219 2.003906 14.53125 2 Z M 14.53125 2 "/>
<path style=" stroke:none;fill-rule:nonzero;fill:rgb(98.431373%,74.509804%,9.803922%);fill-opacity:1;" d="M 1.234375 14.027344 C 1.652344 14.273438 2.058594 14.539062 2.488281 14.804688 C 2.917969 15.5625 3.484375 16.144531 4.296875 16.464844 C 4.394531 16.503906 4.464844 16.640625 4.515625 16.746094 C 5.597656 18.980469 6.675781 21.214844 7.753906 23.453125 C 7.789062 23.527344 7.828125 23.601562 7.863281 23.675781 C 8.117188 24.175781 8.117188 24.175781 7.707031 24.628906 C 7.375 24.230469 7.0625 23.832031 6.753906 23.425781 C 6.164062 22.648438 5.578125 21.867188 4.996094 21.085938 C 4.664062 20.640625 4.347656 20.183594 4.019531 19.734375 C 3.585938 19.136719 3.144531 18.542969 2.710938 17.945312 C 2.167969 17.199219 1.617188 16.457031 1.109375 15.6875 C 0.964844 15.476562 0.917969 15.183594 0.886719 14.921875 C 0.847656 14.625 0.875 14.320312 0.875 14.003906 C 1.007812 14.019531 1.117188 14.035156 1.234375 14.027344 Z M 1.234375 14.027344 "/>
<path style=" stroke:none;fill-rule:nonzero;fill:rgb(93.333333%,40%,14.509804%);fill-opacity:1;" d="M 2.851562 27.507812 C 2.78125 27.640625 2.675781 27.765625 2.582031 27.902344 C 2.324219 28.269531 2.230469 28.683594 2.238281 29.132812 C 2.246094 29.535156 2.226562 29.9375 2.199219 30.359375 C 1.761719 30.378906 1.335938 30.378906 0.847656 30.378906 C 0.878906 29.710938 0.839844 29.054688 0.953125 28.425781 C 1.085938 27.6875 1.367188 27.617188 2.078125 27.507812 C 2.320312 27.46875 2.574219 27.5 2.851562 27.507812 Z M 2.851562 27.507812 "/>
<path style=" stroke:none;fill-rule:nonzero;fill:rgb(97.647059%,74.117647%,10.196078%);fill-opacity:1;" d="M 28.269531 16.5625 C 28.042969 16.429688 28.007812 16.273438 28.128906 16.027344 C 28.523438 15.21875 28.445312 14.425781 27.96875 13.667969 C 27.90625 13.570312 27.886719 13.449219 27.863281 13.320312 C 28.429688 13.648438 28.789062 14.128906 28.878906 14.777344 C 28.972656 15.457031 28.894531 16.097656 28.269531 16.5625 Z M 28.269531 16.5625 "/>
<path style=" stroke:none;fill-rule:nonzero;fill:rgb(94.117647%,40.392157%,14.117647%);fill-opacity:1;" d="M 3.195312 30.375 C 3.191406 29.898438 3.171875 29.417969 3.1875 28.941406 C 3.203125 28.429688 3.625 28.023438 4.136719 27.996094 C 4.175781 27.996094 4.21875 27.996094 4.261719 27.996094 C 8.820312 27.996094 13.382812 27.996094 17.941406 27.996094 C 18.003906 27.996094 18.066406 28 18.160156 28.03125 C 18.542969 28.808594 18.300781 29.59375 18.378906 30.375 C 13.285156 30.375 8.242188 30.375 3.195312 30.375 Z M 3.195312 30.375 "/>
<path style=" stroke:none;fill-rule:nonzero;fill:none;fill-opacity:1;" d="M 27.183594 8.191406 C 27.59375 8.734375 27.386719 9.800781 26.578125 10.136719 C 26.101562 10.332031 25.6875 10.210938 25.265625 10.039062 C 23.84375 9.460938 22.429688 8.875 21.015625 8.289062 C 19.488281 7.660156 17.957031 7.039062 16.4375 6.398438 C 15.980469 6.207031 15.601562 5.894531 15.324219 5.4375 C 15.425781 5.285156 15.53125 5.175781 15.625 5.058594 C 15.753906 4.898438 15.867188 4.726562 16 4.582031 C 16.566406 5.582031 17.636719 5.640625 18.320312 5.121094 C 19.113281 5.457031 19.878906 5.789062 20.652344 6.109375 C 22.261719 6.769531 23.878906 7.421875 25.488281 8.089844 C 26.042969 8.316406 26.59375 8.539062 27.183594 8.191406 Z M 27.183594 8.191406 "/>
<path style=" stroke:none;fill-rule:nonzero;fill:rgb(98.039216%,74.509804%,10.196078%);fill-opacity:1;" d="M 27.1875 8.167969 C 26.59375 8.539062 26.042969 8.316406 25.488281 8.089844 C 23.878906 7.421875 22.261719 6.769531 20.652344 6.109375 C 19.878906 5.789062 19.113281 5.457031 18.328125 5.101562 C 18.75 4.652344 18.9375 4.148438 18.777344 3.550781 C 18.597656 2.886719 18.007812 2.464844 17.3125 2.488281 C 16.605469 2.507812 16.082031 2.984375 15.898438 3.742188 C 15.707031 3.351562 15.53125 2.980469 15.355469 2.605469 C 16.140625 1.457031 17.734375 1.199219 18.917969 2.042969 C 20.363281 3.070312 21.792969 4.109375 23.226562 5.144531 C 24.394531 5.984375 25.5625 6.820312 26.71875 7.667969 C 26.898438 7.796875 27.035156 7.984375 27.1875 8.167969 Z M 27.1875 8.167969 "/>
<path style=" stroke:none;fill-rule:nonzero;fill:rgb(98.039216%,74.509804%,10.196078%);fill-opacity:1;" d="M 12.699219 24 C 12.425781 24.1875 12.175781 24.433594 11.878906 24.550781 C 10.628906 25.03125 9.300781 24.46875 8.6875 23.222656 C 8.078125 21.980469 7.484375 20.734375 6.882812 19.488281 C 6.484375 18.65625 6.082031 17.820312 5.683594 16.988281 C 5.636719 16.898438 5.597656 16.804688 5.554688 16.710938 C 5.90625 16.625 6.238281 16.542969 6.609375 16.476562 C 7.371094 17.089844 8.097656 17.683594 8.816406 18.285156 C 9.234375 18.640625 9.640625 19.015625 10.0625 19.371094 C 10.582031 19.804688 11.109375 20.226562 11.628906 20.667969 C 11.695312 20.722656 11.710938 20.839844 11.730469 20.925781 C 11.183594 20.589844 10.574219 20.617188 10.078125 20.988281 C 9.601562 21.34375 9.386719 21.953125 9.535156 22.511719 C 9.734375 23.257812 10.472656 23.742188 11.199219 23.601562 C 12.019531 23.441406 12.496094 22.75 12.40625 21.875 C 12.507812 22.105469 12.625 22.332031 12.648438 22.566406 C 12.691406 23.042969 12.683594 23.523438 12.699219 24 Z M 12.699219 24 "/>
<path style=" stroke:none;fill-rule:nonzero;fill:rgb(93.72549%,40.392157%,14.117647%);fill-opacity:1;" d="M 8.238281 11.910156 C 8.007812 11.636719 7.800781 11.328125 7.535156 11.089844 C 7.265625 10.847656 6.941406 10.675781 6.609375 10.453125 C 9.042969 8.523438 11.480469 6.589844 13.886719 4.683594 C 14.113281 5.164062 14.324219 5.621094 14.527344 6.109375 C 14.46875 6.179688 14.414062 6.207031 14.378906 6.246094 C 14.199219 6.445312 14.042969 6.667969 13.84375 6.84375 C 13.457031 7.1875 13.039062 7.492188 12.652344 7.839844 C 12.1875 8.257812 11.753906 8.703125 11.292969 9.128906 C 11 9.398438 10.679688 9.640625 10.390625 9.917969 C 10.078125 10.214844 9.792969 10.542969 9.484375 10.847656 C 9.265625 11.070312 9.03125 11.28125 8.792969 11.484375 C 8.617188 11.636719 8.425781 11.769531 8.238281 11.910156 Z M 8.238281 11.910156 "/>
<path style=" stroke:none;fill-rule:nonzero;fill:none;fill-opacity:1;" d="M 12.71875 23.992188 C 12.683594 23.523438 12.691406 23.042969 12.648438 22.566406 C 12.625 22.332031 12.507812 22.105469 12.40625 21.855469 C 12.304688 21.441406 12.121094 21.121094 11.753906 20.929688 C 11.710938 20.839844 11.695312 20.722656 11.628906 20.667969 C 11.109375 20.226562 10.582031 19.804688 10.0625 19.371094 C 9.640625 19.015625 9.234375 18.640625 8.816406 18.285156 C 8.097656 17.683594 7.371094 17.089844 6.636719 16.472656 C 7.210938 16.292969 7.625 15.890625 7.996094 15.4375 C 8.117188 15.292969 8.214844 15.125 8.339844 14.941406 C 8.5625 15.203125 8.78125 15.460938 8.996094 15.726562 C 9.515625 16.363281 10.035156 17.003906 10.550781 17.648438 C 11.140625 18.375 11.726562 19.105469 12.3125 19.832031 C 12.605469 20.199219 12.9375 20.542969 13.179688 20.9375 C 13.769531 21.902344 13.5625 23.164062 12.71875 23.992188 Z M 12.71875 23.992188 "/>
<path style=" stroke:none;fill-rule:nonzero;fill:none;fill-opacity:1;" d="M 10.335938 25.617188 C 11.609375 25.859375 12.675781 25.46875 13.617188 24.554688 C 14.195312 25.355469 14.773438 26.15625 15.371094 26.980469 C 12.65625 26.980469 9.972656 26.980469 7.257812 26.980469 C 7.65625 26.429688 8.042969 25.890625 8.464844 25.332031 C 8.558594 25.429688 8.621094 25.542969 8.683594 25.664062 C 9.003906 25.664062 9.34375 25.667969 9.683594 25.664062 C 9.898438 25.65625 10.117188 25.632812 10.335938 25.617188 Z M 10.335938 25.617188 "/>
<path style=" stroke:none;fill-rule:nonzero;fill:none;fill-opacity:1;" d="M 8.257812 11.925781 C 8.425781 11.769531 8.617188 11.636719 8.792969 11.484375 C 9.03125 11.28125 9.265625 11.070312 9.484375 10.847656 C 9.792969 10.542969 10.078125 10.214844 10.390625 9.917969 C 10.679688 9.640625 11 9.398438 11.292969 9.128906 C 11.753906 8.703125 12.1875 8.257812 12.652344 7.839844 C 13.039062 7.492188 13.457031 7.1875 13.84375 6.84375 C 14.042969 6.667969 14.199219 6.445312 14.378906 6.246094 C 14.414062 6.207031 14.46875 6.179688 14.53125 6.132812 C 14.867188 6.460938 15.1875 6.796875 15.550781 7.183594 C 13.269531 8.996094 10.941406 10.84375 8.605469 12.695312 C 8.484375 12.425781 8.378906 12.179688 8.257812 11.925781 Z M 8.257812 11.925781 "/>
<path style=" stroke:none;fill-rule:nonzero;fill:rgb(92.54902%,40%,14.509804%);fill-opacity:1;" d="M 3.746094 14.945312 C 3.152344 14.289062 3.03125 13.527344 3.316406 12.71875 C 3.617188 11.875 4.238281 11.367188 5.128906 11.253906 C 6.210938 11.117188 7.160156 11.691406 7.480469 12.667969 C 7.351562 12.941406 7 12.960938 6.9375 13.226562 C 6.878906 13.109375 6.824219 13.007812 6.78125 12.90625 C 6.535156 12.363281 6.105469 12.0625 5.527344 12.019531 C 4.957031 11.980469 4.496094 12.222656 4.191406 12.714844 C 3.757812 13.402344 3.957031 14.167969 4.699219 14.789062 C 4.371094 14.847656 4.058594 14.894531 3.746094 14.945312 Z M 3.746094 14.945312 "/>
<path style=" stroke:none;fill-rule:nonzero;fill:none;fill-opacity:1;" d="M 3.191406 30.402344 C 8.242188 30.375 13.285156 30.375 18.378906 30.375 C 18.300781 29.59375 18.542969 28.808594 18.1875 28.035156 C 18.902344 27.933594 19.453125 28.5 19.4375 29.183594 C 19.429688 29.628906 19.4375 30.074219 19.4375 30.5625 C 19.324219 30.5625 19.226562 30.5625 19.125 30.5625 C 13.914062 30.5625 8.703125 30.5625 3.492188 30.558594 C 3.390625 30.554688 3.203125 30.671875 3.191406 30.402344 Z M 3.191406 30.402344 "/>
<path style=" stroke:none;fill-rule:nonzero;fill:rgb(98.431373%,74.509804%,9.803922%);fill-opacity:1;" d="M 26.0625 13.574219 C 26.867188 13.492188 27.59375 14.394531 27.417969 15.265625 C 27.289062 15.910156 26.769531 16.398438 26.140625 16.414062 C 25.421875 15.703125 25.300781 14.46875 26.0625 13.574219 Z M 26.0625 13.574219 "/>
<path style=" stroke:none;fill-rule:nonzero;fill:none;fill-opacity:1;" d="M 26.875 12.359375 C 26.875 12.484375 26.875 12.574219 26.875 12.625 C 26.253906 12.625 25.652344 12.625 25.027344 12.625 C 25.027344 12.152344 25.027344 11.621094 25.027344 11.054688 C 25.621094 11.242188 26.222656 11.363281 26.875 11.085938 C 26.875 11.53125 26.875 11.933594 26.875 12.359375 Z M 26.875 12.359375 "/>
<path style=" stroke:none;fill-rule:nonzero;fill:none;fill-opacity:1;" d="M 26.035156 13.566406 C 25.300781 14.46875 25.421875 15.703125 26.117188 16.410156 C 25.210938 16.550781 24.46875 15.773438 24.496094 14.945312 C 24.519531 14.273438 25.175781 13.453125 26.035156 13.566406 Z M 26.035156 13.566406 "/>
<path style=" stroke:none;fill-rule:nonzero;fill:none;fill-opacity:1;" d="M 6.949219 13.25 C 7 12.960938 7.351562 12.941406 7.472656 12.691406 C 7.953125 13.792969 7.328125 15.160156 6.175781 15.558594 C 6.035156 15.609375 5.886719 15.644531 5.710938 15.667969 C 5.390625 15.390625 5.105469 15.132812 4.847656 14.875 C 5.527344 15.050781 6.125 14.992188 6.589844 14.4375 C 6.878906 14.097656 6.953125 13.683594 6.949219 13.25 Z M 6.949219 13.25 "/>
<path style=" stroke:none;fill-rule:nonzero;fill:rgb(92.941176%,40.392157%,14.509804%);fill-opacity:1;" d="M 15.335938 2.617188 C 15.53125 2.980469 15.707031 3.351562 15.902344 3.769531 C 15.945312 4.0625 15.96875 4.3125 15.988281 4.5625 C 15.867188 4.726562 15.753906 4.898438 15.625 5.058594 C 15.53125 5.175781 15.425781 5.285156 15.3125 5.417969 C 14.800781 4.792969 14.769531 4.070312 14.984375 3.324219 C 15.054688 3.082031 15.207031 2.859375 15.335938 2.617188 Z M 15.335938 2.617188 "/>
<path style=" stroke:none;fill-rule:nonzero;fill:rgb(96.862745%,73.72549%,10.588235%);fill-opacity:1;" d="M 4.820312 14.878906 C 5.105469 15.132812 5.390625 15.390625 5.6875 15.664062 C 4.914062 15.824219 4.289062 15.53125 3.75 14.964844 C 4.058594 14.894531 4.371094 14.847656 4.699219 14.789062 C 4.714844 14.777344 4.714844 14.78125 4.710938 14.800781 C 4.742188 14.835938 4.773438 14.847656 4.8125 14.863281 C 4.820312 14.867188 4.820312 14.878906 4.820312 14.878906 Z M 4.820312 14.878906 "/>
<path style=" stroke:none;fill-rule:nonzero;fill:rgb(96.862745%,73.72549%,10.588235%);fill-opacity:1;" d="M 10.316406 25.601562 C 10.117188 25.632812 9.898438 25.65625 9.683594 25.664062 C 9.34375 25.667969 9.003906 25.664062 8.683594 25.664062 C 8.621094 25.542969 8.558594 25.429688 8.472656 25.3125 C 8.535156 25.164062 8.621094 25.011719 8.675781 24.921875 C 9.238281 25.152344 9.769531 25.371094 10.316406 25.601562 Z M 10.316406 25.601562 "/>
<path style=" stroke:none;fill-rule:nonzero;fill:rgb(9.411765%,18.823529%,43.921569%);fill-opacity:1;" d="M 16 4.582031 C 15.96875 4.3125 15.945312 4.0625 15.917969 3.78125 C 16.082031 2.984375 16.605469 2.507812 17.3125 2.488281 C 18.007812 2.464844 18.597656 2.886719 18.777344 3.550781 C 18.9375 4.148438 18.75 4.652344 18.308594 5.09375 C 17.636719 5.640625 16.566406 5.582031 16 4.582031 M 17.863281 3.761719 C 17.742188 3.5 17.53125 3.355469 17.265625 3.449219 C 17.105469 3.503906 16.921875 3.683594 16.890625 3.835938 C 16.855469 3.992188 16.949219 4.246094 17.074219 4.339844 C 17.199219 4.433594 17.453125 4.441406 17.617188 4.382812 C 17.859375 4.300781 17.917969 4.0625 17.863281 3.761719 Z M 17.863281 3.761719 "/>
<path style=" stroke:none;fill-rule:nonzero;fill:rgb(9.803922%,18.823529%,43.921569%);fill-opacity:1;" d="M 11.730469 20.925781 C 12.121094 21.121094 12.304688 21.441406 12.386719 21.855469 C 12.496094 22.75 12.019531 23.441406 11.199219 23.601562 C 10.472656 23.742188 9.734375 23.257812 9.535156 22.511719 C 9.386719 21.953125 9.601562 21.34375 10.078125 20.988281 C 10.574219 20.617188 11.183594 20.589844 11.730469 20.925781 M 10.574219 21.796875 C 10.398438 22.003906 10.351562 22.253906 10.539062 22.441406 C 10.664062 22.566406 10.914062 22.675781 11.070312 22.636719 C 11.226562 22.597656 11.410156 22.386719 11.445312 22.222656 C 11.472656 22.074219 11.355469 21.84375 11.230469 21.726562 C 11.042969 21.554688 10.808594 21.601562 10.574219 21.796875 Z M 10.574219 21.796875 "/>
<path style=" stroke:none;fill-rule:nonzero;fill:rgb(9.411765%,18.431373%,43.921569%);fill-opacity:1;" d="M 6.9375 13.226562 C 6.953125 13.683594 6.878906 14.097656 6.589844 14.4375 C 6.125 14.992188 5.527344 15.050781 4.847656 14.875 C 4.820312 14.878906 4.820312 14.867188 4.808594 14.847656 C 4.773438 14.8125 4.742188 14.796875 4.714844 14.78125 C 4.714844 14.78125 4.714844 14.777344 4.714844 14.777344 C 3.957031 14.167969 3.757812 13.402344 4.191406 12.714844 C 4.496094 12.222656 4.957031 11.980469 5.527344 12.019531 C 6.105469 12.0625 6.535156 12.363281 6.78125 12.90625 C 6.824219 13.007812 6.878906 13.109375 6.9375 13.226562 M 5.273438 12.988281 C 4.933594 13.167969 4.824219 13.460938 4.984375 13.742188 C 5.132812 13.996094 5.464844 14.078125 5.714844 13.917969 C 5.933594 13.773438 6 13.554688 5.925781 13.320312 C 5.835938 13.042969 5.621094 12.917969 5.273438 12.988281 Z M 5.273438 12.988281 "/>
<path style=" stroke:none;fill-rule:nonzero;fill:rgb(92.54902%,40%,14.509804%);fill-opacity:1;" d="M 4.710938 14.800781 C 4.742188 14.796875 4.773438 14.8125 4.804688 14.84375 C 4.773438 14.847656 4.742188 14.835938 4.710938 14.800781 Z M 4.710938 14.800781 "/>
<path style=" stroke:none;fill-rule:nonzero;fill:rgb(97.647059%,74.117647%,10.196078%);fill-opacity:1;" d="M 17.867188 3.789062 C 17.917969 4.0625 17.859375 4.300781 17.617188 4.382812 C 17.453125 4.441406 17.199219 4.433594 17.074219 4.339844 C 16.949219 4.246094 16.855469 3.992188 16.890625 3.835938 C 16.921875 3.683594 17.105469 3.503906 17.265625 3.449219 C 17.53125 3.355469 17.742188 3.5 17.867188 3.789062 Z M 17.867188 3.789062 "/>
<path style=" stroke:none;fill-rule:nonzero;fill:rgb(95.686275%,72.941176%,10.980392%);fill-opacity:1;" d="M 10.589844 21.777344 C 10.808594 21.601562 11.042969 21.554688 11.230469 21.726562 C 11.355469 21.84375 11.472656 22.074219 11.445312 22.222656 C 11.410156 22.386719 11.226562 22.597656 11.070312 22.636719 C 10.914062 22.675781 10.664062 22.566406 10.539062 22.441406 C 10.351562 22.253906 10.398438 22.003906 10.589844 21.777344 Z M 10.589844 21.777344 "/>
<path style=" stroke:none;fill-rule:nonzero;fill:rgb(91.372549%,39.607843%,14.901961%);fill-opacity:1;" d="M 5.296875 12.976562 C 5.621094 12.917969 5.835938 13.042969 5.925781 13.320312 C 6 13.554688 5.933594 13.773438 5.714844 13.917969 C 5.464844 14.078125 5.132812 13.996094 4.984375 13.742188 C 4.824219 13.460938 4.933594 13.167969 5.296875 12.976562 Z M 5.296875 12.976562 "/>
</g>
</svg>
