<svg xmlns="http://www.w3.org/2000/svg" width="25.171" height="35.868"
    viewBox="0 0 25.171 35.868">
    <g id="Group_3924" data-name="Group 3924" transform="translate(-92 -737.413)">
        <path id="Path_21370" data-name="Path 21370"
            d="M-14975.989,9452.573v-4.8s-.095-.188,4.509-.7c.234-.026-.069,2.7,2.731,2.626,2.787.134,2.275-2.773,2.959-2.838,4.745-.452,7.887,1.159,7.99,2.069.109.978,0,3.646,0,3.646Z"
            transform="translate(15073.401 -8682.292)" fill="#fcbf19" />
        <path id="Path_21371" data-name="Path 21371"
            d="M-14973.212,9467.693s-3.406-4.293-3.094-5.795,2.371-1.668,6.14-1.748,8.422.043,8.935,1.429-2.879,6.114-2.879,6.114Z"
            transform="translate(15074.636 -8722.719)" fill="#f06724" />
        <g id="woman" transform="translate(31 740.236)">
            <path id="Path_21372" data-name="Path 21372"
                d="M85.2,23.3a.968.968,0,0,0,.968-.968V14.586a12.569,12.569,0,0,0-5-10.043L82.25,1.271A.968.968,0,0,0,81.33,0H65.841a.968.968,0,0,0-.919,1.271L66,4.543a12.569,12.569,0,0,0-5,10.043v7.745a.968.968,0,0,0,.968.968h7.626l-4.927,1.232A4.834,4.834,0,0,0,61,29.227v2.85a.968.968,0,0,0,.968.968H85.2a.968.968,0,0,0,.968-.968v-3.9a.967.967,0,0,0-.04-.277,4.85,4.85,0,0,0-3.554-3.333l-5.118-1.177V23.3ZM73.585,21.363a6.784,6.784,0,0,1-6.777-6.777,4.832,4.832,0,0,1,.968-2.9h1.135a5.606,5.606,0,0,1,3.99,1.653,7.529,7.529,0,0,0,5.359,2.219h2.033A6.788,6.788,0,0,1,73.585,21.363Zm-1.936,1.719a8.74,8.74,0,0,0,3.872,0v2.153a1.936,1.936,0,1,1-3.872,0ZM79.992,1.936l-1.3,3.937H68.477l-1.3-3.937ZM62.936,14.586a10.634,10.634,0,0,1,3.711-8.079l.21.637a.968.968,0,0,0,.919.665H79.394a.968.968,0,0,0,.919-.665l.21-.637a10.634,10.634,0,0,1,3.711,8.079v6.777H79.055A8.7,8.7,0,0,0,82.3,14.586a.968.968,0,0,0-.968-.968H78.26a5.606,5.606,0,0,1-3.99-1.653,7.529,7.529,0,0,0-5.359-2.22H67.32a.968.968,0,0,0-.721.322,6.766,6.766,0,0,0-1.726,4.518,8.7,8.7,0,0,0,3.243,6.777H62.936Zm21.3,13.745v2.778h-21.3V29.227a2.9,2.9,0,0,1,2.2-2.818l4.578-1.144a3.872,3.872,0,0,0,7.741.113l4.688,1.078A2.91,2.91,0,0,1,84.235,28.331Z"
                fill="#152e71" />
            <path id="Path_21373" data-name="Path 21373"
                d="M215.157,271.283a1.772,1.772,0,0,1-2.5,0,.968.968,0,1,0-1.369,1.369,3.706,3.706,0,0,0,5.242,0,.968.968,0,1,0-1.369-1.369Z"
                transform="translate(-140.319 -253.509)" fill="#152e71" />
            <path id="Path_21374" data-name="Path 21374"
                d="M331.968,437.936H333.9a.968.968,0,1,0,0-1.936h-1.936a.968.968,0,1,0,0,1.936Z"
                transform="translate(-252.574 -407.86)" fill="#152e71" />
        </g>
    </g>
</svg>