<?xml version="1.0" encoding="UTF-8"?>
<svg xmlns="http://www.w3.org/2000/svg" xmlns:xlink="http://www.w3.org/1999/xlink" width="32px" height="32px" viewBox="0 0 32 32" version="1.1">
<g id="surface1">
<path style=" stroke:none;fill-rule:nonzero;fill:rgb(9.411765%,18.823529%,44.313725%);fill-opacity:1;" d="M 23.636719 17.222656 C 23.972656 17.03125 24.308594 16.839844 24.6875 16.636719 C 24.777344 16.546875 24.859375 16.46875 24.863281 16.390625 C 24.878906 16.109375 24.855469 15.828125 24.875 15.546875 C 24.886719 15.320312 24.828125 15.207031 24.597656 15.113281 C 23.710938 14.75 23.273438 13.929688 23.414062 12.976562 C 23.53125 12.207031 23.644531 11.433594 23.757812 10.664062 C 23.835938 10.136719 24.082031 9.917969 24.613281 9.914062 C 25.152344 9.90625 25.691406 9.90625 26.234375 9.902344 C 26.453125 9.992188 26.699219 10.046875 26.878906 10.183594 C 27.050781 10.316406 27.183594 10.527344 27.277344 10.730469 C 27.355469 10.890625 27.347656 11.089844 27.378906 11.324219 C 27.457031 11.851562 27.539062 12.328125 27.617188 12.808594 C 27.691406 13.320312 27.769531 13.835938 27.507812 14.367188 C 27.464844 14.433594 27.453125 14.46875 27.441406 14.503906 C 27.441406 14.503906 27.4375 14.5 27.421875 14.507812 C 27.394531 14.554688 27.386719 14.589844 27.375 14.628906 C 27.375 14.628906 27.375 14.625 27.355469 14.628906 C 27.324219 14.671875 27.316406 14.710938 27.308594 14.75 C 27.308594 14.75 27.3125 14.75 27.289062 14.742188 C 27.257812 14.761719 27.253906 14.785156 27.246094 14.8125 C 27.246094 14.8125 27.25 14.8125 27.226562 14.804688 C 27.199219 14.824219 27.191406 14.847656 27.183594 14.875 C 27.183594 14.875 27.1875 14.875 27.164062 14.863281 C 26.859375 14.984375 26.570312 15.109375 26.289062 15.246094 C 26.25 15.265625 26.234375 15.332031 26.210938 15.378906 C 26.207031 15.6875 26.203125 15.996094 26.199219 16.355469 C 26.203125 16.414062 26.207031 16.425781 26.203125 16.460938 C 26.144531 16.722656 26.308594 16.785156 26.480469 16.851562 C 27.132812 17.089844 27.621094 17.515625 27.882812 18.164062 C 27.976562 18.394531 28.089844 18.472656 28.347656 18.417969 C 29.351562 18.449219 30.171875 18.8125 30.804688 19.570312 C 31.257812 20.273438 31.210938 21.082031 31.289062 21.863281 C 31.425781 23.21875 31.539062 24.578125 31.660156 25.9375 C 31.765625 27.15625 31.640625 27.371094 30.539062 27.894531 C 29.023438 28.621094 27.429688 28.773438 25.785156 28.550781 C 25.636719 28.527344 25.453125 28.558594 25.324219 28.632812 C 22.5 30.25 19.542969 30.546875 16.449219 29.550781 C 16.324219 29.511719 16.160156 29.507812 16.035156 29.550781 C 12.90625 30.5625 9.921875 30.226562 7.070312 28.605469 C 6.957031 28.542969 6.792969 28.53125 6.660156 28.550781 C 4.832031 28.808594 3.097656 28.554688 1.464844 27.664062 C 0.808594 27.304688 0.464844 26.824219 0.554688 26.027344 C 0.742188 24.289062 0.875 22.546875 1.039062 20.753906 C 1.0625 20.570312 1.070312 20.433594 1.089844 20.300781 C 1.195312 19.628906 1.585938 19.136719 2.109375 18.730469 C 2.324219 18.652344 2.539062 18.574219 2.808594 18.492188 C 2.980469 18.46875 3.101562 18.4375 3.226562 18.433594 C 3.734375 18.425781 4.242188 18.421875 4.78125 18.421875 C 4.972656 18.425781 5.140625 18.425781 5.375 18.425781 C 5.0625 18.179688 4.796875 17.996094 4.5625 17.78125 C 4.058594 17.324219 4.054688 16.976562 4.523438 16.5 C 4.570312 16.480469 4.617188 16.457031 4.710938 16.4375 C 5.957031 16.4375 7.15625 16.4375 8.355469 16.4375 C 8.355469 16.21875 8.363281 16.0625 8.355469 15.90625 C 8.261719 14.269531 8.351562 12.640625 8.703125 11.039062 C 8.90625 10.125 9.226562 9.226562 9.554688 8.347656 C 9.761719 7.800781 10.261719 7.664062 10.792969 7.902344 C 10.886719 7.945312 10.988281 7.96875 11.085938 8 C 11.28125 8.214844 11.476562 8.429688 11.6875 8.679688 C 11.738281 8.789062 11.777344 8.863281 11.828125 8.960938 C 12.164062 8.457031 12.289062 7.730469 13.125 8.007812 C 13.125 8.007812 13.125 8.003906 13.125 8.019531 C 13.144531 8.046875 13.164062 8.054688 13.183594 8.066406 C 13.726562 8.207031 13.859375 8.582031 13.839844 9.105469 C 13.804688 9.988281 13.832031 10.871094 13.828125 11.808594 C 13.816406 12.386719 13.828125 12.40625 14.304688 12.519531 C 14.582031 12.671875 14.675781 12.914062 14.675781 13.21875 C 14.671875 13.957031 14.675781 14.695312 14.679688 15.492188 C 14.679688 15.835938 14.679688 16.121094 14.679688 16.410156 C 14.910156 16.410156 15.09375 16.410156 15.300781 16.410156 C 15.300781 16.140625 15.300781 15.882812 15.304688 15.597656 C 15.3125 13.882812 15.324219 12.199219 15.308594 10.515625 C 15.296875 9.242188 15.761719 8.226562 16.820312 7.507812 C 17 7.386719 17.046875 7.246094 17.046875 7.039062 C 17.039062 5.648438 17.03125 4.253906 17.050781 2.859375 C 17.054688 2.613281 17.175781 2.371094 17.257812 2.113281 C 17.394531 2.035156 17.507812 1.964844 17.652344 1.902344 C 18.371094 1.902344 19.0625 1.898438 19.773438 1.90625 C 19.867188 1.953125 19.941406 2 20.019531 2.019531 C 20.664062 2.191406 20.820312 2.632812 20.804688 3.25 C 20.773438 4.539062 20.796875 5.828125 20.796875 7.117188 C 20.796875 7.5625 20.960938 7.773438 21.4375 7.941406 C 21.4375 7.941406 21.4375 7.9375 21.425781 7.957031 C 21.441406 8.003906 21.472656 8.03125 21.507812 8.0625 C 21.507812 8.0625 21.5 8.0625 21.507812 8.074219 C 21.535156 8.101562 21.554688 8.113281 21.574219 8.125 C 22.34375 8.949219 22.550781 9.941406 22.523438 11.039062 C 22.488281 12.652344 22.515625 14.265625 22.511719 15.878906 C 22.511719 16.523438 22.515625 17.171875 22.515625 17.871094 C 22.511719 18.046875 22.492188 18.171875 22.515625 18.285156 C 22.527344 18.339844 22.625 18.375 22.707031 18.421875 C 22.84375 18.386719 23.011719 18.378906 23.058594 18.300781 C 23.246094 17.980469 23.398438 17.640625 23.558594 17.308594 C 23.558594 17.308594 23.5625 17.3125 23.582031 17.304688 C 23.613281 17.273438 23.625 17.25 23.636719 17.222656 M 18.210938 17.628906 C 18.203125 17.648438 18.195312 17.667969 18.15625 17.71875 C 17.890625 17.941406 17.625 18.160156 17.324219 18.410156 C 18.632812 18.410156 19.890625 18.410156 21.160156 18.410156 C 21.160156 17.472656 21.160156 16.554688 21.160156 15.597656 C 20.65625 15.773438 20.171875 15.925781 19.699219 16.105469 C 19.226562 16.289062 18.773438 16.273438 18.304688 16.09375 C 17.765625 15.886719 17.21875 15.710938 16.667969 15.519531 C 16.667969 15.835938 16.667969 16.113281 16.667969 16.398438 C 16.921875 16.414062 17.144531 16.429688 17.402344 16.476562 C 17.476562 16.515625 17.546875 16.558594 17.621094 16.59375 C 18.25 16.875 18.308594 16.96875 18.242188 17.621094 C 18.242188 17.621094 18.242188 17.613281 18.210938 17.628906 M 29.625 19.953125 C 29.371094 19.585938 29 19.503906 28.585938 19.503906 C 24.292969 19.511719 20.003906 19.515625 15.714844 19.515625 C 11.746094 19.515625 7.777344 19.507812 3.8125 19.507812 C 3.035156 19.507812 2.511719 19.972656 2.414062 20.734375 C 2.378906 21.003906 2.351562 21.273438 2.304688 21.59375 C 2.164062 23.210938 2.027344 24.828125 1.878906 26.445312 C 1.859375 26.644531 1.929688 26.746094 2.097656 26.839844 C 2.949219 27.324219 3.875 27.539062 4.84375 27.550781 C 5.328125 27.558594 5.808594 27.5 6.300781 27.46875 C 6.300781 26.464844 6.300781 25.539062 6.304688 24.613281 C 6.304688 24.078125 6.597656 23.898438 7.0625 24.152344 C 7.105469 24.175781 7.15625 24.195312 7.203125 24.203125 C 7.53125 24.265625 7.640625 24.46875 7.636719 24.785156 C 7.628906 25.671875 7.644531 26.558594 7.628906 27.441406 C 7.625 27.675781 7.707031 27.792969 7.898438 27.90625 C 9.03125 28.558594 10.257812 28.886719 11.546875 28.988281 C 12.753906 29.085938 13.9375 28.972656 15.089844 28.578125 C 15.355469 28.488281 15.484375 28.382812 15.457031 28.078125 C 15.425781 27.671875 15.449219 27.265625 15.449219 26.859375 C 15.449219 25.996094 15.445312 25.128906 15.453125 24.265625 C 15.453125 23.945312 15.605469 23.75 15.855469 23.722656 C 16.300781 23.675781 16.792969 24.113281 16.792969 24.5625 C 16.792969 25.800781 16.804688 27.039062 16.785156 28.28125 C 16.78125 28.542969 16.875 28.640625 17.113281 28.699219 C 19.648438 29.351562 22.042969 28.996094 24.320312 27.734375 C 24.535156 27.617188 24.621094 27.476562 24.617188 27.222656 C 24.597656 26.324219 24.605469 25.429688 24.613281 24.535156 C 24.617188 24.089844 24.945312 23.90625 25.332031 24.121094 C 25.402344 24.160156 25.480469 24.191406 25.558594 24.214844 C 25.816406 24.28125 25.941406 24.449219 25.941406 24.714844 C 25.941406 25.027344 25.941406 25.335938 25.941406 25.648438 C 25.941406 26.261719 25.941406 26.875 25.941406 27.507812 C 27.492188 27.6875 28.910156 27.390625 30.21875 26.601562 C 30.304688 26.550781 30.367188 26.375 30.359375 26.265625 C 30.191406 24.367188 30.015625 22.46875 29.828125 20.574219 C 29.808594 20.378906 29.703125 20.1875 29.625 19.953125 M 21.171875 14.234375 C 21.171875 12.96875 21.171875 11.707031 21.171875 10.441406 C 19.644531 10.441406 18.160156 10.441406 16.675781 10.441406 C 16.660156 10.484375 16.644531 10.515625 16.644531 10.542969 C 16.640625 11.78125 16.636719 13.019531 16.648438 14.257812 C 16.648438 14.339844 16.75 14.460938 16.828125 14.492188 C 17.390625 14.707031 17.960938 14.90625 18.527344 15.101562 C 18.621094 15.132812 18.742188 15.140625 18.828125 15.109375 C 19.605469 14.839844 20.375 14.558594 21.171875 14.234375 M 11.40625 18.429688 C 12.363281 18.429688 13.324219 18.402344 14.277344 18.441406 C 14.832031 18.464844 15.296875 18.363281 15.699219 17.96875 C 15.84375 17.828125 16.023438 17.71875 16.25 17.546875 C 12.777344 17.546875 9.410156 17.546875 5.972656 17.546875 C 6.304688 17.796875 6.585938 17.992188 6.847656 18.210938 C 7.042969 18.375 7.246094 18.4375 7.503906 18.433594 C 8.78125 18.425781 10.0625 18.429688 11.40625 18.429688 M 20.71875 8.882812 C 20.511719 8.695312 20.316406 8.488281 20.09375 8.324219 C 19.648438 7.996094 19.402344 7.597656 19.441406 7.023438 C 19.46875 6.605469 19.445312 6.179688 19.445312 5.765625 C 19.0625 5.765625 18.726562 5.765625 18.371094 5.765625 C 18.371094 6.332031 18.371094 6.871094 18.371094 7.410156 C 18.375 7.792969 18.230469 8.097656 17.914062 8.316406 C 17.746094 8.4375 17.570312 8.558594 17.425781 8.703125 C 17.253906 8.871094 17.113281 9.070312 16.925781 9.296875 C 18.316406 9.296875 19.621094 9.296875 20.972656 9.296875 C 20.882812 9.144531 20.8125 9.03125 20.71875 8.882812 M 26.363281 13.285156 C 26.261719 12.617188 26.164062 11.949219 26.050781 11.28125 C 26.03125 11.183594 25.945312 11.03125 25.871094 11.019531 C 25.660156 10.984375 25.4375 10.992188 25.21875 11.015625 C 25.160156 11.019531 25.078125 11.125 25.066406 11.191406 C 24.9375 11.949219 24.816406 12.710938 24.707031 13.46875 C 24.671875 13.738281 24.738281 14.015625 25 14.144531 C 25.605469 14.445312 26.308594 14.019531 26.363281 13.285156 M 10.675781 16.429688 C 11.546875 16.429688 12.417969 16.429688 13.292969 16.429688 C 13.292969 15.59375 13.292969 14.792969 13.292969 13.949219 C 12.21875 14.695312 11.25 15.476562 10.300781 16.40625 C 10.464844 16.417969 10.542969 16.421875 10.675781 16.429688 M 10.109375 10.949219 C 9.964844 11.769531 9.816406 12.585938 9.671875 13.40625 C 9.707031 13.417969 9.742188 13.425781 9.777344 13.433594 C 9.832031 13.316406 9.886719 13.203125 9.9375 13.082031 C 10.207031 12.441406 10.414062 11.765625 10.761719 11.171875 C 11.15625 10.5 10.800781 9.976562 10.65625 9.394531 C 10.617188 9.390625 10.582031 9.386719 10.546875 9.382812 C 10.40625 9.886719 10.261719 10.390625 10.109375 10.949219 M 18.371094 3.78125 C 18.371094 4.054688 18.371094 4.332031 18.371094 4.597656 C 18.761719 4.597656 19.097656 4.597656 19.445312 4.597656 C 19.445312 4.3125 19.445312 4.054688 19.445312 3.796875 C 19.445312 3.53125 19.445312 3.265625 19.445312 3.015625 C 19.0625 3.015625 18.722656 3.015625 18.371094 3.015625 C 18.371094 3.265625 18.371094 3.492188 18.371094 3.78125 M 11.144531 13.820312 C 11.285156 13.742188 11.433594 13.675781 11.5625 13.582031 C 11.875 13.347656 12.300781 13.160156 12.457031 12.839844 C 12.613281 12.519531 12.496094 12.070312 12.5 11.671875 C 12.5 11.382812 12.5 11.097656 12.5 10.808594 C 12.464844 10.800781 12.429688 10.792969 12.394531 10.789062 C 11.980469 11.785156 11.566406 12.78125 11.144531 13.820312 M 26.265625 18.429688 C 26.382812 18.429688 26.5 18.429688 26.632812 18.429688 C 26.476562 17.9375 26.101562 17.65625 25.644531 17.648438 C 25.199219 17.640625 24.699219 17.976562 24.527344 18.429688 C 25.09375 18.429688 25.652344 18.429688 26.265625 18.429688 Z M 26.265625 18.429688 "/>
<path style=" stroke:none;fill-rule:nonzero;fill:rgb(91.764706%,40.784314%,16.470588%);fill-opacity:1;" d="M 11.074219 7.980469 C 10.988281 7.96875 10.886719 7.945312 10.792969 7.902344 C 10.261719 7.664062 9.761719 7.800781 9.554688 8.347656 C 9.226562 9.226562 8.90625 10.125 8.703125 11.039062 C 8.351562 12.640625 8.261719 14.269531 8.355469 15.90625 C 8.363281 16.0625 8.355469 16.21875 8.355469 16.4375 C 7.15625 16.4375 5.957031 16.4375 4.730469 16.433594 C 5.296875 16.355469 5.890625 16.285156 6.480469 16.191406 C 6.949219 16.113281 7.410156 16 7.867188 15.90625 C 7.867188 15.652344 7.882812 15.441406 7.863281 15.238281 C 7.671875 13.175781 7.964844 11.171875 8.570312 9.203125 C 8.652344 8.941406 8.636719 8.652344 8.683594 8.375 C 8.789062 7.777344 9.265625 7.453125 9.863281 7.554688 C 10.058594 7.589844 10.265625 7.5625 10.449219 7.625 C 10.664062 7.703125 10.859375 7.847656 11.074219 7.980469 Z M 11.074219 7.980469 "/>
<path style=" stroke:none;fill-rule:nonzero;fill:rgb(92.156863%,71.372549%,14.509804%);fill-opacity:1;" d="M 17.238281 2.125 C 17.175781 2.371094 17.054688 2.613281 17.050781 2.859375 C 17.03125 4.253906 17.039062 5.648438 17.046875 7.039062 C 17.046875 7.246094 17 7.386719 16.820312 7.507812 C 15.761719 8.226562 15.296875 9.242188 15.308594 10.515625 C 15.324219 12.199219 15.3125 13.882812 15.285156 15.597656 C 15.21875 15.609375 15.171875 15.59375 15.125 15.578125 C 15.082031 14.300781 14.996094 13.019531 15.007812 11.742188 C 15.015625 10.898438 15.144531 10.050781 15.257812 9.207031 C 15.335938 8.632812 15.609375 8.117188 16.050781 7.757812 C 16.804688 7.140625 16.890625 6.367188 16.796875 5.484375 C 16.679688 4.359375 16.714844 3.242188 17.128906 2.140625 C 17.1875 2.125 17.214844 2.125 17.238281 2.125 Z M 17.238281 2.125 "/>
<path style=" stroke:none;fill-rule:nonzero;fill:rgb(98.039216%,74.509804%,10.980392%);fill-opacity:1;" d="M 30.816406 19.546875 C 30.171875 18.8125 29.351562 18.449219 28.347656 18.394531 C 28.367188 17.941406 28.203125 17.605469 27.925781 17.304688 C 28.667969 17.109375 29.375 17.167969 30.050781 17.5625 C 30.683594 17.9375 31.175781 18.925781 30.816406 19.546875 Z M 30.816406 19.546875 "/>
<path style=" stroke:none;fill-rule:nonzero;fill:rgb(97.254902%,74.509804%,12.941176%);fill-opacity:1;" d="M 17.257812 2.113281 C 17.214844 2.125 17.1875 2.125 17.144531 2.125 C 17.261719 1.722656 17.632812 1.664062 17.957031 1.660156 C 18.671875 1.652344 19.390625 1.695312 20.105469 1.757812 C 20.792969 1.820312 21.285156 2.34375 21.296875 3.054688 C 21.304688 3.855469 21.25 4.65625 21.21875 5.453125 C 21.203125 5.960938 21.144531 6.472656 21.175781 6.980469 C 21.195312 7.289062 21.347656 7.589844 21.4375 7.917969 C 20.960938 7.773438 20.796875 7.5625 20.796875 7.117188 C 20.796875 5.828125 20.773438 4.539062 20.804688 3.25 C 20.820312 2.632812 20.664062 2.191406 20.019531 2.019531 C 19.941406 2 19.867188 1.953125 19.761719 1.886719 C 19.046875 1.84375 18.363281 1.835938 17.679688 1.828125 C 17.660156 1.828125 17.644531 1.875 17.625 1.898438 C 17.507812 1.964844 17.394531 2.035156 17.257812 2.113281 Z M 17.257812 2.113281 "/>
<path style=" stroke:none;fill-rule:nonzero;fill:rgb(90.980392%,41.568627%,18.039216%);fill-opacity:1;" d="M 26.21875 9.890625 C 25.691406 9.90625 25.152344 9.90625 24.613281 9.914062 C 24.082031 9.917969 23.835938 10.136719 23.757812 10.664062 C 23.644531 11.433594 23.53125 12.207031 23.414062 12.976562 C 23.273438 13.929688 23.710938 14.75 24.597656 15.113281 C 24.828125 15.207031 24.886719 15.320312 24.875 15.546875 C 24.855469 15.828125 24.878906 16.109375 24.863281 16.390625 C 24.859375 16.46875 24.777344 16.546875 24.707031 16.625 C 24.664062 16.554688 24.617188 16.480469 24.625 16.414062 C 24.714844 15.816406 24.398438 15.4375 23.957031 15.113281 C 23.050781 14.441406 23.082031 13.523438 23.261719 12.546875 C 23.328125 12.175781 23.289062 11.785156 23.289062 11.402344 C 23.289062 11.117188 23.246094 10.828125 23.265625 10.542969 C 23.296875 10.066406 23.667969 9.691406 24.183594 9.625 C 24.875 9.53125 25.550781 9.628906 26.21875 9.890625 Z M 26.21875 9.890625 "/>
<path style=" stroke:none;fill-rule:nonzero;fill:rgb(90.980392%,40.784314%,16.078431%);fill-opacity:1;" d="M 27.90625 17.292969 C 28.203125 17.605469 28.367188 17.941406 28.316406 18.386719 C 28.089844 18.472656 27.976562 18.394531 27.882812 18.164062 C 27.621094 17.515625 27.132812 17.089844 26.480469 16.851562 C 26.308594 16.785156 26.144531 16.722656 26.222656 16.460938 C 26.269531 16.4375 26.292969 16.4375 26.316406 16.433594 C 26.839844 16.71875 27.363281 17 27.90625 17.292969 Z M 27.90625 17.292969 "/>
<path style=" stroke:none;fill-rule:nonzero;fill:rgb(91.372549%,40.784314%,16.470588%);fill-opacity:1;" d="M 4.496094 16.5 C 4.054688 16.976562 4.058594 17.324219 4.5625 17.78125 C 4.796875 17.996094 5.0625 18.179688 5.375 18.425781 C 5.140625 18.425781 4.972656 18.425781 4.773438 18.402344 C 4.621094 18.253906 4.503906 18.128906 4.382812 18.003906 C 4.292969 17.910156 4.214844 17.789062 4.105469 17.726562 C 3.726562 17.511719 3.597656 17.304688 3.667969 16.96875 C 3.738281 16.652344 3.972656 16.503906 4.402344 16.5 C 4.425781 16.5 4.445312 16.5 4.496094 16.5 Z M 4.496094 16.5 "/>
<path style=" stroke:none;fill-rule:nonzero;fill:rgb(96.862745%,74.117647%,13.333333%);fill-opacity:1;" d="M 2.082031 18.734375 C 1.585938 19.136719 1.195312 19.628906 1.089844 20.300781 C 1.070312 20.433594 1.0625 20.570312 1.039062 20.726562 C 0.921875 20.429688 0.726562 20.113281 0.722656 19.792969 C 0.71875 19.222656 1.019531 18.960938 1.660156 18.8125 C 1.792969 18.78125 1.925781 18.761719 2.082031 18.734375 Z M 2.082031 18.734375 "/>
<path style=" stroke:none;fill-rule:nonzero;fill:rgb(89.803922%,41.176471%,18.431373%);fill-opacity:1;" d="M 13.113281 7.988281 C 12.289062 7.730469 12.164062 8.457031 11.828125 8.960938 C 11.777344 8.863281 11.738281 8.789062 11.699219 8.699219 C 11.832031 8.410156 11.960938 8.140625 12.085938 7.867188 C 12.253906 7.503906 12.351562 7.46875 12.703125 7.679688 C 12.84375 7.765625 12.972656 7.871094 13.113281 7.988281 Z M 13.113281 7.988281 "/>
<path style=" stroke:none;fill-rule:nonzero;fill:rgb(90.196078%,39.607843%,16.078431%);fill-opacity:1;" d="M 15.101562 15.578125 C 15.171875 15.59375 15.21875 15.609375 15.28125 15.625 C 15.300781 15.882812 15.300781 16.140625 15.300781 16.410156 C 15.09375 16.410156 14.910156 16.410156 14.679688 16.410156 C 14.679688 16.121094 14.679688 15.835938 14.683594 15.519531 C 14.820312 15.519531 14.949219 15.550781 15.101562 15.578125 Z M 15.101562 15.578125 "/>
<path style=" stroke:none;fill-rule:nonzero;fill:rgb(93.72549%,71.764706%,14.509804%);fill-opacity:1;" d="M 4.359375 18.007812 C 4.503906 18.128906 4.621094 18.253906 4.746094 18.398438 C 4.242188 18.421875 3.734375 18.425781 3.226562 18.433594 C 3.101562 18.4375 2.980469 18.46875 2.835938 18.488281 C 2.867188 18.445312 2.917969 18.375 2.984375 18.355469 C 3.433594 18.238281 3.882812 18.128906 4.359375 18.007812 Z M 4.359375 18.007812 "/>
<path style=" stroke:none;fill-rule:nonzero;fill:rgb(87.843137%,40.784314%,18.823529%);fill-opacity:1;" d="M 23.539062 17.300781 C 23.398438 17.640625 23.246094 17.980469 23.058594 18.300781 C 23.011719 18.378906 22.84375 18.386719 22.707031 18.398438 C 22.746094 18.207031 22.808594 18.042969 22.871094 17.875 C 23.085938 17.683594 23.300781 17.492188 23.539062 17.300781 Z M 23.539062 17.300781 "/>
<path style=" stroke:none;fill-rule:nonzero;fill:rgb(86.27451%,41.176471%,20.784314%);fill-opacity:1;" d="M 14.308594 12.496094 C 13.828125 12.40625 13.816406 12.386719 13.835938 11.839844 C 14 12.03125 14.15625 12.253906 14.308594 12.496094 Z M 14.308594 12.496094 "/>
<path style=" stroke:none;fill-rule:nonzero;fill:rgb(78.039216%,42.745098%,29.803922%);fill-opacity:1;" d="M 27.625 12.777344 C 27.539062 12.328125 27.457031 11.851562 27.382812 11.347656 C 27.46875 11.800781 27.546875 12.277344 27.625 12.777344 Z M 27.625 12.777344 "/>
<path style=" stroke:none;fill-rule:nonzero;fill:rgb(85.490196%,42.352941%,23.529412%);fill-opacity:1;" d="M 26.234375 15.375 C 26.234375 15.332031 26.25 15.265625 26.289062 15.246094 C 26.570312 15.109375 26.859375 14.984375 27.164062 14.863281 C 26.964844 15.203125 26.605469 15.277344 26.234375 15.375 Z M 26.234375 15.375 "/>
<path style=" stroke:none;fill-rule:nonzero;fill:rgb(89.411765%,67.45098%,13.333333%);fill-opacity:1;" d="M 22.847656 17.875 C 22.808594 18.042969 22.746094 18.207031 22.683594 18.394531 C 22.625 18.375 22.527344 18.339844 22.515625 18.285156 C 22.492188 18.171875 22.511719 18.046875 22.519531 17.898438 C 22.625 17.875 22.726562 17.875 22.847656 17.875 Z M 22.847656 17.875 "/>
<path style=" stroke:none;fill-rule:nonzero;fill:rgb(85.490196%,42.352941%,23.529412%);fill-opacity:1;" d="M 26.308594 16.421875 C 26.292969 16.4375 26.269531 16.4375 26.226562 16.4375 C 26.207031 16.425781 26.203125 16.414062 26.207031 16.382812 C 26.238281 16.378906 26.269531 16.390625 26.308594 16.421875 Z M 26.308594 16.421875 "/>
<path style=" stroke:none;fill-rule:nonzero;fill:rgb(85.490196%,42.352941%,23.529412%);fill-opacity:1;" d="M 27.324219 14.738281 C 27.316406 14.710938 27.324219 14.671875 27.355469 14.628906 C 27.367188 14.660156 27.355469 14.695312 27.324219 14.738281 Z M 27.324219 14.738281 "/>
<path style=" stroke:none;fill-rule:nonzero;fill:rgb(85.490196%,42.352941%,23.529412%);fill-opacity:1;" d="M 27.394531 14.621094 C 27.386719 14.589844 27.394531 14.554688 27.425781 14.507812 C 27.433594 14.539062 27.421875 14.578125 27.394531 14.621094 Z M 27.394531 14.621094 "/>
<path style=" stroke:none;fill-rule:nonzero;fill:rgb(97.254902%,74.509804%,12.941176%);fill-opacity:1;" d="M 21.507812 8.039062 C 21.472656 8.03125 21.441406 8.003906 21.421875 7.957031 C 21.457031 7.964844 21.484375 7.992188 21.507812 8.039062 Z M 21.507812 8.039062 "/>
<path style=" stroke:none;fill-rule:nonzero;fill:rgb(85.490196%,42.352941%,23.529412%);fill-opacity:1;" d="M 27.460938 14.5 C 27.453125 14.46875 27.464844 14.433594 27.496094 14.386719 C 27.5 14.414062 27.488281 14.453125 27.460938 14.5 Z M 27.460938 14.5 "/>
<path style=" stroke:none;fill-rule:nonzero;fill:rgb(97.254902%,74.509804%,12.941176%);fill-opacity:1;" d="M 21.566406 8.109375 C 21.554688 8.113281 21.535156 8.101562 21.507812 8.074219 C 21.523438 8.066406 21.542969 8.078125 21.566406 8.109375 Z M 21.566406 8.109375 "/>
<path style=" stroke:none;fill-rule:nonzero;fill:rgb(87.843137%,40.784314%,18.823529%);fill-opacity:1;" d="M 23.613281 17.234375 C 23.625 17.25 23.613281 17.273438 23.578125 17.304688 C 23.570312 17.289062 23.582031 17.265625 23.613281 17.234375 Z M 23.613281 17.234375 "/>
<path style=" stroke:none;fill-rule:nonzero;fill:rgb(85.490196%,42.352941%,23.529412%);fill-opacity:1;" d="M 27.203125 14.875 C 27.191406 14.847656 27.199219 14.824219 27.226562 14.804688 C 27.238281 14.832031 27.230469 14.851562 27.203125 14.875 Z M 27.203125 14.875 "/>
<path style=" stroke:none;fill-rule:nonzero;fill:rgb(89.803922%,41.176471%,18.431373%);fill-opacity:1;" d="M 13.179688 8.050781 C 13.164062 8.054688 13.144531 8.046875 13.121094 8.019531 C 13.136719 8.011719 13.15625 8.023438 13.179688 8.050781 Z M 13.179688 8.050781 "/>
<path style=" stroke:none;fill-rule:nonzero;fill:rgb(85.490196%,42.352941%,23.529412%);fill-opacity:1;" d="M 27.265625 14.808594 C 27.253906 14.785156 27.257812 14.761719 27.289062 14.742188 C 27.300781 14.765625 27.292969 14.789062 27.265625 14.808594 Z M 27.265625 14.808594 "/>
<path style=" stroke:none;fill-rule:nonzero;fill:rgb(99.607843%,99.607843%,99.607843%);fill-opacity:1;" d="M 29.632812 19.996094 C 29.703125 20.1875 29.808594 20.378906 29.828125 20.574219 C 30.015625 22.46875 30.191406 24.367188 30.359375 26.265625 C 30.367188 26.375 30.304688 26.550781 30.21875 26.601562 C 28.910156 27.390625 27.492188 27.6875 25.941406 27.507812 C 25.941406 26.875 25.941406 26.261719 25.941406 25.648438 C 25.941406 25.335938 25.941406 25.027344 25.941406 24.714844 C 25.941406 24.449219 25.816406 24.28125 25.558594 24.214844 C 25.480469 24.191406 25.402344 24.160156 25.332031 24.121094 C 24.945312 23.90625 24.617188 24.089844 24.613281 24.535156 C 24.605469 25.429688 24.597656 26.324219 24.617188 27.222656 C 24.621094 27.476562 24.535156 27.617188 24.320312 27.734375 C 22.042969 28.996094 19.648438 29.351562 17.113281 28.699219 C 16.875 28.640625 16.78125 28.542969 16.785156 28.28125 C 16.804688 27.039062 16.792969 25.800781 16.792969 24.5625 C 16.792969 24.113281 16.300781 23.675781 15.855469 23.722656 C 15.605469 23.75 15.453125 23.945312 15.453125 24.265625 C 15.445312 25.128906 15.449219 25.996094 15.449219 26.859375 C 15.449219 27.265625 15.425781 27.671875 15.457031 28.078125 C 15.484375 28.382812 15.355469 28.488281 15.089844 28.578125 C 13.9375 28.972656 12.753906 29.085938 11.546875 28.988281 C 10.257812 28.886719 9.03125 28.558594 7.898438 27.90625 C 7.707031 27.792969 7.625 27.675781 7.628906 27.441406 C 7.644531 26.558594 7.628906 25.671875 7.636719 24.785156 C 7.640625 24.46875 7.53125 24.265625 7.203125 24.203125 C 7.15625 24.195312 7.105469 24.175781 7.0625 24.152344 C 6.597656 23.898438 6.304688 24.078125 6.304688 24.613281 C 6.300781 25.539062 6.300781 26.464844 6.300781 27.46875 C 5.808594 27.5 5.328125 27.558594 4.84375 27.550781 C 3.875 27.539062 2.949219 27.324219 2.097656 26.839844 C 1.929688 26.746094 1.859375 26.644531 1.878906 26.445312 C 2.027344 24.828125 2.164062 23.210938 2.339844 21.570312 C 3.121094 21.574219 3.867188 21.597656 4.617188 21.625 C 5.207031 21.648438 5.816406 21.601562 6.386719 21.722656 C 7.710938 22.003906 9.042969 22.074219 10.386719 22.046875 C 11.394531 22.027344 12.40625 22.074219 13.394531 21.8125 C 13.613281 21.753906 13.839844 21.699219 14.0625 21.679688 C 14.808594 21.621094 15.558594 21.539062 16.304688 21.539062 C 17.949219 21.53125 19.519531 20.859375 21.179688 21.019531 C 21.199219 21.023438 21.21875 21.015625 21.238281 21.015625 C 22.066406 20.933594 22.890625 20.820312 23.722656 20.96875 C 23.921875 21.003906 24.140625 20.988281 24.34375 20.953125 C 25.53125 20.757812 26.714844 20.550781 27.898438 20.335938 C 28.476562 20.234375 29.054688 20.109375 29.632812 19.996094 Z M 29.632812 19.996094 "/>
<path style=" stroke:none;fill-rule:nonzero;fill:rgb(98.039216%,74.117647%,10.588235%);fill-opacity:1;" d="M 29.628906 19.976562 C 29.054688 20.109375 28.476562 20.234375 27.898438 20.335938 C 26.714844 20.550781 25.53125 20.757812 24.34375 20.953125 C 24.140625 20.988281 23.921875 21.003906 23.722656 20.96875 C 22.890625 20.820312 22.066406 20.933594 21.238281 21.015625 C 21.21875 21.015625 21.199219 21.023438 21.179688 21.019531 C 19.519531 20.859375 17.949219 21.53125 16.304688 21.539062 C 15.558594 21.539062 14.808594 21.621094 14.0625 21.679688 C 13.839844 21.699219 13.613281 21.753906 13.394531 21.8125 C 12.40625 22.074219 11.394531 22.027344 10.386719 22.046875 C 9.042969 22.074219 7.710938 22.003906 6.386719 21.722656 C 5.816406 21.601562 5.207031 21.648438 4.617188 21.625 C 3.867188 21.597656 3.121094 21.574219 2.347656 21.542969 C 2.351562 21.273438 2.378906 21.003906 2.414062 20.734375 C 2.511719 19.972656 3.035156 19.507812 3.8125 19.507812 C 7.777344 19.507812 11.746094 19.515625 15.714844 19.515625 C 20.003906 19.515625 24.292969 19.511719 28.585938 19.503906 C 29 19.503906 29.371094 19.585938 29.628906 19.976562 Z M 29.628906 19.976562 "/>
<path style=" stroke:none;fill-rule:nonzero;fill:rgb(97.647059%,74.117647%,10.196078%);fill-opacity:1;" d="M 21.160156 14.253906 C 20.375 14.558594 19.605469 14.839844 18.828125 15.109375 C 18.742188 15.140625 18.621094 15.132812 18.527344 15.101562 C 17.960938 14.90625 17.390625 14.707031 16.828125 14.492188 C 16.75 14.460938 16.648438 14.339844 16.648438 14.257812 C 16.636719 13.019531 16.640625 11.78125 16.644531 10.542969 C 16.644531 10.515625 16.660156 10.484375 16.675781 10.441406 C 18.160156 10.441406 19.644531 10.441406 21.171875 10.441406 C 21.171875 11.707031 21.171875 12.96875 21.160156 14.253906 Z M 21.160156 14.253906 "/>
<path style=" stroke:none;fill-rule:nonzero;fill:rgb(89.803922%,39.215686%,15.686275%);fill-opacity:1;" d="M 11.375 18.429688 C 10.0625 18.429688 8.78125 18.425781 7.503906 18.433594 C 7.246094 18.4375 7.042969 18.375 6.847656 18.210938 C 6.585938 17.992188 6.304688 17.796875 5.972656 17.546875 C 9.410156 17.546875 12.777344 17.546875 16.25 17.546875 C 16.023438 17.71875 15.84375 17.828125 15.699219 17.96875 C 15.296875 18.363281 14.832031 18.464844 14.277344 18.441406 C 13.324219 18.402344 12.363281 18.429688 11.375 18.429688 Z M 11.375 18.429688 "/>
<path style=" stroke:none;fill-rule:nonzero;fill:rgb(96.470588%,73.333333%,10.588235%);fill-opacity:1;" d="M 17.371094 16.445312 C 17.144531 16.429688 16.921875 16.414062 16.667969 16.398438 C 16.667969 16.113281 16.667969 15.835938 16.667969 15.519531 C 17.21875 15.710938 17.765625 15.886719 18.304688 16.09375 C 18.773438 16.273438 19.226562 16.289062 19.699219 16.105469 C 20.171875 15.925781 20.65625 15.773438 21.160156 15.597656 C 21.160156 16.554688 21.160156 17.472656 21.160156 18.410156 C 19.890625 18.410156 18.632812 18.410156 17.324219 18.410156 C 17.625 18.160156 17.890625 17.941406 18.1875 17.699219 C 18.226562 17.65625 18.234375 17.636719 18.242188 17.613281 C 18.242188 17.613281 18.242188 17.621094 18.261719 17.609375 C 18.5 17.167969 18.476562 16.851562 18.199219 16.613281 C 17.953125 16.40625 17.664062 16.433594 17.371094 16.445312 Z M 17.371094 16.445312 "/>
<path style=" stroke:none;fill-rule:nonzero;fill:rgb(97.254902%,74.117647%,10.196078%);fill-opacity:1;" d="M 20.734375 8.898438 C 20.8125 9.03125 20.882812 9.144531 20.972656 9.296875 C 19.621094 9.296875 18.316406 9.296875 16.925781 9.296875 C 17.113281 9.070312 17.253906 8.871094 17.425781 8.703125 C 17.570312 8.558594 17.746094 8.4375 17.914062 8.316406 C 18.230469 8.097656 18.375 7.792969 18.371094 7.410156 C 18.371094 6.871094 18.371094 6.332031 18.371094 5.765625 C 18.726562 5.765625 19.0625 5.765625 19.445312 5.765625 C 19.445312 6.179688 19.46875 6.605469 19.441406 7.023438 C 19.402344 7.597656 19.648438 7.996094 20.09375 8.324219 C 20.316406 8.488281 20.511719 8.695312 20.734375 8.898438 Z M 20.734375 8.898438 "/>
<path style=" stroke:none;fill-rule:nonzero;fill:rgb(91.764706%,39.607843%,14.901961%);fill-opacity:1;" d="M 26.363281 13.3125 C 26.308594 14.019531 25.605469 14.445312 25 14.144531 C 24.738281 14.015625 24.671875 13.738281 24.707031 13.46875 C 24.816406 12.710938 24.9375 11.949219 25.066406 11.191406 C 25.078125 11.125 25.160156 11.019531 25.21875 11.015625 C 25.4375 10.992188 25.660156 10.984375 25.871094 11.019531 C 25.945312 11.03125 26.03125 11.183594 26.050781 11.28125 C 26.164062 11.949219 26.261719 12.617188 26.363281 13.3125 Z M 26.363281 13.3125 "/>
<path style=" stroke:none;fill-rule:nonzero;fill:rgb(91.764706%,39.607843%,14.901961%);fill-opacity:1;" d="M 10.648438 16.429688 C 10.542969 16.421875 10.464844 16.417969 10.300781 16.40625 C 11.25 15.476562 12.21875 14.695312 13.292969 13.949219 C 13.292969 14.792969 13.292969 15.59375 13.292969 16.429688 C 12.417969 16.429688 11.546875 16.429688 10.648438 16.429688 Z M 10.648438 16.429688 "/>
<path style=" stroke:none;fill-rule:nonzero;fill:rgb(89.411765%,39.215686%,15.686275%);fill-opacity:1;" d="M 10.117188 10.921875 C 10.261719 10.390625 10.40625 9.886719 10.546875 9.382812 C 10.582031 9.386719 10.617188 9.390625 10.65625 9.394531 C 10.800781 9.976562 11.15625 10.5 10.761719 11.171875 C 10.414062 11.765625 10.207031 12.441406 9.9375 13.082031 C 9.886719 13.203125 9.832031 13.316406 9.777344 13.433594 C 9.742188 13.425781 9.707031 13.417969 9.671875 13.40625 C 9.816406 12.585938 9.964844 11.769531 10.117188 10.921875 Z M 10.117188 10.921875 "/>
<path style=" stroke:none;fill-rule:nonzero;fill:rgb(97.647059%,74.117647%,10.196078%);fill-opacity:1;" d="M 18.371094 3.75 C 18.371094 3.492188 18.371094 3.265625 18.371094 3.015625 C 18.722656 3.015625 19.0625 3.015625 19.445312 3.015625 C 19.445312 3.265625 19.445312 3.53125 19.445312 3.796875 C 19.445312 4.054688 19.445312 4.3125 19.445312 4.597656 C 19.097656 4.597656 18.761719 4.597656 18.371094 4.597656 C 18.371094 4.332031 18.371094 4.054688 18.371094 3.75 Z M 18.371094 3.75 "/>
<path style=" stroke:none;fill-rule:nonzero;fill:rgb(89.411765%,39.215686%,15.686275%);fill-opacity:1;" d="M 11.148438 13.796875 C 11.566406 12.78125 11.980469 11.785156 12.394531 10.789062 C 12.429688 10.792969 12.464844 10.800781 12.5 10.808594 C 12.5 11.097656 12.5 11.382812 12.5 11.671875 C 12.496094 12.070312 12.613281 12.519531 12.457031 12.839844 C 12.300781 13.160156 11.875 13.347656 11.5625 13.582031 C 11.433594 13.675781 11.285156 13.742188 11.148438 13.796875 Z M 11.148438 13.796875 "/>
<path style=" stroke:none;fill-rule:nonzero;fill:rgb(89.411765%,39.215686%,15.686275%);fill-opacity:1;" d="M 26.238281 18.429688 C 25.652344 18.429688 25.09375 18.429688 24.527344 18.429688 C 24.699219 17.976562 25.199219 17.640625 25.644531 17.648438 C 26.101562 17.65625 26.476562 17.9375 26.632812 18.429688 C 26.5 18.429688 26.382812 18.429688 26.238281 18.429688 Z M 26.238281 18.429688 "/>
<path style=" stroke:none;fill-rule:nonzero;fill:rgb(86.666667%,40%,16.470588%);fill-opacity:1;" d="M 17.386719 16.460938 C 17.664062 16.433594 17.953125 16.40625 18.199219 16.613281 C 18.476562 16.851562 18.5 17.167969 18.257812 17.609375 C 18.308594 16.96875 18.25 16.875 17.621094 16.59375 C 17.546875 16.558594 17.476562 16.515625 17.386719 16.460938 Z M 17.386719 16.460938 "/>
<path style=" stroke:none;fill-rule:nonzero;fill:rgb(92.156863%,71.372549%,14.509804%);fill-opacity:1;" d="M 17.652344 1.902344 C 17.644531 1.875 17.660156 1.828125 17.679688 1.828125 C 18.363281 1.835938 19.046875 1.84375 19.738281 1.875 C 19.0625 1.898438 18.371094 1.902344 17.652344 1.902344 Z M 17.652344 1.902344 "/>
<path style=" stroke:none;fill-rule:nonzero;fill:rgb(86.666667%,40%,16.470588%);fill-opacity:1;" d="M 18.226562 17.621094 C 18.234375 17.636719 18.226562 17.65625 18.203125 17.683594 C 18.195312 17.667969 18.203125 17.648438 18.226562 17.621094 Z M 18.226562 17.621094 "/>
</g>
</svg>
