<svg xmlns="http://www.w3.org/2000/svg" width="18" height="24.329" viewBox="0 0 18 24.329">
  <g id="Group_3906" data-name="Group 3906" transform="translate(-247 -639)">
    <g id="Group_3905" data-name="Group 3905">
      <line id="Line_474" data-name="Line 474" x2="3" transform="translate(254.5 648.5)" fill="none" stroke="#f06724" stroke-width="2"/>
      <g id="Path_21339" data-name="Path 21339" transform="translate(247 639)" fill="none">
        <path d="M9,0a9,9,0,0,1,9,9c0,4.971-8.456,15.727-9,15.318S0,13.971,0,9A9,9,0,0,1,9,0Z" stroke="none"/>
        <path d="M 9 1.999998092651367 C 5.140190124511719 1.999998092651367 2 5.140188217163086 2 8.999997138977051 C 2 9.739467620849609 2.366169929504395 11.99584770202637 5.757829666137695 16.96491813659668 C 6.969415664672852 18.739990234375 8.242127418518066 20.3718376159668 9.144264221191406 21.46663093566895 C 10.02999877929688 20.41119956970215 11.30092906951904 18.73560905456543 12.57275009155273 16.7545166015625 C 14.71879005432129 13.41168785095215 16 10.51279735565186 16 8.999997138977051 C 16 5.140188217163086 12.85980987548828 1.999998092651367 9 1.999998092651367 M 9 -1.9073486328125e-06 C 13.97056007385254 -1.9073486328125e-06 18 4.029438018798828 18 8.999997138977051 C 18 13.87802696228027 9.855828285217285 24.32900619506836 9.03847599029541 24.32900619506836 C 9.022971153259277 24.32900619506836 9.010126113891602 24.32525444030762 9 24.317626953125 C 8.456049919128418 23.90795707702637 0 13.97055721282959 0 8.999997138977051 C 0 4.029438018798828 4.029439926147461 -1.9073486328125e-06 9 -1.9073486328125e-06 Z" stroke="none" fill="#f06724"/>
      </g>
    </g>
  </g>
</svg>
