<svg xmlns="http://www.w3.org/2000/svg" width="29.173" height="32.812" viewBox="0 0 29.173 32.812">
                                <g id="Group_3955" data-name="Group 3955" transform="translate(-415.566 -1751.361)">
                                    <g id="Group_3954" data-name="Group 3954" transform="translate(415.566 1751.361)">
                                        <rect id="Rectangle_2018" data-name="Rectangle 2018" width="24" height="18" rx="3" transform="translate(3.434 25.639) rotate(-90)" fill="#fcbf19"></rect>
                                        <circle id="Ellipse_4226" data-name="Ellipse 4226" cx="5.5" cy="5.5" r="5.5" transform="translate(15.434 18.639)" fill="#f06724"></circle>
                                        <g id="_004-checked-files" data-name="004-checked-files">
                                            <path id="Path_21395" data-name="Path 21395" d="M30.264,27.473a.557.557,0,0,1-.556-.556V6.45a.557.557,0,0,1,.556-.556H44.486a.556.556,0,0,1,.556.556V16.793a8.858,8.858,0,0,1,2.2-.637V6.45A2.758,2.758,0,0,0,44.486,3.7H33.4V2.754a.556.556,0,0,1,.556-.556H48.178a.557.557,0,0,1,.556.556v13.29a8.726,8.726,0,0,1,2.2.314V2.754A2.757,2.757,0,0,0,48.178,0H33.955A2.757,2.757,0,0,0,31.2,2.754V3.7h-.937A2.758,2.758,0,0,0,27.509,6.45V26.917a2.758,2.758,0,0,0,2.755,2.755H41.035a8.892,8.892,0,0,1-.987-2.2H30.264Z" transform="translate(-27.509)" fill="#152e71"></path>
                                            <path id="Path_21396" data-name="Path 21396" d="M104.606,144.877h5.72a1.1,1.1,0,0,0,0-2.2h-5.72a1.1,1.1,0,1,0,0,2.2Z" transform="translate(-98.481 -133.242)" fill="#152e71"></path>
                                            <path id="Path_21397" data-name="Path 21397" d="M112.087,209.217h-7.48a1.1,1.1,0,1,0,0,2.2h7.48a1.1,1.1,0,0,0,0-2.2Z" transform="translate(-98.481 -195.38)" fill="#152e71"></path>
                                            <path id="Path_21398" data-name="Path 21398" d="M113.079,276.376a1.094,1.094,0,0,0-.992-.642h-7.48a1.1,1.1,0,0,0,0,2.2h7.3A8.985,8.985,0,0,1,113.079,276.376Z" transform="translate(-98.481 -257.498)" fill="#152e71"></path>
                                            <path id="Path_21399" data-name="Path 21399" d="M103.507,343.355a1.1,1.1,0,0,0,1.1,1.1h6.059a8.9,8.9,0,0,1,.313-2.2h-6.373A1.1,1.1,0,0,0,103.507,343.355Z" transform="translate(-98.481 -319.62)" fill="#152e71"></path>
                                            <path id="Path_21400" data-name="Path 21400" d="M242.016,265.439a6.116,6.116,0,1,1-3.5-4.11l.91-1.462a7.867,7.867,0,1,0,3.74,3.729Z" transform="translate(-214.976 -241.975)" fill="#152e71"></path>
                                            <path id="Path_21401" data-name="Path 21401" d="M286.772,242.655a1.43,1.43,0,0,0-1.969.457l-5.683,9.134-1.9-2.716a1.429,1.429,0,0,0-2.34,1.642l3.144,4.485a1.431,1.431,0,0,0,1.171.608h.039a1.431,1.431,0,0,0,1.175-.673l6.825-10.969A1.429,1.429,0,0,0,286.772,242.655Z" transform="translate(-258.272 -226.405)" fill="#152e71"></path>
                                        </g>
                                    </g>
                                </g>
                            </svg>