<svg xmlns="http://www.w3.org/2000/svg" width="32.781" height="32.781" viewBox="0 0 32.781 32.781">
                                <g id="Group_3873" data-name="Group 3873" transform="translate(-833 -169.219)">
                                    <path id="Path_21333" data-name="Path 21333" d="M11.406,1.544c4.613,2.941,6.79,2.881,6.79,2.881S24.812,2.871,24.812,6.4v5.477c0,3.529-4.454,0-8.119,0,0,0-5.173,7.807-9.514,7.43a7.353,7.353,0,0,1-6.821-7.43V5C1.81.4,6.793-1.4,11.406,1.544Z" transform="translate(837.835 196.161) rotate(-90)" fill="#f06724"></path>
                                    <rect id="Rectangle_1963" data-name="Rectangle 1963" width="9" height="15" rx="4.5" transform="translate(853.002 184)" fill="#fcbf19"></rect>
                                    <g id="_010-money-bag" data-name="010-money-bag" transform="translate(833 169.219)">
                                        <path id="Path_21324" data-name="Path 21324" d="M153.721,251.885a.962.962,0,0,1-.96-.96.96.96,0,0,0-1.921,0,2.886,2.886,0,0,0,1.931,2.719v.841a.96.96,0,0,0,1.921,0v-.848a2.881,2.881,0,0,0-.971-5.593.96.96,0,1,1,.96-.96.96.96,0,0,0,1.921,0,2.886,2.886,0,0,0-1.91-2.713v-1.41a.96.96,0,1,0-1.921,0v1.4a2.881,2.881,0,0,0,.95,5.6.96.96,0,1,1,0,1.921Zm0,0" transform="translate(-141.182 -226.506)" fill="#152e71"></path>
                                        <path id="Path_21325" data-name="Path 21325" d="M3.915,31.212c2,1.07,4.742,1.568,8.634,1.568a21.208,21.208,0,0,0,7.4-1.026,2.876,2.876,0,0,0,2.2,1.026H29.9a2.879,2.879,0,0,0,2.145-4.8,2.874,2.874,0,0,0,0-3.841,2.874,2.874,0,0,0,0-3.841,2.879,2.879,0,0,0-2.145-4.8H22.153c-.094,0-.186,0-.277.014a13.152,13.152,0,0,0-3.338-2.9,2.878,2.878,0,0,0-.914-4.522l1.6-4.91a.961.961,0,0,0-.913-1.258H15.265a2.881,2.881,0,0,0-5.433,0H6.787a.961.961,0,0,0-.913,1.258l1.6,4.91a2.878,2.878,0,0,0-.913,4.523A13.7,13.7,0,0,0,0,24.137C0,27.441,1.317,29.822,3.915,31.212Zm26.946-9a.962.962,0,0,1-.96.96H22.153a.96.96,0,1,1,0-1.921H29.9A.962.962,0,0,1,30.86,22.217Zm0,3.841a.962.962,0,0,1-.96.96H22.153a.96.96,0,1,1,0-1.921H29.9A.962.962,0,0,1,30.86,26.058Zm-.96,4.8H22.153a.96.96,0,1,1,0-1.921H29.9a.96.96,0,1,1,0,1.921Zm.96-12.485a.962.962,0,0,1-.96.96H22.153a.96.96,0,1,1,0-1.921H29.9A.962.962,0,0,1,30.86,18.375Zm-14.5-6.723H8.707a.96.96,0,0,1,0-1.92h7.689a.96.96,0,0,1,0,1.92h-.028ZM10.628,3.841a.96.96,0,0,0,.96-.96.96.96,0,0,1,1.921,0V4.8a.96.96,0,0,0,1.921,0v-.96h1.558l-1.295,3.97H9.4L8.11,3.841ZM8.895,13.573h7.3a10.853,10.853,0,0,1,3.885,2.8,2.874,2.874,0,0,0-.077,3.924,2.874,2.874,0,0,0,0,3.841,2.874,2.874,0,0,0,0,3.841,2.87,2.87,0,0,0-.736,1.921c0,.02,0,.039,0,.059a19.409,19.409,0,0,1-6.724.9c-3.563,0-6.019-.426-7.728-1.341-1.979-1.059-2.9-2.769-2.9-5.382A11.652,11.652,0,0,1,8.895,13.573Zm0,0" fill="#152e71"></path>
                                    </g>
                                </g>
                            </svg>