<svg xmlns="http://www.w3.org/2000/svg" width="35.1" height="30.22" viewBox="0 0 35.1 30.22">
                                <g id="Group_3991" data-name="Group 3991" transform="translate(-1686.64 -1417.263)">
                                    <g id="Group_3990" data-name="Group 3990">
                                        <path id="Path_21414" data-name="Path 21414" d="M4.088,0h6.772c2.338,0,4.232,2.172,4.232,4.852l-.577,4.679c0,2.68-5.531-.838-9.035,2.8a10.6,10.6,0,0,0-2.809,8.294C-3.21,25.776-.145,8.5-.145,5.822v-.97C-.145,2.172,1.75,0,4.088,0Z" transform="translate(1693.661 1442.69) rotate(-90)" fill="#fcbf19"></path>
                                        <circle id="Ellipse_4227" data-name="Ellipse 4227" cx="6" cy="6" r="6" transform="translate(1708 1426)" fill="#f06724"></circle>
                                        <path id="Subtraction_19" data-name="Subtraction 19" d="M15021.141-8790.979h-28.263a.88.88,0,0,1-.879-.879v-9.381a.87.87,0,0,1,.366-.713.887.887,0,0,1,.52-.168.9.9,0,0,1,.272.043l2.361.789v-3.471a.88.88,0,0,1,.879-.879h.879v-4.986a.88.88,0,0,1,.879-.879h2.7v-.879a6.152,6.152,0,0,1,1.522-4.048,6.175,6.175,0,0,1,3.759-2.047v-1.645a.88.88,0,0,1,.879-.879.88.88,0,0,1,.879.879v1.645a6.178,6.178,0,0,1,5.142,4.813,10.551,10.551,0,0,0-1.623,1.3v-.021a4.4,4.4,0,0,0-4.4-4.4,4.4,4.4,0,0,0-4.4,4.4v.879h8.013a10.615,10.615,0,0,0-1.165,1.758h-10.423v4.107h1.813v-1.467a.882.882,0,0,1,.883-.879.88.88,0,0,1,.879.879v1.467h1.758v-1.467a.882.882,0,0,1,.883-.879.88.88,0,0,1,.879.879v1.467h1.758v-1.467a.876.876,0,0,1,.84-.878,10.523,10.523,0,0,0-.471,3.118c0,.325.016.656.046.984h-11.029v3.176l2.915.974a.876.876,0,0,1,.6.833v6.16h2.4v-8.5a.884.884,0,0,1,.883-.883h4.54a10.531,10.531,0,0,0,2.2,4.132v5.253h2.406v-3.2a10.418,10.418,0,0,0,1.758.874v2.325h1.758v-1.819a10.539,10.539,0,0,0,1.761.19v1.629h1.758v-1.732a10.432,10.432,0,0,0,1.762-.41v3.021A.882.882,0,0,1,15021.141-8790.979Zm-16.182-9.381v7.623h4.1v-7.623Zm-8.562,2.931a.88.88,0,0,1,.879.879v3.813h1.762v-5.526l-5.281-1.758v7.284h1.762v-3.813A.88.88,0,0,1,14996.4-8797.429Z" transform="translate(-13305.26 10238.361)" fill="#152e71" stroke="#152e71" stroke-width="0.2"></path>
                                        <path id="Union_147" data-name="Union 147" d="M14992-8812.059a7.844,7.844,0,0,1,7.838-7.838,7.776,7.776,0,0,1,3.33.753l-.908,1.462a6.119,6.119,0,0,0-2.422-.5,6.128,6.128,0,0,0-6.124,6.124,6.127,6.127,0,0,0,6.124,6.12,6.127,6.127,0,0,0,6.121-6.12,6.109,6.109,0,0,0-.2-1.515l1.146-1.842a7.793,7.793,0,0,1,.765,3.356,7.843,7.843,0,0,1-7.835,7.834A7.843,7.843,0,0,1,14992-8812.059Zm7.643,4.885a1.437,1.437,0,0,1-1.176-.609l-3.141-4.482a1.431,1.431,0,0,1,.346-1.993,1.427,1.427,0,0,1,.821-.26,1.427,1.427,0,0,1,1.172.61l1.905,2.716,5.684-9.134a1.417,1.417,0,0,1,1.213-.674,1.445,1.445,0,0,1,.754.214,1.432,1.432,0,0,1,.459,1.971l-6.824,10.968a1.442,1.442,0,0,1-1.176.674Z" transform="translate(-13286.157 10245.396)" fill="#152e71"></path>
                                    </g>
                                </g>
                            </svg>