<svg xmlns="http://www.w3.org/2000/svg" width="35.002" height="32.781" viewBox="0 0 35.002 32.781">
                                <g id="Group_3869" data-name="Group 3869" transform="translate(-590 -169.219)">
                                    <rect id="Rectangle_1957" data-name="Rectangle 1957" width="9" height="13" rx="4.5" transform="translate(593.002 181)" fill="#f06724"></rect>
                                    <rect id="Rectangle_1959" data-name="Rectangle 1959" width="9" height="13" rx="4.5" transform="translate(616.002 181)" fill="#fcbf19"></rect>
                                    <g id="_005-headset" data-name="005-headset" transform="translate(590 169.219)">
                                        <g id="Group_3863" data-name="Group 3863">
                                            <g id="Group_3862" data-name="Group 3862">
                                                <path id="Path_21317" data-name="Path 21317" d="M7.683,13H5.153A11.271,11.271,0,0,1,26.963,9.92a1.281,1.281,0,0,0,2.4-.889,13.831,13.831,0,0,0-26.8,4.654A5.124,5.124,0,0,0,0,18.119v4.354a5.128,5.128,0,0,0,5.122,5.122H7.683a1.28,1.28,0,0,0,1.281-1.28V14.278A1.28,1.28,0,0,0,7.683,13ZM6.4,25.034H5.122a2.564,2.564,0,0,1-2.561-2.561V18.119a2.564,2.564,0,0,1,2.561-2.561H6.4Z" fill="#152e71"></path>
                                                <path id="Path_21318" data-name="Path 21318" d="M229.829,203h-2.561a1.28,1.28,0,0,0-1.281,1.281v13.381a1.282,1.282,0,0,1-1.281,1.28H220.8v.041a2.561,2.561,0,1,0,0,2.48v.041h3.906a3.846,3.846,0,0,0,3.842-3.841V217.6h1.281a5.128,5.128,0,0,0,5.122-5.122v-4.354A5.128,5.128,0,0,0,229.829,203Zm2.561,9.476a2.564,2.564,0,0,1-2.561,2.561h-1.281v-9.476h1.281a2.564,2.564,0,0,1,2.561,2.561Z" transform="translate(-202.171 -190.003)" fill="#152e71"></path>
                                            </g>
                                        </g>
                                    </g>
                                </g>
                            </svg>