<svg xmlns="http://www.w3.org/2000/svg" width="29.5" height="29.5" viewBox="0 0 29.5 29.5">
                                <g id="Group_3874" data-name="Group 3874" transform="translate(-897 -172.5)">
                                    <path id="Path_21334" data-name="Path 21334" d="M6.957.553,12.63,0c2.84,0,5.143,1.888,5.143,4.217v4.92c0,2.329-2.3,4.217-5.143,4.217H.934c-2.84,0-2.511-2.326-2.511-4.655L-.56,6.1C1.635,2.94,4.117.553,6.957.553Z" transform="translate(905.002 186.93)" fill="#f06724"></path>
                                    <rect id="Rectangle_1966" data-name="Rectangle 1966" width="11" height="11" rx="5.5" transform="translate(915 191)" fill="#fcbf19"></rect>
                                    <rect id="Rectangle_1964" data-name="Rectangle 1964" width="12" height="12" rx="6" transform="translate(909.002 173)" fill="#f06724"></rect>
                                    <path id="_011-block-user-1" data-name="011-block-user-1" d="M14.058,27.2H3.5a1.171,1.171,0,0,1-.922-.438,1.2,1.2,0,0,1-.244-1.009A12.732,12.732,0,0,1,14.456,15.666c.1,0,.2.006.294.006a7.843,7.843,0,1,0-4.687-1.56A14.985,14.985,0,0,0,.074,25.278,3.5,3.5,0,0,0,3.5,29.5H14.058a1.152,1.152,0,1,0,0-2.3ZM9.218,7.836a5.531,5.531,0,1,1,5.662,5.53,1.143,1.143,0,0,0-.131-.008l-.27,0A5.538,5.538,0,0,1,9.218,7.836Zm17.745,11.89v-.943a3.458,3.458,0,0,0-6.914,0v.943a2.885,2.885,0,0,0-2.534,2.859v5.762A1.152,1.152,0,0,0,18.668,29.5h9.68A1.152,1.152,0,0,0,29.5,28.347V22.585A2.885,2.885,0,0,0,26.964,19.726Zm-3.457-2.037a1.126,1.126,0,0,1,1.152,1.094V19.7h-2.3v-.922A1.126,1.126,0,0,1,23.506,17.688Zm3.688,9.506H19.82V22.585a.577.577,0,0,1,.576-.576h6.223a.577.577,0,0,1,.576.576Zm0,0" transform="translate(897 172.5)" fill="#152e71"></path>
                                </g>
                            </svg>