<svg xmlns="http://www.w3.org/2000/svg" width="29.116" height="29.116" viewBox="0 0 29.116 29.116">
                                <g id="Group_3960" data-name="Group 3960" transform="translate(-334.759 -1751.261)">
                                    <g id="Group_3959" data-name="Group 3959" transform="translate(334.86 1751.361)">
                                        <g id="Group_3958" data-name="Group 3958">
                                            <path id="Path_21403" data-name="Path 21403" d="M7.8,0a8.719,8.719,0,0,1,0,17.437c-4.815,0-4.036-3.9-4.036-8.719S2.99,0,7.8,0Z" transform="translate(10.042 1.754)" fill="#f06724"></path>
                                            <path id="Path_21405" data-name="Path 21405" d="M2.555,0c.516-.082,3.3,1.42,3.3,2.9V9.321A2.167,2.167,0,0,1,3.518,11.7C2.04,11.7.356,8.811.043,6.811S1.22,5.946,2.005,4.3,2.039.085,2.555,0Z" transform="translate(7.714 22.466) rotate(-177)" fill="#fcbf19"></path>
                                            <g id="_003-global" data-name="003-global" transform="translate(0)">
                                                <g id="Group_3949" data-name="Group 3949" transform="translate(1.806)">
                                                    <g id="Group_3948" data-name="Group 3948">
                                                        <path id="Path_21392" data-name="Path 21392" d="M35.606,0A3.615,3.615,0,1,0,39.22,3.615,3.618,3.618,0,0,0,35.606,0Zm0,5.422a1.807,1.807,0,1,1,1.807-1.807A1.81,1.81,0,0,1,35.606,5.422Z" transform="translate(-31.991 0)" fill="#152e71" stroke="#152e71" stroke-width="0.2"></path>
                                                    </g>
                                                </g>
                                                <g id="Group_3951" data-name="Group 3951" transform="translate(0 9.036)">
                                                    <g id="Group_3950" data-name="Group 3950">
                                                        <path id="Path_21393" data-name="Path 21393" d="M10.847,169.85l-.824-8.221A1.8,1.8,0,0,0,8.225,160H7.236a.91.91,0,0,0-.64.264l-1.167,1.167-1.167-1.167a.91.91,0,0,0-.64-.264H2.633a1.8,1.8,0,0,0-1.8,1.627L.012,169.85a.906.906,0,0,0,.9.994H1.9l.741,7.408a1.8,1.8,0,0,0,1.8,1.628H6.419a1.8,1.8,0,0,0,1.8-1.627l.741-7.41h.989a.905.905,0,0,0,.9-.994Zm-2.707-.813a.905.905,0,0,0-.9.813l-.822,8.223H4.44l-.822-8.223a.905.905,0,0,0-.9-.813H1.91l.723-7.229h.616l1.542,1.543a.928.928,0,0,0,1.278,0l1.542-1.543h.616l.723,7.229Z" transform="translate(-0.008 -160)" fill="#152e71" stroke="#152e71" stroke-width="0.2"></path>
                                                    </g>
                                                </g>
                                                <g id="Group_3953" data-name="Group 3953" transform="translate(12.65)">
                                                    <g id="Group_3952" data-name="Group 3952">
                                                        <path id="Path_21394" data-name="Path 21394" d="M225.8,0a8.608,8.608,0,0,0-1.01.06l-.8.094V28.761l.8.094a8.237,8.237,0,0,0,1.01.061A14.458,14.458,0,0,0,225.8,0Zm10.238,7.056a27.411,27.411,0,0,1-4.05,1.276,18.5,18.5,0,0,0-3.734-6.28A12.667,12.667,0,0,1,236.036,7.056ZM225.8,2.14a16.713,16.713,0,0,1,4.374,6.521,28.079,28.079,0,0,1-4.374.376Zm0,8.7a29.722,29.722,0,0,0,4.91-.441,16.307,16.307,0,0,1,0,8.111,29.682,29.682,0,0,0-4.909-.441Zm0,15.933V19.884a29.675,29.675,0,0,1,4.368.387A16.7,16.7,0,0,1,225.8,26.777Zm2.454.089a18.5,18.5,0,0,0,3.727-6.266,27.147,27.147,0,0,1,4.055,1.263A12.655,12.655,0,0,1,228.253,26.865Zm4.234-8.015a18.123,18.123,0,0,0,0-8.785,29.126,29.126,0,0,0,4.522-1.449,12.567,12.567,0,0,1,0,11.684A29,29,0,0,0,232.487,18.85Z" transform="translate(-223.991)" fill="#152e71" stroke="#152e71" stroke-width="0.2"></path>
                                                    </g>
                                                </g>
                                            </g>
                                        </g>
                                    </g>
                                </g>
                            </svg>