<svg xmlns="http://www.w3.org/2000/svg" width="24.319" height="29.639" viewBox="0 0 24.319 29.639">
                                <g id="Group_3957" data-name="Group 3957" transform="translate(-382 -1751.361)">
                                    <g id="Group_3956" data-name="Group 3956" transform="translate(382 1751.361)">
                                        <path id="Path_21404" data-name="Path 21404" d="M4.387,0A4.387,4.387,0,0,1,8.775,4.387c0,2.423-4.864,8.146-3.489,12.521S0,6.811,0,4.387A4.387,4.387,0,0,1,4.387,0Z" transform="translate(6.581 1.798)" fill="#f06724"></path>
                                        <rect id="Rectangle_2017" data-name="Rectangle 2017" width="5" height="17" rx="2.5" transform="translate(2 25.639) rotate(-90)" fill="#fcbf19"></rect>
                                        <g id="_001-stamp" data-name="001-stamp" transform="translate(0)">
                                            <g id="Group_3947" data-name="Group 3947">
                                                <path id="Path_21391" data-name="Path 21391" d="M60.768,19.759l1.214-7.282a6.84,6.84,0,1,0-7.747,0l1.214,7.282h-9.5v7.6h2.28v2.28H67.988v-2.28h2.28v-7.6ZM53.549,6.84a4.56,4.56,0,1,1,7.14,3.759l-.8.549-.159.954-1.276,7.657h-.7L56.484,12.1l-.159-.954-.8-.549A4.565,4.565,0,0,1,53.549,6.84ZM67.988,25.079h-2.28v2.28h-15.2v-2.28h-2.28v-3.04H67.988v3.04Z" transform="translate(-45.949)" fill="#152e71"></path>
                                            </g>
                                        </g>
                                    </g>
                                </g>
                            </svg>