<svg xmlns="http://www.w3.org/2000/svg" width="28.628" height="32.572" viewBox="0 0 28.628 32.572"><g transform="translate(-261 -169.219)"><circle cx="8" cy="8" r="8" transform="translate(273 179)" fill="#f06724"/><circle cx="7" cy="7" r="7" transform="translate(269 171)" fill="#fcbf19"/><g transform="translate(261 169.219)"><path d="M25.129,0H3.5A3.5,3.5,0,0,0,0,3.5V29.073a3.5,3.5,0,0,0,3.5,3.5h21.63a3.5,3.5,0,0,0,3.5-3.5V3.5A3.5,3.5,0,0,0,25.129,0ZM3.5,30.663a1.592,1.592,0,0,1-1.59-1.59V3.5A1.592,1.592,0,0,1,3.5,1.909H21.312A1.592,1.592,0,0,1,22.9,3.5V29.073a1.592,1.592,0,0,1-1.59,1.59Zm23.22-1.59a1.592,1.592,0,0,1-1.59,1.59h-.7a3.477,3.477,0,0,0,.384-1.59V3.5a3.477,3.477,0,0,0-.384-1.59h.7a1.592,1.592,0,0,1,1.59,1.59Zm0,0" fill="#152e71"/><path d="M117.242,340h-9.288a.954.954,0,0,0,0,1.909h9.288a.954.954,0,0,0,0-1.909Zm0,0" transform="translate(-100.193 -318.37)" fill="#152e71"/><path d="M140.061,400h-6.107a.954.954,0,0,0,0,1.909h6.107a.954.954,0,0,0,0-1.909Zm0,0" transform="translate(-124.539 -374.553)" fill="#152e71"/><path d="M90.125,64a7.125,7.125,0,1,0,7.125,7.125A7.133,7.133,0,0,0,90.125,64Zm5.128,6.171H93.344a13.317,13.317,0,0,0-.648-3.582A5.23,5.23,0,0,1,95.253,70.171Zm-5.128,6.165c-.11-.057-.465-.391-.8-1.388a11.5,11.5,0,0,1-.508-2.869h2.613a11.506,11.506,0,0,1-.508,2.869C90.591,75.945,90.235,76.279,90.125,76.336Zm-1.306-6.165a11.5,11.5,0,0,1,.508-2.869c.333-1,.688-1.331.8-1.388.11.057.465.391.8,1.388a11.5,11.5,0,0,1,.508,2.869Zm-1.264-3.582a13.317,13.317,0,0,0-.648,3.582H85A5.23,5.23,0,0,1,87.555,66.588ZM85,72.079h1.909a13.317,13.317,0,0,0,.648,3.582A5.23,5.23,0,0,1,85,72.079Zm7.7,3.582a13.317,13.317,0,0,0,.648-3.582h1.909A5.23,5.23,0,0,1,92.7,75.662Zm0,0" transform="translate(-77.72 -59.929)" fill="#152e71"/></g></g></svg>