<svg xmlns="http://www.w3.org/2000/svg" width="31.251" height="32.781" viewBox="0 0 31.251 32.781">
                                <g id="Group_3880" data-name="Group 3880" transform="translate(-775.999 -673.219)">
                                    <path id="Path_21332" data-name="Path 21332" d="M-14828.186-1400.7h6.436v3.46l-6.436,2.654Z" transform="translate(15629 2083.419)" fill="#f06724"></path>
                                    <g id="Group_3871" data-name="Group 3871" transform="translate(67 504)">
                                        <path id="Path_21331" data-name="Path 21331" d="M-14844.794-1390.166l6.163,5.7,6.52-5.7,1.091.761v8.8H-14851v-4.088a4.126,4.126,0,0,1,2.033-3.409A29.443,29.443,0,0,1-14844.794-1390.166Z" transform="translate(15563 1579)" fill="#fcbf19"></path>
                                        <path id="_007-guide" data-name="007-guide" d="M47.553,16.041V11.228H39.918v8.765a3.456,3.456,0,0,0-2.241,1.854l-1.6-.767a7.052,7.052,0,0,0,1.6-4.481V10.83A7.039,7.039,0,0,0,35.6,5.819a7.141,7.141,0,0,0-1.2-.967V3.81A3.809,3.809,0,0,0,30.627,0h-.075A3.819,3.819,0,0,0,26.78,3.81V4.852a7.141,7.141,0,0,0-1.217.983A7.041,7.041,0,0,0,23.5,10.83V16.6a7.053,7.053,0,0,0,1.6,4.481L20,23.524A5.385,5.385,0,0,0,16.942,28.4v4.385L44.3,32.756V25.979a3.112,3.112,0,0,0,.064-.625v-2.2a3.178,3.178,0,0,0-1.05-2.354,3.525,3.525,0,0,0-1.481-.811V18Zm-5.719-2.9h3.8v1.529l-3.8,1.3Zm-16.414.218a7.034,7.034,0,0,0,4.069-2.027A7.126,7.126,0,0,0,30.59,9.9a7.124,7.124,0,0,0,1.1,1.432,7.034,7.034,0,0,0,4.069,2.027V16.6a5.17,5.17,0,0,1-10.34,0V13.362Zm5.17,10.323a7.045,7.045,0,0,0,3.958-1.211l.77.368L30.639,27.1l-4.766-4.26.758-.363A7.045,7.045,0,0,0,30.59,23.685Zm6.594.049.2.1v1.523a3.12,3.12,0,0,0,.042.51v4.983l-2.591,0-2.763-2.47Zm2.161,4.576a3.673,3.673,0,0,0,3.039.011c0,.038,0,.076,0,.115v2.406l-3.041,0V28.31ZM35.76,10.83v.59a5.186,5.186,0,0,1-4.212-5.079V5.749a5.17,5.17,0,0,1,4.212,5.08ZM28.7,3.81a1.9,1.9,0,0,1,1.88-1.894H30.6a1.894,1.894,0,0,1,1.88,1.894V4a7.105,7.105,0,0,0-1.831-.254q-.063,0-.126,0A7.116,7.116,0,0,0,28.7,4V3.81Zm.936,1.941v.59A5.186,5.186,0,0,1,25.42,11.42v-.59A5.186,5.186,0,0,1,29.632,5.751ZM18.858,28.4a3.508,3.508,0,0,1,1.956-3.14L24,23.732l7.966,7.12-13.109.012V28.4ZM42.45,23.157v2.2a1.588,1.588,0,0,1-3.147,0v-2.2a1.487,1.487,0,0,1,1.562-1.376h.024a1.67,1.67,0,0,1,1.129.43,1.283,1.283,0,0,1,.433.946Z" transform="translate(692.057 169.219)" fill="#152e71"></path>
                                    </g>
                                </g>
                            </svg>