<svg xmlns="http://www.w3.org/2000/svg" width="26.25" height="32.717" viewBox="0 0 26.25 32.717">
                                <g id="Group_3870" data-name="Group 3870" transform="translate(-653 -169.219)">
                                    <rect id="Rectangle_1960" data-name="Rectangle 1960" width="9" height="18" rx="4.5" transform="translate(662.002 181)" fill="#fcbf19"></rect>
                                    <path id="Path_21330" data-name="Path 21330" d="M4.15,0A4.15,4.15,0,0,1,8.3,4.15c-.156,5-3.793,7.284-4.15,7.281S.2,9,0,4.15A4.15,4.15,0,0,1,4.15,0Z" transform="translate(659.002 174.964)" fill="#f06724"></path>
                                    <g id="_006-travel-guide" data-name="006-travel-guide" transform="translate(653 169.219)">
                                        <path id="Path_21319" data-name="Path 21319" d="M75.79,6.4h-8V.96a.96.96,0,0,0-.96-.96H51.46a.96.96,0,0,0-.96.96V25.354a.96.96,0,0,0,.96.96h8s0,5.5,0,5.511a.96.96,0,0,0,.957.892H75.79a.96.96,0,0,0,.96-.96V7.363A.96.96,0,0,0,75.79,6.4ZM61.384,26.314h3.121L61.384,29.43ZM52.421,1.921H65.866V24.393H52.421ZM74.83,30.8H62.735l4.771-4.764a.972.972,0,0,0,.28-.678V8.323h7.043V30.8Z" transform="translate(-50.5)" fill="#152e71" fill-rule="evenodd"></path>
                                        <path id="Path_21320" data-name="Path 21320" d="M119.668,114.834a4.834,4.834,0,0,0-9.668,0c0,1.589,1.244,3.9,1.779,4.822,1.867,3.213,2.73,3.213,3.055,3.213s1.188,0,3.055-3.213C118.424,118.736,119.668,116.423,119.668,114.834Zm-3.253,3.529a14.4,14.4,0,0,1-1.581,2.356,14.4,14.4,0,0,1-1.581-2.356,9.317,9.317,0,0,1-1.332-3.529,2.913,2.913,0,0,1,5.826,0A9.316,9.316,0,0,1,116.415,118.363Z" transform="translate(-106.191 -102.957)" fill="#152e71" fill-rule="evenodd"></path>
                                        <path id="Path_21321" data-name="Path 21321" d="M171.461,170.5a.96.96,0,1,0,.96.96A.962.962,0,0,0,171.461,170.5Z" transform="translate(-162.818 -159.584)" fill="#152e71" fill-rule="evenodd"></path>
                                    </g>
                                </g>
                            </svg>