<svg xmlns="http://www.w3.org/2000/svg" width="35" height="35" viewBox="0 0 35 35">
                                <g id="Group_3868" data-name="Group 3868" transform="translate(-526 -167)">
                                    <rect id="Rectangle_1951" data-name="Rectangle 1951" width="17" height="11" rx="5.5" transform="translate(544 167)" fill="#f06724"></rect>
                                    <rect id="Rectangle_1952" data-name="Rectangle 1952" width="15" height="11" rx="5.5" transform="translate(531 167)" fill="#fcbf19"></rect>
                                    <g id="_004-discuss" data-name="004-discuss" transform="translate(526 169.219)">
                                        <path id="Path_21308" data-name="Path 21308" d="M0,397.787a.96.96,0,0,0,.96.96H12.549a.96.96,0,0,0,.96-.96,6.755,6.755,0,0,0-13.509,0Zm6.787-4.866a4.827,4.827,0,0,1,4.708,3.905H2.02A4.946,4.946,0,0,1,6.787,392.921Zm0,0" transform="translate(0 -365.966)" fill="#152e71"></path>
                                        <path id="Path_21309" data-name="Path 21309" d="M30.8,20.232a4.807,4.807,0,0,0-4.8-4.8.96.96,0,0,0,.96-.96V11.524a5.813,5.813,0,0,0,5.826-5.762,5.683,5.683,0,0,0-1.726-4.081A5.822,5.822,0,0,0,26.955,0H21.192a5.762,5.762,0,0,0-4.8,2.581A5.762,5.762,0,0,0,11.589,0H5.826A5.813,5.813,0,0,0,0,5.762a5.813,5.813,0,0,0,5.826,5.762V14.47a.96.96,0,0,0,.96.96,4.8,4.8,0,1,0,4.8,4.8,4.807,4.807,0,0,0-4.8-4.8.961.961,0,0,0,.685-.287l3.559-3.619h.558a5.762,5.762,0,0,0,4.8-2.581,5.762,5.762,0,0,0,4.8,2.581h.558l3.559,3.619a.96.96,0,0,0,.685.287,4.8,4.8,0,1,0,4.8,4.8Zm-21.128,0a2.881,2.881,0,1,1-2.881-2.881A2.884,2.884,0,0,1,9.668,20.232ZM11.589,9.6c-.985,0-1.3-.066-1.645.287l-2.2,2.233v-1.56a.96.96,0,0,0-.96-.96h-.96A3.878,3.878,0,0,1,1.921,5.762,3.878,3.878,0,0,1,5.826,1.921h5.762a3.841,3.841,0,1,1,0,7.683Zm13.445.96v1.56l-2.2-2.233a.961.961,0,0,0-.685-.287h-.96a3.841,3.841,0,1,1,0-7.683h5.762A3.878,3.878,0,0,1,30.86,5.762,3.878,3.878,0,0,1,26.955,9.6h-.96A.96.96,0,0,0,25.034,10.564Zm.96,12.549a2.881,2.881,0,1,1,2.881-2.881A2.884,2.884,0,0,1,25.994,23.113Zm0,0" fill="#152e71"></path>
                                        <path id="Path_21310" data-name="Path 21310" d="M307.723,391A6.762,6.762,0,0,0,301,397.787a.96.96,0,0,0,.96.96h11.589a.96.96,0,0,0,.96-.96A6.832,6.832,0,0,0,307.723,391Zm-4.708,5.826a4.827,4.827,0,0,1,4.708-3.905,4.946,4.946,0,0,1,4.766,3.905Zm0,0" transform="translate(-281.728 -365.966)" fill="#152e71"></path>
                                        <path id="Path_21311" data-name="Path 21311" d="M62.921,75.96a.96.96,0,1,1-.96-.96A.96.96,0,0,1,62.921,75.96Zm0,0" transform="translate(-57.094 -70.198)" fill="#152e71"></path>
                                        <path id="Path_21312" data-name="Path 21312" d="M122.921,75.96a.96.96,0,1,1-.96-.96A.96.96,0,0,1,122.921,75.96Zm0,0" transform="translate(-113.253 -70.198)" fill="#152e71"></path>
                                        <path id="Path_21313" data-name="Path 21313" d="M182.921,75.96a.96.96,0,1,1-.96-.96A.96.96,0,0,1,182.921,75.96Zm0,0" transform="translate(-169.411 -70.198)" fill="#152e71"></path>
                                        <path id="Path_21314" data-name="Path 21314" d="M422.921,75.96a.96.96,0,1,1-.96-.96A.96.96,0,0,1,422.921,75.96Zm0,0" transform="translate(-394.045 -70.198)" fill="#152e71"></path>
                                        <path id="Path_21315" data-name="Path 21315" d="M362.921,75.96a.96.96,0,1,1-.96-.96A.96.96,0,0,1,362.921,75.96Zm0,0" transform="translate(-337.887 -70.198)" fill="#152e71"></path>
                                        <path id="Path_21316" data-name="Path 21316" d="M302.921,75.96a.96.96,0,1,1-.96-.96A.96.96,0,0,1,302.921,75.96Zm0,0" transform="translate(-281.728 -70.198)" fill="#152e71"></path>
                                    </g>
                                </g>
                            </svg>