<svg xmlns="http://www.w3.org/2000/svg" width="25.5" height="39.245" viewBox="0 0 25.5 39.245">
                                <g id="Group_3866" data-name="Group 3866" transform="translate(-394 -165)">
                                    <circle id="Ellipse_4212" data-name="Ellipse 4212" cx="7.5" cy="7.5" r="7.5" transform="translate(402 180)" fill="#fcbf19"></circle>
                                    <ellipse id="Ellipse_4213" data-name="Ellipse 4213" cx="5" cy="4.5" rx="5" ry="4.5" transform="translate(404 165)" fill="#f06724"></ellipse>
                                    <g id="result" transform="translate(394 168.308)">
                                        <g id="Group_3864" data-name="Group 3864" transform="translate(0)">
                                            <path id="Path_21326" data-name="Path 21326" d="M24.075,6.794V5.831a1.466,1.466,0,0,0-1.468-1.467H20.443a3.051,3.051,0,0,0,.322-1.357,3,3,0,1,0-5.679,1.358h-2.9A1.466,1.466,0,0,0,10.72,5.832v.962H7.026A2.379,2.379,0,0,0,4.647,9.172V33.558a2.378,2.378,0,0,0,2.379,2.379H27.77a2.377,2.377,0,0,0,2.377-2.379V9.172A2.378,2.378,0,0,0,27.77,6.794H24.075Zm-8.1-3.786a1.788,1.788,0,1,1,2.961,1.357H16.593A1.8,1.8,0,0,1,15.977,3.009ZM27.718,32.273a1.236,1.236,0,0,1-1.234,1.235H8.31a1.234,1.234,0,0,1-1.234-1.235V10.456A1.234,1.234,0,0,1,8.31,9.222h2.409a1.214,1.214,0,0,0,1.214,1.214H22.86a1.214,1.214,0,0,0,1.215-1.214h2.41a1.234,1.234,0,0,1,1.234,1.234V32.273Z" transform="translate(-4.647)" fill="#152e71"></path>
                                            <path id="Path_21327" data-name="Path 21327" d="M15.509,20l-1.48-1.482a.889.889,0,0,0-1.258,0l-.459.459a.889.889,0,0,0,0,1.257l2.6,2.6a.892.892,0,0,0,1.276-.02L20.7,18.028a.888.888,0,0,0-.036-1.256l-.472-.445a.882.882,0,0,0-.636-.243.9.9,0,0,0-.621.279Z" transform="translate(-3.736 1.979)" fill="#152e71"></path>
                                            <path id="Path_21328" data-name="Path 21328" d="M16.972,10.9a8.882,8.882,0,1,0,8.872,8.883A8.886,8.886,0,0,0,16.972,10.9Zm0,15.338a6.456,6.456,0,1,1,6.446-6.455A6.457,6.457,0,0,1,16.972,26.241Z" transform="translate(-4.222 1.341)" fill="#152e71"></path>
                                        </g>
                                    </g>
                                </g>
                            </svg>