<svg xmlns="http://www.w3.org/2000/svg" width="36.437" height="32.781" viewBox="0 0 36.437 32.781">
                                <g id="Group_3865" data-name="Group 3865" transform="translate(-337 -169.219)">
                                    <path id="Path_21329" data-name="Path 21329" d="M-15205.609-1411.762a4.53,4.53,0,0,1,1.718.123c.354.24,3.684,3.545,3.684,3.545.049,0,0,1.913,0,1.913l-5.765-.154C-15205.9-1406.335-15205.609-1411.762-15205.609-1411.762Z" transform="translate(15561 1582)" fill="#fcbf19"></path>
                                    <rect id="Rectangle_1956" data-name="Rectangle 1956" width="5" height="17" rx="2.5" transform="translate(369.902 178.356) rotate(45)" fill="#f06724"></rect>
                                    <g id="_001-contract" data-name="001-contract" transform="translate(337 169.219)">
                                        <g id="Group_3850" data-name="Group 3850" transform="translate(0)">
                                            <g id="Group_3849" data-name="Group 3849">
                                                <path id="Path_21298" data-name="Path 21298" d="M31.952,10.316a2.885,2.885,0,0,0-4.075,0l-2.889,2.892V5.6a2.862,2.862,0,0,0-.844-2.037L21.428.844A2.862,2.862,0,0,0,19.39,0H2.9A2.884,2.884,0,0,0,.018,2.881V29.9A2.884,2.884,0,0,0,2.9,32.781H22.107A2.884,2.884,0,0,0,24.988,29.9V21.361l6.964-6.97A2.879,2.879,0,0,0,31.952,10.316Zm-12.726-8.4a1.048,1.048,0,0,1,.844.281l2.716,2.716a1.048,1.048,0,0,1,.281.844H19.226ZM23.067,29.9a.961.961,0,0,1-.96.96H2.9a.961.961,0,0,1-.96-.96V2.881a.961.961,0,0,1,.96-.96H17.3v4.8a.96.96,0,0,0,.96.96h4.8v7.448l-2.833,2.836-1.358,1.358a.96.96,0,0,0-.232.375l-1.358,4.075A.96.96,0,0,0,18.5,24.989l4.075-1.358a.96.96,0,0,0,.375-.232l.117-.117V29.9ZM20.913,20l1.358,1.358-.519.519-2.037.679.679-2.037Zm2.716,0-1.358-1.358,4.617-4.62,1.358,1.358Zm6.964-6.97-.99.991-1.358-1.358.99-.991a.96.96,0,1,1,1.358,1.358Z" transform="translate(-0.018)" fill="#152e71"></path>
                                            </g>
                                        </g>
                                        <g id="Group_3852" data-name="Group 3852" transform="translate(3.842 9.604)">
                                            <g id="Group_3851" data-name="Group 3851">
                                                <path id="Path_21299" data-name="Path 21299" d="M74.424,150H60.978a.96.96,0,1,0,0,1.921H74.424a.96.96,0,0,0,0-1.921Z" transform="translate(-60.018 -150)" fill="#152e71"></path>
                                            </g>
                                        </g>
                                        <g id="Group_3854" data-name="Group 3854" transform="translate(3.842 13.445)">
                                            <g id="Group_3853" data-name="Group 3853">
                                                <path id="Path_21300" data-name="Path 21300" d="M70.582,210h-9.6a.96.96,0,1,0,0,1.921h9.6a.96.96,0,1,0,0-1.921Z" transform="translate(-60.018 -210)" fill="#152e71"></path>
                                            </g>
                                        </g>
                                        <g id="Group_3856" data-name="Group 3856" transform="translate(3.842 17.287)">
                                            <g id="Group_3855" data-name="Group 3855">
                                                <path id="Path_21301" data-name="Path 21301" d="M70.582,270h-9.6a.96.96,0,0,0,0,1.921h9.6a.96.96,0,0,0,0-1.921Z" transform="translate(-60.018 -270)" fill="#152e71"></path>
                                            </g>
                                        </g>
                                        <g id="Group_3858" data-name="Group 3858" transform="translate(3.842 21.128)">
                                            <g id="Group_3857" data-name="Group 3857">
                                                <path id="Path_21302" data-name="Path 21302" d="M70.582,330h-9.6a.96.96,0,1,0,0,1.921h9.6a.96.96,0,1,0,0-1.921Z" transform="translate(-60.018 -330)" fill="#152e71"></path>
                                            </g>
                                        </g>
                                        <g id="Group_3860" data-name="Group 3860" transform="translate(11.525 27.019)">
                                            <g id="Group_3859" data-name="Group 3859">
                                                <path id="Path_21303" data-name="Path 21303" d="M186.741,422h-5.762a.96.96,0,1,0,0,1.921h5.762a.96.96,0,1,0,0-1.921Z" transform="translate(-180.018 -422)" fill="#152e71"></path>
                                            </g>
                                        </g>
                                    </g>
                                </g>
                            </svg>