<svg xmlns="http://www.w3.org/2000/svg" width="34" height="33.989" viewBox="0 0 34 33.989">
                <path id="suitcase"
                  d="M31.334,16.065v2.722a1.328,1.328,0,1,0,2.655,0v-8.1A5.317,5.317,0,0,0,28.678,5.38H22.964V3.649A3.653,3.653,0,0,0,19.316,0H14.673a3.653,3.653,0,0,0-3.649,3.649V5.38H5.311A5.317,5.317,0,0,0,0,10.69V26.158a5.317,5.317,0,0,0,5.311,5.311H16.53a1.328,1.328,0,0,0,0-2.655H5.311a2.658,2.658,0,0,1-2.655-2.655V16.065H15.733v1.994a1.328,1.328,0,1,0,2.655,0V16.065ZM13.68,3.649a.994.994,0,0,1,.993-.993h4.642a.994.994,0,0,1,.993.993V5.38H13.68ZM2.655,10.691A2.658,2.658,0,0,1,5.311,8.035H28.678a2.659,2.659,0,0,1,2.655,2.655V13.41H2.655ZM33.611,31.723l-3.059-3.059a5.98,5.98,0,1,0-1.875,1.88L31.733,33.6a1.328,1.328,0,0,0,1.878-1.878ZM22.173,25.492a3.319,3.319,0,1,1,3.319,3.319A3.323,3.323,0,0,1,22.173,25.492Zm0,0"
                  fill="#fff" />
              </svg>