<svg id="_002-open-book" data-name="002-open-book" xmlns="http://www.w3.org/2000/svg" width="30.029" height="26.51" viewBox="0 0 30.029 26.51">
<g id="Group_686" data-name="Group 686" transform="translate(0 0)">
<path id="Path_17940" data-name="Path 17940" d="M28.856,41.261a1.173,1.173,0,0,0,1.173-1.173V31.173a1.173,1.173,0,0,0-1.5-1.127,16.754,16.754,0,0,1-5.283.141C21.877,30.1,20.321,30,18.534,30a4.681,4.681,0,0,0-3.519,1.594A4.681,4.681,0,0,0,11.5,30c-1.787,0-3.343.1-4.716.186A16.757,16.757,0,0,1,1.5,30.045,1.173,1.173,0,0,0,0,31.173v19.46a4.692,4.692,0,0,0,4.692,4.7h9.15a1.173,1.173,0,1,0,2.346,0h9.15a4.7,4.7,0,0,0,4.692-4.692V45.953a1.173,1.173,0,1,0-2.346,0A2.349,2.349,0,0,1,25.337,48.3H16.774a2.933,2.933,0,0,0-.587.059V34.692a2.349,2.349,0,0,1,2.346-2.346c1.712,0,3.229.1,4.567.182a27.661,27.661,0,0,0,4.583.059v7.5A1.173,1.173,0,0,0,28.856,41.261ZM13.842,52.991H4.692a2.346,2.346,0,0,1-2.346-2.355v-.622a4.661,4.661,0,0,0,2.346.631h8.563a.587.587,0,0,1,.587.587Zm0-4.633a2.933,2.933,0,0,0-.587-.059H4.692a2.349,2.349,0,0,1-2.346-2.346V32.587a27.668,27.668,0,0,0,4.583-.059c1.338-.085,2.855-.182,4.567-.182a2.349,2.349,0,0,1,2.346,2.346Zm2.933,2.287h8.563a4.661,4.661,0,0,0,2.346-.631v.631a2.349,2.349,0,0,1-2.346,2.346h-9.15v-1.76A.587.587,0,0,1,16.774,50.645Z" transform="translate(0 -30)" fill="#f06724"></path>
</g>
</svg>