<svg xmlns="http://www.w3.org/2000/svg" width="30.03" height="30.026" viewBox="0 0 30.03 30.026">
<path id="_004-add-group" data-name="004-add-group" d="M17.39,20.183a11.136,11.136,0,0,0-2.34-1.249A5.97,5.97,0,0,0,16.992,15a8.829,8.829,0,0,1,11.2-.916,1.173,1.173,0,1,0,1.342-1.924,11.149,11.149,0,0,0-2.34-1.249,5.982,5.982,0,1,0-8.054-.013q-.246.095-.488.2a11.139,11.139,0,0,0-2.066,1.187,5.981,5.981,0,1,0-9.6,6.63A11.28,11.28,0,0,0,.174,25.929a3.519,3.519,0,0,0,3.35,4.6h10.2a1.173,1.173,0,0,0,0-2.346H3.524a1.174,1.174,0,0,1-1.117-1.533A9.05,9.05,0,0,1,11,20.526a8.773,8.773,0,0,1,5.043,1.581,1.173,1.173,0,1,0,1.342-1.924Zm5.78-17.338a3.636,3.636,0,1,1-3.636,3.636A3.64,3.64,0,0,1,23.169,2.846ZM11.03,10.873a3.636,3.636,0,1,1-3.636,3.636A3.64,3.64,0,0,1,11.03,10.873Zm19,14.082a1.173,1.173,0,0,1-1.173,1.173H25.633v3.225a1.173,1.173,0,1,1-2.346,0V26.128H20.061a1.173,1.173,0,0,1,0-2.346h3.225V20.556a1.173,1.173,0,0,1,2.346,0v3.225h3.225A1.173,1.173,0,0,1,30.031,24.955Zm0,0" transform="translate(-0.001 -0.5)" fill="#f06724"></path>
</svg>