<svg xmlns="http://www.w3.org/2000/svg" xmlns:xlink="http://www.w3.org/1999/xlink" width="66" height="66" viewBox="0 0 66 66">
  <defs>
    <clipPath id="clip-path">
      <rect id="Rectangle_1637" data-name="Rectangle 1637" width="66" height="66" transform="translate(272 4294)" fill="none" stroke="#707070" stroke-width="1"/>
    </clipPath>
    <clipPath id="clip-path-2">
      <rect id="Rectangle_21" data-name="Rectangle 21" width="57.559" height="58.462" transform="translate(-17.69 18.56) rotate(-1)" fill="#fff"/>
    </clipPath>
  </defs>
  <g id="Mask_Group_78" data-name="Mask Group 78" transform="translate(-272 -4294)" clip-path="url(#clip-path)">
    <g id="Group_3453" data-name="Group 3453">
      <g id="Group_3452" data-name="Group 3452">
        <g id="Group_3444" data-name="Group 3444">
          <g id="Ellipse_24" data-name="Ellipse 24" transform="translate(274.568 4296.471)" fill="none" stroke="#010101" stroke-width="4">
            <ellipse cx="30.626" cy="30.626" rx="30.626" ry="30.626" stroke="none"/>
            <ellipse cx="30.626" cy="30.626" rx="28.626" ry="28.626" fill="none"/>
          </g>
          <g id="Mask_Group_8" data-name="Mask Group 8" transform="translate(283.122 4291.301)" clip-path="url(#clip-path-2)">
            <g id="Path_17746" data-name="Path 17746" transform="translate(-8.554 5.17)" fill="none">
              <path d="M30.626,0A30.745,30.745,0,0,1,51.574,8.284,30.626,30.626,0,1,1,30.626,0Z" stroke="none"/>
              <path d="M 30.6263542175293 3.999992370605469 C 27.03005981445312 3.999992370605469 23.54346084594727 4.703441619873047 20.26340103149414 6.090782165527344 C 17.09323501586914 7.431652069091797 14.24528503417969 9.352062225341797 11.79868316650391 11.79867553710938 C 9.352073669433594 14.24528884887695 7.431659698486328 17.09323883056641 6.090789794921875 20.2634162902832 C 4.703449249267578 23.54346466064453 4 27.03007507324219 4 30.62636947631836 C 4 34.22267532348633 4.703449249267578 37.70927429199219 6.090789794921875 40.98933410644531 C 7.431659698486328 44.15950012207031 9.352073669433594 47.00745391845703 11.79868316650391 49.45405197143555 C 14.24528503417969 51.90066528320312 17.09323501586914 53.82107543945312 20.26340103149414 55.16194534301758 C 23.54346084594727 56.54928588867188 27.03005981445312 57.25273513793945 30.6263542175293 57.25273513793945 C 34.22264862060547 57.25273513793945 37.70924758911133 56.54928588867188 40.98930740356445 55.16194534301758 C 44.15946960449219 53.82107543945312 47.00742340087891 51.90066528320312 49.45402526855469 49.45405197143555 C 51.900634765625 47.00745391845703 53.82104873657227 44.15950012207031 55.16191864013672 40.98933410644531 C 56.54925918579102 37.70927429199219 57.25270843505859 34.22267532348633 57.25270843505859 30.62636947631836 C 57.25270843505859 26.83267593383789 56.47762298583984 23.16615676879883 54.94897842407227 19.72868728637695 C 53.5087776184082 16.49008560180664 51.40808486938477 13.55314636230469 48.87226104736328 11.23377990722656 C 46.33792114257812 8.913028717041016 43.50434112548828 7.114475250244141 40.45027160644531 5.888050079345703 C 37.33043670654297 4.635227203369141 34.02519989013672 3.999992370605469 30.6263542175293 3.999992370605469 M 30.6263542175293 -7.62939453125e-06 C 38.59302520751953 -7.62939453125e-06 45.84923553466797 3.041828155517578 51.57363891601562 8.283767700195312 C 57.41553115844727 13.62699127197266 61.25270843505859 21.67856979370117 61.25270843505859 30.62636947631836 C 61.25270843505859 47.54085159301758 47.54082489013672 61.25273513793945 30.6263542175293 61.25273513793945 C 13.71188354492188 61.25273513793945 0 47.54085159301758 0 30.62636947631836 C 0 13.71189880371094 13.71188354492188 -7.62939453125e-06 30.6263542175293 -7.62939453125e-06 Z" stroke="none" fill="#f06724"/>
            </g>
          </g>
          <g id="Group_393" data-name="Group 393" transform="translate(0 791)">
            <path id="Subtraction_2" data-name="Subtraction 2" d="M699.63,200.667h0l-3.882-3.42L685.3,197.11a2.69,2.69,0,0,1-2.687-2.686v-1.046l5.851-.082a3.944,3.944,0,0,0,4-3.811v-4.914h7.165a2.69,2.69,0,0,1,2.687,2.687v7.165a2.69,2.69,0,0,1-2.687,2.686v3.557Z" transform="translate(-381.233 3346.81)" fill="#f06724"/>
            <path id="Path_17750" data-name="Path 17750" d="M3,0H19a3,3,0,0,1,3,3v8a3,3,0,0,1-3,3l-11.664.151L3,17.97V14a3,3,0,0,1-3-3V3A3,3,0,0,1,3,0Z" transform="translate(288 3525)" fill="#f06724"/>
          </g>
        </g>
      </g>
    </g>
  </g>
</svg>
