<svg xmlns="http://www.w3.org/2000/svg" xmlns:xlink="http://www.w3.org/1999/xlink" width="66" height="66" viewBox="0 0 66 66">
  <defs>
    <clipPath id="clip-path">
      <rect id="Rectangle_1640" data-name="Rectangle 1640" width="66" height="66" transform="translate(1322 4294)" fill="none" stroke="#707070" stroke-width="1"/>
    </clipPath>
    <clipPath id="clip-path-2">
      <rect id="Rectangle_19" data-name="Rectangle 19" width="53.559" height="56.462" transform="matrix(0.974, 0.225, -0.225, 0.974, -8.196, 10.404)" fill="#fff"/>
    </clipPath>
  </defs>
  <g id="Mask_Group_81" data-name="Mask Group 81" transform="translate(-1322 -4294)" clip-path="url(#clip-path)">
    <g id="Group_3459" data-name="Group 3459">
      <g id="Group_3458" data-name="Group 3458">
        <g id="Ellipse_22" data-name="Ellipse 22" transform="translate(1324.568 4296.471)" fill="none" stroke="#010101" stroke-width="4">
          <ellipse cx="30.626" cy="30.626" rx="30.626" ry="30.626" stroke="none"/>
          <ellipse cx="30.626" cy="30.626" rx="28.626" ry="28.626" fill="none"/>
        </g>
        <g id="Mask_Group_6" data-name="Mask Group 6" transform="translate(1333.122 4291.301)" clip-path="url(#clip-path-2)">
          <g id="Path_17741" data-name="Path 17741" transform="translate(-8.554 5.17)" fill="none">
            <path d="M30.626,0A30.745,30.745,0,0,1,51.574,8.284,30.626,30.626,0,1,1,30.626,0Z" stroke="none"/>
            <path d="M 30.6263542175293 3.999992370605469 C 27.03005981445312 3.999992370605469 23.54346084594727 4.703441619873047 20.26340103149414 6.090782165527344 C 17.09323501586914 7.431652069091797 14.24528503417969 9.352062225341797 11.79868316650391 11.79867553710938 C 9.352073669433594 14.24528884887695 7.431659698486328 17.09323883056641 6.090789794921875 20.2634162902832 C 4.703449249267578 23.54346466064453 4 27.03007507324219 4 30.62636947631836 C 4 34.22267532348633 4.703449249267578 37.70927429199219 6.090789794921875 40.98933410644531 C 7.431659698486328 44.15950012207031 9.352073669433594 47.00745391845703 11.79868316650391 49.45405197143555 C 14.24528503417969 51.90066528320312 17.09323501586914 53.82107543945312 20.26340103149414 55.16194534301758 C 23.54346084594727 56.54928588867188 27.03005981445312 57.25273513793945 30.6263542175293 57.25273513793945 C 34.22264862060547 57.25273513793945 37.70924758911133 56.54928588867188 40.98930740356445 55.16194534301758 C 44.15946960449219 53.82107543945312 47.00742340087891 51.90066528320312 49.45402526855469 49.45405197143555 C 51.900634765625 47.00745391845703 53.82104873657227 44.15950012207031 55.16191864013672 40.98933410644531 C 56.54925918579102 37.70927429199219 57.25270843505859 34.22267532348633 57.25270843505859 30.62636947631836 C 57.25270843505859 26.83267593383789 56.47762298583984 23.16615676879883 54.94897842407227 19.72868728637695 C 53.5087776184082 16.49008560180664 51.40808486938477 13.55314636230469 48.87226104736328 11.23377990722656 C 46.33792114257812 8.913028717041016 43.50434112548828 7.114475250244141 40.45027160644531 5.888050079345703 C 37.33043670654297 4.635227203369141 34.02519989013672 3.999992370605469 30.6263542175293 3.999992370605469 M 30.6263542175293 -7.62939453125e-06 C 38.59302520751953 -7.62939453125e-06 45.84923553466797 3.041828155517578 51.57363891601562 8.283767700195312 C 57.41553115844727 13.62699127197266 61.25270843505859 21.67856979370117 61.25270843505859 30.62636947631836 C 61.25270843505859 47.54085159301758 47.54082489013672 61.25273513793945 30.6263542175293 61.25273513793945 C 13.71188354492188 61.25273513793945 0 47.54085159301758 0 30.62636947631836 C 0 13.71189880371094 13.71188354492188 -7.62939453125e-06 30.6263542175293 -7.62939453125e-06 Z" stroke="none" fill="#f06724"/>
          </g>
        </g>
        <g id="business-affiliate-network" transform="translate(1337.954 4309.163)">
          <g id="Layer_1_110_" transform="translate(0 0.911)">
            <g id="Group_352" data-name="Group 352">
              <path id="Path_17736" data-name="Path 17736" d="M14.958,13.771l-2.168-2.049a3.178,3.178,0,0,0,.409-1.539A3.238,3.238,0,1,0,11.683,12.9l2.165,2.047A7.365,7.365,0,0,1,14.958,13.771Z" transform="translate(-1.634 -2.374)" fill="#f06724"/>
              <path id="Path_17737" data-name="Path 17737" d="M29.218,12.052,32.1,7.2a3.18,3.18,0,1,0-1.4-.816l-2.872,4.835A7.2,7.2,0,0,1,29.218,12.052Z" transform="translate(-6.722 -0.911)" fill="#f06724"/>
              <path id="Path_17738" data-name="Path 17738" d="M40.479,20.952a3.213,3.213,0,0,0-3.01,2.1l-4-.4c0,.03,0,.059,0,.089a7.371,7.371,0,0,1-.162,1.524l4,.4a3.211,3.211,0,1,0,3.168-3.717Z" transform="translate(-8.046 -5.752)" fill="#f06724"/>
              <path id="Path_17739" data-name="Path 17739" d="M27.141,36.379l-.895-3.911a7.328,7.328,0,0,1-1.579.365l.9,3.911a3.206,3.206,0,1,0,1.578-.366Z" transform="translate(-5.755 -8.534)" fill="#f06724"/>
              <path id="Path_17740" data-name="Path 17740" d="M10.889,25.37,5.906,27.039a3.21,3.21,0,1,0,.526,1.754c0-.074-.016-.143-.022-.215l5-1.674A7.344,7.344,0,0,1,10.889,25.37Z" transform="translate(0 -6.819)" fill="#f06724"/>
              <circle id="Ellipse_21" data-name="Ellipse 21" cx="5.515" cy="5.515" r="5.515" transform="translate(12.559 11.484)" fill="#f06724"/>
            </g>
          </g>
        </g>
      </g>
    </g>
  </g>
</svg>
