<svg xmlns="http://www.w3.org/2000/svg" width="29.791" height="29.539" viewBox="0 0 29.791 29.539">
                <g id="Group_683" data-name="Group 683" transform="translate(-829.555 -3378.598)">
                  <path id="_004-meeting-room" data-name="004-meeting-room"
                    d="M3.549,6.923A3.48,3.48,0,0,0,7.04,3.461a3.491,3.491,0,0,0-6.982,0A3.48,3.48,0,0,0,3.549,6.923Zm0-4.615A1.154,1.154,0,1,1,2.386,3.461,1.16,1.16,0,0,1,3.549,2.308ZM28.627,13.769a1.159,1.159,0,0,0,1.164-1.154V11.538A3.48,3.48,0,0,0,26.3,8.077h-.52a1.165,1.165,0,0,0-1.029.614l-2.934,5.5H19.55V11.48a3.48,3.48,0,0,0-3.491-3.461H13.732a3.48,3.48,0,0,0-3.491,3.461v2.711H7.974L5.04,8.691a1.165,1.165,0,0,0-1.029-.614h-.52A3.48,3.48,0,0,0,0,11.538v6.807a3.468,3.468,0,0,0,2.241,3.231,1.166,1.166,0,0,0,.61.173h.013c.1.017.193.031.291.041a1.157,1.157,0,0,1,.86,1.113v5.481a1.164,1.164,0,0,0,2.327,0V22.9a3.42,3.42,0,0,0-.18-1.1H8.67v4.269a3.48,3.48,0,0,0,3.491,3.461h5.528a3.48,3.48,0,0,0,3.491-3.461V21.807h2.45a3.42,3.42,0,0,0-.18,1.1v5.481a1.164,1.164,0,0,0,2.327,0V22.9a1.156,1.156,0,0,1,.86-1.112c.1-.009.2-.023.291-.041h.013a1.166,1.166,0,0,0,.61-.173,3.468,3.468,0,0,0,2.241-3.231,1.164,1.164,0,0,0-2.327,0,1.156,1.156,0,0,1-.86,1.112c-.1.009-.2.023-.291.041H21.18v-3h1.338a1.165,1.165,0,0,0,1.029-.614L26.474,10.4a1.159,1.159,0,0,1,.99,1.141v1.077A1.159,1.159,0,0,0,28.627,13.769ZM12.568,11.48a1.16,1.16,0,0,1,1.164-1.154h2.327a1.16,1.16,0,0,1,1.164,1.154v2.711H12.568ZM3.491,19.5H3.478c-.1-.017-.193-.031-.291-.041a1.157,1.157,0,0,1-.86-1.113V11.538a1.159,1.159,0,0,1,.99-1.141l2.927,5.488a1.165,1.165,0,0,0,1.029.614h1.4v3Zm15.361,6.577a1.16,1.16,0,0,1-1.164,1.154H12.161A1.16,1.16,0,0,1,11,26.076V16.5h7.855Zm7.39-19.153a3.48,3.48,0,0,0,3.491-3.461,3.491,3.491,0,0,0-6.982,0A3.48,3.48,0,0,0,26.242,6.923Zm0-4.615a1.154,1.154,0,1,1-1.164,1.154A1.16,1.16,0,0,1,26.242,2.308ZM14.9,6.923a3.48,3.48,0,0,0,3.491-3.461,3.491,3.491,0,0,0-6.982,0A3.48,3.48,0,0,0,14.9,6.923Zm0-4.615a1.154,1.154,0,1,1-1.164,1.154A1.16,1.16,0,0,1,14.9,2.308Zm0,0"
                    transform="translate(829.554 3378.598)" fill="#f48220" opacity="0.8" />
                  <path id="Subtraction_16" data-name="Subtraction 16"
                    d="M-1900.685,199.52h-5.719a3.693,3.693,0,0,1-2.439-.911A3.405,3.405,0,0,1-1910,196.38V184.224a4.189,4.189,0,0,1,.912-.1,5.749,5.749,0,0,1,.7.045v-2.712a3.543,3.543,0,0,1,3.612-3.461h2.408a3.543,3.543,0,0,1,3.613,3.461v2.712H-1897v2.3a.639.639,0,0,1-.073,0v3h.073V191.8l-.055-.007-.018,0v4.269A3.544,3.544,0,0,1-1900.685,199.52Zm-6.924-13.039v9.577a1.181,1.181,0,0,0,1.2,1.154h5.719a1.181,1.181,0,0,0,1.2-1.154v-9.577h-8.128Zm2.83-6.173a1.181,1.181,0,0,0-1.2,1.154v2.712h4.816v-2.712a1.181,1.181,0,0,0-1.2-1.154Z"
                    transform="translate(2748 3208.617)" fill="#f06724" />
                </g>
              </svg>