<svg xmlns="http://www.w3.org/2000/svg" width="29.537" height="29.537" viewBox="0 0 29.537 29.537">
                <g id="Group_3813" data-name="Group 3813" transform="translate(-574.44 -3334.559)">
                  <path id="_007-stethoscope" data-name="007-stethoscope"
                    d="M19.153,21.576A1.154,1.154,0,0,0,18,22.73a4.5,4.5,0,1,1-9,0V19.414l4.1-5.952a1.169,1.169,0,0,0,.068-.113c.078-.073.155-.147.231-.224a8.335,8.335,0,0,0,2.291-5.913c0-.02,0-.04,0-.059l0-4.469A2.686,2.686,0,0,0,13.009,0H10.846A1.154,1.154,0,0,0,9.692,1.154V2.308a1.154,1.154,0,1,0,2.308,0h1.01a.375.375,0,0,1,.375.375l0,4.529q0,.028,0,.055A5.525,5.525,0,0,1,7.846,13.1c-3.209,0-5.538-2.475-5.538-5.884,0-.036,0-.071-.005-.107s.005-.071.005-.107V2.683a.375.375,0,0,1,.375-.375h.953A1.154,1.154,0,0,0,5.942,2.25v-1.1A1.154,1.154,0,0,0,4.788,0H2.683A2.686,2.686,0,0,0,0,2.683V7c0,.036,0,.071.005.107S0,7.175,0,7.211a8.335,8.335,0,0,0,2.291,5.913q.069.07.14.139a1.145,1.145,0,0,0,.11.2l4.151,6.023V22.73a6.807,6.807,0,1,0,13.615,0A1.154,1.154,0,0,0,19.153,21.576ZM7.846,15.4a8.261,8.261,0,0,0,1.173-.083l-1.2,1.737-1.2-1.745A8.243,8.243,0,0,0,7.846,15.4Z"
                    transform="translate(574.44 3334.559)" fill="#f48220" opacity="0.8" />
                  <path id="_007-stethoscope-2" data-name="007-stethoscope"
                    d="M27.23,12.371V4.615a4.615,4.615,0,1,0-9.23,0V16.961a1.154,1.154,0,1,0,2.308,0V4.615a2.308,2.308,0,1,1,4.615,0v7.756a3.461,3.461,0,1,0,2.308,0Zm-1.154,4.417a1.154,1.154,0,1,1,1.154-1.154A1.155,1.155,0,0,1,26.076,16.788Zm0,0"
                    transform="translate(574.44 3334.559)" fill="#f06724" />
                </g>
              </svg>