<svg xmlns="http://www.w3.org/2000/svg" width="24.691" height="29.537" viewBox="0 0 24.691 29.537">
                <g id="Group_682" data-name="Group 682" transform="translate(-322.209 -3449.426)">
                  <g id="_002-student" data-name="002-student" transform="translate(322.209 3449.426)" opacity="0.8">
                    <g id="Group_676" data-name="Group 676" transform="translate(0 0)">
                      <path id="Path_17937" data-name="Path 17937"
                        d="M66.623,25.784a1.154,1.154,0,1,0-2.259.469.825.825,0,0,1-.17.691.754.754,0,0,1-.589.286H55.943l3.116-7.967a10.194,10.194,0,0,1,3.016,2.377,1.154,1.154,0,1,0,1.744-1.511,12.506,12.506,0,0,0-5.206-3.574,6.635,6.635,0,0,0,1.463-8.417l3.555-1.31v5.692a1.154,1.154,0,1,0,2.308,0V5.25c0-.011,0-.022,0-.034s0-.029,0-.044V5.107a1.154,1.154,0,0,0-.744-1.079L54.785.075a1.154,1.154,0,0,0-.816,0L43.494,4.017a1.154,1.154,0,0,0-.747,1.08v.065A1.154,1.154,0,0,0,43.5,6.245l5.117,1.871a6.635,6.635,0,0,0,1.456,8.442,12.557,12.557,0,0,0-8.015,9.251,3.091,3.091,0,0,0,3.018,3.728H63.6A3.058,3.058,0,0,0,65.983,28.4,3.124,3.124,0,0,0,66.623,25.784ZM47.13,5.114l7.243-2.726,7.205,2.737-3.246,1.2A10.689,10.689,0,0,0,54.356,5.7a10.666,10.666,0,0,0-3.979.6Zm2.886,6.367a4.3,4.3,0,0,1,1.273-3.064A7.828,7.828,0,0,1,54.312,8h.041a7.855,7.855,0,0,1,3.06.429,4.326,4.326,0,1,1-7.4,3.048ZM45.081,27.23a.76.76,0,0,1-.6-.285.787.787,0,0,1-.161-.667,10.278,10.278,0,0,1,5.31-7l3.111,7.954Zm6.7-8.786a10.115,10.115,0,0,1,2.558-.329,10.263,10.263,0,0,1,2.56.325l-2.56,6.545Z"
                        transform="translate(-41.997 0)" fill="#f48220" />
                    </g>
                  </g>
                  <path id="Subtraction_14" data-name="Subtraction 14"
                    d="M-1881.612,191.673a1.155,1.155,0,0,1-1.154-1.154v-5.692l-3.524,1.3a17.167,17.167,0,0,0-3.926-.315c-3.3,0-7.177.349-7.608.388l.039-.068.009-.015-5.117-1.871a1.158,1.158,0,0,1-.758-1.084V183.1a1.159,1.159,0,0,1,.748-1.08l10.474-3.943a1.15,1.15,0,0,1,.406-.074,1.152,1.152,0,0,1,.411.076l10.409,3.953a1.16,1.16,0,0,1,.744,1.079v.065c0,.006,0,.011,0,.017s0,.019,0,.027,0,.011,0,.016,0,.011,0,.017v7.269A1.155,1.155,0,0,1-1881.612,191.673ZM-1892.1,183.7h.063a10.832,10.832,0,0,1,3.977.624l3.245-1.2-7.2-2.736-7.243,2.726,3.245,1.187A10.677,10.677,0,0,1-1892.1,183.7Z"
                    transform="translate(2226.609 3271.426)" fill="#f06724" />
                </g>
              </svg>