<svg xmlns="http://www.w3.org/2000/svg" width="24.691" height="29.537" viewBox="0 0 24.691 29.537">
                <path id="_006-nurse" data-name="006-nurse"
                  d="M24.626,25.784a1.154,1.154,0,0,0-2.26.469.825.825,0,0,1-.17.691.754.754,0,0,1-.589.286H13.946l3.115-7.967a10.193,10.193,0,0,1,3.016,2.377,1.154,1.154,0,1,0,1.744-1.511,12.5,12.5,0,0,0-5.206-3.574,6.634,6.634,0,0,0,1.977-7.312l.613-6.635a1.154,1.154,0,0,0-.579-1.11,13.919,13.919,0,0,0-12.562,0,1.154,1.154,0,0,0-.579,1.11L6.1,9.242a6.634,6.634,0,0,0,1.982,7.316A12.556,12.556,0,0,0,.066,25.809a3.091,3.091,0,0,0,3.018,3.728H21.608A3.058,3.058,0,0,0,23.987,28.4,3.125,3.125,0,0,0,24.626,25.784Zm-12.28-.8L9.788,18.443a10.121,10.121,0,0,1,2.558-.329,10.26,10.26,0,0,1,2.56.325ZM8.019,11.48a4.3,4.3,0,0,1,.321-1.639A1.155,1.155,0,0,0,8.422,9.3L7.857,3.186a12.377,12.377,0,0,1,4.489-.878,12.372,12.372,0,0,1,4.489.879L16.27,9.3a1.154,1.154,0,0,0,.081.544A4.327,4.327,0,1,1,8.019,11.48ZM2.487,26.945a.788.788,0,0,1-.161-.667,10.279,10.279,0,0,1,5.31-7l3.111,7.954H3.084A.76.76,0,0,1,2.487,26.945ZM15.173,6.923a1.154,1.154,0,0,1-1.154,1.154h-.577v.577a1.154,1.154,0,1,1-2.308,0V8.077h-.577a1.154,1.154,0,0,1,0-2.308h.577V5.192a1.154,1.154,0,1,1,2.308,0v.577h.577A1.154,1.154,0,0,1,15.173,6.923Zm0,0"
                  transform="translate(-0.001)" fill="#fff" />
              </svg>