<svg id="_003-physics" data-name="003-physics" xmlns="http://www.w3.org/2000/svg" width="27.51" height="30.03" viewBox="0 0 27.51 30.03">
<g id="Group_688" data-name="Group 688" transform="translate(0)">
<g id="Group_687" data-name="Group 687">
<circle id="Ellipse_4057" data-name="Ellipse 4057" cx="1" cy="1" r="1" transform="translate(17.65 6.145)" fill="#f06724"></circle>
<circle id="Ellipse_4058" data-name="Ellipse 4058" cx="1" cy="1" r="1" transform="translate(17.65 22.145)" fill="#f06724"></circle>
<path id="Path_17941" data-name="Path 17941" d="M48.567,8.163c-.449-.977-1.592-2.18-4.488-2.362a1.173,1.173,0,0,0-.147,2.341c1.337.084,2.25.449,2.5,1a1.664,1.664,0,0,1,.211.782c-.029.738-.7,1.914-1.993,3.5A31.08,31.08,0,0,0,38.4,9.072,37.236,37.236,0,0,0,31.83,6.4q.136-.367.285-.713c.9-2.095,2.058-3.345,3.093-3.345.858,0,1.611.838,2.091,1.542a1.173,1.173,0,1,0,1.937-1.324C37.788.445,36.246,0,35.208,0c-2.062,0-3.926,1.692-5.248,4.763q-.227.528-.428,1.1a15.341,15.341,0,0,0-4.046-.09l-.023,0a4.439,4.439,0,0,0-3.484,2.139A3.638,3.638,0,0,0,21.542,9.6a5.99,5.99,0,0,0,.767,2.783,1.173,1.173,0,1,0,2.084-1.077,3.8,3.8,0,0,1-.505-1.675,1.3,1.3,0,0,1,.158-.611,2.429,2.429,0,0,1,1.771-.93,13.282,13.282,0,0,1,3.052.045,30.306,30.306,0,0,0-.758,6.877,31.6,31.6,0,0,0,.81,6.729q-.364.051-.717.085c-2.2.207-3.829-.18-4.258-1.011a1.312,1.312,0,0,1-.117-.593,2.852,2.852,0,0,1,.2-1.038,1.173,1.173,0,1,0-2.192-.836,5.182,5.182,0,0,0-.355,1.894,3.579,3.579,0,0,0,.378,1.65c.788,1.526,2.619,2.336,5.22,2.336q.64,0,1.342-.066.533-.05,1.09-.137a13.556,13.556,0,0,0,1.767,3.584c1.422,2,2.92,2.419,3.927,2.419,1.038,0,2.58-.445,4.028-2.564A1.173,1.173,0,0,0,37.3,26.142c-.481.7-1.234,1.542-2.091,1.542-.826,0-1.555-.784-2.021-1.441l-.022-.03a10.861,10.861,0,0,1-1.339-2.676A32.347,32.347,0,0,0,38.3,21a32.034,32.034,0,0,0,6.174-4.111,1.172,1.172,0,0,0,.14-.146A6.39,6.39,0,0,1,46.469,20.4a1.392,1.392,0,0,1-.1.611,2.445,2.445,0,0,1-1.787.932,1.173,1.173,0,1,0,.37,2.317,4.439,4.439,0,0,0,3.484-2.139,3.588,3.588,0,0,0,.378-1.691c.02-1.574-.845-3.4-2.509-5.313,1.817-2.191,2.631-3.75,2.684-5.1A3.885,3.885,0,0,0,48.567,8.163Zm-17.411.488c.323.1.662.21,1.015.328l-.063.032q-.589.3-1.163.628Q31.041,9.136,31.156,8.652Zm.063,12.62q-.091-.416-.18-.86.484.279.978.546l.106.056Q31.667,21.154,31.219,21.272Zm8.56-3.83c-.814.519-1.672,1.013-2.558,1.471-.688.355-1.378.682-2.064.979-.678-.306-1.36-.642-2.029-1-.882-.473-1.739-.985-2.549-1.519-.076-.762-.122-1.552-.122-2.356s.032-1.617.093-2.4c.837-.537,1.722-1.047,2.634-1.518.668-.345,1.348-.668,2.025-.961.684.3,1.382.63,2.079,1,.865.464,1.7.964,2.494,1.487.065.763.117,1.568.117,2.389S39.846,16.669,39.779,17.442Zm3.157-2.33c-.226.2-.46.389-.7.582.007-.224.011-.45.011-.679,0-.194,0-.386-.008-.577q.384.318.741.641C42.965,15.09,42.95,15.1,42.936,15.112Z" transform="translate(-21.483 0)" fill="#f06724"></path>
<ellipse id="Ellipse_4059" data-name="Ellipse 4059" cx="1" cy="1.5" rx="1" ry="1.5" transform="translate(2.65 14.145)" fill="#f06724"></ellipse>
</g>
</g>
</svg>