<svg xmlns="http://www.w3.org/2000/svg" width="29.537" height="29.48" viewBox="0 0 29.537 29.48">
                <g id="Group_3815" data-name="Group 3815" transform="translate(-830 -3406.559)">
                  <g id="Group_3814" data-name="Group 3814">
                    <path id="_005-trip" data-name="005-trip"
                      d="M16.787,27.019c-.3.048-.595.084-.9.11V22.7c.233.007.464.015.694.026a1.152,1.152,0,0,0,.109-2.3c-.265-.012-.534-.022-.8-.029V15.891h4.465c-.025.56-.066,1.114-.126,1.659a1.151,1.151,0,1,0,2.289.252c.069-.627.117-1.267.143-1.911h4.519c-.01.109-.021.217-.034.325a1.152,1.152,0,1,0,2.287.27,14.953,14.953,0,0,0,.1-1.747A14.739,14.739,0,0,0,14.8,0H14.74A14.74,14.74,0,0,0,4.317,25.163,14.644,14.644,0,0,0,14.74,29.48H14.8a14.876,14.876,0,0,0,2.355-.187,1.151,1.151,0,0,0-.366-2.274ZM2.357,15.891H6.818a25.834,25.834,0,0,0,.717,5.168,22.4,22.4,0,0,0-2.982.806A12.362,12.362,0,0,1,2.357,15.891ZM24.942,7.552a12.362,12.362,0,0,1,2.239,6.036H22.662a25.8,25.8,0,0,0-.73-5.221A22.336,22.336,0,0,0,24.942,7.552Zm-3.7-1.4a16.392,16.392,0,0,0-.669-1.537,13.211,13.211,0,0,0-.695-1.227,12.474,12.474,0,0,1,3.412,2.275C22.657,5.849,21.97,6.013,21.243,6.153Zm-7.655,2.87v4.565H9.122a23.222,23.222,0,0,1,.705-4.849C11.027,8.891,12.29,8.988,13.588,9.024ZM10.574,6.506q.185-.445.392-.859A6.641,6.641,0,0,1,13.588,2.6V6.719C12.556,6.688,11.544,6.616,10.574,6.506ZM15.891,2.6a6.639,6.639,0,0,1,2.623,3.049q.207.414.392.86c-.97.11-1.982.182-3.015.213ZM8.906,4.617a16.43,16.43,0,0,0-.669,1.536c-.711-.137-1.383-.3-2-.476a12.482,12.482,0,0,1,3.345-2.25A13.228,13.228,0,0,0,8.906,4.617ZM7.547,8.367a25.8,25.8,0,0,0-.73,5.221H2.357a12.363,12.363,0,0,1,2.227-6.02A22.45,22.45,0,0,0,7.547,8.367Zm.667,14.9a16.474,16.474,0,0,0,.691,1.594,13.228,13.228,0,0,0,.672,1.19,12.482,12.482,0,0,1-3.394-2.3C6.815,23.572,7.495,23.409,8.215,23.269Zm5.374,3.614a6.64,6.64,0,0,1-2.623-3.049q-.22-.441-.417-.918c.975-.11,1.994-.182,3.039-.213Zm0-6.484c-1.3.036-2.569.134-3.775.288a23.271,23.271,0,0,1-.691-4.795h4.466Zm2.3-11.375c1.3-.036,2.562-.132,3.761-.284a23.235,23.235,0,0,1,.7,4.849H15.891Z"
                      transform="translate(830 3406.559)" fill="#f48220" opacity="0.8" />
                    <path id="_005-trip-2" data-name="005-trip"
                      d="M29.19,19.871a1.292,1.292,0,0,1-.122,1.751L27.81,22.858V28.63a.739.739,0,0,1-.179.626h0a.764.764,0,0,1-1.261-.287l-1.033-3.617-2.192,2.139v1.474a.445.445,0,0,1-.114.341l-.039.039a.462.462,0,0,1-.654,0L19.689,26.7a.463.463,0,0,1,.348-.789h1.509l2.166-2.189-3.618-1.035a.764.764,0,0,1-.287-1.261.776.776,0,0,1,.624-.236h5.785l1.224-1.2A1.291,1.291,0,0,1,29.19,19.871Zm0,0"
                      transform="translate(830 3406.559)" fill="#f06724" />
                  </g>
                </g>
              </svg>