<svg xmlns="http://www.w3.org/2000/svg" width="29.538" height="29.537" viewBox="0 0 29.538 29.537">
                <g id="Group_3812" data-name="Group 3812" transform="translate(-318.015 -2965.712)">
                  <path id="_001-communication" data-name="001-communication"
                    d="M27.767,23.782a8.951,8.951,0,0,0,1.769-5.349,9.327,9.327,0,0,0-4.315-7.765A11.214,11.214,0,0,0,21.53,3.38,13.113,13.113,0,0,0,12.633,0a13.112,13.112,0,0,0-8.9,3.38A11.152,11.152,0,0,0,0,11.661a10.931,10.931,0,0,0,2.254,6.652L.083,23.682A1.154,1.154,0,0,0,1.619,25.17l6.19-2.729a13.279,13.279,0,0,0,2.4.666,9.933,9.933,0,0,0,3.491,3.4,10.921,10.921,0,0,0,5.429,1.472c.028,0,.057,0,.085,0a10.981,10.981,0,0,0,3.848-.685l4.859,2.142a1.154,1.154,0,0,0,1.535-1.488Zm-2.391.243.872,2.156-2.7-1.191a1.154,1.154,0,0,0-.918-.005,8.654,8.654,0,0,1-3.371.689l-.047,0a8.48,8.48,0,0,1-5.923-2.367,13.453,13.453,0,0,0,5.431-1.422,1.154,1.154,0,1,0-1.045-2.057,11.3,11.3,0,0,1-9.431.3,1.153,1.153,0,0,0-.918.005L3.288,21.913l1.359-3.361a1.154,1.154,0,0,0-.192-1.181,8.716,8.716,0,0,1-2.148-5.709c0-5.158,4.632-9.354,10.327-9.354S22.96,6.5,22.96,11.661a8.678,8.678,0,0,1-1.416,4.729,1.154,1.154,0,0,0,1.936,1.256,11.068,11.068,0,0,0,1.626-4.12,6.863,6.863,0,0,1,2.124,4.907,6.734,6.734,0,0,1-1.661,4.411A1.154,1.154,0,0,0,25.377,24.025Z"
                    transform="translate(318.016 2965.712)" fill="#f48220" opacity="0.8" />
                  <path id="_001-communication-2" data-name="001-communication"
                    d="M13.73,17.6a1.154,1.154,0,0,1-1.154,1.154h0a1.154,1.154,0,0,1,0-2.308h0A1.154,1.154,0,0,1,13.73,17.6Zm3.23-8.645c0,.016,0,.032,0,.048a4.323,4.323,0,0,1-2.629,3.982.914.914,0,0,0-.544.848V13.9a1.154,1.154,0,1,1-2.308,0v-.074a3.218,3.218,0,0,1,1.946-2.97,2.018,2.018,0,0,0,1.227-1.826c0-.011,0-.022,0-.033a2.019,2.019,0,0,0-4.038,0A1.154,1.154,0,1,1,8.307,9a4.326,4.326,0,0,1,8.653-.049Z"
                    transform="translate(318.016 2965.712)" fill="#f06724" />
                </g>
              </svg>