<svg xmlns="http://www.w3.org/2000/svg" xmlns:xlink="http://www.w3.org/1999/xlink" width="66" height="66" viewBox="0 0 66 66">
  <defs>
    <clipPath id="clip-path">
      <rect id="Rectangle_1641" data-name="Rectangle 1641" width="66" height="66" transform="translate(272 4514)" fill="none" stroke="#707070" stroke-width="1"/>
    </clipPath>
    <clipPath id="clip-path-2">
      <rect id="Rectangle_22" data-name="Rectangle 22" width="69.559" height="38.462" transform="translate(2.07 -11.285) rotate(20)" fill="#fff"/>
    </clipPath>
  </defs>
  <g id="Mask_Group_77" data-name="Mask Group 77" transform="translate(-272 -4514)" clip-path="url(#clip-path)">
    <g id="Group_3451" data-name="Group 3451">
      <g id="Group_3450" data-name="Group 3450">
        <g id="Ellipse_25" data-name="Ellipse 25" transform="translate(274.568 4516.471)" fill="none" stroke="#010101" stroke-width="4">
          <ellipse cx="30.626" cy="30.626" rx="30.626" ry="30.626" stroke="none"/>
          <ellipse cx="30.626" cy="30.626" rx="28.626" ry="28.626" fill="none"/>
        </g>
        <g id="Mask_Group_9" data-name="Mask Group 9" transform="translate(283.122 4511.301)" clip-path="url(#clip-path-2)">
          <g id="Path_17753" data-name="Path 17753" transform="translate(-8.554 5.17)" fill="none">
            <path d="M30.626,0A30.745,30.745,0,0,1,51.574,8.284,30.626,30.626,0,1,1,30.626,0Z" stroke="none"/>
            <path d="M 30.6263542175293 3.999992370605469 C 27.03005981445312 3.999992370605469 23.54346084594727 4.703441619873047 20.26340103149414 6.090782165527344 C 17.09323501586914 7.431652069091797 14.24528503417969 9.352062225341797 11.79868316650391 11.79867553710938 C 9.352073669433594 14.24528884887695 7.431659698486328 17.09323883056641 6.090789794921875 20.2634162902832 C 4.703449249267578 23.54346466064453 4 27.03007507324219 4 30.62636947631836 C 4 34.22267532348633 4.703449249267578 37.70927429199219 6.090789794921875 40.98933410644531 C 7.431659698486328 44.15950012207031 9.352073669433594 47.00745391845703 11.79868316650391 49.45405197143555 C 14.24528503417969 51.90066528320312 17.09323501586914 53.82107543945312 20.26340103149414 55.16194534301758 C 23.54346084594727 56.54928588867188 27.03005981445312 57.25273513793945 30.6263542175293 57.25273513793945 C 34.22264862060547 57.25273513793945 37.70924758911133 56.54928588867188 40.98930740356445 55.16194534301758 C 44.15946960449219 53.82107543945312 47.00742340087891 51.90066528320312 49.45402526855469 49.45405197143555 C 51.900634765625 47.00745391845703 53.82104873657227 44.15950012207031 55.16191864013672 40.98933410644531 C 56.54925918579102 37.70927429199219 57.25270843505859 34.22267532348633 57.25270843505859 30.62636947631836 C 57.25270843505859 26.83267593383789 56.47762298583984 23.16615676879883 54.94897842407227 19.72868728637695 C 53.5087776184082 16.49008560180664 51.40808486938477 13.55314636230469 48.87226104736328 11.23377990722656 C 46.33792114257812 8.913028717041016 43.50434112548828 7.114475250244141 40.45027160644531 5.888050079345703 C 37.33043670654297 4.635227203369141 34.02519989013672 3.999992370605469 30.6263542175293 3.999992370605469 M 30.6263542175293 -7.62939453125e-06 C 38.59302520751953 -7.62939453125e-06 45.84923553466797 3.041828155517578 51.57363891601562 8.283767700195312 C 57.41553115844727 13.62699127197266 61.25270843505859 21.67856979370117 61.25270843505859 30.62636947631836 C 61.25270843505859 47.54085159301758 47.54082489013672 61.25273513793945 30.6263542175293 61.25273513793945 C 13.71188354492188 61.25273513793945 0 47.54085159301758 0 30.62636947631836 C 0 13.71189880371094 13.71188354492188 -7.62939453125e-06 30.6263542175293 -7.62939453125e-06 Z" stroke="none" fill="#f06724"/>
          </g>
        </g>
        <g id="graduate-student-avatar" transform="translate(240.397 4529.196)">
          <g id="Group_354" data-name="Group 354" transform="translate(52.032 0)">
            <g id="Group_353" data-name="Group 353" transform="translate(0 0)">
              <path id="Path_17762" data-name="Path 17762" d="M74.98,256.685a2.462,2.462,0,0,0-1.4-1.2l-3.823-1.761-1.837-1.549-2.952,2.936h0l1.274,8.515a.112.112,0,0,1-.02.083l-1.332,1.823a.113.113,0,0,1-.182,0l-1.332-1.823a.112.112,0,0,1-.02-.083l1.274-8.515h0l-2.951-2.936-1.837,1.549-3.824,1.761a2.484,2.484,0,0,0-1.4,1.2s-4.156,9.895-1.9,9.895h24.18C79.136,266.58,74.98,256.685,74.98,256.685Z" transform="translate(-52.032 -233.249)" fill="#f06724"/>
              <path id="Path_17763" data-name="Path 17763" d="M99.188,9.87a.213.213,0,0,0,.191-.237q-.064-.548-.128-1.1l-.089-.765a.213.213,0,0,0-.231-.187h-.165l0-2.567.087-.031.289-.1a.617.617,0,0,0,0-1.16L88.944.037a.616.616,0,0,0-.419,0l-10.2,3.686a.617.617,0,0,0,0,1.16l3.771,1.363a9.223,9.223,0,0,0-.376,2.874c.066,6.11,3.613,9.754,6.9,9.754,3.244,0,6.829-3.644,6.895-9.754a9.313,9.313,0,0,0-.353-2.8L97.9,5.333,97.9,7.587h-.166a.213.213,0,0,0-.23.188l-.214,1.861a.213.213,0,0,0,.046.158.21.21,0,0,0,.145.078m-8.87,7.519c-2.863,0-4.839-3.354-5.238-6.707-.369-3.1,4.116-3.245,4.377-1.323.08.591-.6,1.224-.521,1.468.379,1.2,6.663-3.932,6.62-.146C93.822,13.353,91.342,17.389,88.614,17.389Z" transform="translate(-75.974 0)" fill="#f06724"/>
            </g>
          </g>
        </g>
      </g>
    </g>
  </g>
</svg>
