<svg xmlns="http://www.w3.org/2000/svg" xmlns:xlink="http://www.w3.org/1999/xlink" width="66" height="66" viewBox="0 0 66 66">
  <defs>
    <clipPath id="clip-path">
      <rect id="Rectangle_1644" data-name="Rectangle 1644" width="66" height="66" transform="translate(1322 4514)" fill="none" stroke="#707070" stroke-width="1"/>
    </clipPath>
    <clipPath id="clip-path-2">
      <rect id="Rectangle_25" data-name="Rectangle 25" width="54.559" height="57.462" transform="matrix(0.974, 0.225, -0.225, 0.974, 20.029, -0.57)" fill="#fff"/>
    </clipPath>
  </defs>
  <g id="Mask_Group_74" data-name="Mask Group 74" transform="translate(-1322 -4514)" clip-path="url(#clip-path)">
    <g id="Group_3445" data-name="Group 3445">
      <g id="Ellipse_28" data-name="Ellipse 28" transform="translate(1324.568 4516.471)" fill="none" stroke="#010101" stroke-width="4">
        <circle cx="30.626" cy="30.626" r="30.626" stroke="none"/>
        <circle cx="30.626" cy="30.626" r="28.626" fill="none"/>
      </g>
      <g id="Mask_Group_12" data-name="Mask Group 12" transform="translate(1333.122 4511.301)" clip-path="url(#clip-path-2)">
        <g id="Path_17761" data-name="Path 17761" transform="translate(-8.554 5.17)" fill="none">
          <path d="M30.626,0A30.745,30.745,0,0,1,51.574,8.284,30.626,30.626,0,1,1,30.626,0Z" stroke="none"/>
          <path d="M 30.6263542175293 3.999992370605469 C 27.03005981445312 3.999992370605469 23.54346084594727 4.703441619873047 20.26340103149414 6.090782165527344 C 17.09323501586914 7.431652069091797 14.24528503417969 9.352062225341797 11.79868316650391 11.79867553710938 C 9.352073669433594 14.24528884887695 7.431659698486328 17.09323883056641 6.090789794921875 20.2634162902832 C 4.703449249267578 23.54346466064453 4 27.03007507324219 4 30.62636947631836 C 4 34.22267532348633 4.703449249267578 37.70927429199219 6.090789794921875 40.98933410644531 C 7.431659698486328 44.15950012207031 9.352073669433594 47.00745391845703 11.79868316650391 49.45405197143555 C 14.24528503417969 51.90066528320312 17.09323501586914 53.82107543945312 20.26340103149414 55.16194534301758 C 23.54346084594727 56.54928588867188 27.03005981445312 57.25273513793945 30.6263542175293 57.25273513793945 C 34.22264862060547 57.25273513793945 37.70924758911133 56.54928588867188 40.98930740356445 55.16194534301758 C 44.15946960449219 53.82107543945312 47.00742340087891 51.90066528320312 49.45402526855469 49.45405197143555 C 51.900634765625 47.00745391845703 53.82104873657227 44.15950012207031 55.16191864013672 40.98933410644531 C 56.54925918579102 37.70927429199219 57.25270843505859 34.22267532348633 57.25270843505859 30.62636947631836 C 57.25270843505859 26.83267593383789 56.47762298583984 23.16615676879883 54.94897842407227 19.72868728637695 C 53.5087776184082 16.49008560180664 51.40808486938477 13.55314636230469 48.87226104736328 11.23377990722656 C 46.33792114257812 8.913028717041016 43.50434112548828 7.114475250244141 40.45027160644531 5.888050079345703 C 37.33043670654297 4.635227203369141 34.02519989013672 3.999992370605469 30.6263542175293 3.999992370605469 M 30.6263542175293 -7.62939453125e-06 C 38.59302520751953 -7.62939453125e-06 45.84923553466797 3.041828155517578 51.57363891601562 8.283767700195312 C 57.41553115844727 13.62699127197266 61.25270843505859 21.67856979370117 61.25270843505859 30.62636947631836 C 61.25270843505859 47.54085159301758 47.54082489013672 61.25273513793945 30.6263542175293 61.25273513793945 C 13.71188354492188 61.25273513793945 0 47.54085159301758 0 30.62636947631836 C 0 13.71189880371094 13.71188354492188 -7.62939453125e-06 30.6263542175293 -7.62939453125e-06 Z" stroke="none" fill="#f06724"/>
        </g>
      </g>
      <g id="transparency" transform="translate(1339.523 4531.523)">
        <g id="Group_369" data-name="Group 369">
          <path id="Path_17772" data-name="Path 17772" d="M19.783,0A12.191,12.191,0,0,0,8.258,8.259,12.17,12.17,0,1,0,23.694,23.7a12.02,12.02,0,0,0,1.7-.722,12.274,12.274,0,0,0,4.232-3.64,1.248,1.248,0,1,0-2.017-1.471,9.694,9.694,0,0,1-3.3,2.855q.035-.462.035-.933A12.183,12.183,0,0,0,12.17,7.614q-.473,0-.937.036a9.672,9.672,0,0,1,18.224,4.52,1.248,1.248,0,1,0,2.5,0A12.183,12.183,0,0,0,19.783,0ZM12.17,29.457A9.672,9.672,0,0,1,7.65,11.233q-.035.464-.036.937a12.183,12.183,0,0,0,12.17,12.17q.469,0,.937-.036A9.683,9.683,0,0,1,12.17,29.457Zm9.673-9.673a9.684,9.684,0,0,1-.182,1.874,9.6,9.6,0,0,1-1.877.186q-.371,0-.735-.028l2.767-2.767Q21.843,19.413,21.843,19.783Zm-.694-3.6-4.964,4.964A9.672,9.672,0,0,1,13.979,19.9L19.9,13.979A9.673,9.673,0,0,1,21.149,16.185Zm-2.99-3.992-5.967,5.967A9.684,9.684,0,0,1,10.88,15.95L15.95,10.88A9.687,9.687,0,0,1,18.159,12.193ZM12.17,10.11q.492,0,.971.048l-2.982,2.982q-.048-.479-.048-.971a9.688,9.688,0,0,1,.183-1.877A9.688,9.688,0,0,1,12.17,10.11Z" fill="#f06724" stroke="#f06724" stroke-width="1"/>
        </g>
      </g>
    </g>
  </g>
</svg>
