<svg id="_001-university" data-name="001-university" xmlns="http://www.w3.org/2000/svg" width="30.029" height="30.03" viewBox="0 0 30.029 30.03">
<g id="Group_685" data-name="Group 685" transform="translate(0 0)">
<g id="Group_684" data-name="Group 684">
<circle id="Ellipse_4056" data-name="Ellipse 4056" cx="1" cy="1" r="1" transform="translate(14 5.145)" fill="#f06724"></circle>
<path id="Path_17939" data-name="Path 17939" d="M29.817,28.184l-2.874-4.106a1.173,1.173,0,0,0-.961-.5H21.29V12.9a1.466,1.466,0,1,1,2.933,0v6.041a1.173,1.173,0,1,0,2.346,0V11.379h2.287a1.173,1.173,0,0,0,1.173-1.173V7.038a1.173,1.173,0,0,0-.716-1.08L15.442.093a1.173,1.173,0,0,0-.915,0L.714,5.959A1.173,1.173,0,0,0,0,7.038v3.167a1.173,1.173,0,0,0,1.173,1.173H3.108v12.67l-.023.03L.212,28.184a1.173,1.173,0,0,0,.961,1.846H28.856a1.173,1.173,0,0,0,.961-1.846ZM2.346,9.033V7.815l12.64-5.368,12.7,5.369V9.033Zm16.6,3.871V23.578H16.012V12.9a1.466,1.466,0,1,1,2.933,0Zm-5.279,0V23.578H10.733V12.9a1.466,1.466,0,1,1,2.933,0Zm-5.279,0V23.578H5.454V12.9a1.466,1.466,0,1,1,2.933,0ZM3.426,27.684l1.232-1.76H25.372l1.232,1.76Z" transform="translate(0 0)" fill="#f06724"></path>
</g>
</g>
</svg>