<svg xmlns="http://www.w3.org/2000/svg" width="34.002" height="33" viewBox="0 0 34.002 33">
                                <g id="Group_3872" data-name="Group 3872" transform="translate(-770 -169)">
                                    <rect id="Rectangle_1962" data-name="Rectangle 1962" width="14" height="19" rx="5" transform="translate(774.002 183) rotate(-90)" fill="#f06724"></rect>
                                    <rect id="Rectangle_1961" data-name="Rectangle 1961" width="13" height="18" rx="5" transform="translate(786.002 194) rotate(-90)" fill="#fcbf19"></rect>
                                    <g id="_008-language" data-name="008-language" transform="translate(770 169.219)">
                                        <path id="Path_21322" data-name="Path 21322" d="M21.833,28.939l5.122,3.841V28.939h5.826V11.589H21.192V0H0V17.351H5.826v3.841l5.122-3.841h.64V28.939Zm9.028-1.921H25.034v1.921l-2.561-1.921H13.509V13.509H30.86ZM10.308,15.43,7.747,17.351V15.43H1.921V1.921H19.272v9.668H15.063l-4.435-8.87-4.7,9.4,1.718.859,1.175-2.35h3.615l.48.96H11.589V15.43Zm1.167-6.723H9.781l.847-1.694Zm0,0" fill="#152e71"></path>
                                        <path id="Path_21323" data-name="Path 21323" d="M274.455,247.364a4.972,4.972,0,0,1-2.495,1.319V250.6a6.791,6.791,0,0,0,3.841-1.865,6.791,6.791,0,0,0,3.842,1.865v-1.921a4.972,4.972,0,0,1-2.495-1.319,7.026,7.026,0,0,0,1.4-2.523H280.6v-1.921h-3.841V241h-1.921v1.921H271v1.921h2.054A7.026,7.026,0,0,0,274.455,247.364Zm1.347-1.389a5.923,5.923,0,0,1-.709-1.135h1.418A5.922,5.922,0,0,1,275.8,245.976Zm0,0" transform="translate(-253.649 -225.57)" fill="#152e71"></path>
                                    </g>
                                </g>
                            </svg>