<svg xmlns="http://www.w3.org/2000/svg" width="33.157" height="33.157"
    viewBox="0 0 33.157 33.157">
    <g id="Group_3925" data-name="Group 3925"
        transform="translate(-275.354 -893.583)">
        <rect id="Rectangle_2002" data-name="Rectangle 2002" width="16" height="24"
            rx="8" transform="translate(282 898)" fill="#fcbf19" />
        <g id="Group_3923" data-name="Group 3923" transform="translate(112 147)">
            <path id="Path_21375" data-name="Path 21375"
                d="M-15089.339,9486.649c.336-.2,6.888-6.888,6.888-6.888l3.731,3.731-6.879,6.879Z"
                transform="translate(15266 -8723)" fill="#f06724" />
            <path id="Path_21376" data-name="Path 21376"
                d="M-15089.339,9484.6c.256-.142,5.238-4.84,5.238-4.84l2.838,2.622-5.231,4.833Z"
                transform="translate(15255 -8711.845)" fill="#fcbf19" />
            <g id="_002-healthcare-and-medical"
                data-name="002-healthcare-and-medical"
                transform="translate(163.354 746.583)">
                <path id="Path_21369" data-name="Path 21369"
                    d="M5.779,32.872A.971.971,0,0,0,7.153,31.5l-.687-.687,2.748-2.748,2.748,2.748a.971.971,0,0,0,1.374-1.374l-1.374-1.374L23.638,16.387a2.914,2.914,0,0,0,.57-3.317l2.178-2.178a2.919,2.919,0,0,0,.569-3.316l5.918-5.918A.971.971,0,1,0,31.5.284L25.58,6.2a2.919,2.919,0,0,0-3.316.569L20.086,8.948a2.914,2.914,0,0,0-3.317.57L5.092,21.195,3.718,19.821a.971.971,0,1,0-1.374,1.374l2.748,2.747L2.345,26.69,1.658,26A.971.971,0,0,0,.284,27.377l5.5,5.5ZM23.638,8.144a.971.971,0,0,1,1.374,1.374l-2.061,2.061L21.577,10.2Zm-4.121,2.748,2.748,2.747a.971.971,0,0,1,0,1.374l-6.182,6.182-4.121-4.121L13.335,15.7l.687.687A.971.971,0,1,0,15.4,15.013l-.687-.687,1.374-1.374.687.687a.971.971,0,0,0,1.374-1.374l-.687-.687.687-.687a.971.971,0,0,1,1.374,0ZM7.84,21.195l.687.687A.971.971,0,1,0,9.9,20.508l-.687-.687,1.374-1.374,4.121,4.121L10.587,26.69,6.466,22.569ZM6.466,25.316,7.84,26.69,5.092,29.437,3.718,28.064Z"
                    transform="translate(0.001 0.001)" fill="#152e71" />
            </g>
        </g>
    </g>
</svg>