<svg xmlns="http://www.w3.org/2000/svg" width="32.121" height="28.232" viewBox="0 0 32.121 28.232">
    <g id="Group_3927" data-name="Group 3927" transform="translate(-191.66 -750.55)">
        <g id="Group_3926" data-name="Group 3926">
            <rect id="Rectangle_2004" data-name="Rectangle 2004" width="24" height="13" rx="2" transform="translate(198 761)" fill="#fcbf19"></rect>
            <path id="Path_21377" data-name="Path 21377" d="M6.671.122,23.349-.586c2.674,0,4.842,1.081,4.842,2.415l-2.152,4.33c0,1.334-2.168,2.415-4.842,2.415H6.671C4,8.574,1.829,7.493,1.829,6.159l-3.116-4.33C-1.287.5,4,.122,6.671.122Z" transform="translate(195 755)" fill="#f06724"></path>
            <path id="portfolio" d="M31.186,3.764H22.648V2.823A2.826,2.826,0,0,0,19.825,0H12.3A2.826,2.826,0,0,0,9.473,2.823v.941H.941A.943.943,0,0,0,0,4.705v20.7a2.826,2.826,0,0,0,2.823,2.823H29.3a2.826,2.826,0,0,0,2.823-2.823V4.721A.914.914,0,0,0,31.186,3.764ZM11.355,2.823a.942.942,0,0,1,.941-.941h7.528a.942.942,0,0,1,.941.941v.941H11.355ZM29.874,5.646l-2.922,8.767a.939.939,0,0,1-.893.644H20.766v-.941a.941.941,0,0,0-.941-.941H12.3a.941.941,0,0,0-.941.941v.941H6.062a.939.939,0,0,1-.893-.644L2.247,5.646ZM18.884,15.057v1.882H13.237V15.057ZM30.239,25.408a.942.942,0,0,1-.941.941H2.823a.942.942,0,0,1-.941-.941V10.5l1.5,4.5a2.819,2.819,0,0,0,2.678,1.93h5.294v.941a.941.941,0,0,0,.941.941h7.528a.941.941,0,0,0,.941-.941v-.941H26.06a2.819,2.819,0,0,0,2.678-1.93l1.5-4.5Zm0,0" transform="translate(191.66 750.55)" fill="#152e71"></path>
        </g>
    </g>
</svg>